<?xml version="1.0" encoding="utf-8"?>
<svg xmlns="http://www.w3.org/2000/svg" xmlns:xlink="http://www.w3.org/1999/xlink" width="600" height="400" viewBox="0 0 2400 1600">
<defs>
  <clipPath id="clip510">
    <rect x="0" y="0" width="2400" height="1600"/>
  </clipPath>
</defs>
<path clip-path="url(#clip510)" d="M0 1600 L2400 1600 L2400 0 L0 0  Z" fill="#ffffff" fill-rule="evenodd" fill-opacity="1"/>
<defs>
  <clipPath id="clip511">
    <rect x="480" y="0" width="1681" height="1600"/>
  </clipPath>
</defs>
<path clip-path="url(#clip510)" d="M141.853 1486.45 L2112.76 1486.45 L2112.76 47.2441 L141.853 47.2441  Z" fill="#ffffff" fill-rule="evenodd" fill-opacity="1"/>
<defs>
  <clipPath id="clip512">
    <rect x="141" y="47" width="1972" height="1440"/>
  </clipPath>
</defs>
<polyline clip-path="url(#clip512)" style="stroke:#000000; stroke-linecap:round; stroke-linejoin:round; stroke-width:2; stroke-opacity:0.1; fill:none" points="520.107,1486.45 520.107,47.2441 "/>
<polyline clip-path="url(#clip512)" style="stroke:#000000; stroke-linecap:round; stroke-linejoin:round; stroke-width:2; stroke-opacity:0.1; fill:none" points="918.269,1486.45 918.269,47.2441 "/>
<polyline clip-path="url(#clip512)" style="stroke:#000000; stroke-linecap:round; stroke-linejoin:round; stroke-width:2; stroke-opacity:0.1; fill:none" points="1316.43,1486.45 1316.43,47.2441 "/>
<polyline clip-path="url(#clip512)" style="stroke:#000000; stroke-linecap:round; stroke-linejoin:round; stroke-width:2; stroke-opacity:0.1; fill:none" points="1714.59,1486.45 1714.59,47.2441 "/>
<polyline clip-path="url(#clip512)" style="stroke:#000000; stroke-linecap:round; stroke-linejoin:round; stroke-width:2; stroke-opacity:0.1; fill:none" points="2112.76,1486.45 2112.76,47.2441 "/>
<polyline clip-path="url(#clip510)" style="stroke:#000000; stroke-linecap:round; stroke-linejoin:round; stroke-width:4; stroke-opacity:1; fill:none" points="141.853,1486.45 2112.76,1486.45 "/>
<polyline clip-path="url(#clip510)" style="stroke:#000000; stroke-linecap:round; stroke-linejoin:round; stroke-width:4; stroke-opacity:1; fill:none" points="520.107,1486.45 520.107,1467.55 "/>
<polyline clip-path="url(#clip510)" style="stroke:#000000; stroke-linecap:round; stroke-linejoin:round; stroke-width:4; stroke-opacity:1; fill:none" points="918.269,1486.45 918.269,1467.55 "/>
<polyline clip-path="url(#clip510)" style="stroke:#000000; stroke-linecap:round; stroke-linejoin:round; stroke-width:4; stroke-opacity:1; fill:none" points="1316.43,1486.45 1316.43,1467.55 "/>
<polyline clip-path="url(#clip510)" style="stroke:#000000; stroke-linecap:round; stroke-linejoin:round; stroke-width:4; stroke-opacity:1; fill:none" points="1714.59,1486.45 1714.59,1467.55 "/>
<polyline clip-path="url(#clip510)" style="stroke:#000000; stroke-linecap:round; stroke-linejoin:round; stroke-width:4; stroke-opacity:1; fill:none" points="2112.76,1486.45 2112.76,1467.55 "/>
<path clip-path="url(#clip510)" d="M498.88 1544.91 L515.2 1544.91 L515.2 1548.85 L493.255 1548.85 L493.255 1544.91 Q495.917 1542.16 500.501 1537.53 Q505.107 1532.88 506.288 1531.53 Q508.533 1529.01 509.413 1527.27 Q510.315 1525.51 510.315 1523.82 Q510.315 1521.07 508.371 1519.33 Q506.45 1517.6 503.348 1517.6 Q501.149 1517.6 498.695 1518.36 Q496.265 1519.13 493.487 1520.68 L493.487 1515.95 Q496.311 1514.82 498.765 1514.24 Q501.218 1513.66 503.255 1513.66 Q508.626 1513.66 511.82 1516.35 Q515.014 1519.03 515.014 1523.52 Q515.014 1525.65 514.204 1527.57 Q513.417 1529.47 511.311 1532.07 Q510.732 1532.74 507.63 1535.95 Q504.528 1539.15 498.88 1544.91 Z" fill="#000000" fill-rule="evenodd" fill-opacity="1" /><path clip-path="url(#clip510)" d="M535.014 1517.37 Q531.403 1517.37 529.575 1520.93 Q527.769 1524.47 527.769 1531.6 Q527.769 1538.71 529.575 1542.27 Q531.403 1545.82 535.014 1545.82 Q538.649 1545.82 540.454 1542.27 Q542.283 1538.71 542.283 1531.6 Q542.283 1524.47 540.454 1520.93 Q538.649 1517.37 535.014 1517.37 M535.014 1513.66 Q540.825 1513.66 543.88 1518.27 Q546.959 1522.85 546.959 1531.6 Q546.959 1540.33 543.88 1544.94 Q540.825 1549.52 535.014 1549.52 Q529.204 1549.52 526.126 1544.94 Q523.07 1540.33 523.07 1531.6 Q523.07 1522.85 526.126 1518.27 Q529.204 1513.66 535.014 1513.66 Z" fill="#000000" fill-rule="evenodd" fill-opacity="1" /><path clip-path="url(#clip510)" d="M906.441 1518.36 L894.635 1536.81 L906.441 1536.81 L906.441 1518.36 M905.214 1514.29 L911.093 1514.29 L911.093 1536.81 L916.024 1536.81 L916.024 1540.7 L911.093 1540.7 L911.093 1548.85 L906.441 1548.85 L906.441 1540.7 L890.839 1540.7 L890.839 1536.19 L905.214 1514.29 Z" fill="#000000" fill-rule="evenodd" fill-opacity="1" /><path clip-path="url(#clip510)" d="M933.755 1517.37 Q930.144 1517.37 928.316 1520.93 Q926.51 1524.47 926.51 1531.6 Q926.51 1538.71 928.316 1542.27 Q930.144 1545.82 933.755 1545.82 Q937.39 1545.82 939.195 1542.27 Q941.024 1538.71 941.024 1531.6 Q941.024 1524.47 939.195 1520.93 Q937.39 1517.37 933.755 1517.37 M933.755 1513.66 Q939.565 1513.66 942.621 1518.27 Q945.7 1522.85 945.7 1531.6 Q945.7 1540.33 942.621 1544.94 Q939.565 1549.52 933.755 1549.52 Q927.945 1549.52 924.866 1544.94 Q921.811 1540.33 921.811 1531.6 Q921.811 1522.85 924.866 1518.27 Q927.945 1513.66 933.755 1513.66 Z" fill="#000000" fill-rule="evenodd" fill-opacity="1" /><path clip-path="url(#clip510)" d="M1301.84 1529.7 Q1298.69 1529.7 1296.84 1531.86 Q1295.01 1534.01 1295.01 1537.76 Q1295.01 1541.49 1296.84 1543.66 Q1298.69 1545.82 1301.84 1545.82 Q1304.98 1545.82 1306.81 1543.66 Q1308.67 1541.49 1308.67 1537.76 Q1308.67 1534.01 1306.81 1531.86 Q1304.98 1529.7 1301.84 1529.7 M1311.12 1515.05 L1311.12 1519.31 Q1309.36 1518.48 1307.55 1518.04 Q1305.77 1517.6 1304.01 1517.6 Q1299.38 1517.6 1296.93 1520.72 Q1294.5 1523.85 1294.15 1530.17 Q1295.52 1528.15 1297.58 1527.09 Q1299.64 1526 1302.11 1526 Q1307.32 1526 1310.33 1529.17 Q1313.36 1532.32 1313.36 1537.76 Q1313.36 1543.08 1310.22 1546.3 Q1307.07 1549.52 1301.84 1549.52 Q1295.84 1549.52 1292.67 1544.94 Q1289.5 1540.33 1289.5 1531.6 Q1289.5 1523.41 1293.39 1518.55 Q1297.28 1513.66 1303.83 1513.66 Q1305.59 1513.66 1307.37 1514.01 Q1309.17 1514.36 1311.12 1515.05 Z" fill="#000000" fill-rule="evenodd" fill-opacity="1" /><path clip-path="url(#clip510)" d="M1331.42 1517.37 Q1327.81 1517.37 1325.98 1520.93 Q1324.17 1524.47 1324.17 1531.6 Q1324.17 1538.71 1325.98 1542.27 Q1327.81 1545.82 1331.42 1545.82 Q1335.05 1545.82 1336.86 1542.27 Q1338.69 1538.71 1338.69 1531.6 Q1338.69 1524.47 1336.86 1520.93 Q1335.05 1517.37 1331.42 1517.37 M1331.42 1513.66 Q1337.23 1513.66 1340.29 1518.27 Q1343.36 1522.85 1343.36 1531.6 Q1343.36 1540.33 1340.29 1544.94 Q1337.23 1549.52 1331.42 1549.52 Q1325.61 1549.52 1322.53 1544.94 Q1319.48 1540.33 1319.48 1531.6 Q1319.48 1522.85 1322.53 1518.27 Q1325.61 1513.66 1331.42 1513.66 Z" fill="#000000" fill-rule="evenodd" fill-opacity="1" /><path clip-path="url(#clip510)" d="M1699.47 1532.44 Q1696.13 1532.44 1694.21 1534.22 Q1692.31 1536 1692.31 1539.13 Q1692.31 1542.25 1694.21 1544.03 Q1696.13 1545.82 1699.47 1545.82 Q1702.8 1545.82 1704.72 1544.03 Q1706.64 1542.23 1706.64 1539.13 Q1706.64 1536 1704.72 1534.22 Q1702.82 1532.44 1699.47 1532.44 M1694.79 1530.45 Q1691.78 1529.7 1690.09 1527.64 Q1688.42 1525.58 1688.42 1522.62 Q1688.42 1518.48 1691.36 1516.07 Q1694.33 1513.66 1699.47 1513.66 Q1704.63 1513.66 1707.57 1516.07 Q1710.51 1518.48 1710.51 1522.62 Q1710.51 1525.58 1708.82 1527.64 Q1707.15 1529.7 1704.17 1530.45 Q1707.55 1531.23 1709.42 1533.52 Q1711.32 1535.82 1711.32 1539.13 Q1711.32 1544.15 1708.24 1546.83 Q1705.18 1549.52 1699.47 1549.52 Q1693.75 1549.52 1690.67 1546.83 Q1687.61 1544.15 1687.61 1539.13 Q1687.61 1535.82 1689.51 1533.52 Q1691.41 1531.23 1694.79 1530.45 M1693.08 1523.06 Q1693.08 1525.75 1694.74 1527.25 Q1696.43 1528.76 1699.47 1528.76 Q1702.48 1528.76 1704.17 1527.25 Q1705.88 1525.75 1705.88 1523.06 Q1705.88 1520.38 1704.17 1518.87 Q1702.48 1517.37 1699.47 1517.37 Q1696.43 1517.37 1694.74 1518.87 Q1693.08 1520.38 1693.08 1523.06 Z" fill="#000000" fill-rule="evenodd" fill-opacity="1" /><path clip-path="url(#clip510)" d="M1729.63 1517.37 Q1726.02 1517.37 1724.19 1520.93 Q1722.38 1524.47 1722.38 1531.6 Q1722.38 1538.71 1724.19 1542.27 Q1726.02 1545.82 1729.63 1545.82 Q1733.26 1545.82 1735.07 1542.27 Q1736.9 1538.71 1736.9 1531.6 Q1736.9 1524.47 1735.07 1520.93 Q1733.26 1517.37 1729.63 1517.37 M1729.63 1513.66 Q1735.44 1513.66 1738.49 1518.27 Q1741.57 1522.85 1741.57 1531.6 Q1741.57 1540.33 1738.49 1544.94 Q1735.44 1549.52 1729.63 1549.52 Q1723.82 1549.52 1720.74 1544.94 Q1717.68 1540.33 1717.68 1531.6 Q1717.68 1522.85 1720.74 1518.27 Q1723.82 1513.66 1729.63 1513.66 Z" fill="#000000" fill-rule="evenodd" fill-opacity="1" /><path clip-path="url(#clip510)" d="M2072.36 1544.91 L2080 1544.91 L2080 1518.55 L2071.69 1520.21 L2071.69 1515.95 L2079.96 1514.29 L2084.63 1514.29 L2084.63 1544.91 L2092.27 1544.91 L2092.27 1548.85 L2072.36 1548.85 L2072.36 1544.91 Z" fill="#000000" fill-rule="evenodd" fill-opacity="1" /><path clip-path="url(#clip510)" d="M2111.71 1517.37 Q2108.1 1517.37 2106.27 1520.93 Q2104.47 1524.47 2104.47 1531.6 Q2104.47 1538.71 2106.27 1542.27 Q2108.1 1545.82 2111.71 1545.82 Q2115.35 1545.82 2117.15 1542.27 Q2118.98 1538.71 2118.98 1531.6 Q2118.98 1524.47 2117.15 1520.93 Q2115.35 1517.37 2111.71 1517.37 M2111.71 1513.66 Q2117.52 1513.66 2120.58 1518.27 Q2123.66 1522.85 2123.66 1531.6 Q2123.66 1540.33 2120.58 1544.94 Q2117.52 1549.52 2111.71 1549.52 Q2105.9 1549.52 2102.83 1544.94 Q2099.77 1540.33 2099.77 1531.6 Q2099.77 1522.85 2102.83 1518.27 Q2105.9 1513.66 2111.71 1513.66 Z" fill="#000000" fill-rule="evenodd" fill-opacity="1" /><path clip-path="url(#clip510)" d="M2141.88 1517.37 Q2138.27 1517.37 2136.44 1520.93 Q2134.63 1524.47 2134.63 1531.6 Q2134.63 1538.71 2136.44 1542.27 Q2138.27 1545.82 2141.88 1545.82 Q2145.51 1545.82 2147.32 1542.27 Q2149.14 1538.71 2149.14 1531.6 Q2149.14 1524.47 2147.32 1520.93 Q2145.51 1517.37 2141.88 1517.37 M2141.88 1513.66 Q2147.69 1513.66 2150.74 1518.27 Q2153.82 1522.85 2153.82 1531.6 Q2153.82 1540.33 2150.74 1544.94 Q2147.69 1549.52 2141.88 1549.52 Q2136.07 1549.52 2132.99 1544.94 Q2129.93 1540.33 2129.93 1531.6 Q2129.93 1522.85 2132.99 1518.27 Q2136.07 1513.66 2141.88 1513.66 Z" fill="#000000" fill-rule="evenodd" fill-opacity="1" /><polyline clip-path="url(#clip512)" style="stroke:#000000; stroke-linecap:round; stroke-linejoin:round; stroke-width:2; stroke-opacity:0.1; fill:none" points="141.853,1222.1 2112.76,1222.1 "/>
<polyline clip-path="url(#clip512)" style="stroke:#000000; stroke-linecap:round; stroke-linejoin:round; stroke-width:2; stroke-opacity:0.1; fill:none" points="141.853,928.389 2112.76,928.389 "/>
<polyline clip-path="url(#clip512)" style="stroke:#000000; stroke-linecap:round; stroke-linejoin:round; stroke-width:2; stroke-opacity:0.1; fill:none" points="141.853,634.674 2112.76,634.674 "/>
<polyline clip-path="url(#clip512)" style="stroke:#000000; stroke-linecap:round; stroke-linejoin:round; stroke-width:2; stroke-opacity:0.1; fill:none" points="141.853,340.959 2112.76,340.959 "/>
<polyline clip-path="url(#clip512)" style="stroke:#000000; stroke-linecap:round; stroke-linejoin:round; stroke-width:2; stroke-opacity:0.1; fill:none" points="141.853,47.2441 2112.76,47.2441 "/>
<polyline clip-path="url(#clip510)" style="stroke:#000000; stroke-linecap:round; stroke-linejoin:round; stroke-width:4; stroke-opacity:1; fill:none" points="141.853,1486.45 141.853,47.2441 "/>
<polyline clip-path="url(#clip510)" style="stroke:#000000; stroke-linecap:round; stroke-linejoin:round; stroke-width:4; stroke-opacity:1; fill:none" points="141.853,1222.1 158.699,1222.1 "/>
<polyline clip-path="url(#clip510)" style="stroke:#000000; stroke-linecap:round; stroke-linejoin:round; stroke-width:4; stroke-opacity:1; fill:none" points="141.853,928.389 158.699,928.389 "/>
<polyline clip-path="url(#clip510)" style="stroke:#000000; stroke-linecap:round; stroke-linejoin:round; stroke-width:4; stroke-opacity:1; fill:none" points="141.853,634.674 158.699,634.674 "/>
<polyline clip-path="url(#clip510)" style="stroke:#000000; stroke-linecap:round; stroke-linejoin:round; stroke-width:4; stroke-opacity:1; fill:none" points="141.853,340.959 158.699,340.959 "/>
<polyline clip-path="url(#clip510)" style="stroke:#000000; stroke-linecap:round; stroke-linejoin:round; stroke-width:4; stroke-opacity:1; fill:none" points="141.853,47.2441 158.699,47.2441 "/>
<path clip-path="url(#clip510)" d="M54.5569 1235.45 L62.1958 1235.45 L62.1958 1209.08 L53.8856 1210.75 L53.8856 1206.49 L62.1495 1204.82 L66.8254 1204.82 L66.8254 1235.45 L74.4642 1235.45 L74.4642 1239.38 L54.5569 1239.38 L54.5569 1235.45 Z" fill="#000000" fill-rule="evenodd" fill-opacity="1" /><path clip-path="url(#clip510)" d="M93.9086 1207.9 Q90.2975 1207.9 88.4688 1211.47 Q86.6632 1215.01 86.6632 1222.14 Q86.6632 1229.25 88.4688 1232.81 Q90.2975 1236.35 93.9086 1236.35 Q97.5428 1236.35 99.3483 1232.81 Q101.177 1229.25 101.177 1222.14 Q101.177 1215.01 99.3483 1211.47 Q97.5428 1207.9 93.9086 1207.9 M93.9086 1204.2 Q99.7187 1204.2 102.774 1208.81 Q105.853 1213.39 105.853 1222.14 Q105.853 1230.87 102.774 1235.47 Q99.7187 1240.06 93.9086 1240.06 Q88.0984 1240.06 85.0197 1235.47 Q81.9642 1230.87 81.9642 1222.14 Q81.9642 1213.39 85.0197 1208.81 Q88.0984 1204.2 93.9086 1204.2 Z" fill="#000000" fill-rule="evenodd" fill-opacity="1" /><path clip-path="url(#clip510)" d="M57.7745 941.734 L74.0939 941.734 L74.0939 945.669 L52.1495 945.669 L52.1495 941.734 Q54.8115 938.979 59.3949 934.35 Q64.0013 929.697 65.1819 928.355 Q67.4272 925.831 68.3068 924.095 Q69.2096 922.336 69.2096 920.646 Q69.2096 917.892 67.2652 916.156 Q65.3439 914.419 62.2421 914.419 Q60.043 914.419 57.5893 915.183 Q55.1588 915.947 52.381 917.498 L52.381 912.776 Q55.2051 911.642 57.6588 911.063 Q60.1124 910.484 62.1495 910.484 Q67.5198 910.484 70.7142 913.169 Q73.9087 915.855 73.9087 920.345 Q73.9087 922.475 73.0985 924.396 Q72.3115 926.294 70.205 928.887 Q69.6263 929.558 66.5245 932.776 Q63.4226 935.97 57.7745 941.734 Z" fill="#000000" fill-rule="evenodd" fill-opacity="1" /><path clip-path="url(#clip510)" d="M93.9086 914.188 Q90.2975 914.188 88.4688 917.753 Q86.6632 921.294 86.6632 928.424 Q86.6632 935.53 88.4688 939.095 Q90.2975 942.637 93.9086 942.637 Q97.5428 942.637 99.3483 939.095 Q101.177 935.53 101.177 928.424 Q101.177 921.294 99.3483 917.753 Q97.5428 914.188 93.9086 914.188 M93.9086 910.484 Q99.7187 910.484 102.774 915.091 Q105.853 919.674 105.853 928.424 Q105.853 937.151 102.774 941.757 Q99.7187 946.341 93.9086 946.341 Q88.0984 946.341 85.0197 941.757 Q81.9642 937.151 81.9642 928.424 Q81.9642 919.674 85.0197 915.091 Q88.0984 910.484 93.9086 910.484 Z" fill="#000000" fill-rule="evenodd" fill-opacity="1" /><path clip-path="url(#clip510)" d="M67.9133 633.32 Q71.2698 634.038 73.1448 636.306 Q75.0429 638.575 75.0429 641.908 Q75.0429 647.024 71.5244 649.825 Q68.0059 652.626 61.5245 652.626 Q59.3486 652.626 57.0338 652.186 Q54.7421 651.769 52.2884 650.913 L52.2884 646.399 Q54.2328 647.533 56.5477 648.112 Q58.8625 648.69 61.3856 648.69 Q65.7837 648.69 68.0754 646.954 Q70.3902 645.218 70.3902 641.908 Q70.3902 638.852 68.2374 637.139 Q66.1078 635.403 62.2884 635.403 L58.2606 635.403 L58.2606 631.561 L62.4735 631.561 Q65.9226 631.561 67.7513 630.195 Q69.58 628.806 69.58 626.214 Q69.58 623.552 67.6819 622.14 Q65.8069 620.704 62.2884 620.704 Q60.3671 620.704 58.168 621.121 Q55.969 621.538 53.3301 622.417 L53.3301 618.251 Q55.9921 617.51 58.3069 617.14 Q60.6449 616.769 62.705 616.769 Q68.0291 616.769 71.1309 619.2 Q74.2327 621.607 74.2327 625.727 Q74.2327 628.598 72.5892 630.589 Q70.9457 632.556 67.9133 633.32 Z" fill="#000000" fill-rule="evenodd" fill-opacity="1" /><path clip-path="url(#clip510)" d="M93.9086 620.473 Q90.2975 620.473 88.4688 624.038 Q86.6632 627.579 86.6632 634.709 Q86.6632 641.815 88.4688 645.38 Q90.2975 648.922 93.9086 648.922 Q97.5428 648.922 99.3483 645.38 Q101.177 641.815 101.177 634.709 Q101.177 627.579 99.3483 624.038 Q97.5428 620.473 93.9086 620.473 M93.9086 616.769 Q99.7187 616.769 102.774 621.376 Q105.853 625.959 105.853 634.709 Q105.853 643.436 102.774 648.042 Q99.7187 652.626 93.9086 652.626 Q88.0984 652.626 85.0197 648.042 Q81.9642 643.436 81.9642 634.709 Q81.9642 625.959 85.0197 621.376 Q88.0984 616.769 93.9086 616.769 Z" fill="#000000" fill-rule="evenodd" fill-opacity="1" /><path clip-path="url(#clip510)" d="M66.5939 327.753 L54.7884 346.202 L66.5939 346.202 L66.5939 327.753 M65.367 323.679 L71.2466 323.679 L71.2466 346.202 L76.1772 346.202 L76.1772 350.091 L71.2466 350.091 L71.2466 358.239 L66.5939 358.239 L66.5939 350.091 L50.9921 350.091 L50.9921 345.577 L65.367 323.679 Z" fill="#000000" fill-rule="evenodd" fill-opacity="1" /><path clip-path="url(#clip510)" d="M93.9086 326.758 Q90.2975 326.758 88.4688 330.323 Q86.6632 333.864 86.6632 340.994 Q86.6632 348.1 88.4688 351.665 Q90.2975 355.207 93.9086 355.207 Q97.5428 355.207 99.3483 351.665 Q101.177 348.1 101.177 340.994 Q101.177 333.864 99.3483 330.323 Q97.5428 326.758 93.9086 326.758 M93.9086 323.054 Q99.7187 323.054 102.774 327.661 Q105.853 332.244 105.853 340.994 Q105.853 349.721 102.774 354.327 Q99.7187 358.91 93.9086 358.91 Q88.0984 358.91 85.0197 354.327 Q81.9642 349.721 81.9642 340.994 Q81.9642 332.244 85.0197 327.661 Q88.0984 323.054 93.9086 323.054 Z" fill="#000000" fill-rule="evenodd" fill-opacity="1" /><path clip-path="url(#clip510)" d="M53.793 29.9641 L72.1494 29.9641 L72.1494 33.8993 L58.0754 33.8993 L58.0754 42.3714 Q59.0939 42.0242 60.1124 41.8622 Q61.131 41.677 62.1495 41.677 Q67.9365 41.677 71.3161 44.8483 Q74.6957 48.0196 74.6957 53.4362 Q74.6957 59.0149 71.2235 62.1167 Q67.7513 65.1954 61.4319 65.1954 Q59.256 65.1954 56.9875 64.825 Q54.7421 64.4547 52.3347 63.7139 L52.3347 59.0149 Q54.418 60.1491 56.6402 60.7047 Q58.8625 61.2602 61.3393 61.2602 Q65.3439 61.2602 67.6819 59.1538 Q70.0198 57.0473 70.0198 53.4362 Q70.0198 49.8251 67.6819 47.7186 Q65.3439 45.6122 61.3393 45.6122 Q59.4643 45.6122 57.5893 46.0288 Q55.7375 46.4455 53.793 47.3251 L53.793 29.9641 Z" fill="#000000" fill-rule="evenodd" fill-opacity="1" /><path clip-path="url(#clip510)" d="M93.9086 33.0428 Q90.2975 33.0428 88.4688 36.6076 Q86.6632 40.1492 86.6632 47.2788 Q86.6632 54.3853 88.4688 57.9501 Q90.2975 61.4917 93.9086 61.4917 Q97.5428 61.4917 99.3483 57.9501 Q101.177 54.3853 101.177 47.2788 Q101.177 40.1492 99.3483 36.6076 Q97.5428 33.0428 93.9086 33.0428 M93.9086 29.3391 Q99.7187 29.3391 102.774 33.9456 Q105.853 38.5289 105.853 47.2788 Q105.853 56.0056 102.774 60.6121 Q99.7187 65.1954 93.9086 65.1954 Q88.0984 65.1954 85.0197 60.6121 Q81.9642 56.0056 81.9642 47.2788 Q81.9642 38.5289 85.0197 33.9456 Q88.0984 29.3391 93.9086 29.3391 Z" fill="#000000" fill-rule="evenodd" fill-opacity="1" /><polyline clip-path="url(#clip512)" style="stroke:#6e186e; stroke-linecap:round; stroke-linejoin:round; stroke-width:4; stroke-opacity:1; fill:none" points="141.853,1176.09 161.761,1174.52 181.669,1169.83 198.185,1163.36 201.577,1161.98 221.485,1150.7 241.393,1136.3 244.026,1133.99 261.302,1117.66 273.103,1104.62 281.21,1094.48 294.706,1075.25 301.118,1064.17 310.589,1045.88 321.026,1018.37 321.67,1016.5 327.35,987.132 327.819,957.761 322.329,928.389 321.026,925.245 309.066,899.018 301.118,888.17 285.95,869.646 281.21,865.546 261.302,850.437 245.64,840.275 241.393,838.178 221.485,830.066 201.577,823.713 181.669,819.153 161.761,816.407 141.853,815.49 "/>
<polyline clip-path="url(#clip512)" style="stroke:#88216a; stroke-linecap:round; stroke-linejoin:round; stroke-width:4; stroke-opacity:1; fill:none" points="141.853,630.959 161.761,631.264 181.669,632.176 201.577,633.692 210.838,634.674 221.485,635.932 241.393,638.935 261.302,642.575 281.21,646.831 301.118,651.683 321.026,657.105 340.934,663.07 343.934,664.046 360.842,670.246 380.75,678.084 400.658,686.419 416.511,693.417 420.566,695.463 440.475,705.971 460.383,716.886 470.815,722.789 480.291,729.016 500.199,742.432 514.36,752.16 520.107,756.837 540.015,773.255 549.976,781.532 559.923,791.569 579.048,810.903 579.831,811.897 599.739,837.052 602.316,840.275 619.648,868.771 620.188,869.646 633.048,899.018 639.556,922.902 641.085,928.389 644.775,957.761 644.46,987.132 640.642,1016.5 639.556,1021.19 633.958,1045.88 624.871,1075.25 619.648,1089.17 613.944,1104.62 601.679,1133.99 599.739,1138.3 588.568,1163.36 579.831,1182.23 574.991,1192.73 561.364,1222.1 559.923,1225.28 548.021,1251.48 540.015,1270.03 535.31,1280.85 523.543,1310.22 520.107,1319.86 512.979,1339.59 503.94,1368.96 500.199,1384.11 496.616,1398.33 491.21,1427.7 487.917,1457.08 486.811,1486.45 "/>
<polyline clip-path="url(#clip512)" style="stroke:#a12b61; stroke-linecap:round; stroke-linejoin:round; stroke-width:4; stroke-opacity:1; fill:none" points="808.167,1486.45 810.039,1457.08 815.612,1427.7 818.729,1417.7 825.642,1398.33 838.637,1371.73 840.236,1368.96 858.545,1343.57 862.113,1339.59 878.453,1324.07 898.074,1310.22 898.361,1310.04 918.269,1302.06 938.177,1298.81 958.085,1300.46 977.994,1307.16 983.117,1310.22 997.902,1320.15 1017.81,1339.51 1017.88,1339.59 1037.44,1368.96 1037.72,1369.47 1050.13,1398.33 1057.63,1422.18 1059.08,1427.7 1063.77,1457.08 1065.35,1486.45 "/>
<polyline clip-path="url(#clip512)" style="stroke:#88216a; stroke-linecap:round; stroke-linejoin:round; stroke-width:4; stroke-opacity:1; fill:none" points="1288.19,1486.45 1287.62,1457.08 1285.92,1427.7 1283.13,1398.33 1279.32,1368.96 1276.62,1352.23 1274.46,1339.59 1268.58,1310.22 1261.97,1280.85 1256.71,1259.33 1254.67,1251.48 1246.66,1222.1 1238.46,1192.73 1236.8,1186.73 1229.88,1163.36 1221.52,1133.99 1216.89,1116.48 1213.53,1104.62 1206.16,1075.25 1200.09,1045.88 1196.98,1025.36 1195.53,1016.5 1192.84,987.132 1192.61,957.761 1195.22,928.389 1196.98,919.43 1200.7,899.018 1209.29,869.646 1216.89,851.251 1221.12,840.275 1235.97,810.903 1236.8,809.598 1253.5,781.532 1256.71,777.093 1273.69,752.16 1276.62,748.54 1296.31,722.789 1296.52,722.549 1316.43,699.013 1320.96,693.417 1336.34,676.78 1347.65,664.046 1356.25,655.452 1376.16,634.821 1376.29,634.674 1396.06,615.668 1406.53,605.303 1415.97,596.829 1435.88,578.485 1438.59,575.931 1455.79,561.09 1472.3,546.56 1475.7,543.804 1495.6,527.367 1507.77,517.188 1515.51,511.163 1535.42,495.509 1545.14,487.817 1555.33,480.253 1575.24,465.423 1584.6,458.445 1595.15,451.026 1615.05,437.057 1626.5,429.074 1634.96,423.465 1654.87,410.395 1671.37,399.702 1674.78,397.59 1694.69,385.455 1714.59,373.569 1720.15,370.331 1734.5,362.288 1754.41,351.45 1774.32,340.977 1774.35,340.959 1794.23,331.224 1814.13,321.902 1834.04,313.05 1837.53,311.588 1853.95,304.879 1873.86,297.275 1893.77,290.235 1913.67,283.793 1919.08,282.216 1933.58,278.062 1953.49,273.009 1973.4,268.631 1993.31,264.957 2013.22,262.011 2033.12,259.816 2053.03,258.394 2072.94,257.764 2092.85,257.943 2112.76,258.947 "/>
<polyline clip-path="url(#clip512)" style="stroke:#a12b61; stroke-linecap:round; stroke-linejoin:round; stroke-width:4; stroke-opacity:1; fill:none" points="2112.76,198.268 2092.85,197.284 2072.94,197.108 2053.03,197.726 2033.12,199.121 2013.22,201.274 1993.31,204.164 1973.4,207.768 1953.49,212.062 1933.58,217.019 1913.67,222.612 1910.91,223.473 1893.77,228.844 1873.86,235.661 1853.95,243.024 1834.04,250.899 1829.41,252.845 1814.13,259.337 1794.23,268.249 1774.32,277.574 1764.79,282.216 1754.41,287.372 1734.5,297.605 1714.59,308.143 1708.25,311.588 1694.69,319.138 1674.78,330.454 1656.6,340.959 1654.87,341.995 1634.96,354.031 1615.05,366.184 1608.3,370.331 1595.15,378.724 1575.24,391.46 1562.35,399.702 1555.33,404.394 1535.42,417.654 1518.16,429.074 1515.51,430.915 1495.6,444.635 1475.7,458.176 1475.29,458.445 1455.79,472.273 1435.88,486.115 1433.38,487.817 1415.97,500.435 1396.06,514.499 1392.14,517.188 1376.16,528.974 1356.25,543.173 1351.32,546.56 1336.34,557.717 1316.43,571.955 1310.62,575.931 1296.52,586.46 1276.62,600.622 1269.67,605.303 1256.71,614.939 1236.8,628.891 1228,634.674 1216.89,642.804 1196.98,656.383 1184.84,664.046 1177.07,669.572 1157.17,682.576 1138.92,693.417 1137.26,694.545 1117.35,706.711 1097.44,717.521 1086.35,722.789 1077.53,727.649 1057.63,737.06 1037.72,744.915 1017.81,751.232 1013.96,752.16 997.902,756.751 977.994,760.682 958.085,762.896 938.177,763.439 918.269,762.364 898.361,759.73 878.453,755.599 866.138,752.16 858.545,750.37 838.637,744.533 818.729,737.616 798.821,729.688 783.334,722.789 778.912,721.093 759.004,712.711 739.096,703.65 719.188,693.975 718.102,693.417 699.28,684.963 679.372,675.606 659.464,665.895 655.782,664.046 639.556,656.814 619.648,647.74 599.739,638.518 591.522,634.674 579.831,629.765 559.923,621.373 540.015,612.996 521.594,605.303 520.107,604.74 500.199,597.299 480.291,590 460.383,582.882 440.475,575.984 440.315,575.931 420.566,569.901 400.658,564.091 380.75,558.58 360.842,553.397 340.934,548.57 331.93,546.56 321.026,544.311 301.118,540.579 281.21,537.24 261.302,534.31 241.393,531.805 221.485,529.738 201.577,528.12 181.669,526.957 161.761,526.258 141.853,526.024 "/>
<polyline clip-path="url(#clip512)" style="stroke:#ba3655; stroke-linecap:round; stroke-linejoin:round; stroke-width:4; stroke-opacity:1; fill:none" points="141.853,443.528 161.761,443.721 181.669,444.297 201.577,445.255 221.485,446.589 241.393,448.292 261.302,450.355 281.21,452.769 301.118,455.52 320.06,458.445 321.026,458.603 340.934,462.185 360.842,466.074 380.75,470.25 400.658,474.691 420.566,479.372 440.475,484.27 454.35,487.817 460.383,489.461 480.291,495.062 500.199,500.805 520.107,506.659 540.015,512.592 555.321,517.188 559.923,518.673 579.831,525.109 599.739,531.518 619.648,537.865 639.556,544.111 647.54,546.56 659.464,550.52 679.372,556.941 699.28,563.128 719.188,569.04 739.096,574.637 744.01,575.931 759.004,580.244 778.912,585.54 798.821,590.365 818.729,594.679 838.637,598.442 858.545,601.618 878.453,604.171 890.328,605.303 898.361,606.147 918.269,607.481 938.177,608.025 958.085,607.75 977.994,606.629 991.256,605.303 997.902,604.7 1017.81,602.087 1037.72,598.65 1057.63,594.376 1077.53,589.256 1097.44,583.283 1117.35,576.453 1118.7,575.931 1137.26,569.37 1157.17,561.549 1177.07,552.952 1190.66,546.56 1196.98,543.814 1216.89,534.468 1236.8,524.438 1250.29,517.188 1256.71,513.979 1276.62,503.419 1296.52,492.277 1304.11,487.817 1316.43,481.027 1336.34,469.556 1354.86,458.445 1356.25,457.657 1376.16,445.958 1396.06,433.869 1403.73,429.074 1415.97,421.798 1435.88,409.655 1451.83,399.702 1455.79,397.341 1475.7,385.226 1495.6,372.913 1499.73,370.331 1515.51,360.808 1535.42,348.68 1548.01,340.959 1555.33,336.61 1575.24,324.738 1595.15,312.861 1597.29,311.588 1615.05,301.284 1634.96,289.81 1648.26,282.216 1654.87,278.516 1674.78,267.514 1694.69,256.694 1701.92,252.845 1714.59,246.184 1734.5,235.98 1754.41,226.072 1759.81,223.473 1774.32,216.541 1794.23,207.394 1814.13,198.651 1825.04,194.102 1834.04,190.347 1853.95,182.516 1873.86,175.195 1893.77,168.417 1905.6,164.73 1913.67,162.195 1933.58,156.554 1953.49,151.555 1973.4,147.224 1993.31,143.589 2013.22,140.674 2033.12,138.503 2053.03,137.096 2072.94,136.473 2092.85,136.65 2112.76,137.643 "/>
<polyline clip-path="url(#clip512)" style="stroke:#d04544; stroke-linecap:round; stroke-linejoin:round; stroke-width:4; stroke-opacity:1; fill:none" points="2112.76,75.0212 2092.85,73.9524 2072.94,73.7615 2053.03,74.4325 2033.12,75.9473 2027.43,76.6156 2013.22,78.2297 1993.31,81.2636 1973.4,85.0475 1953.49,89.5553 1933.58,94.7595 1913.67,100.631 1897.29,105.987 1893.77,107.11 1873.86,114.05 1853.95,121.547 1834.04,129.565 1820.48,135.359 1814.13,138.029 1794.23,146.846 1774.32,156.071 1756.36,164.73 1754.41,165.66 1734.5,175.512 1714.59,185.658 1698.43,194.102 1694.69,196.058 1674.78,206.672 1654.87,217.465 1643.93,223.473 1634.96,228.432 1615.05,239.542 1595.15,250.721 1591.37,252.845 1575.24,262.049 1555.33,273.399 1539.81,282.216 1535.42,284.756 1515.51,296.208 1495.6,307.547 1488.42,311.588 1475.7,318.924 1455.79,330.221 1436.5,340.959 1435.88,341.313 1415.97,352.496 1396.06,363.393 1383.01,370.331 1376.16,374.117 1356.25,384.753 1336.34,395.008 1326.85,399.702 1316.43,405.089 1296.52,414.934 1276.62,424.309 1265.94,429.074 1256.71,433.408 1236.8,442.222 1216.89,450.485 1196.98,458.185 1196.26,458.445 1177.07,465.716 1157.17,472.643 1137.26,478.945 1117.35,484.616 1104.7,487.817 1097.44,489.777 1077.53,494.477 1057.63,498.505 1037.72,501.868 1017.81,504.572 997.902,506.628 977.994,508.049 958.085,508.849 938.177,509.045 918.269,508.657 898.361,507.705 878.453,506.212 858.545,504.203 838.637,501.704 818.729,498.743 798.821,495.349 778.912,491.553 761.063,487.817 759.004,487.413 739.096,483.189 719.188,478.679 699.28,473.915 679.372,468.93 659.464,463.757 639.618,458.445 639.556,458.429 619.648,453.284 599.739,448.055 579.831,442.774 559.923,437.472 540.015,432.18 528.238,429.074 520.107,427.035 500.199,422.109 480.291,417.277 460.383,412.565 440.475,407.999 420.566,403.604 402.077,399.702 400.658,399.416 380.75,395.604 360.842,392.019 340.934,388.681 321.026,385.606 301.118,382.81 281.21,380.309 261.302,378.114 241.393,376.238 221.485,374.69 201.577,373.477 181.669,372.606 161.761,372.082 141.853,371.907 "/>
<polyline clip-path="url(#clip512)" style="stroke:#e35832; stroke-linecap:round; stroke-linejoin:round; stroke-width:4; stroke-opacity:1; fill:none" points="141.853,306.633 161.761,306.792 181.669,307.268 201.577,308.059 221.485,309.162 241.393,310.569 253.284,311.588 261.302,312.292 281.21,314.339 301.118,316.671 321.026,319.278 340.934,322.146 360.842,325.259 380.75,328.602 400.658,332.157 420.566,335.904 440.475,339.825 446.016,340.959 460.383,343.994 480.291,348.333 500.199,352.783 520.107,357.319 540.015,361.916 559.923,366.548 576.153,370.331 579.831,371.221 599.739,376.023 619.648,380.777 639.556,385.456 659.464,390.03 679.372,394.47 699.28,398.75 703.917,399.702 719.188,402.981 739.096,407.029 759.004,410.819 778.912,414.325 798.821,417.519 818.729,420.375 838.637,422.866 858.545,424.968 878.453,426.658 898.361,427.914 918.269,428.715 938.177,429.042 958.085,428.877 977.994,428.204 997.902,427.009 1017.81,425.279 1037.72,423.004 1057.63,420.175 1077.53,416.785 1097.44,412.831 1117.35,408.309 1137.26,403.22 1149.64,399.702 1157.17,397.658 1177.07,391.711 1196.98,385.233 1216.89,378.232 1236.8,370.719 1237.76,370.331 1256.71,362.99 1276.62,354.808 1296.52,346.175 1307.98,340.959 1316.43,337.229 1336.34,328.046 1356.25,318.483 1370.09,311.588 1376.16,308.641 1396.06,298.649 1415.97,288.36 1427.56,282.216 1435.88,277.885 1455.79,267.291 1475.7,256.49 1482.31,252.845 1495.6,245.606 1515.51,234.627 1535.42,223.539 1535.54,223.473 1555.33,212.445 1575.24,201.311 1588.12,194.102 1595.15,190.169 1615.05,179.054 1634.96,168.007 1640.92,164.73 1654.87,157.004 1674.78,146.118 1694.69,135.414 1694.79,135.359 1714.59,124.764 1734.5,114.376 1751.06,105.987 1754.41,104.246 1774.32,94.2569 1794.23,84.6544 1811.66,76.6156 1814.13,75.4373 1834.04,66.422 1853.95,57.9231 1873.86,49.9778 1881.26,47.2441 "/>
<polyline clip-path="url(#clip512)" style="stroke:#f0701e; stroke-linecap:round; stroke-linejoin:round; stroke-width:4; stroke-opacity:1; fill:none" points="1740.23,47.2441 1734.5,50.3227 1714.59,61.3334 1694.69,72.6218 1687.79,76.6156 1674.78,83.8965 1654.87,95.2274 1636.21,105.987 1634.96,106.69 1615.05,118.002 1595.15,129.383 1584.72,135.359 1575.24,140.711 1555.33,151.941 1535.42,163.129 1532.55,164.73 1515.51,174.167 1495.6,185.084 1478.94,194.102 1475.7,195.858 1455.79,206.454 1435.88,216.846 1422.89,223.473 1415.97,227.028 1396.06,236.991 1376.16,246.666 1363.02,252.845 1356.25,256.069 1336.34,265.211 1316.43,273.991 1296.93,282.216 1296.52,282.392 1276.62,290.543 1256.71,298.269 1236.8,305.553 1219.21,311.588 1216.89,312.403 1196.98,318.931 1177.07,324.972 1157.17,330.517 1137.26,335.562 1117.35,340.102 1113.12,340.959 1097.44,344.238 1077.53,347.88 1057.63,351.001 1037.72,353.606 1017.81,355.701 997.902,357.295 977.994,358.395 958.085,359.015 938.177,359.167 918.269,358.866 898.361,358.129 878.453,356.972 858.545,355.415 838.637,353.479 818.729,351.185 798.821,348.556 778.912,345.614 759.004,342.385 750.87,340.959 739.096,338.959 719.188,335.349 699.28,331.535 679.372,327.545 659.464,323.404 639.556,319.138 619.648,314.776 605.332,311.588 599.739,310.374 579.831,306.009 559.923,301.627 540.015,297.254 520.107,292.913 500.199,288.63 480.291,284.429 469.539,282.216 460.383,280.368 440.475,276.473 420.566,272.725 400.658,269.141 380.75,265.743 360.842,262.547 340.934,259.57 321.026,256.829 301.118,254.336 287.802,252.845 281.21,252.116 261.302,250.184 241.393,248.533 221.485,247.17 201.577,246.103 181.669,245.336 161.761,244.875 141.853,244.721 "/>
<polyline clip-path="url(#clip512)" style="stroke:#f98c09; stroke-linecap:round; stroke-linejoin:round; stroke-width:4; stroke-opacity:1; fill:none" points="141.853,184.204 161.761,184.357 181.669,184.815 201.577,185.577 221.485,186.638 241.393,187.994 261.302,189.635 281.21,191.556 301.118,193.745 304.02,194.102 321.026,196.19 340.934,198.88 360.842,201.799 380.75,204.935 400.658,208.269 420.566,211.784 440.475,215.461 460.383,219.281 480.291,223.223 481.521,223.473 500.199,227.29 520.107,231.437 540.015,235.64 559.923,239.875 579.831,244.118 599.739,248.344 619.648,252.528 621.179,252.845 639.556,256.695 659.464,260.773 679.372,264.732 699.28,268.548 719.188,272.194 739.096,275.645 759.004,278.878 778.912,281.869 781.451,282.216 798.821,284.639 818.729,287.122 838.637,289.288 858.545,291.116 878.453,292.586 898.361,293.678 918.269,294.375 938.177,294.659 958.085,294.515 977.994,293.93 997.902,292.891 1017.81,291.386 1037.72,289.408 1057.63,286.948 1077.53,284.001 1087.87,282.216 1097.44,280.594 1117.35,276.738 1137.26,272.397 1157.17,267.574 1177.07,262.272 1196.98,256.497 1208.63,252.845 1216.89,250.288 1236.8,243.675 1256.71,236.622 1276.62,229.142 1290.91,223.473 1296.52,221.263 1316.43,213.026 1336.34,204.413 1356.25,195.445 1359.12,194.102 1376.16,186.137 1396.06,176.518 1415.97,166.611 1419.66,164.73 1435.88,156.379 1455.79,145.898 1475.42,135.359 1475.7,135.21 1495.6,124.176 1515.51,112.998 1527.88,105.987 1535.42,101.604 1555.33,89.9573 1575.24,78.2686 1578.05,76.6156 1595.15,66.2291 1615.05,54.1664 1626.55,47.2441 "/>
<polyline clip-path="url(#clip512)" style="stroke:#fbaa0e; stroke-linecap:round; stroke-linejoin:round; stroke-width:4; stroke-opacity:1; fill:none" points="1518.21,47.2441 1515.51,48.8629 1495.6,60.7102 1475.7,72.4041 1468.41,76.6156 1455.79,83.6675 1435.88,94.5775 1415.97,105.244 1414.55,105.987 1396.06,115.405 1376.16,125.255 1356.25,134.786 1355.01,135.359 1336.34,143.84 1316.43,152.527 1296.52,160.834 1286.72,164.73 1276.62,168.713 1256.71,176.151 1236.8,183.164 1216.89,189.739 1202.71,194.102 1196.98,195.864 1177.07,201.53 1157.17,206.731 1137.26,211.462 1117.35,215.72 1097.44,219.503 1077.53,222.812 1072.89,223.473 1057.63,225.661 1037.72,228.043 1017.81,229.959 997.902,231.415 977.994,232.421 958.085,232.988 938.177,233.127 918.269,232.852 898.361,232.178 878.453,231.12 858.545,229.697 838.637,227.927 818.729,225.83 799.215,223.473 798.821,223.426 778.912,220.753 759.004,217.82 739.096,214.649 719.188,211.263 699.28,207.686 679.372,203.943 659.464,200.059 639.556,196.059 630.033,194.102 619.648,191.966 599.739,187.805 579.831,183.603 559.923,179.385 540.015,175.174 520.107,170.995 500.199,166.872 489.659,164.73 480.291,162.811 460.383,158.835 440.475,154.983 420.566,151.274 400.658,147.729 380.75,144.366 360.842,141.204 340.934,138.26 321.026,135.547 319.504,135.359 301.118,133.045 281.21,130.804 261.302,128.837 241.393,127.156 221.485,125.768 201.577,124.682 181.669,123.902 161.761,123.432 141.853,123.275 "/>
<polyline clip-path="url(#clip512)" style="stroke:#f8c931; stroke-linecap:round; stroke-linejoin:round; stroke-width:4; stroke-opacity:1; fill:none" points="141.853,59.755 161.761,59.9212 181.669,60.419 201.577,61.2458 221.485,62.3975 241.393,63.868 261.302,65.65 281.21,67.7342 301.118,70.11 321.026,72.765 340.934,75.6855 346.774,76.6156 360.842,78.7817 380.75,82.073 400.658,85.5729 420.566,89.263 440.475,93.1236 460.383,97.134 480.291,101.273 500.199,105.517 502.364,105.987 520.107,109.75 540.015,114.029 559.923,118.341 579.831,122.661 599.739,126.963 619.648,131.223 639.285,135.359 639.556,135.415 659.464,139.449 679.372,143.367 699.28,147.141 719.188,150.748 739.096,154.163 759.004,157.362 778.912,160.32 798.821,163.016 812.987,164.73 818.729,165.42 838.637,167.505 858.545,169.265 878.453,170.68 898.361,171.732 918.269,172.402 938.177,172.676 958.085,172.537 977.994,171.974 997.902,170.973 1017.81,169.525 1037.72,167.62 1057.63,165.252 1061.29,164.73 1077.53,162.396 1097.44,159.06 1117.35,155.244 1137.26,150.95 1157.17,146.178 1177.07,140.933 1196.5,135.359 1196.98,135.216 1216.89,128.943 1236.8,122.21 1256.71,115.03 1276.62,107.414 1280.15,105.987 1296.52,99.2146 1316.43,90.5672 1336.34,81.5255 1346.72,76.6156 1356.25,71.9553 1376.16,61.8533 1396.06,51.4135 1403.78,47.2441 "/>
<polyline clip-path="url(#clip512)" style="stroke:#f1e864; stroke-linecap:round; stroke-linejoin:round; stroke-width:4; stroke-opacity:1; fill:none" points="1266.01,47.2441 1256.71,51.0157 1236.8,58.6265 1216.89,65.7623 1196.98,72.4113 1183.38,76.6156 1177.07,78.4988 1157.17,83.9589 1137.26,88.9258 1117.35,93.3958 1097.44,97.3672 1077.53,100.84 1057.63,103.817 1040.24,105.987 1037.72,106.295 1017.81,108.245 997.902,109.728 977.994,110.752 958.085,111.329 938.177,111.471 918.269,111.191 898.361,110.504 878.453,109.428 858.545,107.979 838.637,106.176 836.871,105.987 818.729,103.993 798.821,101.485 778.912,98.6797 759.004,95.6002 739.096,92.2708 719.188,88.7161 699.28,84.9614 679.372,81.0323 659.464,76.9549 657.855,76.6156 639.556,72.6225 619.648,68.1792 599.739,63.6639 579.831,59.1036 559.923,54.5254 540.015,49.9556 528.113,47.2441 "/>
<polyline clip-path="url(#clip512)" style="stroke:#6e186e; stroke-linecap:round; stroke-linejoin:round; stroke-width:4; stroke-opacity:1; fill:none" points="1420.79,1486.45 1420.35,1457.08 1419.04,1427.7 1416.89,1398.33 1415.97,1389.19 1413.89,1368.96 1410.13,1339.59 1405.71,1310.22 1400.75,1280.85 1396.06,1255.31 1395.34,1251.48 1389.5,1222.1 1383.52,1192.73 1377.58,1163.36 1376.16,1156.03 1371.72,1133.99 1366.24,1104.62 1361.39,1075.25 1357.4,1045.88 1356.25,1034.37 1354.4,1016.5 1352.7,987.132 1352.56,957.761 1354.2,928.389 1356.25,911.932 1357.8,899.018 1363.45,869.646 1371.44,840.275 1376.16,827.064 1381.74,810.903 1394.48,781.532 1396.06,778.533 1409.55,752.16 1415.97,741.569 1427.06,722.789 1435.88,709.928 1446.95,693.417 1455.79,681.882 1469.19,664.046 1475.7,656.368 1493.78,634.674 1495.6,632.71 1515.51,610.992 1520.68,605.303 1535.42,590.569 1549.97,575.931 1555.33,570.994 1575.24,552.589 1581.76,546.56 1595.15,535.124 1615.05,518.169 1616.21,517.188 1634.96,502.417 1653.67,487.817 1654.87,486.94 1674.78,472.564 1694.66,458.445 1694.69,458.429 1714.59,445.356 1734.5,432.606 1740.18,429.074 1754.41,420.662 1774.32,409.29 1791.78,399.702 1794.23,398.415 1814.13,388.419 1834.04,378.927 1853.17,370.331 1853.95,369.992 1873.86,361.938 1893.77,354.482 1913.67,347.66 1933.58,341.504 1935.57,340.959 1953.49,336.201 1973.4,331.623 1993.31,327.78 2013.22,324.698 2033.12,322.403 2053.03,320.916 2072.94,320.257 2092.85,320.444 2112.76,321.494 "/>
<polyline clip-path="url(#clip512)" style="stroke:#550f6d; stroke-linecap:round; stroke-linejoin:round; stroke-width:4; stroke-opacity:1; fill:none" points="2112.76,387.981 2092.85,386.856 2072.94,386.655 2053.03,387.361 2033.12,388.956 2013.22,391.418 1993.31,394.722 1973.4,398.843 1969.92,399.702 1953.49,403.937 1933.58,409.862 1913.67,416.546 1893.77,423.955 1881.18,429.074 1873.86,432.206 1853.95,441.407 1834.04,451.249 1820.32,458.445 1814.13,461.881 1794.23,473.525 1774.32,485.708 1771.01,487.817 1754.41,499.085 1734.5,513.072 1728.81,517.188 1714.59,528.243 1694.69,544.11 1691.68,546.56 1674.78,561.451 1658.62,575.931 1654.87,579.603 1634.96,599.347 1629.01,605.303 1615.05,620.715 1602.49,634.674 1595.15,643.757 1578.8,664.046 1575.24,669.024 1557.79,693.417 1555.33,697.353 1539.35,722.789 1535.42,730.062 1523.39,752.16 1515.51,769.299 1509.83,781.532 1498.61,810.903 1495.6,820.759 1489.58,840.275 1482.68,869.646 1477.8,899.018 1475.7,919.311 1474.74,928.389 1473.35,957.761 1473.47,987.132 1474.91,1016.5 1475.7,1025.5 1477.45,1045.88 1480.9,1075.25 1485.09,1104.62 1489.83,1133.99 1494.93,1163.36 1495.6,1167.08 1500.17,1192.73 1505.44,1222.1 1510.59,1251.48 1515.48,1280.85 1515.51,1281.08 1519.94,1310.22 1523.91,1339.59 1527.29,1368.96 1530,1398.33 1531.98,1427.7 1533.19,1457.08 1533.6,1486.45 "/>
<polyline clip-path="url(#clip512)" style="stroke:#3b0964; stroke-linecap:round; stroke-linejoin:round; stroke-width:4; stroke-opacity:1; fill:none" points="1641.98,1486.45 1641.57,1457.08 1640.35,1427.7 1638.35,1398.33 1635.62,1368.96 1634.96,1363.31 1632.24,1339.59 1628.28,1310.22 1623.83,1280.85 1618.99,1251.48 1615.05,1228.72 1613.91,1222.1 1608.74,1192.73 1603.6,1163.36 1598.65,1133.99 1595.15,1111.55 1594.06,1104.62 1590.02,1075.25 1586.68,1045.88 1584.23,1016.5 1582.86,987.132 1582.75,957.761 1584.07,928.389 1587.01,899.018 1591.74,869.646 1595.15,854.635 1598.41,840.275 1607.2,810.903 1615.05,789.992 1618.25,781.532 1631.72,752.16 1634.96,746.197 1647.8,722.789 1654.87,711.697 1666.67,693.417 1674.78,682.427 1688.57,664.046 1694.69,656.813 1713.8,634.674 1714.59,633.853 1734.5,613.669 1743,605.303 1754.41,595.113 1774.32,577.934 1776.73,575.931 1794.23,562.644 1814.13,548.193 1816.5,546.56 1834.04,535.395 1853.95,523.449 1865.11,517.188 1873.86,512.621 1893.77,502.999 1913.67,494.193 1929.65,487.817 1933.58,486.346 1953.49,479.743 1973.4,474.024 1993.31,469.223 2013.22,465.374 2033.12,462.506 2053.03,460.649 2072.94,459.825 2092.85,460.06 2112.76,461.371 "/>
<polyline clip-path="url(#clip512)" style="stroke:#1f0c47; stroke-linecap:round; stroke-linejoin:round; stroke-width:4; stroke-opacity:1; fill:none" points="2112.76,547.559 2100.53,546.56 2092.85,545.98 2072.94,545.712 2055.05,546.56 2053.03,546.663 2033.12,548.969 2013.22,552.528 1993.31,557.305 1973.4,563.263 1953.49,570.361 1939.96,575.931 1933.58,578.798 1913.67,588.896 1893.77,600.087 1885.28,605.303 1873.86,613.036 1853.95,627.601 1844.91,634.674 1834.04,644.151 1814.13,662.563 1812.61,664.046 1794.23,684.232 1786.23,693.417 1774.32,709.055 1764.26,722.789 1754.41,738.415 1746.04,752.16 1734.5,774.584 1731.03,781.532 1718.95,810.903 1714.59,824.196 1709.45,840.275 1702.31,869.646 1697.25,899.018 1694.69,922.892 1694.11,928.389 1692.72,957.761 1692.84,987.132 1694.28,1016.5 1694.69,1021.2 1696.89,1045.88 1700.46,1075.25 1704.8,1104.62 1709.71,1133.99 1714.59,1161.12 1715.01,1163.36 1720.64,1192.73 1726.3,1222.1 1731.84,1251.48 1734.5,1266.32 1737.18,1280.85 1742.17,1310.22 1746.61,1339.59 1750.4,1368.96 1753.43,1398.33 1754.41,1411.25 1755.7,1427.7 1757.1,1457.08 1757.57,1486.45 "/>
<polyline clip-path="url(#clip512)" style="stroke:#090621; stroke-linecap:round; stroke-linejoin:round; stroke-width:4; stroke-opacity:1; fill:none" points="1907.46,1486.45 1906.74,1457.08 1904.59,1427.7 1901.06,1398.33 1896.24,1368.96 1893.77,1356.88 1890.53,1339.59 1884.08,1310.22 1876.82,1280.85 1873.86,1269.8 1869.31,1251.48 1861.63,1222.1 1853.95,1193.36 1853.79,1192.73 1846.5,1163.36 1839.47,1133.99 1834.04,1109.51 1833.02,1104.62 1827.59,1075.25 1823.11,1045.88 1819.83,1016.5 1817.99,987.132 1817.83,957.761 1819.61,928.389 1823.56,899.018 1829.9,869.646 1834.04,856.033 1839.13,840.275 1851.61,810.903 1853.95,806.505 1868.19,781.532 1873.86,773.335 1889.69,752.16 1893.77,747.557 1913.67,726.986 1918.18,722.789 1933.58,710.423 1953.49,696.259 1958.1,693.417 1973.4,685.168 1993.31,676.157 2013.22,668.931 2031.28,664.046 2033.12,663.605 2053.03,660.511 2072.94,659.141 2092.85,659.53 2112.76,661.713 "/>
<defs>
  <clipPath id="clip513">
    <rect x="2160" y="47" width="73" height="1440"/>
  </clipPath>
</defs>
<polyline clip-path="url(#clip513)" style="stroke:#0a0723; stroke-linecap:round; stroke-linejoin:round; stroke-width:4; stroke-opacity:1; fill:none" points="2160.76,1396.5 2232.76,1396.5 "/>
<polyline clip-path="url(#clip513)" style="stroke:#200c4a; stroke-linecap:round; stroke-linejoin:round; stroke-width:4; stroke-opacity:1; fill:none" points="2160.76,1306.55 2232.76,1306.55 "/>
<polyline clip-path="url(#clip513)" style="stroke:#3c0965; stroke-linecap:round; stroke-linejoin:round; stroke-width:4; stroke-opacity:1; fill:none" points="2160.76,1216.6 2232.76,1216.6 "/>
<polyline clip-path="url(#clip513)" style="stroke:#570f6d; stroke-linecap:round; stroke-linejoin:round; stroke-width:4; stroke-opacity:1; fill:none" points="2160.76,1126.65 2232.76,1126.65 "/>
<polyline clip-path="url(#clip513)" style="stroke:#70196e; stroke-linecap:round; stroke-linejoin:round; stroke-width:4; stroke-opacity:1; fill:none" points="2160.76,1036.7 2232.76,1036.7 "/>
<polyline clip-path="url(#clip513)" style="stroke:#892269; stroke-linecap:round; stroke-linejoin:round; stroke-width:4; stroke-opacity:1; fill:none" points="2160.76,946.746 2232.76,946.746 "/>
<polyline clip-path="url(#clip513)" style="stroke:#a32b61; stroke-linecap:round; stroke-linejoin:round; stroke-width:4; stroke-opacity:1; fill:none" points="2160.76,856.796 2232.76,856.796 "/>
<polyline clip-path="url(#clip513)" style="stroke:#bb3754; stroke-linecap:round; stroke-linejoin:round; stroke-width:4; stroke-opacity:1; fill:none" points="2160.76,766.846 2232.76,766.846 "/>
<polyline clip-path="url(#clip513)" style="stroke:#d04544; stroke-linecap:round; stroke-linejoin:round; stroke-width:4; stroke-opacity:1; fill:none" points="2160.76,676.896 2232.76,676.896 "/>
<polyline clip-path="url(#clip513)" style="stroke:#e35832; stroke-linecap:round; stroke-linejoin:round; stroke-width:4; stroke-opacity:1; fill:none" points="2160.76,586.946 2232.76,586.946 "/>
<polyline clip-path="url(#clip513)" style="stroke:#f0701e; stroke-linecap:round; stroke-linejoin:round; stroke-width:4; stroke-opacity:1; fill:none" points="2160.76,496.995 2232.76,496.995 "/>
<polyline clip-path="url(#clip513)" style="stroke:#f98c09; stroke-linecap:round; stroke-linejoin:round; stroke-width:4; stroke-opacity:1; fill:none" points="2160.76,407.045 2232.76,407.045 "/>
<polyline clip-path="url(#clip513)" style="stroke:#fbaa0e; stroke-linecap:round; stroke-linejoin:round; stroke-width:4; stroke-opacity:1; fill:none" points="2160.76,317.095 2232.76,317.095 "/>
<polyline clip-path="url(#clip513)" style="stroke:#f8c931; stroke-linecap:round; stroke-linejoin:round; stroke-width:4; stroke-opacity:1; fill:none" points="2160.76,227.145 2232.76,227.145 "/>
<polyline clip-path="url(#clip513)" style="stroke:#f1e864; stroke-linecap:round; stroke-linejoin:round; stroke-width:4; stroke-opacity:1; fill:none" points="2160.76,137.194 2232.76,137.194 "/>
<path clip-path="url(#clip510)" d="M2268.76 1450.84 L2298.43 1450.84 L2298.43 1454.77 L2268.76 1454.77 L2268.76 1450.84 Z" fill="#000000" fill-rule="evenodd" fill-opacity="1" /><path clip-path="url(#clip510)" d="M2308.57 1433.11 L2326.93 1433.11 L2326.93 1437.04 L2312.85 1437.04 L2312.85 1445.51 Q2313.87 1445.17 2314.89 1445.01 Q2315.91 1444.82 2316.93 1444.82 Q2322.71 1444.82 2326.09 1447.99 Q2329.47 1451.16 2329.47 1456.58 Q2329.47 1462.16 2326 1465.26 Q2322.53 1468.34 2316.21 1468.34 Q2314.03 1468.34 2311.76 1467.97 Q2309.52 1467.6 2307.11 1466.86 L2307.11 1462.16 Q2309.2 1463.29 2311.42 1463.85 Q2313.64 1464.4 2316.12 1464.4 Q2320.12 1464.4 2322.46 1462.3 Q2324.8 1460.19 2324.8 1456.58 Q2324.8 1452.97 2322.46 1450.86 Q2320.12 1448.76 2316.12 1448.76 Q2314.24 1448.76 2312.37 1449.17 Q2310.51 1449.59 2308.57 1450.47 L2308.57 1433.11 Z" fill="#000000" fill-rule="evenodd" fill-opacity="1" /><path clip-path="url(#clip510)" d="M2338.69 1461.79 L2343.57 1461.79 L2343.57 1467.67 L2338.69 1467.67 L2338.69 1461.79 Z" fill="#000000" fill-rule="evenodd" fill-opacity="1" /><path clip-path="url(#clip510)" d="M2363.76 1436.19 Q2360.14 1436.19 2358.32 1439.75 Q2356.51 1443.29 2356.51 1450.42 Q2356.51 1457.53 2358.32 1461.09 Q2360.14 1464.64 2363.76 1464.64 Q2367.39 1464.64 2369.2 1461.09 Q2371.02 1457.53 2371.02 1450.42 Q2371.02 1443.29 2369.2 1439.75 Q2367.39 1436.19 2363.76 1436.19 M2363.76 1432.48 Q2369.57 1432.48 2372.62 1437.09 Q2375.7 1441.67 2375.7 1450.42 Q2375.7 1459.15 2372.62 1463.76 Q2369.57 1468.34 2363.76 1468.34 Q2357.95 1468.34 2354.87 1463.76 Q2351.81 1459.15 2351.81 1450.42 Q2351.81 1441.67 2354.87 1437.09 Q2357.95 1432.48 2363.76 1432.48 Z" fill="#000000" fill-rule="evenodd" fill-opacity="1" /><path clip-path="url(#clip510)" d="M2268.76 1227.25 L2298.43 1227.25 L2298.43 1231.19 L2268.76 1231.19 L2268.76 1227.25 Z" fill="#000000" fill-rule="evenodd" fill-opacity="1" /><path clip-path="url(#clip510)" d="M2312.55 1240.14 L2328.87 1240.14 L2328.87 1244.08 L2306.93 1244.08 L2306.93 1240.14 Q2309.59 1237.39 2314.17 1232.76 Q2318.78 1228.11 2319.96 1226.77 Q2322.2 1224.24 2323.08 1222.51 Q2323.99 1220.75 2323.99 1219.06 Q2323.99 1216.3 2322.04 1214.57 Q2320.12 1212.83 2317.02 1212.83 Q2314.82 1212.83 2312.37 1213.59 Q2309.94 1214.36 2307.16 1215.91 L2307.16 1211.19 Q2309.98 1210.05 2312.44 1209.47 Q2314.89 1208.89 2316.93 1208.89 Q2322.3 1208.89 2325.49 1211.58 Q2328.69 1214.27 2328.69 1218.76 Q2328.69 1220.89 2327.88 1222.81 Q2327.09 1224.71 2324.98 1227.3 Q2324.4 1227.97 2321.3 1231.19 Q2318.2 1234.38 2312.55 1240.14 Z" fill="#000000" fill-rule="evenodd" fill-opacity="1" /><path clip-path="url(#clip510)" d="M2338.69 1238.2 L2343.57 1238.2 L2343.57 1244.08 L2338.69 1244.08 L2338.69 1238.2 Z" fill="#000000" fill-rule="evenodd" fill-opacity="1" /><path clip-path="url(#clip510)" d="M2353.8 1209.52 L2372.16 1209.52 L2372.16 1213.46 L2358.08 1213.46 L2358.08 1221.93 Q2359.1 1221.58 2360.12 1221.42 Q2361.14 1221.23 2362.16 1221.23 Q2367.95 1221.23 2371.32 1224.4 Q2374.7 1227.58 2374.7 1232.99 Q2374.7 1238.57 2371.23 1241.67 Q2367.76 1244.75 2361.44 1244.75 Q2359.26 1244.75 2357 1244.38 Q2354.75 1244.01 2352.34 1243.27 L2352.34 1238.57 Q2354.43 1239.7 2356.65 1240.26 Q2358.87 1240.82 2361.35 1240.82 Q2365.35 1240.82 2367.69 1238.71 Q2370.03 1236.6 2370.03 1232.99 Q2370.03 1229.38 2367.69 1227.27 Q2365.35 1225.17 2361.35 1225.17 Q2359.47 1225.17 2357.6 1225.58 Q2355.75 1226 2353.8 1226.88 L2353.8 1209.52 Z" fill="#000000" fill-rule="evenodd" fill-opacity="1" /><path clip-path="url(#clip510)" d="M2280.7 989.011 Q2277.09 989.011 2275.26 992.576 Q2273.45 996.117 2273.45 1003.25 Q2273.45 1010.35 2275.26 1013.92 Q2277.09 1017.46 2280.7 1017.46 Q2284.33 1017.46 2286.14 1013.92 Q2287.97 1010.35 2287.97 1003.25 Q2287.97 996.117 2286.14 992.576 Q2284.33 989.011 2280.7 989.011 M2280.7 985.307 Q2286.51 985.307 2289.57 989.914 Q2292.64 994.497 2292.64 1003.25 Q2292.64 1011.97 2289.57 1016.58 Q2286.51 1021.16 2280.7 1021.16 Q2274.89 1021.16 2271.81 1016.58 Q2268.76 1011.97 2268.76 1003.25 Q2268.76 994.497 2271.81 989.914 Q2274.89 985.307 2280.7 985.307 Z" fill="#000000" fill-rule="evenodd" fill-opacity="1" /><path clip-path="url(#clip510)" d="M2274.38 792.97 L2290.7 792.97 L2290.7 796.905 L2268.76 796.905 L2268.76 792.97 Q2271.42 790.215 2276 785.585 Q2280.61 780.933 2281.79 779.59 Q2284.03 777.067 2284.91 775.331 Q2285.82 773.571 2285.82 771.882 Q2285.82 769.127 2283.87 767.391 Q2281.95 765.655 2278.85 765.655 Q2276.65 765.655 2274.2 766.419 Q2271.77 767.183 2268.99 768.734 L2268.99 764.011 Q2271.81 762.877 2274.27 762.298 Q2276.72 761.72 2278.76 761.72 Q2284.13 761.72 2287.32 764.405 Q2290.52 767.09 2290.52 771.581 Q2290.52 773.71 2289.7 775.632 Q2288.92 777.53 2286.81 780.122 Q2286.23 780.794 2283.13 784.011 Q2280.03 787.206 2274.38 792.97 Z" fill="#000000" fill-rule="evenodd" fill-opacity="1" /><path clip-path="url(#clip510)" d="M2300.51 791.025 L2305.4 791.025 L2305.4 796.905 L2300.51 796.905 L2300.51 791.025 Z" fill="#000000" fill-rule="evenodd" fill-opacity="1" /><path clip-path="url(#clip510)" d="M2315.63 762.345 L2333.99 762.345 L2333.99 766.28 L2319.91 766.28 L2319.91 774.752 Q2320.93 774.405 2321.95 774.243 Q2322.97 774.058 2323.99 774.058 Q2329.77 774.058 2333.15 777.229 Q2336.53 780.4 2336.53 785.817 Q2336.53 791.395 2333.06 794.497 Q2329.59 797.576 2323.27 797.576 Q2321.09 797.576 2318.83 797.206 Q2316.58 796.835 2314.17 796.094 L2314.17 791.395 Q2316.26 792.53 2318.48 793.085 Q2320.7 793.641 2323.18 793.641 Q2327.18 793.641 2329.52 791.534 Q2331.86 789.428 2331.86 785.817 Q2331.86 782.206 2329.52 780.099 Q2327.18 777.993 2323.18 777.993 Q2321.3 777.993 2319.43 778.409 Q2317.58 778.826 2315.63 779.706 L2315.63 762.345 Z" fill="#000000" fill-rule="evenodd" fill-opacity="1" /><path clip-path="url(#clip510)" d="M2270.21 538.757 L2288.57 538.757 L2288.57 542.692 L2274.5 542.692 L2274.5 551.164 Q2275.52 550.817 2276.53 550.655 Q2277.55 550.47 2278.57 550.47 Q2284.36 550.47 2287.74 553.641 Q2291.12 556.812 2291.12 562.229 Q2291.12 567.808 2287.64 570.91 Q2284.17 573.988 2277.85 573.988 Q2275.68 573.988 2273.41 573.618 Q2271.16 573.248 2268.76 572.507 L2268.76 567.808 Q2270.84 568.942 2273.06 569.498 Q2275.28 570.053 2277.76 570.053 Q2281.77 570.053 2284.1 567.947 Q2286.44 565.84 2286.44 562.229 Q2286.44 558.618 2284.1 556.512 Q2281.77 554.405 2277.76 554.405 Q2275.89 554.405 2274.01 554.822 Q2272.16 555.238 2270.21 556.118 L2270.21 538.757 Z" fill="#000000" fill-rule="evenodd" fill-opacity="1" /><path clip-path="url(#clip510)" d="M2300.33 567.437 L2305.21 567.437 L2305.21 573.317 L2300.33 573.317 L2300.33 567.437 Z" fill="#000000" fill-rule="evenodd" fill-opacity="1" /><path clip-path="url(#clip510)" d="M2325.4 541.836 Q2321.79 541.836 2319.96 545.4 Q2318.15 548.942 2318.15 556.072 Q2318.15 563.178 2319.96 566.743 Q2321.79 570.285 2325.4 570.285 Q2329.03 570.285 2330.84 566.743 Q2332.67 563.178 2332.67 556.072 Q2332.67 548.942 2330.84 545.4 Q2329.03 541.836 2325.4 541.836 M2325.4 538.132 Q2331.21 538.132 2334.26 542.738 Q2337.34 547.322 2337.34 556.072 Q2337.34 564.799 2334.26 569.405 Q2331.21 573.988 2325.4 573.988 Q2319.59 573.988 2316.51 569.405 Q2313.45 564.799 2313.45 556.072 Q2313.45 547.322 2316.51 542.738 Q2319.59 538.132 2325.4 538.132 Z" fill="#000000" fill-rule="evenodd" fill-opacity="1" /><path clip-path="url(#clip510)" d="M2268.76 315.169 L2290.98 315.169 L2290.98 317.16 L2278.43 349.729 L2273.55 349.729 L2285.35 319.105 L2268.76 319.105 L2268.76 315.169 Z" fill="#000000" fill-rule="evenodd" fill-opacity="1" /><path clip-path="url(#clip510)" d="M2300.1 343.85 L2304.98 343.85 L2304.98 349.729 L2300.1 349.729 L2300.1 343.85 Z" fill="#000000" fill-rule="evenodd" fill-opacity="1" /><path clip-path="url(#clip510)" d="M2315.21 315.169 L2333.57 315.169 L2333.57 319.105 L2319.5 319.105 L2319.5 327.577 Q2320.51 327.229 2321.53 327.067 Q2322.55 326.882 2323.57 326.882 Q2329.36 326.882 2332.74 330.054 Q2336.12 333.225 2336.12 338.641 Q2336.12 344.22 2332.64 347.322 Q2329.17 350.401 2322.85 350.401 Q2320.68 350.401 2318.41 350.03 Q2316.16 349.66 2313.76 348.919 L2313.76 344.22 Q2315.84 345.354 2318.06 345.91 Q2320.28 346.465 2322.76 346.465 Q2326.76 346.465 2329.1 344.359 Q2331.44 342.253 2331.44 338.641 Q2331.44 335.03 2329.1 332.924 Q2326.76 330.817 2322.76 330.817 Q2320.89 330.817 2319.01 331.234 Q2317.16 331.651 2315.21 332.53 L2315.21 315.169 Z" fill="#000000" fill-rule="evenodd" fill-opacity="1" /><path clip-path="url(#clip510)" d="M2269.43 122.207 L2277.07 122.207 L2277.07 95.8409 L2268.76 97.5076 L2268.76 93.2484 L2277.02 91.5817 L2281.7 91.5817 L2281.7 122.207 L2289.33 122.207 L2289.33 126.142 L2269.43 126.142 L2269.43 122.207 Z" fill="#000000" fill-rule="evenodd" fill-opacity="1" /><path clip-path="url(#clip510)" d="M2308.78 94.6604 Q2305.17 94.6604 2303.34 98.2252 Q2301.53 101.767 2301.53 108.896 Q2301.53 116.003 2303.34 119.568 Q2305.17 123.109 2308.78 123.109 Q2312.41 123.109 2314.22 119.568 Q2316.05 116.003 2316.05 108.896 Q2316.05 101.767 2314.22 98.2252 Q2312.41 94.6604 2308.78 94.6604 M2308.78 90.9567 Q2314.59 90.9567 2317.64 95.5632 Q2320.72 100.146 2320.72 108.896 Q2320.72 117.623 2317.64 122.23 Q2314.59 126.813 2308.78 126.813 Q2302.97 126.813 2299.89 122.23 Q2296.83 117.623 2296.83 108.896 Q2296.83 100.146 2299.89 95.5632 Q2302.97 90.9567 2308.78 90.9567 Z" fill="#000000" fill-rule="evenodd" fill-opacity="1" /><path clip-path="url(#clip510)" d="M2328.94 120.262 L2333.83 120.262 L2333.83 126.142 L2328.94 126.142 L2328.94 120.262 Z" fill="#000000" fill-rule="evenodd" fill-opacity="1" /><path clip-path="url(#clip510)" d="M2354.01 94.6604 Q2350.4 94.6604 2348.57 98.2252 Q2346.76 101.767 2346.76 108.896 Q2346.76 116.003 2348.57 119.568 Q2350.4 123.109 2354.01 123.109 Q2357.64 123.109 2359.45 119.568 Q2361.28 116.003 2361.28 108.896 Q2361.28 101.767 2359.45 98.2252 Q2357.64 94.6604 2354.01 94.6604 M2354.01 90.9567 Q2359.82 90.9567 2362.88 95.5632 Q2365.95 100.146 2365.95 108.896 Q2365.95 117.623 2362.88 122.23 Q2359.82 126.813 2354.01 126.813 Q2348.2 126.813 2345.12 122.23 Q2342.07 117.623 2342.07 108.896 Q2342.07 100.146 2345.12 95.5632 Q2348.2 90.9567 2354.01 90.9567 Z" fill="#000000" fill-rule="evenodd" fill-opacity="1" /><polyline clip-path="url(#clip510)" style="stroke:#000000; stroke-linecap:round; stroke-linejoin:round; stroke-width:4; stroke-opacity:1; fill:none" points="2232.76,1486.45 2232.76,1454.02 2256.76,1454.02 2232.76,1454.02 2232.76,1230.43 2256.76,1230.43 2232.76,1230.43 2232.76,1006.84 2256.76,1006.84 2232.76,1006.84 2232.76,783.253 2256.76,783.253 2232.76,783.253 2232.76,559.666 2256.76,559.666 2232.76,559.666 2232.76,336.078 2256.76,336.078 2232.76,336.078 2232.76,112.49 2256.76,112.49 2232.76,112.49 2232.76,47.2441 "/>
</svg>
