<?xml version="1.0" encoding="utf-8"?>
<svg xmlns="http://www.w3.org/2000/svg" xmlns:xlink="http://www.w3.org/1999/xlink" width="600" height="400" viewBox="0 0 2400 1600">
<defs>
  <clipPath id="clip060">
    <rect x="0" y="0" width="2400" height="1600"/>
  </clipPath>
</defs>
<path clip-path="url(#clip060)" d="M0 1600 L2400 1600 L2400 0 L0 0  Z" fill="#ffffff" fill-rule="evenodd" fill-opacity="1"/>
<defs>
  <clipPath id="clip061">
    <rect x="480" y="0" width="1681" height="1600"/>
  </clipPath>
</defs>
<path clip-path="url(#clip060)" d="M141.853 1423.18 L2352.76 1423.18 L2352.76 47.2441 L141.853 47.2441  Z" fill="#ffffff" fill-rule="evenodd" fill-opacity="1"/>
<defs>
  <clipPath id="clip062">
    <rect x="141" y="47" width="2212" height="1377"/>
  </clipPath>
</defs>
<polyline clip-path="url(#clip062)" style="stroke:#000000; stroke-linecap:round; stroke-linejoin:round; stroke-width:2; stroke-opacity:0.1; fill:none" points="141.853,1423.18 141.853,47.2441 "/>
<polyline clip-path="url(#clip062)" style="stroke:#000000; stroke-linecap:round; stroke-linejoin:round; stroke-width:2; stroke-opacity:0.1; fill:none" points="694.579,1423.18 694.579,47.2441 "/>
<polyline clip-path="url(#clip062)" style="stroke:#000000; stroke-linecap:round; stroke-linejoin:round; stroke-width:2; stroke-opacity:0.1; fill:none" points="1247.3,1423.18 1247.3,47.2441 "/>
<polyline clip-path="url(#clip062)" style="stroke:#000000; stroke-linecap:round; stroke-linejoin:round; stroke-width:2; stroke-opacity:0.1; fill:none" points="1800.03,1423.18 1800.03,47.2441 "/>
<polyline clip-path="url(#clip062)" style="stroke:#000000; stroke-linecap:round; stroke-linejoin:round; stroke-width:2; stroke-opacity:0.1; fill:none" points="2352.76,1423.18 2352.76,47.2441 "/>
<polyline clip-path="url(#clip060)" style="stroke:#000000; stroke-linecap:round; stroke-linejoin:round; stroke-width:4; stroke-opacity:1; fill:none" points="141.853,1423.18 2352.76,1423.18 "/>
<polyline clip-path="url(#clip060)" style="stroke:#000000; stroke-linecap:round; stroke-linejoin:round; stroke-width:4; stroke-opacity:1; fill:none" points="141.853,1423.18 141.853,1404.28 "/>
<polyline clip-path="url(#clip060)" style="stroke:#000000; stroke-linecap:round; stroke-linejoin:round; stroke-width:4; stroke-opacity:1; fill:none" points="694.579,1423.18 694.579,1404.28 "/>
<polyline clip-path="url(#clip060)" style="stroke:#000000; stroke-linecap:round; stroke-linejoin:round; stroke-width:4; stroke-opacity:1; fill:none" points="1247.3,1423.18 1247.3,1404.28 "/>
<polyline clip-path="url(#clip060)" style="stroke:#000000; stroke-linecap:round; stroke-linejoin:round; stroke-width:4; stroke-opacity:1; fill:none" points="1800.03,1423.18 1800.03,1404.28 "/>
<polyline clip-path="url(#clip060)" style="stroke:#000000; stroke-linecap:round; stroke-linejoin:round; stroke-width:4; stroke-opacity:1; fill:none" points="2352.76,1423.18 2352.76,1404.28 "/>
<path clip-path="url(#clip060)" d="M141.853 1454.1 Q138.242 1454.1 136.413 1457.66 Q134.608 1461.2 134.608 1468.33 Q134.608 1475.44 136.413 1479.01 Q138.242 1482.55 141.853 1482.55 Q145.487 1482.55 147.293 1479.01 Q149.121 1475.44 149.121 1468.33 Q149.121 1461.2 147.293 1457.66 Q145.487 1454.1 141.853 1454.1 M141.853 1450.39 Q147.663 1450.39 150.719 1455 Q153.797 1459.58 153.797 1468.33 Q153.797 1477.06 150.719 1481.67 Q147.663 1486.25 141.853 1486.25 Q136.043 1486.25 132.964 1481.67 Q129.909 1477.06 129.909 1468.33 Q129.909 1459.58 132.964 1455 Q136.043 1450.39 141.853 1450.39 Z" fill="#000000" fill-rule="nonzero" fill-opacity="1" /><path clip-path="url(#clip060)" d="M684.857 1451.02 L703.213 1451.02 L703.213 1454.96 L689.139 1454.96 L689.139 1463.43 Q690.157 1463.08 691.176 1462.92 Q692.194 1462.73 693.213 1462.73 Q699 1462.73 702.38 1465.9 Q705.759 1469.08 705.759 1474.49 Q705.759 1480.07 702.287 1483.17 Q698.815 1486.25 692.495 1486.25 Q690.319 1486.25 688.051 1485.88 Q685.806 1485.51 683.398 1484.77 L683.398 1480.07 Q685.482 1481.2 687.704 1481.76 Q689.926 1482.32 692.403 1482.32 Q696.407 1482.32 698.745 1480.21 Q701.083 1478.1 701.083 1474.49 Q701.083 1470.88 698.745 1468.77 Q696.407 1466.67 692.403 1466.67 Q690.528 1466.67 688.653 1467.08 Q686.801 1467.5 684.857 1468.38 L684.857 1451.02 Z" fill="#000000" fill-rule="nonzero" fill-opacity="1" /><path clip-path="url(#clip060)" d="M1221.99 1481.64 L1229.63 1481.64 L1229.63 1455.28 L1221.32 1456.95 L1221.32 1452.69 L1229.58 1451.02 L1234.26 1451.02 L1234.26 1481.64 L1241.9 1481.64 L1241.9 1485.58 L1221.99 1485.58 L1221.99 1481.64 Z" fill="#000000" fill-rule="nonzero" fill-opacity="1" /><path clip-path="url(#clip060)" d="M1261.34 1454.1 Q1257.73 1454.1 1255.9 1457.66 Q1254.1 1461.2 1254.1 1468.33 Q1254.1 1475.44 1255.9 1479.01 Q1257.73 1482.55 1261.34 1482.55 Q1264.98 1482.55 1266.78 1479.01 Q1268.61 1475.44 1268.61 1468.33 Q1268.61 1461.2 1266.78 1457.66 Q1264.98 1454.1 1261.34 1454.1 M1261.34 1450.39 Q1267.15 1450.39 1270.21 1455 Q1273.29 1459.58 1273.29 1468.33 Q1273.29 1477.06 1270.21 1481.67 Q1267.15 1486.25 1261.34 1486.25 Q1255.53 1486.25 1252.45 1481.67 Q1249.4 1477.06 1249.4 1468.33 Q1249.4 1459.58 1252.45 1455 Q1255.53 1450.39 1261.34 1450.39 Z" fill="#000000" fill-rule="nonzero" fill-opacity="1" /><path clip-path="url(#clip060)" d="M1775.22 1481.64 L1782.85 1481.64 L1782.85 1455.28 L1774.54 1456.95 L1774.54 1452.69 L1782.81 1451.02 L1787.48 1451.02 L1787.48 1481.64 L1795.12 1481.64 L1795.12 1485.58 L1775.22 1485.58 L1775.22 1481.64 Z" fill="#000000" fill-rule="nonzero" fill-opacity="1" /><path clip-path="url(#clip060)" d="M1804.61 1451.02 L1822.97 1451.02 L1822.97 1454.96 L1808.9 1454.96 L1808.9 1463.43 Q1809.91 1463.08 1810.93 1462.92 Q1811.95 1462.73 1812.97 1462.73 Q1818.76 1462.73 1822.14 1465.9 Q1825.52 1469.08 1825.52 1474.49 Q1825.52 1480.07 1822.04 1483.17 Q1818.57 1486.25 1812.25 1486.25 Q1810.08 1486.25 1807.81 1485.88 Q1805.56 1485.51 1803.16 1484.77 L1803.16 1480.07 Q1805.24 1481.2 1807.46 1481.76 Q1809.68 1482.32 1812.16 1482.32 Q1816.16 1482.32 1818.5 1480.21 Q1820.84 1478.1 1820.84 1474.49 Q1820.84 1470.88 1818.5 1468.77 Q1816.16 1466.67 1812.16 1466.67 Q1810.28 1466.67 1808.41 1467.08 Q1806.56 1467.5 1804.61 1468.38 L1804.61 1451.02 Z" fill="#000000" fill-rule="nonzero" fill-opacity="1" /><path clip-path="url(#clip060)" d="M2331.53 1481.64 L2347.85 1481.64 L2347.85 1485.58 L2325.9 1485.58 L2325.9 1481.64 Q2328.57 1478.89 2333.15 1474.26 Q2337.76 1469.61 2338.94 1468.27 Q2341.18 1465.74 2342.06 1464.01 Q2342.96 1462.25 2342.96 1460.56 Q2342.96 1457.8 2341.02 1456.07 Q2339.1 1454.33 2336 1454.33 Q2333.8 1454.33 2331.34 1455.09 Q2328.91 1455.86 2326.14 1457.41 L2326.14 1452.69 Q2328.96 1451.55 2331.41 1450.97 Q2333.87 1450.39 2335.9 1450.39 Q2341.27 1450.39 2344.47 1453.08 Q2347.66 1455.77 2347.66 1460.26 Q2347.66 1462.39 2346.85 1464.31 Q2346.07 1466.2 2343.96 1468.8 Q2343.38 1469.47 2340.28 1472.69 Q2337.18 1475.88 2331.53 1481.64 Z" fill="#000000" fill-rule="nonzero" fill-opacity="1" /><path clip-path="url(#clip060)" d="M2367.66 1454.1 Q2364.05 1454.1 2362.22 1457.66 Q2360.42 1461.2 2360.42 1468.33 Q2360.42 1475.44 2362.22 1479.01 Q2364.05 1482.55 2367.66 1482.55 Q2371.3 1482.55 2373.1 1479.01 Q2374.93 1475.44 2374.93 1468.33 Q2374.93 1461.2 2373.1 1457.66 Q2371.3 1454.1 2367.66 1454.1 M2367.66 1450.39 Q2373.47 1450.39 2376.53 1455 Q2379.61 1459.58 2379.61 1468.33 Q2379.61 1477.06 2376.53 1481.67 Q2373.47 1486.25 2367.66 1486.25 Q2361.85 1486.25 2358.77 1481.67 Q2355.72 1477.06 2355.72 1468.33 Q2355.72 1459.58 2358.77 1455 Q2361.85 1450.39 2367.66 1450.39 Z" fill="#000000" fill-rule="nonzero" fill-opacity="1" /><path clip-path="url(#clip060)" d="M1246.37 1522.27 L1246.37 1532.4 L1258.43 1532.4 L1258.43 1536.95 L1246.37 1536.95 L1246.37 1556.3 Q1246.37 1560.66 1247.54 1561.9 Q1248.75 1563.14 1252.41 1563.14 L1258.43 1563.14 L1258.43 1568.04 L1252.41 1568.04 Q1245.63 1568.04 1243.06 1565.53 Q1240.48 1562.98 1240.48 1556.3 L1240.48 1536.95 L1236.18 1536.95 L1236.18 1532.4 L1240.48 1532.4 L1240.48 1522.27 L1246.37 1522.27 Z" fill="#000000" fill-rule="nonzero" fill-opacity="1" /><polyline clip-path="url(#clip062)" style="stroke:#000000; stroke-linecap:round; stroke-linejoin:round; stroke-width:2; stroke-opacity:0.1; fill:none" points="141.853,1384.24 2352.76,1384.24 "/>
<polyline clip-path="url(#clip062)" style="stroke:#000000; stroke-linecap:round; stroke-linejoin:round; stroke-width:2; stroke-opacity:0.1; fill:none" points="141.853,1167.9 2352.76,1167.9 "/>
<polyline clip-path="url(#clip062)" style="stroke:#000000; stroke-linecap:round; stroke-linejoin:round; stroke-width:2; stroke-opacity:0.1; fill:none" points="141.853,951.554 2352.76,951.554 "/>
<polyline clip-path="url(#clip062)" style="stroke:#000000; stroke-linecap:round; stroke-linejoin:round; stroke-width:2; stroke-opacity:0.1; fill:none" points="141.853,735.212 2352.76,735.212 "/>
<polyline clip-path="url(#clip062)" style="stroke:#000000; stroke-linecap:round; stroke-linejoin:round; stroke-width:2; stroke-opacity:0.1; fill:none" points="141.853,518.87 2352.76,518.87 "/>
<polyline clip-path="url(#clip062)" style="stroke:#000000; stroke-linecap:round; stroke-linejoin:round; stroke-width:2; stroke-opacity:0.1; fill:none" points="141.853,302.528 2352.76,302.528 "/>
<polyline clip-path="url(#clip062)" style="stroke:#000000; stroke-linecap:round; stroke-linejoin:round; stroke-width:2; stroke-opacity:0.1; fill:none" points="141.853,86.1857 2352.76,86.1857 "/>
<polyline clip-path="url(#clip060)" style="stroke:#000000; stroke-linecap:round; stroke-linejoin:round; stroke-width:4; stroke-opacity:1; fill:none" points="141.853,1423.18 141.853,47.2441 "/>
<polyline clip-path="url(#clip060)" style="stroke:#000000; stroke-linecap:round; stroke-linejoin:round; stroke-width:4; stroke-opacity:1; fill:none" points="141.853,1384.24 160.751,1384.24 "/>
<polyline clip-path="url(#clip060)" style="stroke:#000000; stroke-linecap:round; stroke-linejoin:round; stroke-width:4; stroke-opacity:1; fill:none" points="141.853,1167.9 160.751,1167.9 "/>
<polyline clip-path="url(#clip060)" style="stroke:#000000; stroke-linecap:round; stroke-linejoin:round; stroke-width:4; stroke-opacity:1; fill:none" points="141.853,951.554 160.751,951.554 "/>
<polyline clip-path="url(#clip060)" style="stroke:#000000; stroke-linecap:round; stroke-linejoin:round; stroke-width:4; stroke-opacity:1; fill:none" points="141.853,735.212 160.751,735.212 "/>
<polyline clip-path="url(#clip060)" style="stroke:#000000; stroke-linecap:round; stroke-linejoin:round; stroke-width:4; stroke-opacity:1; fill:none" points="141.853,518.87 160.751,518.87 "/>
<polyline clip-path="url(#clip060)" style="stroke:#000000; stroke-linecap:round; stroke-linejoin:round; stroke-width:4; stroke-opacity:1; fill:none" points="141.853,302.528 160.751,302.528 "/>
<polyline clip-path="url(#clip060)" style="stroke:#000000; stroke-linecap:round; stroke-linejoin:round; stroke-width:4; stroke-opacity:1; fill:none" points="141.853,86.1857 160.751,86.1857 "/>
<path clip-path="url(#clip060)" d="M93.9086 1370.04 Q90.2975 1370.04 88.4688 1373.6 Q86.6632 1377.14 86.6632 1384.27 Q86.6632 1391.38 88.4688 1394.94 Q90.2975 1398.49 93.9086 1398.49 Q97.5428 1398.49 99.3483 1394.94 Q101.177 1391.38 101.177 1384.27 Q101.177 1377.14 99.3483 1373.6 Q97.5428 1370.04 93.9086 1370.04 M93.9086 1366.33 Q99.7187 1366.33 102.774 1370.94 Q105.853 1375.52 105.853 1384.27 Q105.853 1393 102.774 1397.61 Q99.7187 1402.19 93.9086 1402.19 Q88.0984 1402.19 85.0197 1397.61 Q81.9642 1393 81.9642 1384.27 Q81.9642 1375.52 85.0197 1370.94 Q88.0984 1366.33 93.9086 1366.33 Z" fill="#000000" fill-rule="nonzero" fill-opacity="1" /><path clip-path="url(#clip060)" d="M54.5569 1181.24 L62.1958 1181.24 L62.1958 1154.88 L53.8856 1156.54 L53.8856 1152.28 L62.1495 1150.62 L66.8254 1150.62 L66.8254 1181.24 L74.4642 1181.24 L74.4642 1185.18 L54.5569 1185.18 L54.5569 1181.24 Z" fill="#000000" fill-rule="nonzero" fill-opacity="1" /><path clip-path="url(#clip060)" d="M93.9086 1153.69 Q90.2975 1153.69 88.4688 1157.26 Q86.6632 1160.8 86.6632 1167.93 Q86.6632 1175.04 88.4688 1178.6 Q90.2975 1182.14 93.9086 1182.14 Q97.5428 1182.14 99.3483 1178.6 Q101.177 1175.04 101.177 1167.93 Q101.177 1160.8 99.3483 1157.26 Q97.5428 1153.69 93.9086 1153.69 M93.9086 1149.99 Q99.7187 1149.99 102.774 1154.6 Q105.853 1159.18 105.853 1167.93 Q105.853 1176.66 102.774 1181.26 Q99.7187 1185.85 93.9086 1185.85 Q88.0984 1185.85 85.0197 1181.26 Q81.9642 1176.66 81.9642 1167.93 Q81.9642 1159.18 85.0197 1154.6 Q88.0984 1149.99 93.9086 1149.99 Z" fill="#000000" fill-rule="nonzero" fill-opacity="1" /><path clip-path="url(#clip060)" d="M57.7745 964.899 L74.0939 964.899 L74.0939 968.834 L52.1495 968.834 L52.1495 964.899 Q54.8115 962.144 59.3949 957.515 Q64.0013 952.862 65.1819 951.519 Q67.4272 948.996 68.3068 947.26 Q69.2096 945.501 69.2096 943.811 Q69.2096 941.056 67.2652 939.32 Q65.3439 937.584 62.2421 937.584 Q60.043 937.584 57.5893 938.348 Q55.1588 939.112 52.381 940.663 L52.381 935.941 Q55.2051 934.806 57.6588 934.228 Q60.1124 933.649 62.1495 933.649 Q67.5198 933.649 70.7142 936.334 Q73.9087 939.019 73.9087 943.51 Q73.9087 945.64 73.0985 947.561 Q72.3115 949.459 70.205 952.052 Q69.6263 952.723 66.5245 955.941 Q63.4226 959.135 57.7745 964.899 Z" fill="#000000" fill-rule="nonzero" fill-opacity="1" /><path clip-path="url(#clip060)" d="M93.9086 937.353 Q90.2975 937.353 88.4688 940.918 Q86.6632 944.459 86.6632 951.589 Q86.6632 958.695 88.4688 962.26 Q90.2975 965.802 93.9086 965.802 Q97.5428 965.802 99.3483 962.26 Q101.177 958.695 101.177 951.589 Q101.177 944.459 99.3483 940.918 Q97.5428 937.353 93.9086 937.353 M93.9086 933.649 Q99.7187 933.649 102.774 938.256 Q105.853 942.839 105.853 951.589 Q105.853 960.316 102.774 964.922 Q99.7187 969.505 93.9086 969.505 Q88.0984 969.505 85.0197 964.922 Q81.9642 960.316 81.9642 951.589 Q81.9642 942.839 85.0197 938.256 Q88.0984 933.649 93.9086 933.649 Z" fill="#000000" fill-rule="nonzero" fill-opacity="1" /><path clip-path="url(#clip060)" d="M67.9133 733.858 Q71.2698 734.575 73.1448 736.844 Q75.0429 739.112 75.0429 742.446 Q75.0429 747.561 71.5244 750.362 Q68.0059 753.163 61.5245 753.163 Q59.3486 753.163 57.0338 752.723 Q54.7421 752.307 52.2884 751.45 L52.2884 746.936 Q54.2328 748.071 56.5477 748.649 Q58.8625 749.228 61.3856 749.228 Q65.7837 749.228 68.0754 747.492 Q70.3902 745.756 70.3902 742.446 Q70.3902 739.39 68.2374 737.677 Q66.1078 735.941 62.2884 735.941 L58.2606 735.941 L58.2606 732.099 L62.4735 732.099 Q65.9226 732.099 67.7513 730.733 Q69.58 729.344 69.58 726.751 Q69.58 724.089 67.6819 722.677 Q65.8069 721.242 62.2884 721.242 Q60.3671 721.242 58.168 721.659 Q55.969 722.075 53.3301 722.955 L53.3301 718.788 Q55.9921 718.048 58.3069 717.677 Q60.6449 717.307 62.705 717.307 Q68.0291 717.307 71.1309 719.738 Q74.2327 722.145 74.2327 726.265 Q74.2327 729.136 72.5892 731.126 Q70.9457 733.094 67.9133 733.858 Z" fill="#000000" fill-rule="nonzero" fill-opacity="1" /><path clip-path="url(#clip060)" d="M93.9086 721.011 Q90.2975 721.011 88.4688 724.575 Q86.6632 728.117 86.6632 735.247 Q86.6632 742.353 88.4688 745.918 Q90.2975 749.46 93.9086 749.46 Q97.5428 749.46 99.3483 745.918 Q101.177 742.353 101.177 735.247 Q101.177 728.117 99.3483 724.575 Q97.5428 721.011 93.9086 721.011 M93.9086 717.307 Q99.7187 717.307 102.774 721.913 Q105.853 726.497 105.853 735.247 Q105.853 743.973 102.774 748.58 Q99.7187 753.163 93.9086 753.163 Q88.0984 753.163 85.0197 748.58 Q81.9642 743.973 81.9642 735.247 Q81.9642 726.497 85.0197 721.913 Q88.0984 717.307 93.9086 717.307 Z" fill="#000000" fill-rule="nonzero" fill-opacity="1" /><path clip-path="url(#clip060)" d="M66.5939 505.664 L54.7884 524.113 L66.5939 524.113 L66.5939 505.664 M65.367 501.59 L71.2466 501.59 L71.2466 524.113 L76.1772 524.113 L76.1772 528.002 L71.2466 528.002 L71.2466 536.15 L66.5939 536.15 L66.5939 528.002 L50.9921 528.002 L50.9921 523.488 L65.367 501.59 Z" fill="#000000" fill-rule="nonzero" fill-opacity="1" /><path clip-path="url(#clip060)" d="M93.9086 504.669 Q90.2975 504.669 88.4688 508.233 Q86.6632 511.775 86.6632 518.905 Q86.6632 526.011 88.4688 529.576 Q90.2975 533.117 93.9086 533.117 Q97.5428 533.117 99.3483 529.576 Q101.177 526.011 101.177 518.905 Q101.177 511.775 99.3483 508.233 Q97.5428 504.669 93.9086 504.669 M93.9086 500.965 Q99.7187 500.965 102.774 505.571 Q105.853 510.155 105.853 518.905 Q105.853 527.631 102.774 532.238 Q99.7187 536.821 93.9086 536.821 Q88.0984 536.821 85.0197 532.238 Q81.9642 527.631 81.9642 518.905 Q81.9642 510.155 85.0197 505.571 Q88.0984 500.965 93.9086 500.965 Z" fill="#000000" fill-rule="nonzero" fill-opacity="1" /><path clip-path="url(#clip060)" d="M53.793 285.248 L72.1494 285.248 L72.1494 289.183 L58.0754 289.183 L58.0754 297.655 Q59.0939 297.308 60.1124 297.146 Q61.131 296.961 62.1495 296.961 Q67.9365 296.961 71.3161 300.132 Q74.6957 303.303 74.6957 308.72 Q74.6957 314.299 71.2235 317.4 Q67.7513 320.479 61.4319 320.479 Q59.256 320.479 56.9875 320.109 Q54.7421 319.738 52.3347 318.998 L52.3347 314.299 Q54.418 315.433 56.6402 315.988 Q58.8625 316.544 61.3393 316.544 Q65.3439 316.544 67.6819 314.437 Q70.0198 312.331 70.0198 308.72 Q70.0198 305.109 67.6819 303.002 Q65.3439 300.896 61.3393 300.896 Q59.4643 300.896 57.5893 301.312 Q55.7375 301.729 53.793 302.609 L53.793 285.248 Z" fill="#000000" fill-rule="nonzero" fill-opacity="1" /><path clip-path="url(#clip060)" d="M93.9086 288.326 Q90.2975 288.326 88.4688 291.891 Q86.6632 295.433 86.6632 302.562 Q86.6632 309.669 88.4688 313.234 Q90.2975 316.775 93.9086 316.775 Q97.5428 316.775 99.3483 313.234 Q101.177 309.669 101.177 302.562 Q101.177 295.433 99.3483 291.891 Q97.5428 288.326 93.9086 288.326 M93.9086 284.623 Q99.7187 284.623 102.774 289.229 Q105.853 293.813 105.853 302.562 Q105.853 311.289 102.774 315.896 Q99.7187 320.479 93.9086 320.479 Q88.0984 320.479 85.0197 315.896 Q81.9642 311.289 81.9642 302.562 Q81.9642 293.813 85.0197 289.229 Q88.0984 284.623 93.9086 284.623 Z" fill="#000000" fill-rule="nonzero" fill-opacity="1" /><path clip-path="url(#clip060)" d="M64.3254 84.3223 Q61.1773 84.3223 59.3254 86.475 Q57.4967 88.6278 57.4967 92.3778 Q57.4967 96.1046 59.3254 98.2805 Q61.1773 100.433 64.3254 100.433 Q67.4735 100.433 69.3022 98.2805 Q71.1541 96.1046 71.1541 92.3778 Q71.1541 88.6278 69.3022 86.475 Q67.4735 84.3223 64.3254 84.3223 M73.6077 69.6696 L73.6077 73.9288 Q71.8485 73.0955 70.0429 72.6557 Q68.2606 72.2158 66.5013 72.2158 Q61.8717 72.2158 59.418 75.3408 Q56.9875 78.4658 56.6402 84.7852 Q58.006 82.7713 60.0662 81.7065 Q62.1263 80.6186 64.6032 80.6186 Q69.8115 80.6186 72.8207 83.7899 Q75.8531 86.938 75.8531 92.3778 Q75.8531 97.7018 72.705 100.919 Q69.5568 104.137 64.3254 104.137 Q58.33 104.137 55.1588 99.5537 Q51.9875 94.9472 51.9875 86.2204 Q51.9875 78.026 55.8764 73.1649 Q59.7652 68.2807 66.3161 68.2807 Q68.0754 68.2807 69.8578 68.6279 Q71.6633 68.9751 73.6077 69.6696 Z" fill="#000000" fill-rule="nonzero" fill-opacity="1" /><path clip-path="url(#clip060)" d="M93.9086 71.9844 Q90.2975 71.9844 88.4688 75.5492 Q86.6632 79.0908 86.6632 86.2204 Q86.6632 93.3268 88.4688 96.8916 Q90.2975 100.433 93.9086 100.433 Q97.5428 100.433 99.3483 96.8916 Q101.177 93.3268 101.177 86.2204 Q101.177 79.0908 99.3483 75.5492 Q97.5428 71.9844 93.9086 71.9844 M93.9086 68.2807 Q99.7187 68.2807 102.774 72.8871 Q105.853 77.4704 105.853 86.2204 Q105.853 94.9472 102.774 99.5537 Q99.7187 104.137 93.9086 104.137 Q88.0984 104.137 85.0197 99.5537 Q81.9642 94.9472 81.9642 86.2204 Q81.9642 77.4704 85.0197 72.8871 Q88.0984 68.2807 93.9086 68.2807 Z" fill="#000000" fill-rule="nonzero" fill-opacity="1" /><polyline clip-path="url(#clip062)" style="stroke:#009af9; stroke-linecap:round; stroke-linejoin:round; stroke-width:4; stroke-opacity:1; fill:none" points="141.853,86.1857 144.066,91.3715 146.279,96.5293 148.492,101.659 150.705,106.761 152.919,111.835 155.132,116.882 157.345,121.901 159.558,126.892 161.771,131.856 163.984,136.793 166.197,141.703 168.41,146.585 170.623,151.44 172.837,156.269 175.05,161.07 177.263,165.845 179.476,170.593 181.689,175.315 183.902,180.01 186.115,184.679 188.328,189.321 190.541,193.938 192.755,198.528 194.968,203.092 197.181,207.63 199.394,212.143 201.607,216.63 203.82,221.091 206.033,225.527 208.246,229.937 210.46,234.323 212.673,238.683 214.886,243.017 217.099,247.327 219.312,251.612 221.525,255.873 223.738,260.108 225.951,264.319 228.164,268.506 230.378,272.668 232.591,276.806 234.804,280.919 237.017,285.009 239.23,289.074 241.443,293.116 243.656,297.134 245.869,301.129 248.083,305.099 250.296,309.047 252.509,312.971 254.722,316.872 256.935,320.749 259.148,324.604 261.361,328.436 263.574,332.244 265.787,336.031 268.001,339.794 270.214,343.535 272.427,347.254 274.64,350.95 276.853,354.624 279.066,358.276 281.279,361.906 283.492,365.515 285.705,369.101 287.919,372.666 290.132,376.209 292.345,379.731 294.558,383.231 296.771,386.71 298.984,390.168 301.197,393.605 303.41,397.021 305.624,400.416 307.837,403.791 310.05,407.145 312.263,410.478 314.476,413.791 316.689,417.084 318.902,420.356 321.115,423.609 323.328,426.841 325.542,430.053 327.755,433.246 329.968,436.419 332.181,439.572 334.394,442.706 336.607,445.821 338.82,448.916 341.033,451.992 343.247,455.049 345.46,458.087 347.673,461.106 349.886,464.107 352.099,467.089 354.312,470.052 356.525,472.997 358.738,475.923 360.951,478.831 363.165,481.721 365.378,484.593 367.591,487.447 369.804,490.283 372.017,493.101 374.23,495.902 376.443,498.685 378.656,501.451 380.869,504.199 383.083,506.93 385.296,509.644 387.509,512.341 389.722,515.021 391.935,517.684 394.148,520.33 396.361,522.959 398.574,525.572 400.788,528.169 403.001,530.749 405.214,533.313 407.427,535.86 409.64,538.392 411.853,540.907 414.066,543.407 416.279,545.891 418.492,548.359 420.706,550.811 422.919,553.248 425.132,555.67 427.345,558.076 429.558,560.466 431.771,562.842 433.984,565.202 436.197,567.548 438.41,569.879 440.624,572.194 442.837,574.496 445.05,576.782 447.263,579.054 449.476,581.311 451.689,583.554 453.902,585.783 456.115,587.998 458.329,590.198 460.542,592.385 462.755,594.557 464.968,596.716 467.181,598.861 469.394,600.992 471.607,603.11 473.82,605.214 476.033,607.305 478.247,609.382 480.46,611.446 482.673,613.497 484.886,615.535 487.099,617.56 489.312,619.571 491.525,621.57 493.738,623.557 495.952,625.53 498.165,627.491 500.378,629.44 502.591,631.376 504.804,633.299 507.017,635.211 509.23,637.11 511.443,638.997 513.656,640.872 515.87,642.735 518.083,644.586 520.296,646.425 522.509,648.253 524.722,650.068 526.935,651.873 529.148,653.665 531.361,655.447 533.574,657.216 535.788,658.975 538.001,660.722 540.214,662.459 542.427,664.184 544.64,665.898 546.853,667.601 549.066,669.293 551.279,670.975 553.493,672.646 555.706,674.306 557.919,675.955 560.132,677.594 562.345,679.223 564.558,680.841 566.771,682.448 568.984,684.046 571.197,685.633 573.411,687.211 575.624,688.778 577.837,690.335 580.05,691.882 582.263,693.419 584.476,694.947 586.689,696.465 588.902,697.973 591.116,699.472 593.329,700.961 595.542,702.44 597.755,703.91 599.968,705.371 602.181,706.823 604.394,708.265 606.607,709.698 608.82,711.122 611.034,712.537 613.247,713.943 615.46,715.34 617.673,716.728 619.886,718.108 622.099,719.478 624.312,720.84 626.525,722.193 628.738,723.538 630.952,724.874 633.165,726.202 635.378,727.521 637.591,728.832 639.804,730.135 642.017,731.43 644.23,732.716 646.443,733.994 648.657,735.264 650.87,736.526 653.083,737.78 655.296,739.026 657.509,740.264 659.722,741.495 661.935,742.718 664.148,743.933 666.361,745.14 668.575,746.34 670.788,747.532 673.001,748.717 675.214,749.894 677.427,751.064 679.64,752.226 681.853,753.381 684.066,754.529 686.279,755.67 688.493,756.804 690.706,757.93 692.919,759.05 695.132,760.162 697.345,761.268 699.558,762.366 701.771,763.458 703.984,764.543 706.198,765.621 708.411,766.692 710.624,767.757 712.837,768.815 715.05,769.866 717.263,770.911 719.476,771.949 721.689,772.981 723.902,774.006 726.116,775.025 728.329,776.038 730.542,777.044 732.755,778.044 734.968,779.038 737.181,780.025 739.394,781.007 741.607,781.982 743.821,782.951 746.034,783.914 748.247,784.872 750.46,785.823 752.673,786.769 754.886,787.708 757.099,788.642 759.312,789.57 761.525,790.492 763.739,791.409 765.952,792.319 768.165,793.225 770.378,794.124 772.591,795.018 774.804,795.907 777.017,796.79 779.23,797.668 781.443,798.54 783.657,799.407 785.87,800.268 788.083,801.124 790.296,801.975 792.509,802.821 794.722,803.662 796.935,804.497 799.148,805.327 801.362,806.152 803.575,806.973 805.788,807.788 808.001,808.598 810.214,809.403 812.427,810.203 814.64,810.998 816.853,811.789 819.066,812.574 821.28,813.355 823.493,814.131 825.706,814.903 827.919,815.669 830.132,816.431 832.345,817.189 834.558,817.942 836.771,818.69 838.985,819.433 841.198,820.172 843.411,820.907 845.624,821.637 847.837,822.363 850.05,823.084 852.263,823.801 854.476,824.514 856.689,825.222 858.903,825.926 861.116,826.626 863.329,827.322 865.542,828.013 867.755,828.7 869.968,829.383 872.181,830.062 874.394,830.737 876.607,831.408 878.821,832.075 881.034,832.738 883.247,833.396 885.46,834.051 887.673,834.702 889.886,835.349 892.099,835.992 894.312,836.631 896.526,837.267 898.739,837.898 900.952,838.526 903.165,839.15 905.378,839.771 907.591,840.387 909.804,841 912.017,841.609 914.23,842.215 916.444,842.817 918.657,843.415 920.87,844.01 923.083,844.602 925.296,845.189 927.509,845.774 929.722,846.354 931.935,846.932 934.148,847.506 936.362,848.076 938.575,848.643 940.788,849.207 943.001,849.767 945.214,850.324 947.427,850.878 949.64,851.428 951.853,851.976 954.067,852.52 956.28,853.06 958.493,853.598 960.706,854.132 962.919,854.663 965.132,855.192 967.345,855.716 969.558,856.238 971.771,856.757 973.985,857.273 976.198,857.785 978.411,858.295 980.624,858.802 982.837,859.306 985.05,859.806 987.263,860.304 989.476,860.799 991.69,861.291 993.903,861.78 996.116,862.266 998.329,862.75 1000.54,863.23 1002.76,863.708 1004.97,864.183 1007.18,864.655 1009.39,865.125 1011.61,865.591 1013.82,866.055 1016.03,866.516 1018.25,866.975 1020.46,867.431 1022.67,867.884 1024.89,868.335 1027.1,868.783 1029.31,869.228 1031.53,869.671 1033.74,870.111 1035.95,870.549 1038.16,870.984 1040.38,871.417 1042.59,871.847 1044.8,872.275 1047.02,872.7 1049.23,873.123 1051.44,873.543 1053.66,873.961 1055.87,874.377 1058.08,874.79 1060.3,875.2 1062.51,875.609 1064.72,876.015 1066.94,876.418 1069.15,876.82 1071.36,877.219 1073.57,877.615 1075.79,878.01 1078,878.402 1080.21,878.792 1082.43,879.18 1084.64,879.565 1086.85,879.949 1089.07,880.33 1091.28,880.709 1093.49,881.085 1095.71,881.46 1097.92,881.832 1100.13,882.203 1102.35,882.571 1104.56,882.937 1106.77,883.301 1108.98,883.663 1111.2,884.023 1113.41,884.381 1115.62,884.737 1117.84,885.09 1120.05,885.442 1122.26,885.792 1124.48,886.14 1126.69,886.486 1128.9,886.829 1131.12,887.171 1133.33,887.511 1135.54,887.849 1137.76,888.185 1139.97,888.52 1142.18,888.852 1144.39,889.182 1146.61,889.511 1148.82,889.837 1151.03,890.162 1153.25,890.485 1155.46,890.806 1157.67,891.126 1159.89,891.443 1162.1,891.759 1164.31,892.073 1166.53,892.385 1168.74,892.696 1170.95,893.004 1173.17,893.311 1175.38,893.616 1177.59,893.92 1179.8,894.222 1182.02,894.522 1184.23,894.82 1186.44,895.117 1188.66,895.412 1190.87,895.705 1193.08,895.997 1195.3,896.287 1197.51,896.576 1199.72,896.863 1201.94,897.148 1204.15,897.432 1206.36,897.714 1208.57,897.994 1210.79,898.273 1213,898.551 1215.21,898.826 1217.43,899.101 1219.64,899.374 1221.85,899.645 1224.07,899.915 1226.28,900.183 1228.49,900.45 1230.71,900.715 1232.92,900.979 1235.13,901.241 1237.35,901.502 1239.56,901.761 1241.77,902.019 1243.98,902.276 1246.2,902.531 1248.41,902.785 1250.62,903.037 1252.84,903.288 1255.05,903.538 1257.26,903.786 1259.48,904.033 1261.69,904.278 1263.9,904.522 1266.12,904.765 1268.33,905.006 1270.54,905.246 1272.76,905.485 1274.97,905.723 1277.18,905.959 1279.39,906.194 1281.61,906.427 1283.82,906.659 1286.03,906.89 1288.25,907.12 1290.46,907.349 1292.67,907.576 1294.89,907.802 1297.1,908.027 1299.31,908.25 1301.53,908.472 1303.74,908.693 1305.95,908.913 1308.17,909.132 1310.38,909.349 1312.59,909.566 1314.8,909.781 1317.02,909.995 1319.23,910.207 1321.44,910.419 1323.66,910.629 1325.87,910.839 1328.08,911.047 1330.3,911.254 1332.51,911.46 1334.72,911.665 1336.94,911.868 1339.15,912.071 1341.36,912.272 1343.57,912.473 1345.79,912.672 1348,912.87 1350.21,913.067 1352.43,913.263 1354.64,913.458 1356.85,913.652 1359.07,913.845 1361.28,914.037 1363.49,914.228 1365.71,914.418 1367.92,914.607 1370.13,914.794 1372.35,914.981 1374.56,915.167 1376.77,915.351 1378.98,915.535 1381.2,915.718 1383.41,915.899 1385.62,916.08 1387.84,916.26 1390.05,916.439 1392.26,916.617 1394.48,916.793 1396.69,916.969 1398.9,917.144 1401.12,917.318 1403.33,917.491 1405.54,917.664 1407.76,917.835 1409.97,918.005 1412.18,918.174 1414.39,918.343 1416.61,918.51 1418.82,918.677 1421.03,918.843 1423.25,919.008 1425.46,919.172 1427.67,919.335 1429.89,919.497 1432.1,919.659 1434.31,919.819 1436.53,919.979 1438.74,920.137 1440.95,920.295 1443.17,920.452 1445.38,920.609 1447.59,920.764 1449.8,920.919 1452.02,921.072 1454.23,921.225 1456.44,921.378 1458.66,921.529 1460.87,921.679 1463.08,921.829 1465.3,921.978 1467.51,922.126 1469.72,922.273 1471.94,922.42 1474.15,922.566 1476.36,922.711 1478.58,922.855 1480.79,922.998 1483,923.141 1485.21,923.283 1487.43,923.424 1489.64,923.565 1491.85,923.704 1494.07,923.843 1496.28,923.981 1498.49,924.119 1500.71,924.256 1502.92,924.392 1505.13,924.527 1507.35,924.662 1509.56,924.796 1511.77,924.929 1513.98,925.061 1516.2,925.193 1518.41,925.324 1520.62,925.454 1522.84,925.584 1525.05,925.713 1527.26,925.842 1529.48,925.969 1531.69,926.096 1533.9,926.223 1536.12,926.348 1538.33,926.473 1540.54,926.598 1542.76,926.721 1544.97,926.844 1547.18,926.967 1549.39,927.089 1551.61,927.21 1553.82,927.33 1556.03,927.45 1558.25,927.569 1560.46,927.688 1562.67,927.806 1564.89,927.923 1567.1,928.04 1569.31,928.156 1571.53,928.272 1573.74,928.387 1575.95,928.501 1578.17,928.615 1580.38,928.728 1582.59,928.841 1584.8,928.952 1587.02,929.064 1589.23,929.175 1591.44,929.285 1593.66,929.395 1595.87,929.504 1598.08,929.612 1600.3,929.72 1602.51,929.828 1604.72,929.935 1606.94,930.041 1609.15,930.147 1611.36,930.252 1613.58,930.356 1615.79,930.461 1618,930.564 1620.21,930.667 1622.43,930.77 1624.64,930.872 1626.85,930.973 1629.07,931.074 1631.28,931.174 1633.49,931.274 1635.71,931.374 1637.92,931.472 1640.13,931.571 1642.35,931.669 1644.56,931.766 1646.77,931.863 1648.98,931.959 1651.2,932.055 1653.41,932.15 1655.62,932.245 1657.84,932.339 1660.05,932.433 1662.26,932.526 1664.48,932.619 1666.69,932.712 1668.9,932.804 1671.12,932.895 1673.33,932.986 1675.54,933.077 1677.76,933.167 1679.97,933.256 1682.18,933.345 1684.39,933.434 1686.61,933.522 1688.82,933.61 1691.03,933.697 1693.25,933.784 1695.46,933.87 1697.67,933.956 1699.89,934.042 1702.1,934.127 1704.31,934.211 1706.53,934.296 1708.74,934.379 1710.95,934.463 1713.17,934.546 1715.38,934.628 1717.59,934.71 1719.8,934.792 1722.02,934.873 1724.23,934.954 1726.44,935.034 1728.66,935.114 1730.87,935.194 1733.08,935.273 1735.3,935.352 1737.51,935.43 1739.72,935.508 1741.94,935.585 1744.15,935.663 1746.36,935.739 1748.58,935.816 1750.79,935.892 1753,935.967 1755.21,936.042 1757.43,936.117 1759.64,936.192 1761.85,936.266 1764.07,936.339 1766.28,936.413 1768.49,936.486 1770.71,936.558 1772.92,936.63 1775.13,936.702 1777.35,936.774 1779.56,936.845 1781.77,936.915 1783.99,936.986 1786.2,937.056 1788.41,937.125 1790.62,937.195 1792.84,937.264 1795.05,937.332 1797.26,937.401 1799.48,937.468 1801.69,937.536 1803.9,937.603 1806.12,937.67 1808.33,937.737 1810.54,937.803 1812.76,937.869 1814.97,937.934 1817.18,938 1819.39,938.064 1821.61,938.129 1823.82,938.193 1826.03,938.257 1828.25,938.321 1830.46,938.384 1832.67,938.447 1834.89,938.51 1837.1,938.572 1839.31,938.634 1841.53,938.696 1843.74,938.757 1845.95,938.818 1848.17,938.879 1850.38,938.939 1852.59,938.999 1854.8,939.059 1857.02,939.119 1859.23,939.178 1861.44,939.237 1863.66,939.296 1865.87,939.354 1868.08,939.412 1870.3,939.47 1872.51,939.528 1874.72,939.585 1876.94,939.642 1879.15,939.698 1881.36,939.755 1883.58,939.811 1885.79,939.867 1888,939.922 1890.21,939.977 1892.43,940.032 1894.64,940.087 1896.85,940.141 1899.07,940.196 1901.28,940.249 1903.49,940.303 1905.71,940.356 1907.92,940.41 1910.13,940.462 1912.35,940.515 1914.56,940.567 1916.77,940.619 1918.99,940.671 1921.2,940.723 1923.41,940.774 1925.62,940.825 1927.84,940.876 1930.05,940.926 1932.26,940.976 1934.48,941.026 1936.69,941.076 1938.9,941.126 1941.12,941.175 1943.33,941.224 1945.54,941.273 1947.76,941.321 1949.97,941.369 1952.18,941.417 1954.4,941.465 1956.61,941.513 1958.82,941.56 1961.03,941.607 1963.25,941.654 1965.46,941.701 1967.67,941.747 1969.89,941.793 1972.1,941.839 1974.31,941.885 1976.53,941.93 1978.74,941.976 1980.95,942.021 1983.17,942.065 1985.38,942.11 1987.59,942.154 1989.8,942.198 1992.02,942.242 1994.23,942.286 1996.44,942.33 1998.66,942.373 2000.87,942.416 2003.08,942.459 2005.3,942.501 2007.51,942.544 2009.72,942.586 2011.94,942.628 2014.15,942.67 2016.36,942.711 2018.58,942.753 2020.79,942.794 2023,942.835 2025.21,942.876 2027.43,942.916 2029.64,942.957 2031.85,942.997 2034.07,943.037 2036.28,943.076 2038.49,943.116 2040.71,943.155 2042.92,943.195 2045.13,943.234 2047.35,943.272 2049.56,943.311 2051.77,943.349 2053.99,943.388 2056.2,943.426 2058.41,943.464 2060.62,943.501 2062.84,943.539 2065.05,943.576 2067.26,943.613 2069.48,943.65 2071.69,943.687 2073.9,943.723 2076.12,943.76 2078.33,943.796 2080.54,943.832 2082.76,943.868 2084.97,943.904 2087.18,943.939 2089.4,943.975 2091.61,944.01 2093.82,944.045 2096.03,944.08 2098.25,944.114 2100.46,944.149 2102.67,944.183 2104.89,944.217 2107.1,944.251 2109.31,944.285 2111.53,944.319 2113.74,944.352 2115.95,944.385 2118.17,944.419 2120.38,944.452 2122.59,944.484 2124.8,944.517 2127.02,944.55 2129.23,944.582 2131.44,944.614 2133.66,944.646 2135.87,944.678 2138.08,944.71 2140.3,944.742 2142.51,944.773 2144.72,944.804 2146.94,944.835 2149.15,944.866 2151.36,944.897 2153.58,944.928 2155.79,944.958 2158,944.989 2160.21,945.019 2162.43,945.049 2164.64,945.079 2166.85,945.109 2169.07,945.139 2171.28,945.168 2173.49,945.197 2175.71,945.227 2177.92,945.256 2180.13,945.285 2182.35,945.314 2184.56,945.342 2186.77,945.371 2188.99,945.399 2191.2,945.427 2193.41,945.456 2195.62,945.483 2197.84,945.511 2200.05,945.539 2202.26,945.567 2204.48,945.594 2206.69,945.621 2208.9,945.649 2211.12,945.676 2213.33,945.703 2215.54,945.729 2217.76,945.756 2219.97,945.783 2222.18,945.809 2224.4,945.835 2226.61,945.861 2228.82,945.887 2231.03,945.913 2233.25,945.939 2235.46,945.965 2237.67,945.99 2239.89,946.016 2242.1,946.041 2244.31,946.066 2246.53,946.091 2248.74,946.116 2250.95,946.141 2253.17,946.166 2255.38,946.19 2257.59,946.215 2259.81,946.239 2262.02,946.263 2264.23,946.287 2266.44,946.311 2268.66,946.335 2270.87,946.359 2273.08,946.383 2275.3,946.406 2277.51,946.43 2279.72,946.453 2281.94,946.476 2284.15,946.499 2286.36,946.522 2288.58,946.545 2290.79,946.568 2293,946.59 2295.21,946.613 2297.43,946.635 2299.64,946.658 2301.85,946.68 2304.07,946.702 2306.28,946.724 2308.49,946.746 2310.71,946.768 2312.92,946.789 2315.13,946.811 2317.35,946.832 2319.56,946.854 2321.77,946.875 2323.99,946.896 2326.2,946.917 2328.41,946.938 2330.62,946.959 2332.84,946.98 2335.05,947.001 2337.26,947.021 2339.48,947.042 2341.69,947.062 2343.9,947.082 2346.12,947.103 2348.33,947.123 2350.54,947.143 2352.76,947.163 "/>
<polyline clip-path="url(#clip062)" style="stroke:#e26f46; stroke-linecap:round; stroke-linejoin:round; stroke-width:4; stroke-opacity:1; fill:none" points="141.853,518.87 144.066,524.056 146.279,529.213 148.492,534.343 150.705,539.445 152.919,544.52 155.132,549.566 157.345,554.585 159.558,559.576 161.771,564.54 163.984,569.477 166.197,574.387 168.41,579.269 170.623,584.125 172.837,588.953 175.05,593.754 177.263,598.529 179.476,603.277 181.689,607.999 183.902,612.694 186.115,617.363 188.328,622.005 190.541,626.622 192.755,631.212 194.968,635.776 197.181,640.315 199.394,644.827 201.607,649.314 203.82,653.775 206.033,658.211 208.246,662.622 210.46,667.007 212.673,671.367 214.886,675.702 217.099,680.012 219.312,684.297 221.525,688.557 223.738,692.792 225.951,697.003 228.164,701.19 230.378,705.352 232.591,709.49 234.804,713.603 237.017,717.693 239.23,721.759 241.443,725.8 243.656,729.818 245.869,733.813 248.083,737.784 250.296,741.731 252.509,745.655 254.722,749.556 256.935,753.433 259.148,757.288 261.361,761.12 263.574,764.929 265.787,768.715 268.001,772.478 270.214,776.219 272.427,779.938 274.64,783.634 276.853,787.308 279.066,790.961 281.279,794.591 283.492,798.199 285.705,801.785 287.919,805.35 290.132,808.893 292.345,812.415 294.558,815.915 296.771,819.394 298.984,822.852 301.197,826.289 303.41,829.705 305.624,833.101 307.837,836.475 310.05,839.829 312.263,843.162 314.476,846.475 316.689,849.768 318.902,853.04 321.115,856.293 323.328,859.525 325.542,862.738 327.755,865.93 329.968,869.103 332.181,872.257 334.394,875.39 336.607,878.505 338.82,881.6 341.033,884.676 343.247,887.733 345.46,890.771 347.673,893.791 349.886,896.791 352.099,899.773 354.312,902.736 356.525,905.681 358.738,908.607 360.951,911.515 363.165,914.405 365.378,917.277 367.591,920.131 369.804,922.967 372.017,925.785 374.23,928.586 376.443,931.369 378.656,934.135 380.869,936.883 383.083,939.614 385.296,942.328 387.509,945.025 389.722,947.705 391.935,950.368 394.148,953.014 396.361,955.644 398.574,958.257 400.788,960.853 403.001,963.433 405.214,965.997 407.427,968.545 409.64,971.076 411.853,973.592 414.066,976.091 416.279,978.575 418.492,981.043 420.706,983.495 422.919,985.932 425.132,988.354 427.345,990.76 429.558,993.151 431.771,995.526 433.984,997.887 436.197,1000.23 438.41,1002.56 440.624,1004.88 442.837,1007.18 445.05,1009.47 447.263,1011.74 449.476,1014 451.689,1016.24 453.902,1018.47 456.115,1020.68 458.329,1022.88 460.542,1025.07 462.755,1027.24 464.968,1029.4 467.181,1031.55 469.394,1033.68 471.607,1035.79 473.82,1037.9 476.033,1039.99 478.247,1042.07 480.46,1044.13 482.673,1046.18 484.886,1048.22 487.099,1050.24 489.312,1052.26 491.525,1054.25 493.738,1056.24 495.952,1058.21 498.165,1060.18 500.378,1062.12 502.591,1064.06 504.804,1065.98 507.017,1067.89 509.23,1069.79 511.443,1071.68 513.656,1073.56 515.87,1075.42 518.083,1077.27 520.296,1079.11 522.509,1080.94 524.722,1082.75 526.935,1084.56 529.148,1086.35 531.361,1088.13 533.574,1089.9 535.788,1091.66 538.001,1093.41 540.214,1095.14 542.427,1096.87 544.64,1098.58 546.853,1100.29 549.066,1101.98 551.279,1103.66 553.493,1105.33 555.706,1106.99 557.919,1108.64 560.132,1110.28 562.345,1111.91 564.558,1113.52 566.771,1115.13 568.984,1116.73 571.197,1118.32 573.411,1119.89 575.624,1121.46 577.837,1123.02 580.05,1124.57 582.263,1126.1 584.476,1127.63 586.689,1129.15 588.902,1130.66 591.116,1132.16 593.329,1133.64 595.542,1135.12 597.755,1136.59 599.968,1138.06 602.181,1139.51 604.394,1140.95 606.607,1142.38 608.82,1143.81 611.034,1145.22 613.247,1146.63 615.46,1148.02 617.673,1149.41 619.886,1150.79 622.099,1152.16 624.312,1153.52 626.525,1154.88 628.738,1156.22 630.952,1157.56 633.165,1158.89 635.378,1160.21 637.591,1161.52 639.804,1162.82 642.017,1164.11 644.23,1165.4 646.443,1166.68 648.657,1167.95 650.87,1169.21 653.083,1170.46 655.296,1171.71 657.509,1172.95 659.722,1174.18 661.935,1175.4 664.148,1176.62 666.361,1177.82 668.575,1179.02 670.788,1180.22 673.001,1181.4 675.214,1182.58 677.427,1183.75 679.64,1184.91 681.853,1186.07 684.066,1187.21 686.279,1188.35 688.493,1189.49 690.706,1190.61 692.919,1191.73 695.132,1192.85 697.345,1193.95 699.558,1195.05 701.771,1196.14 703.984,1197.23 706.198,1198.3 708.411,1199.38 710.624,1200.44 712.837,1201.5 715.05,1202.55 717.263,1203.59 719.476,1204.63 721.689,1205.66 723.902,1206.69 726.116,1207.71 728.329,1208.72 730.542,1209.73 732.755,1210.73 734.968,1211.72 737.181,1212.71 739.394,1213.69 741.607,1214.67 743.821,1215.64 746.034,1216.6 748.247,1217.56 750.46,1218.51 752.673,1219.45 754.886,1220.39 757.099,1221.33 759.312,1222.25 761.525,1223.18 763.739,1224.09 765.952,1225 768.165,1225.91 770.378,1226.81 772.591,1227.7 774.804,1228.59 777.017,1229.47 779.23,1230.35 781.443,1231.22 783.657,1232.09 785.87,1232.95 788.083,1233.81 790.296,1234.66 792.509,1235.51 794.722,1236.35 796.935,1237.18 799.148,1238.01 801.362,1238.84 803.575,1239.66 805.788,1240.47 808.001,1241.28 810.214,1242.09 812.427,1242.89 814.64,1243.68 816.853,1244.47 819.066,1245.26 821.28,1246.04 823.493,1246.82 825.706,1247.59 827.919,1248.35 830.132,1249.12 832.345,1249.87 834.558,1250.63 836.771,1251.37 838.985,1252.12 841.198,1252.86 843.411,1253.59 845.624,1254.32 847.837,1255.05 850.05,1255.77 852.263,1256.49 854.476,1257.2 856.689,1257.91 858.903,1258.61 861.116,1259.31 863.329,1260.01 865.542,1260.7 867.755,1261.38 869.968,1262.07 872.181,1262.75 874.394,1263.42 876.607,1264.09 878.821,1264.76 881.034,1265.42 883.247,1266.08 885.46,1266.74 887.673,1267.39 889.886,1268.03 892.099,1268.68 894.312,1269.32 896.526,1269.95 898.739,1270.58 900.952,1271.21 903.165,1271.83 905.378,1272.45 907.591,1273.07 909.804,1273.68 912.017,1274.29 914.23,1274.9 916.444,1275.5 918.657,1276.1 920.87,1276.69 923.083,1277.29 925.296,1277.87 927.509,1278.46 929.722,1279.04 931.935,1279.62 934.148,1280.19 936.362,1280.76 938.575,1281.33 940.788,1281.89 943.001,1282.45 945.214,1283.01 947.427,1283.56 949.64,1284.11 951.853,1284.66 954.067,1285.2 956.28,1285.74 958.493,1286.28 960.706,1286.82 962.919,1287.35 965.132,1287.88 967.345,1288.4 969.558,1288.92 971.771,1289.44 973.985,1289.96 976.198,1290.47 978.411,1290.98 980.624,1291.49 982.837,1291.99 985.05,1292.49 987.263,1292.99 989.476,1293.48 991.69,1293.98 993.903,1294.46 996.116,1294.95 998.329,1295.43 1000.54,1295.91 1002.76,1296.39 1004.97,1296.87 1007.18,1297.34 1009.39,1297.81 1011.61,1298.28 1013.82,1298.74 1016.03,1299.2 1018.25,1299.66 1020.46,1300.12 1022.67,1300.57 1024.89,1301.02 1027.1,1301.47 1029.31,1301.91 1031.53,1302.36 1033.74,1302.8 1035.95,1303.23 1038.16,1303.67 1040.38,1304.1 1042.59,1304.53 1044.8,1304.96 1047.02,1305.38 1049.23,1305.81 1051.44,1306.23 1053.66,1306.65 1055.87,1307.06 1058.08,1307.47 1060.3,1307.88 1062.51,1308.29 1064.72,1308.7 1066.94,1309.1 1069.15,1309.5 1071.36,1309.9 1073.57,1310.3 1075.79,1310.69 1078,1311.09 1080.21,1311.48 1082.43,1311.86 1084.64,1312.25 1086.85,1312.63 1089.07,1313.01 1091.28,1313.39 1093.49,1313.77 1095.71,1314.14 1097.92,1314.52 1100.13,1314.89 1102.35,1315.26 1104.56,1315.62 1106.77,1315.99 1108.98,1316.35 1111.2,1316.71 1113.41,1317.07 1115.62,1317.42 1117.84,1317.77 1120.05,1318.13 1122.26,1318.48 1124.48,1318.82 1126.69,1319.17 1128.9,1319.51 1131.12,1319.86 1133.33,1320.2 1135.54,1320.53 1137.76,1320.87 1139.97,1321.2 1142.18,1321.54 1144.39,1321.87 1146.61,1322.19 1148.82,1322.52 1151.03,1322.85 1153.25,1323.17 1155.46,1323.49 1157.67,1323.81 1159.89,1324.13 1162.1,1324.44 1164.31,1324.76 1166.53,1325.07 1168.74,1325.38 1170.95,1325.69 1173.17,1326 1175.38,1326.3 1177.59,1326.6 1179.8,1326.91 1182.02,1327.21 1184.23,1327.5 1186.44,1327.8 1188.66,1328.1 1190.87,1328.39 1193.08,1328.68 1195.3,1328.97 1197.51,1329.26 1199.72,1329.55 1201.94,1329.83 1204.15,1330.12 1206.36,1330.4 1208.57,1330.68 1210.79,1330.96 1213,1331.23 1215.21,1331.51 1217.43,1331.78 1219.64,1332.06 1221.85,1332.33 1224.07,1332.6 1226.28,1332.87 1228.49,1333.13 1230.71,1333.4 1232.92,1333.66 1235.13,1333.93 1237.35,1334.19 1239.56,1334.45 1241.77,1334.7 1243.98,1334.96 1246.2,1335.22 1248.41,1335.47 1250.62,1335.72 1252.84,1335.97 1255.05,1336.22 1257.26,1336.47 1259.48,1336.72 1261.69,1336.96 1263.9,1337.21 1266.12,1337.45 1268.33,1337.69 1270.54,1337.93 1272.76,1338.17 1274.97,1338.41 1277.18,1338.64 1279.39,1338.88 1281.61,1339.11 1283.82,1339.34 1286.03,1339.57 1288.25,1339.8 1290.46,1340.03 1292.67,1340.26 1294.89,1340.49 1297.1,1340.71 1299.31,1340.93 1301.53,1341.16 1303.74,1341.38 1305.95,1341.6 1308.17,1341.82 1310.38,1342.03 1312.59,1342.25 1314.8,1342.46 1317.02,1342.68 1319.23,1342.89 1321.44,1343.1 1323.66,1343.31 1325.87,1343.52 1328.08,1343.73 1330.3,1343.94 1332.51,1344.14 1334.72,1344.35 1336.94,1344.55 1339.15,1344.76 1341.36,1344.96 1343.57,1345.16 1345.79,1345.36 1348,1345.55 1350.21,1345.75 1352.43,1345.95 1354.64,1346.14 1356.85,1346.34 1359.07,1346.53 1361.28,1346.72 1363.49,1346.91 1365.71,1347.1 1367.92,1347.29 1370.13,1347.48 1372.35,1347.67 1374.56,1347.85 1376.77,1348.04 1378.98,1348.22 1381.2,1348.4 1383.41,1348.58 1385.62,1348.76 1387.84,1348.94 1390.05,1349.12 1392.26,1349.3 1394.48,1349.48 1396.69,1349.65 1398.9,1349.83 1401.12,1350 1403.33,1350.18 1405.54,1350.35 1407.76,1350.52 1409.97,1350.69 1412.18,1350.86 1414.39,1351.03 1416.61,1351.19 1418.82,1351.36 1421.03,1351.53 1423.25,1351.69 1425.46,1351.86 1427.67,1352.02 1429.89,1352.18 1432.1,1352.34 1434.31,1352.5 1436.53,1352.66 1438.74,1352.82 1440.95,1352.98 1443.17,1353.14 1445.38,1353.29 1447.59,1353.45 1449.8,1353.6 1452.02,1353.76 1454.23,1353.91 1456.44,1354.06 1458.66,1354.21 1460.87,1354.36 1463.08,1354.51 1465.3,1354.66 1467.51,1354.81 1469.72,1354.96 1471.94,1355.1 1474.15,1355.25 1476.36,1355.39 1478.58,1355.54 1480.79,1355.68 1483,1355.83 1485.21,1355.97 1487.43,1356.11 1489.64,1356.25 1491.85,1356.39 1494.07,1356.53 1496.28,1356.67 1498.49,1356.8 1500.71,1356.94 1502.92,1357.08 1505.13,1357.21 1507.35,1357.35 1509.56,1357.48 1511.77,1357.61 1513.98,1357.75 1516.2,1357.88 1518.41,1358.01 1520.62,1358.14 1522.84,1358.27 1525.05,1358.4 1527.26,1358.53 1529.48,1358.65 1531.69,1358.78 1533.9,1358.91 1536.12,1359.03 1538.33,1359.16 1540.54,1359.28 1542.76,1359.41 1544.97,1359.53 1547.18,1359.65 1549.39,1359.77 1551.61,1359.89 1553.82,1360.01 1556.03,1360.13 1558.25,1360.25 1560.46,1360.37 1562.67,1360.49 1564.89,1360.61 1567.1,1360.72 1569.31,1360.84 1571.53,1360.96 1573.74,1361.07 1575.95,1361.19 1578.17,1361.3 1580.38,1361.41 1582.59,1361.52 1584.8,1361.64 1587.02,1361.75 1589.23,1361.86 1591.44,1361.97 1593.66,1362.08 1595.87,1362.19 1598.08,1362.3 1600.3,1362.4 1602.51,1362.51 1604.72,1362.62 1606.94,1362.73 1609.15,1362.83 1611.36,1362.94 1613.58,1363.04 1615.79,1363.14 1618,1363.25 1620.21,1363.35 1622.43,1363.45 1624.64,1363.56 1626.85,1363.66 1629.07,1363.76 1631.28,1363.86 1633.49,1363.96 1635.71,1364.06 1637.92,1364.16 1640.13,1364.25 1642.35,1364.35 1644.56,1364.45 1646.77,1364.55 1648.98,1364.64 1651.2,1364.74 1653.41,1364.83 1655.62,1364.93 1657.84,1365.02 1660.05,1365.12 1662.26,1365.21 1664.48,1365.3 1666.69,1365.4 1668.9,1365.49 1671.12,1365.58 1673.33,1365.67 1675.54,1365.76 1677.76,1365.85 1679.97,1365.94 1682.18,1366.03 1684.39,1366.12 1686.61,1366.21 1688.82,1366.29 1691.03,1366.38 1693.25,1366.47 1695.46,1366.55 1697.67,1366.64 1699.89,1366.73 1702.1,1366.81 1704.31,1366.9 1706.53,1366.98 1708.74,1367.06 1710.95,1367.15 1713.17,1367.23 1715.38,1367.31 1717.59,1367.39 1719.8,1367.48 1722.02,1367.56 1724.23,1367.64 1726.44,1367.72 1728.66,1367.8 1730.87,1367.88 1733.08,1367.96 1735.3,1368.04 1737.51,1368.11 1739.72,1368.19 1741.94,1368.27 1744.15,1368.35 1746.36,1368.42 1748.58,1368.5 1750.79,1368.58 1753,1368.65 1755.21,1368.73 1757.43,1368.8 1759.64,1368.88 1761.85,1368.95 1764.07,1369.02 1766.28,1369.1 1768.49,1369.17 1770.71,1369.24 1772.92,1369.31 1775.13,1369.39 1777.35,1369.46 1779.56,1369.53 1781.77,1369.6 1783.99,1369.67 1786.2,1369.74 1788.41,1369.81 1790.62,1369.88 1792.84,1369.95 1795.05,1370.02 1797.26,1370.08 1799.48,1370.15 1801.69,1370.22 1803.9,1370.29 1806.12,1370.35 1808.33,1370.42 1810.54,1370.49 1812.76,1370.55 1814.97,1370.62 1817.18,1370.68 1819.39,1370.75 1821.61,1370.81 1823.82,1370.88 1826.03,1370.94 1828.25,1371 1830.46,1371.07 1832.67,1371.13 1834.89,1371.19 1837.1,1371.26 1839.31,1371.32 1841.53,1371.38 1843.74,1371.44 1845.95,1371.5 1848.17,1371.56 1850.38,1371.62 1852.59,1371.68 1854.8,1371.74 1857.02,1371.8 1859.23,1371.86 1861.44,1371.92 1863.66,1371.98 1865.87,1372.04 1868.08,1372.1 1870.3,1372.15 1872.51,1372.21 1874.72,1372.27 1876.94,1372.33 1879.15,1372.38 1881.36,1372.44 1883.58,1372.49 1885.79,1372.55 1888,1372.61 1890.21,1372.66 1892.43,1372.72 1894.64,1372.77 1896.85,1372.83 1899.07,1372.88 1901.28,1372.93 1903.49,1372.99 1905.71,1373.04 1907.92,1373.09 1910.13,1373.15 1912.35,1373.2 1914.56,1373.25 1916.77,1373.3 1918.99,1373.36 1921.2,1373.41 1923.41,1373.46 1925.62,1373.51 1927.84,1373.56 1930.05,1373.61 1932.26,1373.66 1934.48,1373.71 1936.69,1373.76 1938.9,1373.81 1941.12,1373.86 1943.33,1373.91 1945.54,1373.96 1947.76,1374.01 1949.97,1374.05 1952.18,1374.1 1954.4,1374.15 1956.61,1374.2 1958.82,1374.24 1961.03,1374.29 1963.25,1374.34 1965.46,1374.38 1967.67,1374.43 1969.89,1374.48 1972.1,1374.52 1974.31,1374.57 1976.53,1374.61 1978.74,1374.66 1980.95,1374.7 1983.17,1374.75 1985.38,1374.79 1987.59,1374.84 1989.8,1374.88 1992.02,1374.93 1994.23,1374.97 1996.44,1375.01 1998.66,1375.06 2000.87,1375.1 2003.08,1375.14 2005.3,1375.19 2007.51,1375.23 2009.72,1375.27 2011.94,1375.31 2014.15,1375.35 2016.36,1375.4 2018.58,1375.44 2020.79,1375.48 2023,1375.52 2025.21,1375.56 2027.43,1375.6 2029.64,1375.64 2031.85,1375.68 2034.07,1375.72 2036.28,1375.76 2038.49,1375.8 2040.71,1375.84 2042.92,1375.88 2045.13,1375.92 2047.35,1375.96 2049.56,1376 2051.77,1376.03 2053.99,1376.07 2056.2,1376.11 2058.41,1376.15 2060.62,1376.19 2062.84,1376.22 2065.05,1376.26 2067.26,1376.3 2069.48,1376.33 2071.69,1376.37 2073.9,1376.41 2076.12,1376.44 2078.33,1376.48 2080.54,1376.52 2082.76,1376.55 2084.97,1376.59 2087.18,1376.62 2089.4,1376.66 2091.61,1376.69 2093.82,1376.73 2096.03,1376.76 2098.25,1376.8 2100.46,1376.83 2102.67,1376.87 2104.89,1376.9 2107.1,1376.94 2109.31,1376.97 2111.53,1377 2113.74,1377.04 2115.95,1377.07 2118.17,1377.1 2120.38,1377.14 2122.59,1377.17 2124.8,1377.2 2127.02,1377.23 2129.23,1377.27 2131.44,1377.3 2133.66,1377.33 2135.87,1377.36 2138.08,1377.39 2140.3,1377.43 2142.51,1377.46 2144.72,1377.49 2146.94,1377.52 2149.15,1377.55 2151.36,1377.58 2153.58,1377.61 2155.79,1377.64 2158,1377.67 2160.21,1377.7 2162.43,1377.73 2164.64,1377.76 2166.85,1377.79 2169.07,1377.82 2171.28,1377.85 2173.49,1377.88 2175.71,1377.91 2177.92,1377.94 2180.13,1377.97 2182.35,1378 2184.56,1378.03 2186.77,1378.05 2188.99,1378.08 2191.2,1378.11 2193.41,1378.14 2195.62,1378.17 2197.84,1378.2 2200.05,1378.22 2202.26,1378.25 2204.48,1378.28 2206.69,1378.31 2208.9,1378.33 2211.12,1378.36 2213.33,1378.39 2215.54,1378.41 2217.76,1378.44 2219.97,1378.47 2222.18,1378.49 2224.4,1378.52 2226.61,1378.55 2228.82,1378.57 2231.03,1378.6 2233.25,1378.62 2235.46,1378.65 2237.67,1378.67 2239.89,1378.7 2242.1,1378.73 2244.31,1378.75 2246.53,1378.78 2248.74,1378.8 2250.95,1378.83 2253.17,1378.85 2255.38,1378.87 2257.59,1378.9 2259.81,1378.92 2262.02,1378.95 2264.23,1378.97 2266.44,1379 2268.66,1379.02 2270.87,1379.04 2273.08,1379.07 2275.3,1379.09 2277.51,1379.11 2279.72,1379.14 2281.94,1379.16 2284.15,1379.18 2286.36,1379.21 2288.58,1379.23 2290.79,1379.25 2293,1379.27 2295.21,1379.3 2297.43,1379.32 2299.64,1379.34 2301.85,1379.36 2304.07,1379.39 2306.28,1379.41 2308.49,1379.43 2310.71,1379.45 2312.92,1379.47 2315.13,1379.5 2317.35,1379.52 2319.56,1379.54 2321.77,1379.56 2323.99,1379.58 2326.2,1379.6 2328.41,1379.62 2330.62,1379.64 2332.84,1379.66 2335.05,1379.68 2337.26,1379.71 2339.48,1379.73 2341.69,1379.75 2343.9,1379.77 2346.12,1379.79 2348.33,1379.81 2350.54,1379.83 2352.76,1379.85 "/>
<polyline clip-path="url(#clip062)" style="stroke:#3da44d; stroke-linecap:round; stroke-linejoin:round; stroke-width:4; stroke-opacity:1; fill:none" points="141.853,1384.24 144.066,1379.05 146.279,1373.89 148.492,1368.76 150.705,1363.66 152.919,1358.59 155.132,1353.54 157.345,1348.52 159.558,1343.53 161.771,1338.57 163.984,1333.63 166.197,1328.72 168.41,1323.84 170.623,1318.98 172.837,1314.16 175.05,1309.35 177.263,1304.58 179.476,1299.83 181.689,1295.11 183.902,1290.41 186.115,1285.75 188.328,1281.1 190.541,1276.49 192.755,1271.9 194.968,1267.33 197.181,1262.79 199.394,1258.28 201.607,1253.79 203.82,1249.33 206.033,1244.9 208.246,1240.49 210.46,1236.1 212.673,1231.74 214.886,1227.41 217.099,1223.1 219.312,1218.81 221.525,1214.55 223.738,1210.32 225.951,1206.1 228.164,1201.92 230.378,1197.76 232.591,1193.62 234.804,1189.5 237.017,1185.42 239.23,1181.35 241.443,1177.31 243.656,1173.29 245.869,1169.3 248.083,1165.32 250.296,1161.38 252.509,1157.45 254.722,1153.55 256.935,1149.67 259.148,1145.82 261.361,1141.99 263.574,1138.18 265.787,1134.39 268.001,1130.63 270.214,1126.89 272.427,1123.17 274.64,1119.47 276.853,1115.8 279.066,1112.15 281.279,1108.52 283.492,1104.91 285.705,1101.32 287.919,1097.76 290.132,1094.21 292.345,1090.69 294.558,1087.19 296.771,1083.71 298.984,1080.26 301.197,1076.82 303.41,1073.4 305.624,1070.01 307.837,1066.63 310.05,1063.28 312.263,1059.95 314.476,1056.63 316.689,1053.34 318.902,1050.07 321.115,1046.82 323.328,1043.58 325.542,1040.37 327.755,1037.18 329.968,1034 332.181,1030.85 334.394,1027.72 336.607,1024.6 338.82,1021.51 341.033,1018.43 343.247,1015.37 345.46,1012.34 347.673,1009.32 349.886,1006.32 352.099,1003.34 354.312,1000.37 356.525,997.427 358.738,994.501 360.951,991.593 363.165,988.703 365.378,985.831 367.591,982.977 369.804,980.141 372.017,977.323 374.23,974.522 376.443,971.739 378.656,968.973 380.869,966.225 383.083,963.494 385.296,960.78 387.509,958.083 389.722,955.403 391.935,952.74 394.148,950.094 396.361,947.464 398.574,944.852 400.788,942.255 403.001,939.675 405.214,937.111 407.427,934.564 409.64,932.032 411.853,929.516 414.066,927.017 416.279,924.533 418.492,922.065 420.706,919.613 422.919,917.176 425.132,914.754 427.345,912.348 429.558,909.958 431.771,907.582 433.984,905.221 436.197,902.876 438.41,900.545 440.624,898.229 442.837,895.928 445.05,893.642 447.263,891.37 449.476,889.113 451.689,886.869 453.902,884.641 456.115,882.426 458.329,880.226 460.542,878.039 462.755,875.867 464.968,873.708 467.181,871.563 469.394,869.432 471.607,867.314 473.82,865.21 476.033,863.119 478.247,861.042 480.46,858.978 482.673,856.927 484.886,854.889 487.099,852.864 489.312,850.853 491.525,848.854 493.738,846.867 495.952,844.894 498.165,842.933 500.378,840.984 502.591,839.048 504.804,837.125 507.017,835.213 509.23,833.314 511.443,831.427 513.656,829.552 515.87,827.689 518.083,825.838 520.296,823.999 522.509,822.171 524.722,820.356 526.935,818.551 529.148,816.759 531.361,814.977 533.574,813.207 535.788,811.449 538.001,809.701 540.214,807.965 542.427,806.24 544.64,804.526 546.853,802.823 549.066,801.131 551.279,799.449 553.493,797.778 555.706,796.118 557.919,794.469 560.132,792.83 562.345,791.201 564.558,789.583 566.771,787.975 568.984,786.378 571.197,784.791 573.411,783.213 575.624,781.646 577.837,780.089 580.05,778.542 582.263,777.004 584.476,775.477 586.689,773.959 588.902,772.451 591.116,770.952 593.329,769.463 595.542,767.984 597.755,766.513 599.968,765.053 602.181,763.601 604.394,762.159 606.607,760.726 608.82,759.302 611.034,757.887 613.247,756.481 615.46,755.084 617.673,753.696 619.886,752.316 622.099,750.946 624.312,749.584 626.525,748.23 628.738,746.886 630.952,745.55 633.165,744.222 635.378,742.903 637.591,741.592 639.804,740.289 642.017,738.994 644.23,737.708 646.443,736.43 648.657,735.16 650.87,733.898 653.083,732.644 655.296,731.398 657.509,730.159 659.722,728.929 661.935,727.706 664.148,726.491 666.361,725.284 668.575,724.084 670.788,722.892 673.001,721.707 675.214,720.53 677.427,719.36 679.64,718.198 681.853,717.042 684.066,715.894 686.279,714.754 688.493,713.62 690.706,712.494 692.919,711.374 695.132,710.262 697.345,709.156 699.558,708.058 701.771,706.966 703.984,705.881 706.198,704.803 708.411,703.732 710.624,702.667 712.837,701.609 715.05,700.558 717.263,699.513 719.476,698.475 721.689,697.443 723.902,696.418 726.116,695.399 728.329,694.386 730.542,693.38 732.755,692.38 734.968,691.386 737.181,690.399 739.394,689.417 741.607,688.442 743.821,687.473 746.034,686.509 748.247,685.552 750.46,684.601 752.673,683.655 754.886,682.716 757.099,681.782 759.312,680.854 761.525,679.932 763.739,679.015 765.952,678.104 768.165,677.199 770.378,676.3 772.591,675.406 774.804,674.517 777.017,673.634 779.23,672.756 781.443,671.884 783.657,671.017 785.87,670.156 788.083,669.299 790.296,668.449 792.509,667.603 794.722,666.762 796.935,665.927 799.148,665.097 801.362,664.272 803.575,663.451 805.788,662.636 808.001,661.826 810.214,661.021 812.427,660.221 814.64,659.426 816.853,658.635 819.066,657.849 821.28,657.069 823.493,656.293 825.706,655.521 827.919,654.755 830.132,653.993 832.345,653.235 834.558,652.482 836.771,651.734 838.985,650.991 841.198,650.251 843.411,649.517 845.624,648.787 847.837,648.061 850.05,647.34 852.263,646.623 854.476,645.91 856.689,645.202 858.903,644.498 861.116,643.798 863.329,643.102 865.542,642.411 867.755,641.724 869.968,641.041 872.181,640.362 874.394,639.687 876.607,639.016 878.821,638.349 881.034,637.686 883.247,637.028 885.46,636.373 887.673,635.722 889.886,635.075 892.099,634.432 894.312,633.793 896.526,633.157 898.739,632.526 900.952,631.898 903.165,631.274 905.378,630.653 907.591,630.037 909.804,629.424 912.017,628.815 914.23,628.209 916.444,627.607 918.657,627.008 920.87,626.414 923.083,625.822 925.296,625.235 927.509,624.65 929.722,624.07 931.935,623.492 934.148,622.918 936.362,622.348 938.575,621.781 940.788,621.217 943.001,620.657 945.214,620.1 947.427,619.546 949.64,618.995 951.853,618.448 954.067,617.904 956.28,617.364 958.493,616.826 960.706,616.292 962.919,615.76 965.132,615.232 967.345,614.707 969.558,614.186 971.771,613.667 973.985,613.151 976.198,612.638 978.411,612.129 980.624,611.622 982.837,611.118 985.05,610.618 987.263,610.12 989.476,609.625 991.69,609.133 993.903,608.644 996.116,608.158 998.329,607.674 1000.54,607.194 1002.76,606.716 1004.97,606.241 1007.18,605.769 1009.39,605.299 1011.61,604.833 1013.82,604.369 1016.03,603.907 1018.25,603.449 1020.46,602.993 1022.67,602.54 1024.89,602.089 1027.1,601.641 1029.31,601.196 1031.53,600.753 1033.74,600.312 1035.95,599.875 1038.16,599.44 1040.38,599.007 1042.59,598.577 1044.8,598.149 1047.02,597.724 1049.23,597.301 1051.44,596.881 1053.66,596.463 1055.87,596.047 1058.08,595.634 1060.3,595.224 1062.51,594.815 1064.72,594.409 1066.94,594.006 1069.15,593.604 1071.36,593.205 1073.57,592.808 1075.79,592.414 1078,592.022 1080.21,591.632 1082.43,591.244 1084.64,590.859 1086.85,590.475 1089.07,590.094 1091.28,589.715 1093.49,589.339 1095.71,588.964 1097.92,588.592 1100.13,588.221 1102.35,587.853 1104.56,587.487 1106.77,587.123 1108.98,586.761 1111.2,586.401 1113.41,586.043 1115.62,585.687 1117.84,585.334 1120.05,584.982 1122.26,584.632 1124.48,584.284 1126.69,583.938 1128.9,583.595 1131.12,583.253 1133.33,582.913 1135.54,582.575 1137.76,582.239 1139.97,581.904 1142.18,581.572 1144.39,581.242 1146.61,580.913 1148.82,580.587 1151.03,580.262 1153.25,579.939 1155.46,579.618 1157.67,579.298 1159.89,578.981 1162.1,578.665 1164.31,578.351 1166.53,578.039 1168.74,577.728 1170.95,577.42 1173.17,577.113 1175.38,576.807 1177.59,576.504 1179.8,576.202 1182.02,575.902 1184.23,575.604 1186.44,575.307 1188.66,575.012 1190.87,574.719 1193.08,574.427 1195.3,574.137 1197.51,573.848 1199.72,573.561 1201.94,573.276 1204.15,572.992 1206.36,572.71 1208.57,572.43 1210.79,572.151 1213,571.873 1215.21,571.598 1217.43,571.323 1219.64,571.05 1221.85,570.779 1224.07,570.509 1226.28,570.241 1228.49,569.974 1230.71,569.709 1232.92,569.445 1235.13,569.183 1237.35,568.922 1239.56,568.663 1241.77,568.405 1243.98,568.148 1246.2,567.893 1248.41,567.639 1250.62,567.387 1252.84,567.136 1255.05,566.886 1257.26,566.638 1259.48,566.391 1261.69,566.146 1263.9,565.902 1266.12,565.659 1268.33,565.418 1270.54,565.178 1272.76,564.939 1274.97,564.701 1277.18,564.465 1279.39,564.23 1281.61,563.997 1283.82,563.765 1286.03,563.534 1288.25,563.304 1290.46,563.075 1292.67,562.848 1294.89,562.622 1297.1,562.397 1299.31,562.174 1301.53,561.952 1303.74,561.731 1305.95,561.511 1308.17,561.292 1310.38,561.075 1312.59,560.858 1314.8,560.643 1317.02,560.429 1319.23,560.217 1321.44,560.005 1323.66,559.795 1325.87,559.585 1328.08,559.377 1330.3,559.17 1332.51,558.964 1334.72,558.759 1336.94,558.556 1339.15,558.353 1341.36,558.152 1343.57,557.951 1345.79,557.752 1348,557.554 1350.21,557.357 1352.43,557.16 1354.64,556.965 1356.85,556.772 1359.07,556.579 1361.28,556.387 1363.49,556.196 1365.71,556.006 1367.92,555.817 1370.13,555.63 1372.35,555.443 1374.56,555.257 1376.77,555.073 1378.98,554.889 1381.2,554.706 1383.41,554.524 1385.62,554.344 1387.84,554.164 1390.05,553.985 1392.26,553.807 1394.48,553.63 1396.69,553.455 1398.9,553.28 1401.12,553.106 1403.33,552.933 1405.54,552.76 1407.76,552.589 1409.97,552.419 1412.18,552.249 1414.39,552.081 1416.61,551.913 1418.82,551.747 1421.03,551.581 1423.25,551.416 1425.46,551.252 1427.67,551.089 1429.89,550.927 1432.1,550.765 1434.31,550.605 1436.53,550.445 1438.74,550.286 1440.95,550.129 1443.17,549.971 1445.38,549.815 1447.59,549.66 1449.8,549.505 1452.02,549.351 1454.23,549.198 1456.44,549.046 1458.66,548.895 1460.87,548.745 1463.08,548.595 1465.3,548.446 1467.51,548.298 1469.72,548.151 1471.94,548.004 1474.15,547.858 1476.36,547.713 1478.58,547.569 1480.79,547.426 1483,547.283 1485.21,547.141 1487.43,547 1489.64,546.859 1491.85,546.72 1494.07,546.581 1496.28,546.442 1498.49,546.305 1500.71,546.168 1502.92,546.032 1505.13,545.897 1507.35,545.762 1509.56,545.628 1511.77,545.495 1513.98,545.363 1516.2,545.231 1518.41,545.1 1520.62,544.97 1522.84,544.84 1525.05,544.711 1527.26,544.582 1529.48,544.455 1531.69,544.328 1533.9,544.201 1536.12,544.076 1538.33,543.951 1540.54,543.826 1542.76,543.703 1544.97,543.58 1547.18,543.457 1549.39,543.335 1551.61,543.214 1553.82,543.094 1556.03,542.974 1558.25,542.855 1560.46,542.736 1562.67,542.618 1564.89,542.501 1567.1,542.384 1569.31,542.268 1571.53,542.152 1573.74,542.037 1575.95,541.923 1578.17,541.809 1580.38,541.696 1582.59,541.583 1584.8,541.471 1587.02,541.36 1589.23,541.249 1591.44,541.139 1593.66,541.029 1595.87,540.92 1598.08,540.812 1600.3,540.704 1602.51,540.596 1604.72,540.489 1606.94,540.383 1609.15,540.277 1611.36,540.172 1613.58,540.068 1615.79,539.963 1618,539.86 1620.21,539.757 1622.43,539.654 1624.64,539.552 1626.85,539.451 1629.07,539.35 1631.28,539.25 1633.49,539.15 1635.71,539.05 1637.92,538.951 1640.13,538.853 1642.35,538.755 1644.56,538.658 1646.77,538.561 1648.98,538.465 1651.2,538.369 1653.41,538.274 1655.62,538.179 1657.84,538.085 1660.05,537.991 1662.26,537.897 1664.48,537.805 1666.69,537.712 1668.9,537.62 1671.12,537.529 1673.33,537.438 1675.54,537.347 1677.76,537.257 1679.97,537.168 1682.18,537.079 1684.39,536.99 1686.61,536.902 1688.82,536.814 1691.03,536.727 1693.25,536.64 1695.46,536.554 1697.67,536.468 1699.89,536.382 1702.1,536.297 1704.31,536.212 1706.53,536.128 1708.74,536.045 1710.95,535.961 1713.17,535.878 1715.38,535.796 1717.59,535.714 1719.8,535.632 1722.02,535.551 1724.23,535.47 1726.44,535.39 1728.66,535.31 1730.87,535.23 1733.08,535.151 1735.3,535.072 1737.51,534.994 1739.72,534.916 1741.94,534.839 1744.15,534.761 1746.36,534.685 1748.58,534.608 1750.79,534.532 1753,534.457 1755.21,534.382 1757.43,534.307 1759.64,534.232 1761.85,534.158 1764.07,534.085 1766.28,534.011 1768.49,533.938 1770.71,533.866 1772.92,533.794 1775.13,533.722 1777.35,533.65 1779.56,533.579 1781.77,533.509 1783.99,533.438 1786.2,533.368 1788.41,533.299 1790.62,533.229 1792.84,533.16 1795.05,533.092 1797.26,533.023 1799.48,532.955 1801.69,532.888 1803.9,532.821 1806.12,532.754 1808.33,532.687 1810.54,532.621 1812.76,532.555 1814.97,532.49 1817.18,532.424 1819.39,532.36 1821.61,532.295 1823.82,532.231 1826.03,532.167 1828.25,532.103 1830.46,532.04 1832.67,531.977 1834.89,531.914 1837.1,531.852 1839.31,531.79 1841.53,531.728 1843.74,531.667 1845.95,531.606 1848.17,531.545 1850.38,531.485 1852.59,531.424 1854.8,531.365 1857.02,531.305 1859.23,531.246 1861.44,531.187 1863.66,531.128 1865.87,531.07 1868.08,531.012 1870.3,530.954 1872.51,530.896 1874.72,530.839 1876.94,530.782 1879.15,530.726 1881.36,530.669 1883.58,530.613 1885.79,530.557 1888,530.502 1890.21,530.447 1892.43,530.392 1894.64,530.337 1896.85,530.282 1899.07,530.228 1901.28,530.174 1903.49,530.121 1905.71,530.067 1907.92,530.014 1910.13,529.962 1912.35,529.909 1914.56,529.857 1916.77,529.805 1918.99,529.753 1921.2,529.701 1923.41,529.65 1925.62,529.599 1927.84,529.548 1930.05,529.498 1932.26,529.448 1934.48,529.398 1936.69,529.348 1938.9,529.298 1941.12,529.249 1943.33,529.2 1945.54,529.151 1947.76,529.103 1949.97,529.055 1952.18,529.007 1954.4,528.959 1956.61,528.911 1958.82,528.864 1961.03,528.817 1963.25,528.77 1965.46,528.723 1967.67,528.677 1969.89,528.631 1972.1,528.585 1974.31,528.539 1976.53,528.494 1978.74,528.448 1980.95,528.403 1983.17,528.359 1985.38,528.314 1987.59,528.27 1989.8,528.226 1992.02,528.182 1994.23,528.138 1996.44,528.094 1998.66,528.051 2000.87,528.008 2003.08,527.965 2005.3,527.923 2007.51,527.88 2009.72,527.838 2011.94,527.796 2014.15,527.754 2016.36,527.713 2018.58,527.671 2020.79,527.63 2023,527.589 2025.21,527.548 2027.43,527.508 2029.64,527.467 2031.85,527.427 2034.07,527.387 2036.28,527.347 2038.49,527.308 2040.71,527.268 2042.92,527.229 2045.13,527.19 2047.35,527.152 2049.56,527.113 2051.77,527.074 2053.99,527.036 2056.2,526.998 2058.41,526.96 2060.62,526.923 2062.84,526.885 2065.05,526.848 2067.26,526.811 2069.48,526.774 2071.69,526.737 2073.9,526.7 2076.12,526.664 2078.33,526.628 2080.54,526.592 2082.76,526.556 2084.97,526.52 2087.18,526.485 2089.4,526.449 2091.61,526.414 2093.82,526.379 2096.03,526.344 2098.25,526.31 2100.46,526.275 2102.67,526.241 2104.89,526.207 2107.1,526.173 2109.31,526.139 2111.53,526.105 2113.74,526.072 2115.95,526.039 2118.17,526.005 2120.38,525.972 2122.59,525.939 2124.8,525.907 2127.02,525.874 2129.23,525.842 2131.44,525.81 2133.66,525.778 2135.87,525.746 2138.08,525.714 2140.3,525.682 2142.51,525.651 2144.72,525.62 2146.94,525.589 2149.15,525.558 2151.36,525.527 2153.58,525.496 2155.79,525.466 2158,525.435 2160.21,525.405 2162.43,525.375 2164.64,525.345 2166.85,525.315 2169.07,525.285 2171.28,525.256 2173.49,525.227 2175.71,525.197 2177.92,525.168 2180.13,525.139 2182.35,525.11 2184.56,525.082 2186.77,525.053 2188.99,525.025 2191.2,524.997 2193.41,524.968 2195.62,524.94 2197.84,524.913 2200.05,524.885 2202.26,524.857 2204.48,524.83 2206.69,524.803 2208.9,524.775 2211.12,524.748 2213.33,524.721 2215.54,524.695 2217.76,524.668 2219.97,524.641 2222.18,524.615 2224.4,524.589 2226.61,524.562 2228.82,524.536 2231.03,524.511 2233.25,524.485 2235.46,524.459 2237.67,524.434 2239.89,524.408 2242.1,524.383 2244.31,524.358 2246.53,524.333 2248.74,524.308 2250.95,524.283 2253.17,524.258 2255.38,524.234 2257.59,524.209 2259.81,524.185 2262.02,524.161 2264.23,524.137 2266.44,524.113 2268.66,524.089 2270.87,524.065 2273.08,524.041 2275.3,524.018 2277.51,523.994 2279.72,523.971 2281.94,523.948 2284.15,523.925 2286.36,523.902 2288.58,523.879 2290.79,523.856 2293,523.834 2295.21,523.811 2297.43,523.789 2299.64,523.766 2301.85,523.744 2304.07,523.722 2306.28,523.7 2308.49,523.678 2310.71,523.656 2312.92,523.635 2315.13,523.613 2317.35,523.592 2319.56,523.57 2321.77,523.549 2323.99,523.528 2326.2,523.507 2328.41,523.486 2330.62,523.465 2332.84,523.444 2335.05,523.423 2337.26,523.403 2339.48,523.382 2341.69,523.362 2343.9,523.342 2346.12,523.321 2348.33,523.301 2350.54,523.281 2352.76,523.261 "/>
<path clip-path="url(#clip060)" d="M1950.28 858.836 L2279.06 858.836 L2279.06 651.476 L1950.28 651.476  Z" fill="#ffffff" fill-rule="evenodd" fill-opacity="1"/>
<polyline clip-path="url(#clip060)" style="stroke:#000000; stroke-linecap:round; stroke-linejoin:round; stroke-width:4; stroke-opacity:1; fill:none" points="1950.28,858.836 2279.06,858.836 2279.06,651.476 1950.28,651.476 1950.28,858.836 "/>
<polyline clip-path="url(#clip060)" style="stroke:#009af9; stroke-linecap:round; stroke-linejoin:round; stroke-width:4; stroke-opacity:1; fill:none" points="1974.85,703.316 2122.24,703.316 "/>
<path clip-path="url(#clip060)" d="M2146.81 710.365 L2146.81 694.671 L2151.07 694.671 L2151.07 710.203 Q2151.07 713.884 2152.5 715.735 Q2153.94 717.564 2156.81 717.564 Q2160.26 717.564 2162.25 715.365 Q2164.26 713.166 2164.26 709.37 L2164.26 694.671 L2168.52 694.671 L2168.52 720.596 L2164.26 720.596 L2164.26 716.615 Q2162.71 718.976 2160.65 720.134 Q2158.61 721.268 2155.91 721.268 Q2151.44 721.268 2149.12 718.49 Q2146.81 715.712 2146.81 710.365 M2157.53 694.046 L2157.53 694.046 Z" fill="#000000" fill-rule="nonzero" fill-opacity="1" /><path clip-path="url(#clip060)" d="M2178.71 716.661 L2186.35 716.661 L2186.35 690.296 L2178.04 691.962 L2178.04 687.703 L2186.3 686.036 L2190.98 686.036 L2190.98 716.661 L2198.61 716.661 L2198.61 720.596 L2178.71 720.596 L2178.71 716.661 Z" fill="#000000" fill-rule="nonzero" fill-opacity="1" /><path clip-path="url(#clip060)" d="M2217.69 684.624 Q2214.59 689.949 2213.08 695.157 Q2211.58 700.365 2211.58 705.712 Q2211.58 711.06 2213.08 716.314 Q2214.61 721.546 2217.69 726.846 L2213.98 726.846 Q2210.51 721.407 2208.78 716.152 Q2207.06 710.897 2207.06 705.712 Q2207.06 700.55 2208.78 695.319 Q2210.49 690.087 2213.98 684.624 L2217.69 684.624 Z" fill="#000000" fill-rule="nonzero" fill-opacity="1" /><path clip-path="url(#clip060)" d="M2230.16 687.31 L2230.16 694.671 L2238.94 694.671 L2238.94 697.981 L2230.16 697.981 L2230.16 712.055 Q2230.16 715.226 2231.02 716.129 Q2231.9 717.032 2234.56 717.032 L2238.94 717.032 L2238.94 720.596 L2234.56 720.596 Q2229.63 720.596 2227.76 718.768 Q2225.88 716.916 2225.88 712.055 L2225.88 697.981 L2222.76 697.981 L2222.76 694.671 L2225.88 694.671 L2225.88 687.31 L2230.16 687.31 Z" fill="#000000" fill-rule="nonzero" fill-opacity="1" /><path clip-path="url(#clip060)" d="M2243.87 684.624 L2247.57 684.624 Q2251.04 690.087 2252.76 695.319 Q2254.49 700.55 2254.49 705.712 Q2254.49 710.897 2252.76 716.152 Q2251.04 721.407 2247.57 726.846 L2243.87 726.846 Q2246.95 721.546 2248.45 716.314 Q2249.98 711.06 2249.98 705.712 Q2249.98 700.365 2248.45 695.157 Q2246.95 689.949 2243.87 684.624 Z" fill="#000000" fill-rule="nonzero" fill-opacity="1" /><polyline clip-path="url(#clip060)" style="stroke:#e26f46; stroke-linecap:round; stroke-linejoin:round; stroke-width:4; stroke-opacity:1; fill:none" points="1974.85,755.156 2122.24,755.156 "/>
<path clip-path="url(#clip060)" d="M2146.81 762.205 L2146.81 746.511 L2151.07 746.511 L2151.07 762.043 Q2151.07 765.724 2152.5 767.575 Q2153.94 769.404 2156.81 769.404 Q2160.26 769.404 2162.25 767.205 Q2164.26 765.006 2164.26 761.21 L2164.26 746.511 L2168.52 746.511 L2168.52 772.436 L2164.26 772.436 L2164.26 768.455 Q2162.71 770.816 2160.65 771.974 Q2158.61 773.108 2155.91 773.108 Q2151.44 773.108 2149.12 770.33 Q2146.81 767.552 2146.81 762.205 M2157.53 745.886 L2157.53 745.886 Z" fill="#000000" fill-rule="nonzero" fill-opacity="1" /><path clip-path="url(#clip060)" d="M2181.92 768.501 L2198.24 768.501 L2198.24 772.436 L2176.3 772.436 L2176.3 768.501 Q2178.96 765.747 2183.54 761.117 Q2188.15 756.464 2189.33 755.122 Q2191.58 752.599 2192.46 750.863 Q2193.36 749.103 2193.36 747.413 Q2193.36 744.659 2191.42 742.923 Q2189.49 741.187 2186.39 741.187 Q2184.19 741.187 2181.74 741.951 Q2179.31 742.714 2176.53 744.265 L2176.53 739.543 Q2179.36 738.409 2181.81 737.83 Q2184.26 737.251 2186.3 737.251 Q2191.67 737.251 2194.86 739.937 Q2198.06 742.622 2198.06 747.113 Q2198.06 749.242 2197.25 751.163 Q2196.46 753.062 2194.35 755.654 Q2193.78 756.325 2190.67 759.543 Q2187.57 762.737 2181.92 768.501 Z" fill="#000000" fill-rule="nonzero" fill-opacity="1" /><path clip-path="url(#clip060)" d="M2217.69 736.464 Q2214.59 741.789 2213.08 746.997 Q2211.58 752.205 2211.58 757.552 Q2211.58 762.9 2213.08 768.154 Q2214.61 773.386 2217.69 778.686 L2213.98 778.686 Q2210.51 773.247 2208.78 767.992 Q2207.06 762.737 2207.06 757.552 Q2207.06 752.39 2208.78 747.159 Q2210.49 741.927 2213.98 736.464 L2217.69 736.464 Z" fill="#000000" fill-rule="nonzero" fill-opacity="1" /><path clip-path="url(#clip060)" d="M2230.16 739.15 L2230.16 746.511 L2238.94 746.511 L2238.94 749.821 L2230.16 749.821 L2230.16 763.895 Q2230.16 767.066 2231.02 767.969 Q2231.9 768.872 2234.56 768.872 L2238.94 768.872 L2238.94 772.436 L2234.56 772.436 Q2229.63 772.436 2227.76 770.608 Q2225.88 768.756 2225.88 763.895 L2225.88 749.821 L2222.76 749.821 L2222.76 746.511 L2225.88 746.511 L2225.88 739.15 L2230.16 739.15 Z" fill="#000000" fill-rule="nonzero" fill-opacity="1" /><path clip-path="url(#clip060)" d="M2243.87 736.464 L2247.57 736.464 Q2251.04 741.927 2252.76 747.159 Q2254.49 752.39 2254.49 757.552 Q2254.49 762.737 2252.76 767.992 Q2251.04 773.247 2247.57 778.686 L2243.87 778.686 Q2246.95 773.386 2248.45 768.154 Q2249.98 762.9 2249.98 757.552 Q2249.98 752.205 2248.45 746.997 Q2246.95 741.789 2243.87 736.464 Z" fill="#000000" fill-rule="nonzero" fill-opacity="1" /><polyline clip-path="url(#clip060)" style="stroke:#3da44d; stroke-linecap:round; stroke-linejoin:round; stroke-width:4; stroke-opacity:1; fill:none" points="1974.85,806.996 2122.24,806.996 "/>
<path clip-path="url(#clip060)" d="M2146.81 814.045 L2146.81 798.351 L2151.07 798.351 L2151.07 813.883 Q2151.07 817.564 2152.5 819.415 Q2153.94 821.244 2156.81 821.244 Q2160.26 821.244 2162.25 819.045 Q2164.26 816.846 2164.26 813.05 L2164.26 798.351 L2168.52 798.351 L2168.52 824.276 L2164.26 824.276 L2164.26 820.295 Q2162.71 822.656 2160.65 823.814 Q2158.61 824.948 2155.91 824.948 Q2151.44 824.948 2149.12 822.17 Q2146.81 819.392 2146.81 814.045 M2157.53 797.726 L2157.53 797.726 Z" fill="#000000" fill-rule="nonzero" fill-opacity="1" /><path clip-path="url(#clip060)" d="M2192.06 805.642 Q2195.42 806.36 2197.29 808.628 Q2199.19 810.897 2199.19 814.23 Q2199.19 819.346 2195.67 822.147 Q2192.16 824.948 2185.67 824.948 Q2183.5 824.948 2181.18 824.508 Q2178.89 824.091 2176.44 823.235 L2176.44 818.721 Q2178.38 819.855 2180.7 820.434 Q2183.01 821.013 2185.54 821.013 Q2189.93 821.013 2192.23 819.277 Q2194.54 817.54 2194.54 814.23 Q2194.54 811.175 2192.39 809.462 Q2190.26 807.726 2186.44 807.726 L2182.41 807.726 L2182.41 803.883 L2186.62 803.883 Q2190.07 803.883 2191.9 802.517 Q2193.73 801.128 2193.73 798.536 Q2193.73 795.874 2191.83 794.462 Q2189.96 793.027 2186.44 793.027 Q2184.52 793.027 2182.32 793.443 Q2180.12 793.86 2177.48 794.74 L2177.48 790.573 Q2180.14 789.832 2182.46 789.462 Q2184.79 789.091 2186.86 789.091 Q2192.18 789.091 2195.28 791.522 Q2198.38 793.929 2198.38 798.05 Q2198.38 800.92 2196.74 802.911 Q2195.1 804.878 2192.06 805.642 Z" fill="#000000" fill-rule="nonzero" fill-opacity="1" /><path clip-path="url(#clip060)" d="M2217.69 788.304 Q2214.59 793.629 2213.08 798.837 Q2211.58 804.045 2211.58 809.392 Q2211.58 814.74 2213.08 819.994 Q2214.61 825.226 2217.69 830.526 L2213.98 830.526 Q2210.51 825.087 2208.78 819.832 Q2207.06 814.577 2207.06 809.392 Q2207.06 804.23 2208.78 798.999 Q2210.49 793.767 2213.98 788.304 L2217.69 788.304 Z" fill="#000000" fill-rule="nonzero" fill-opacity="1" /><path clip-path="url(#clip060)" d="M2230.16 790.99 L2230.16 798.351 L2238.94 798.351 L2238.94 801.661 L2230.16 801.661 L2230.16 815.735 Q2230.16 818.906 2231.02 819.809 Q2231.9 820.712 2234.56 820.712 L2238.94 820.712 L2238.94 824.276 L2234.56 824.276 Q2229.63 824.276 2227.76 822.448 Q2225.88 820.596 2225.88 815.735 L2225.88 801.661 L2222.76 801.661 L2222.76 798.351 L2225.88 798.351 L2225.88 790.99 L2230.16 790.99 Z" fill="#000000" fill-rule="nonzero" fill-opacity="1" /><path clip-path="url(#clip060)" d="M2243.87 788.304 L2247.57 788.304 Q2251.04 793.767 2252.76 798.999 Q2254.49 804.23 2254.49 809.392 Q2254.49 814.577 2252.76 819.832 Q2251.04 825.087 2247.57 830.526 L2243.87 830.526 Q2246.95 825.226 2248.45 819.994 Q2249.98 814.74 2249.98 809.392 Q2249.98 804.045 2248.45 798.837 Q2246.95 793.629 2243.87 788.304 Z" fill="#000000" fill-rule="nonzero" fill-opacity="1" /></svg>
