<?xml version="1.0" encoding="utf-8"?>
<svg xmlns="http://www.w3.org/2000/svg" xmlns:xlink="http://www.w3.org/1999/xlink" width="600" height="400" viewBox="0 0 2400 1600">
<defs>
  <clipPath id="clip750">
    <rect x="0" y="0" width="2400" height="1600"/>
  </clipPath>
</defs>
<path clip-path="url(#clip750)" d="M0 1600 L2400 1600 L2400 0 L0 0  Z" fill="#ffffff" fill-rule="evenodd" fill-opacity="1"/>
<defs>
  <clipPath id="clip751">
    <rect x="480" y="0" width="1681" height="1600"/>
  </clipPath>
</defs>
<path clip-path="url(#clip750)" d="M219.866 1423.18 L2352.76 1423.18 L2352.76 123.472 L219.866 123.472  Z" fill="#ffffff" fill-rule="evenodd" fill-opacity="1"/>
<defs>
  <clipPath id="clip752">
    <rect x="219" y="123" width="2134" height="1301"/>
  </clipPath>
</defs>
<polyline clip-path="url(#clip752)" style="stroke:#000000; stroke-linecap:round; stroke-linejoin:round; stroke-width:2; stroke-opacity:0.1; fill:none" points="280.231,1423.18 280.231,123.472 "/>
<polyline clip-path="url(#clip752)" style="stroke:#000000; stroke-linecap:round; stroke-linejoin:round; stroke-width:2; stroke-opacity:0.1; fill:none" points="615.591,1423.18 615.591,123.472 "/>
<polyline clip-path="url(#clip752)" style="stroke:#000000; stroke-linecap:round; stroke-linejoin:round; stroke-width:2; stroke-opacity:0.1; fill:none" points="950.951,1423.18 950.951,123.472 "/>
<polyline clip-path="url(#clip752)" style="stroke:#000000; stroke-linecap:round; stroke-linejoin:round; stroke-width:2; stroke-opacity:0.1; fill:none" points="1286.31,1423.18 1286.31,123.472 "/>
<polyline clip-path="url(#clip752)" style="stroke:#000000; stroke-linecap:round; stroke-linejoin:round; stroke-width:2; stroke-opacity:0.1; fill:none" points="1621.67,1423.18 1621.67,123.472 "/>
<polyline clip-path="url(#clip752)" style="stroke:#000000; stroke-linecap:round; stroke-linejoin:round; stroke-width:2; stroke-opacity:0.1; fill:none" points="1957.03,1423.18 1957.03,123.472 "/>
<polyline clip-path="url(#clip752)" style="stroke:#000000; stroke-linecap:round; stroke-linejoin:round; stroke-width:2; stroke-opacity:0.1; fill:none" points="2292.39,1423.18 2292.39,123.472 "/>
<polyline clip-path="url(#clip750)" style="stroke:#000000; stroke-linecap:round; stroke-linejoin:round; stroke-width:4; stroke-opacity:1; fill:none" points="219.866,1423.18 2352.76,1423.18 "/>
<polyline clip-path="url(#clip750)" style="stroke:#000000; stroke-linecap:round; stroke-linejoin:round; stroke-width:4; stroke-opacity:1; fill:none" points="280.231,1423.18 280.231,1404.28 "/>
<polyline clip-path="url(#clip750)" style="stroke:#000000; stroke-linecap:round; stroke-linejoin:round; stroke-width:4; stroke-opacity:1; fill:none" points="615.591,1423.18 615.591,1404.28 "/>
<polyline clip-path="url(#clip750)" style="stroke:#000000; stroke-linecap:round; stroke-linejoin:round; stroke-width:4; stroke-opacity:1; fill:none" points="950.951,1423.18 950.951,1404.28 "/>
<polyline clip-path="url(#clip750)" style="stroke:#000000; stroke-linecap:round; stroke-linejoin:round; stroke-width:4; stroke-opacity:1; fill:none" points="1286.31,1423.18 1286.31,1404.28 "/>
<polyline clip-path="url(#clip750)" style="stroke:#000000; stroke-linecap:round; stroke-linejoin:round; stroke-width:4; stroke-opacity:1; fill:none" points="1621.67,1423.18 1621.67,1404.28 "/>
<polyline clip-path="url(#clip750)" style="stroke:#000000; stroke-linecap:round; stroke-linejoin:round; stroke-width:4; stroke-opacity:1; fill:none" points="1957.03,1423.18 1957.03,1404.28 "/>
<polyline clip-path="url(#clip750)" style="stroke:#000000; stroke-linecap:round; stroke-linejoin:round; stroke-width:4; stroke-opacity:1; fill:none" points="2292.39,1423.18 2292.39,1404.28 "/>
<path clip-path="url(#clip750)" d="M270.613 1481.64 L278.252 1481.64 L278.252 1455.28 L269.942 1456.95 L269.942 1452.69 L278.206 1451.02 L282.882 1451.02 L282.882 1481.64 L290.52 1481.64 L290.52 1485.58 L270.613 1485.58 L270.613 1481.64 Z" fill="#000000" fill-rule="evenodd" fill-opacity="1" /><path clip-path="url(#clip750)" d="M610.244 1481.64 L626.563 1481.64 L626.563 1485.58 L604.619 1485.58 L604.619 1481.64 Q607.281 1478.89 611.864 1474.26 Q616.471 1469.61 617.651 1468.27 Q619.897 1465.74 620.776 1464.01 Q621.679 1462.25 621.679 1460.56 Q621.679 1457.8 619.735 1456.07 Q617.813 1454.33 614.711 1454.33 Q612.512 1454.33 610.059 1455.09 Q607.628 1455.86 604.85 1457.41 L604.85 1452.69 Q607.674 1451.55 610.128 1450.97 Q612.582 1450.39 614.619 1450.39 Q619.989 1450.39 623.184 1453.08 Q626.378 1455.77 626.378 1460.26 Q626.378 1462.39 625.568 1464.31 Q624.781 1466.2 622.674 1468.8 Q622.096 1469.47 618.994 1472.69 Q615.892 1475.88 610.244 1481.64 Z" fill="#000000" fill-rule="evenodd" fill-opacity="1" /><path clip-path="url(#clip750)" d="M955.199 1466.95 Q958.555 1467.66 960.43 1469.93 Q962.328 1472.2 962.328 1475.53 Q962.328 1480.65 958.81 1483.45 Q955.291 1486.25 948.81 1486.25 Q946.634 1486.25 944.319 1485.81 Q942.028 1485.39 939.574 1484.54 L939.574 1480.02 Q941.518 1481.16 943.833 1481.74 Q946.148 1482.32 948.671 1482.32 Q953.069 1482.32 955.361 1480.58 Q957.676 1478.84 957.676 1475.53 Q957.676 1472.48 955.523 1470.77 Q953.393 1469.03 949.574 1469.03 L945.546 1469.03 L945.546 1465.19 L949.759 1465.19 Q953.208 1465.19 955.037 1463.82 Q956.865 1462.43 956.865 1459.84 Q956.865 1457.18 954.967 1455.77 Q953.092 1454.33 949.574 1454.33 Q947.652 1454.33 945.453 1454.75 Q943.254 1455.16 940.615 1456.04 L940.615 1451.88 Q943.278 1451.14 945.592 1450.77 Q947.93 1450.39 949.99 1450.39 Q955.314 1450.39 958.416 1452.83 Q961.518 1455.23 961.518 1459.35 Q961.518 1462.22 959.875 1464.21 Q958.231 1466.18 955.199 1466.95 Z" fill="#000000" fill-rule="evenodd" fill-opacity="1" /><path clip-path="url(#clip750)" d="M1289.32 1455.09 L1277.51 1473.54 L1289.32 1473.54 L1289.32 1455.09 M1288.09 1451.02 L1293.97 1451.02 L1293.97 1473.54 L1298.9 1473.54 L1298.9 1477.43 L1293.97 1477.43 L1293.97 1485.58 L1289.32 1485.58 L1289.32 1477.43 L1273.72 1477.43 L1273.72 1472.92 L1288.09 1451.02 Z" fill="#000000" fill-rule="evenodd" fill-opacity="1" /><path clip-path="url(#clip750)" d="M1611.95 1451.02 L1630.31 1451.02 L1630.31 1454.96 L1616.23 1454.96 L1616.23 1463.43 Q1617.25 1463.08 1618.27 1462.92 Q1619.29 1462.73 1620.31 1462.73 Q1626.09 1462.73 1629.47 1465.9 Q1632.85 1469.08 1632.85 1474.49 Q1632.85 1480.07 1629.38 1483.17 Q1625.91 1486.25 1619.59 1486.25 Q1617.41 1486.25 1615.14 1485.88 Q1612.9 1485.51 1610.49 1484.77 L1610.49 1480.07 Q1612.57 1481.2 1614.8 1481.76 Q1617.02 1482.32 1619.5 1482.32 Q1623.5 1482.32 1625.84 1480.21 Q1628.18 1478.1 1628.18 1474.49 Q1628.18 1470.88 1625.84 1468.77 Q1623.5 1466.67 1619.5 1466.67 Q1617.62 1466.67 1615.75 1467.08 Q1613.89 1467.5 1611.95 1468.38 L1611.95 1451.02 Z" fill="#000000" fill-rule="evenodd" fill-opacity="1" /><path clip-path="url(#clip750)" d="M1957.44 1466.44 Q1954.29 1466.44 1952.44 1468.59 Q1950.61 1470.74 1950.61 1474.49 Q1950.61 1478.22 1952.44 1480.39 Q1954.29 1482.55 1957.44 1482.55 Q1960.58 1482.55 1962.41 1480.39 Q1964.26 1478.22 1964.26 1474.49 Q1964.26 1470.74 1962.41 1468.59 Q1960.58 1466.44 1957.44 1466.44 M1966.72 1451.78 L1966.72 1456.04 Q1964.96 1455.21 1963.15 1454.77 Q1961.37 1454.33 1959.61 1454.33 Q1954.98 1454.33 1952.53 1457.45 Q1950.1 1460.58 1949.75 1466.9 Q1951.12 1464.89 1953.18 1463.82 Q1955.24 1462.73 1957.71 1462.73 Q1962.92 1462.73 1965.93 1465.9 Q1968.96 1469.05 1968.96 1474.49 Q1968.96 1479.82 1965.82 1483.03 Q1962.67 1486.25 1957.44 1486.25 Q1951.44 1486.25 1948.27 1481.67 Q1945.1 1477.06 1945.1 1468.33 Q1945.1 1460.14 1948.99 1455.28 Q1952.88 1450.39 1959.43 1450.39 Q1961.19 1450.39 1962.97 1450.74 Q1964.77 1451.09 1966.72 1451.78 Z" fill="#000000" fill-rule="evenodd" fill-opacity="1" /><path clip-path="url(#clip750)" d="M2281.28 1451.02 L2303.5 1451.02 L2303.5 1453.01 L2290.96 1485.58 L2286.07 1485.58 L2297.88 1454.96 L2281.28 1454.96 L2281.28 1451.02 Z" fill="#000000" fill-rule="evenodd" fill-opacity="1" /><path clip-path="url(#clip750)" d="M1059.28 1522.08 L1059.28 1528.35 Q1055.62 1526.6 1052.37 1525.74 Q1049.12 1524.88 1046.1 1524.88 Q1040.85 1524.88 1037.98 1526.92 Q1035.15 1528.96 1035.15 1532.71 Q1035.15 1535.87 1037.03 1537.49 Q1038.94 1539.08 1044.22 1540.07 L1048.11 1540.86 Q1055.3 1542.23 1058.71 1545.7 Q1062.14 1549.14 1062.14 1554.93 Q1062.14 1561.84 1057.5 1565.4 Q1052.88 1568.97 1043.94 1568.97 Q1040.56 1568.97 1036.74 1568.2 Q1032.96 1567.44 1028.88 1565.94 L1028.88 1559.32 Q1032.8 1561.52 1036.55 1562.63 Q1040.31 1563.75 1043.94 1563.75 Q1049.44 1563.75 1052.44 1561.58 Q1055.43 1559.42 1055.43 1555.41 Q1055.43 1551.91 1053.26 1549.93 Q1051.13 1547.96 1046.23 1546.97 L1042.31 1546.21 Q1035.12 1544.78 1031.91 1541.72 Q1028.69 1538.67 1028.69 1533.22 Q1028.69 1526.92 1033.12 1523.29 Q1037.57 1519.66 1045.37 1519.66 Q1048.71 1519.66 1052.18 1520.27 Q1055.65 1520.87 1059.28 1522.08 Z" fill="#000000" fill-rule="evenodd" fill-opacity="1" /><path clip-path="url(#clip750)" d="M1088.11 1550.12 Q1081.02 1550.12 1078.28 1551.75 Q1075.54 1553.37 1075.54 1557.29 Q1075.54 1560.4 1077.58 1562.25 Q1079.65 1564.07 1083.18 1564.07 Q1088.05 1564.07 1090.98 1560.63 Q1093.94 1557.16 1093.94 1551.43 L1093.94 1550.12 L1088.11 1550.12 M1099.8 1547.71 L1099.8 1568.04 L1093.94 1568.04 L1093.94 1562.63 Q1091.93 1565.88 1088.94 1567.44 Q1085.95 1568.97 1081.62 1568.97 Q1076.15 1568.97 1072.9 1565.91 Q1069.69 1562.82 1069.69 1557.67 Q1069.69 1551.65 1073.7 1548.6 Q1077.74 1545.54 1085.73 1545.54 L1093.94 1545.54 L1093.94 1544.97 Q1093.94 1540.93 1091.27 1538.73 Q1088.62 1536.5 1083.82 1536.5 Q1080.76 1536.5 1077.87 1537.23 Q1074.97 1537.97 1072.3 1539.43 L1072.3 1534.02 Q1075.51 1532.78 1078.53 1532.17 Q1081.56 1531.54 1084.42 1531.54 Q1092.16 1531.54 1095.98 1535.55 Q1099.8 1539.56 1099.8 1547.71 Z" fill="#000000" fill-rule="evenodd" fill-opacity="1" /><path clip-path="url(#clip750)" d="M1139.61 1539.24 Q1141.81 1535.29 1144.87 1533.41 Q1147.92 1531.54 1152.06 1531.54 Q1157.63 1531.54 1160.65 1535.45 Q1163.68 1539.33 1163.68 1546.53 L1163.68 1568.04 L1157.79 1568.04 L1157.79 1546.72 Q1157.79 1541.59 1155.97 1539.11 Q1154.16 1536.63 1150.44 1536.63 Q1145.88 1536.63 1143.24 1539.65 Q1140.6 1542.68 1140.6 1547.9 L1140.6 1568.04 L1134.71 1568.04 L1134.71 1546.72 Q1134.71 1541.56 1132.9 1539.11 Q1131.08 1536.63 1127.3 1536.63 Q1122.81 1536.63 1120.17 1539.68 Q1117.52 1542.71 1117.52 1547.9 L1117.52 1568.04 L1111.64 1568.04 L1111.64 1532.4 L1117.52 1532.4 L1117.52 1537.93 Q1119.53 1534.66 1122.33 1533.1 Q1125.13 1531.54 1128.98 1531.54 Q1132.87 1531.54 1135.57 1533.51 Q1138.31 1535.48 1139.61 1539.24 Z" fill="#000000" fill-rule="evenodd" fill-opacity="1" /><path clip-path="url(#clip750)" d="M1181.02 1562.7 L1181.02 1581.6 L1175.13 1581.6 L1175.13 1532.4 L1181.02 1532.4 L1181.02 1537.81 Q1182.87 1534.62 1185.67 1533.1 Q1188.5 1531.54 1192.42 1531.54 Q1198.91 1531.54 1202.95 1536.69 Q1207.03 1541.85 1207.03 1550.25 Q1207.03 1558.65 1202.95 1563.81 Q1198.91 1568.97 1192.42 1568.97 Q1188.5 1568.97 1185.67 1567.44 Q1182.87 1565.88 1181.02 1562.7 M1200.95 1550.25 Q1200.95 1543.79 1198.27 1540.13 Q1195.63 1536.44 1190.98 1536.44 Q1186.34 1536.44 1183.66 1540.13 Q1181.02 1543.79 1181.02 1550.25 Q1181.02 1556.71 1183.66 1560.4 Q1186.34 1564.07 1190.98 1564.07 Q1195.63 1564.07 1198.27 1560.4 Q1200.95 1556.71 1200.95 1550.25 Z" fill="#000000" fill-rule="evenodd" fill-opacity="1" /><path clip-path="url(#clip750)" d="M1216.73 1518.52 L1222.59 1518.52 L1222.59 1568.04 L1216.73 1568.04 L1216.73 1518.52 Z" fill="#000000" fill-rule="evenodd" fill-opacity="1" /><path clip-path="url(#clip750)" d="M1265.34 1548.76 L1265.34 1551.62 L1238.41 1551.62 Q1238.79 1557.67 1242.04 1560.85 Q1245.32 1564 1251.14 1564 Q1254.51 1564 1257.67 1563.17 Q1260.85 1562.35 1263.97 1560.69 L1263.97 1566.23 Q1260.82 1567.57 1257.51 1568.27 Q1254.2 1568.97 1250.79 1568.97 Q1242.26 1568.97 1237.26 1564 Q1232.3 1559.04 1232.3 1550.57 Q1232.3 1541.82 1237.01 1536.69 Q1241.75 1531.54 1249.77 1531.54 Q1256.97 1531.54 1261.13 1536.18 Q1265.34 1540.8 1265.34 1548.76 M1259.48 1547.04 Q1259.42 1542.23 1256.77 1539.37 Q1254.16 1536.5 1249.84 1536.5 Q1244.93 1536.5 1241.97 1539.27 Q1239.05 1542.04 1238.6 1547.07 L1259.48 1547.04 Z" fill="#000000" fill-rule="evenodd" fill-opacity="1" /><path clip-path="url(#clip750)" d="M1325.3 1546.53 L1325.3 1568.04 L1319.44 1568.04 L1319.44 1546.72 Q1319.44 1541.66 1317.47 1539.14 Q1315.5 1536.63 1311.55 1536.63 Q1306.81 1536.63 1304.07 1539.65 Q1301.33 1542.68 1301.33 1547.9 L1301.33 1568.04 L1295.45 1568.04 L1295.45 1532.4 L1301.33 1532.4 L1301.33 1537.93 Q1303.43 1534.72 1306.27 1533.13 Q1309.13 1531.54 1312.86 1531.54 Q1319 1531.54 1322.15 1535.36 Q1325.3 1539.14 1325.3 1546.53 Z" fill="#000000" fill-rule="evenodd" fill-opacity="1" /><path clip-path="url(#clip750)" d="M1336.38 1553.98 L1336.38 1532.4 L1342.23 1532.4 L1342.23 1553.75 Q1342.23 1558.81 1344.21 1561.36 Q1346.18 1563.87 1350.13 1563.87 Q1354.87 1563.87 1357.61 1560.85 Q1360.38 1557.83 1360.38 1552.61 L1360.38 1532.4 L1366.23 1532.4 L1366.23 1568.04 L1360.38 1568.04 L1360.38 1562.57 Q1358.24 1565.82 1355.41 1567.41 Q1352.61 1568.97 1348.89 1568.97 Q1342.74 1568.97 1339.56 1565.15 Q1336.38 1561.33 1336.38 1553.98 M1351.11 1531.54 L1351.11 1531.54 Z" fill="#000000" fill-rule="evenodd" fill-opacity="1" /><path clip-path="url(#clip750)" d="M1406.05 1539.24 Q1408.25 1535.29 1411.3 1533.41 Q1414.36 1531.54 1418.49 1531.54 Q1424.06 1531.54 1427.09 1535.45 Q1430.11 1539.33 1430.11 1546.53 L1430.11 1568.04 L1424.22 1568.04 L1424.22 1546.72 Q1424.22 1541.59 1422.41 1539.11 Q1420.6 1536.63 1416.87 1536.63 Q1412.32 1536.63 1409.68 1539.65 Q1407.04 1542.68 1407.04 1547.9 L1407.04 1568.04 L1401.15 1568.04 L1401.15 1546.72 Q1401.15 1541.56 1399.33 1539.11 Q1397.52 1536.63 1393.73 1536.63 Q1389.24 1536.63 1386.6 1539.68 Q1383.96 1542.71 1383.96 1547.9 L1383.96 1568.04 L1378.07 1568.04 L1378.07 1532.4 L1383.96 1532.4 L1383.96 1537.93 Q1385.97 1534.66 1388.77 1533.1 Q1391.57 1531.54 1395.42 1531.54 Q1399.3 1531.54 1402.01 1533.51 Q1404.75 1535.48 1406.05 1539.24 Z" fill="#000000" fill-rule="evenodd" fill-opacity="1" /><path clip-path="url(#clip750)" d="M1467.38 1550.25 Q1467.38 1543.79 1464.71 1540.13 Q1462.07 1536.44 1457.42 1536.44 Q1452.77 1536.44 1450.1 1540.13 Q1447.46 1543.79 1447.46 1550.25 Q1447.46 1556.71 1450.1 1560.4 Q1452.77 1564.07 1457.42 1564.07 Q1462.07 1564.07 1464.71 1560.4 Q1467.38 1556.71 1467.38 1550.25 M1447.46 1537.81 Q1449.31 1534.62 1452.11 1533.1 Q1454.94 1531.54 1458.85 1531.54 Q1465.35 1531.54 1469.39 1536.69 Q1473.46 1541.85 1473.46 1550.25 Q1473.46 1558.65 1469.39 1563.81 Q1465.35 1568.97 1458.85 1568.97 Q1454.94 1568.97 1452.11 1567.44 Q1449.31 1565.88 1447.46 1562.7 L1447.46 1568.04 L1441.57 1568.04 L1441.57 1518.52 L1447.46 1518.52 L1447.46 1537.81 Z" fill="#000000" fill-rule="evenodd" fill-opacity="1" /><path clip-path="url(#clip750)" d="M1513.66 1548.76 L1513.66 1551.62 L1486.74 1551.62 Q1487.12 1557.67 1490.36 1560.85 Q1493.64 1564 1499.47 1564 Q1502.84 1564 1505.99 1563.17 Q1509.17 1562.35 1512.29 1560.69 L1512.29 1566.23 Q1509.14 1567.57 1505.83 1568.27 Q1502.52 1568.97 1499.12 1568.97 Q1490.59 1568.97 1485.59 1564 Q1480.62 1559.04 1480.62 1550.57 Q1480.62 1541.82 1485.33 1536.69 Q1490.08 1531.54 1498.1 1531.54 Q1505.29 1531.54 1509.46 1536.18 Q1513.66 1540.8 1513.66 1548.76 M1507.81 1547.04 Q1507.74 1542.23 1505.1 1539.37 Q1502.49 1536.5 1498.16 1536.5 Q1493.26 1536.5 1490.3 1539.27 Q1487.37 1542.04 1486.93 1547.07 L1507.81 1547.04 Z" fill="#000000" fill-rule="evenodd" fill-opacity="1" /><path clip-path="url(#clip750)" d="M1543.93 1537.87 Q1542.94 1537.3 1541.77 1537.04 Q1540.62 1536.76 1539.22 1536.76 Q1534.26 1536.76 1531.58 1540 Q1528.94 1543.22 1528.94 1549.27 L1528.94 1568.04 L1523.05 1568.04 L1523.05 1532.4 L1528.94 1532.4 L1528.94 1537.93 Q1530.79 1534.69 1533.75 1533.13 Q1536.71 1531.54 1540.94 1531.54 Q1541.54 1531.54 1542.28 1531.63 Q1543.01 1531.7 1543.9 1531.85 L1543.93 1537.87 Z" fill="#000000" fill-rule="evenodd" fill-opacity="1" /><polyline clip-path="url(#clip752)" style="stroke:#000000; stroke-linecap:round; stroke-linejoin:round; stroke-width:2; stroke-opacity:0.1; fill:none" points="219.866,1397.51 2352.76,1397.51 "/>
<polyline clip-path="url(#clip752)" style="stroke:#000000; stroke-linecap:round; stroke-linejoin:round; stroke-width:2; stroke-opacity:0.1; fill:none" points="219.866,1117.75 2352.76,1117.75 "/>
<polyline clip-path="url(#clip752)" style="stroke:#000000; stroke-linecap:round; stroke-linejoin:round; stroke-width:2; stroke-opacity:0.1; fill:none" points="219.866,837.988 2352.76,837.988 "/>
<polyline clip-path="url(#clip752)" style="stroke:#000000; stroke-linecap:round; stroke-linejoin:round; stroke-width:2; stroke-opacity:0.1; fill:none" points="219.866,558.228 2352.76,558.228 "/>
<polyline clip-path="url(#clip752)" style="stroke:#000000; stroke-linecap:round; stroke-linejoin:round; stroke-width:2; stroke-opacity:0.1; fill:none" points="219.866,278.467 2352.76,278.467 "/>
<polyline clip-path="url(#clip750)" style="stroke:#000000; stroke-linecap:round; stroke-linejoin:round; stroke-width:4; stroke-opacity:1; fill:none" points="219.866,1423.18 219.866,123.472 "/>
<polyline clip-path="url(#clip750)" style="stroke:#000000; stroke-linecap:round; stroke-linejoin:round; stroke-width:4; stroke-opacity:1; fill:none" points="219.866,1397.51 238.764,1397.51 "/>
<polyline clip-path="url(#clip750)" style="stroke:#000000; stroke-linecap:round; stroke-linejoin:round; stroke-width:4; stroke-opacity:1; fill:none" points="219.866,1117.75 238.764,1117.75 "/>
<polyline clip-path="url(#clip750)" style="stroke:#000000; stroke-linecap:round; stroke-linejoin:round; stroke-width:4; stroke-opacity:1; fill:none" points="219.866,837.988 238.764,837.988 "/>
<polyline clip-path="url(#clip750)" style="stroke:#000000; stroke-linecap:round; stroke-linejoin:round; stroke-width:4; stroke-opacity:1; fill:none" points="219.866,558.228 238.764,558.228 "/>
<polyline clip-path="url(#clip750)" style="stroke:#000000; stroke-linecap:round; stroke-linejoin:round; stroke-width:4; stroke-opacity:1; fill:none" points="219.866,278.467 238.764,278.467 "/>
<path clip-path="url(#clip750)" d="M126.691 1383.31 Q123.08 1383.31 121.251 1386.87 Q119.445 1390.41 119.445 1397.54 Q119.445 1404.65 121.251 1408.22 Q123.08 1411.76 126.691 1411.76 Q130.325 1411.76 132.13 1408.22 Q133.959 1404.65 133.959 1397.54 Q133.959 1390.41 132.13 1386.87 Q130.325 1383.31 126.691 1383.31 M126.691 1379.6 Q132.501 1379.6 135.556 1384.21 Q138.635 1388.79 138.635 1397.54 Q138.635 1406.27 135.556 1410.88 Q132.501 1415.46 126.691 1415.46 Q120.88 1415.46 117.802 1410.88 Q114.746 1406.27 114.746 1397.54 Q114.746 1388.79 117.802 1384.21 Q120.88 1379.6 126.691 1379.6 Z" fill="#000000" fill-rule="evenodd" fill-opacity="1" /><path clip-path="url(#clip750)" d="M146.853 1408.91 L151.737 1408.91 L151.737 1414.79 L146.853 1414.79 L146.853 1408.91 Z" fill="#000000" fill-rule="evenodd" fill-opacity="1" /><path clip-path="url(#clip750)" d="M171.922 1383.31 Q168.311 1383.31 166.482 1386.87 Q164.677 1390.41 164.677 1397.54 Q164.677 1404.65 166.482 1408.22 Q168.311 1411.76 171.922 1411.76 Q175.556 1411.76 177.362 1408.22 Q179.19 1404.65 179.19 1397.54 Q179.19 1390.41 177.362 1386.87 Q175.556 1383.31 171.922 1383.31 M171.922 1379.6 Q177.732 1379.6 180.788 1384.21 Q183.866 1388.79 183.866 1397.54 Q183.866 1406.27 180.788 1410.88 Q177.732 1415.46 171.922 1415.46 Q166.112 1415.46 163.033 1410.88 Q159.978 1406.27 159.978 1397.54 Q159.978 1388.79 163.033 1384.21 Q166.112 1379.6 171.922 1379.6 Z" fill="#000000" fill-rule="evenodd" fill-opacity="1" /><path clip-path="url(#clip750)" d="M128.288 1103.55 Q124.677 1103.55 122.848 1107.11 Q121.043 1110.65 121.043 1117.78 Q121.043 1124.89 122.848 1128.45 Q124.677 1132 128.288 1132 Q131.922 1132 133.728 1128.45 Q135.556 1124.89 135.556 1117.78 Q135.556 1110.65 133.728 1107.11 Q131.922 1103.55 128.288 1103.55 M128.288 1099.84 Q134.098 1099.84 137.154 1104.45 Q140.232 1109.03 140.232 1117.78 Q140.232 1126.51 137.154 1131.12 Q134.098 1135.7 128.288 1135.7 Q122.478 1135.7 119.399 1131.12 Q116.343 1126.51 116.343 1117.78 Q116.343 1109.03 119.399 1104.45 Q122.478 1099.84 128.288 1099.84 Z" fill="#000000" fill-rule="evenodd" fill-opacity="1" /><path clip-path="url(#clip750)" d="M148.45 1129.15 L153.334 1129.15 L153.334 1135.03 L148.45 1135.03 L148.45 1129.15 Z" fill="#000000" fill-rule="evenodd" fill-opacity="1" /><path clip-path="url(#clip750)" d="M167.547 1131.09 L183.866 1131.09 L183.866 1135.03 L161.922 1135.03 L161.922 1131.09 Q164.584 1128.34 169.167 1123.71 Q173.774 1119.06 174.954 1117.71 Q177.2 1115.19 178.079 1113.45 Q178.982 1111.7 178.982 1110.01 Q178.982 1107.25 177.038 1105.52 Q175.116 1103.78 172.014 1103.78 Q169.815 1103.78 167.362 1104.54 Q164.931 1105.31 162.153 1106.86 L162.153 1102.14 Q164.977 1101 167.431 1100.42 Q169.885 1099.84 171.922 1099.84 Q177.292 1099.84 180.487 1102.53 Q183.681 1105.21 183.681 1109.7 Q183.681 1111.83 182.871 1113.76 Q182.084 1115.65 179.977 1118.25 Q179.399 1118.92 176.297 1122.14 Q173.195 1125.33 167.547 1131.09 Z" fill="#000000" fill-rule="evenodd" fill-opacity="1" /><path clip-path="url(#clip750)" d="M126.205 823.787 Q122.593 823.787 120.765 827.352 Q118.959 830.893 118.959 838.023 Q118.959 845.129 120.765 848.694 Q122.593 852.236 126.205 852.236 Q129.839 852.236 131.644 848.694 Q133.473 845.129 133.473 838.023 Q133.473 830.893 131.644 827.352 Q129.839 823.787 126.205 823.787 M126.205 820.083 Q132.015 820.083 135.07 824.69 Q138.149 829.273 138.149 838.023 Q138.149 846.75 135.07 851.356 Q132.015 855.94 126.205 855.94 Q120.394 855.94 117.316 851.356 Q114.26 846.75 114.26 838.023 Q114.26 829.273 117.316 824.69 Q120.394 820.083 126.205 820.083 Z" fill="#000000" fill-rule="evenodd" fill-opacity="1" /><path clip-path="url(#clip750)" d="M146.366 849.389 L151.251 849.389 L151.251 855.268 L146.366 855.268 L146.366 849.389 Z" fill="#000000" fill-rule="evenodd" fill-opacity="1" /><path clip-path="url(#clip750)" d="M174.283 824.782 L162.477 843.231 L174.283 843.231 L174.283 824.782 M173.056 820.708 L178.936 820.708 L178.936 843.231 L183.866 843.231 L183.866 847.12 L178.936 847.12 L178.936 855.268 L174.283 855.268 L174.283 847.12 L158.681 847.12 L158.681 842.606 L173.056 820.708 Z" fill="#000000" fill-rule="evenodd" fill-opacity="1" /><path clip-path="url(#clip750)" d="M126.529 544.026 Q122.918 544.026 121.089 547.591 Q119.283 551.133 119.283 558.262 Q119.283 565.369 121.089 568.934 Q122.918 572.475 126.529 572.475 Q130.163 572.475 131.968 568.934 Q133.797 565.369 133.797 558.262 Q133.797 551.133 131.968 547.591 Q130.163 544.026 126.529 544.026 M126.529 540.323 Q132.339 540.323 135.394 544.929 Q138.473 549.512 138.473 558.262 Q138.473 566.989 135.394 571.596 Q132.339 576.179 126.529 576.179 Q120.718 576.179 117.64 571.596 Q114.584 566.989 114.584 558.262 Q114.584 549.512 117.64 544.929 Q120.718 540.323 126.529 540.323 Z" fill="#000000" fill-rule="evenodd" fill-opacity="1" /><path clip-path="url(#clip750)" d="M146.691 569.628 L151.575 569.628 L151.575 575.508 L146.691 575.508 L146.691 569.628 Z" fill="#000000" fill-rule="evenodd" fill-opacity="1" /><path clip-path="url(#clip750)" d="M172.339 556.364 Q169.19 556.364 167.339 558.517 Q165.51 560.67 165.51 564.42 Q165.51 568.146 167.339 570.322 Q169.19 572.475 172.339 572.475 Q175.487 572.475 177.315 570.322 Q179.167 568.146 179.167 564.42 Q179.167 560.67 177.315 558.517 Q175.487 556.364 172.339 556.364 M181.621 541.711 L181.621 545.971 Q179.862 545.137 178.056 544.698 Q176.274 544.258 174.514 544.258 Q169.885 544.258 167.431 547.383 Q165.001 550.508 164.653 556.827 Q166.019 554.813 168.079 553.748 Q170.139 552.66 172.616 552.66 Q177.825 552.66 180.834 555.832 Q183.866 558.98 183.866 564.42 Q183.866 569.744 180.718 572.961 Q177.57 576.179 172.339 576.179 Q166.343 576.179 163.172 571.596 Q160.001 566.989 160.001 558.262 Q160.001 550.068 163.89 545.207 Q167.778 540.323 174.329 540.323 Q176.089 540.323 177.871 540.67 Q179.676 541.017 181.621 541.711 Z" fill="#000000" fill-rule="evenodd" fill-opacity="1" /><path clip-path="url(#clip750)" d="M126.783 264.266 Q123.172 264.266 121.343 267.83 Q119.538 271.372 119.538 278.502 Q119.538 285.608 121.343 289.173 Q123.172 292.714 126.783 292.714 Q130.417 292.714 132.223 289.173 Q134.052 285.608 134.052 278.502 Q134.052 271.372 132.223 267.83 Q130.417 264.266 126.783 264.266 M126.783 260.562 Q132.593 260.562 135.649 265.168 Q138.728 269.752 138.728 278.502 Q138.728 287.228 135.649 291.835 Q132.593 296.418 126.783 296.418 Q120.973 296.418 117.894 291.835 Q114.839 287.228 114.839 278.502 Q114.839 269.752 117.894 265.168 Q120.973 260.562 126.783 260.562 Z" fill="#000000" fill-rule="evenodd" fill-opacity="1" /><path clip-path="url(#clip750)" d="M146.945 289.867 L151.829 289.867 L151.829 295.747 L146.945 295.747 L146.945 289.867 Z" fill="#000000" fill-rule="evenodd" fill-opacity="1" /><path clip-path="url(#clip750)" d="M172.014 279.335 Q168.681 279.335 166.76 281.117 Q164.862 282.9 164.862 286.025 Q164.862 289.15 166.76 290.932 Q168.681 292.714 172.014 292.714 Q175.348 292.714 177.269 290.932 Q179.19 289.127 179.19 286.025 Q179.19 282.9 177.269 281.117 Q175.371 279.335 172.014 279.335 M167.339 277.344 Q164.329 276.603 162.64 274.543 Q160.973 272.483 160.973 269.52 Q160.973 265.377 163.913 262.969 Q166.876 260.562 172.014 260.562 Q177.176 260.562 180.116 262.969 Q183.056 265.377 183.056 269.52 Q183.056 272.483 181.366 274.543 Q179.7 276.603 176.714 277.344 Q180.093 278.131 181.968 280.423 Q183.866 282.715 183.866 286.025 Q183.866 291.048 180.788 293.733 Q177.732 296.418 172.014 296.418 Q166.297 296.418 163.218 293.733 Q160.163 291.048 160.163 286.025 Q160.163 282.715 162.061 280.423 Q163.959 278.131 167.339 277.344 M165.626 269.96 Q165.626 272.645 167.292 274.15 Q168.982 275.654 172.014 275.654 Q175.024 275.654 176.714 274.15 Q178.426 272.645 178.426 269.96 Q178.426 267.275 176.714 265.77 Q175.024 264.266 172.014 264.266 Q168.982 264.266 167.292 265.77 Q165.626 267.275 165.626 269.96 Z" fill="#000000" fill-rule="evenodd" fill-opacity="1" /><path clip-path="url(#clip750)" d="M18.0438 934.617 L24.314 934.617 Q22.5634 938.277 21.704 941.524 Q20.8447 944.77 20.8447 947.794 Q20.8447 953.046 22.8817 955.91 Q24.9187 958.743 28.6745 958.743 Q31.8255 958.743 33.4488 956.865 Q35.0402 954.956 36.0269 949.672 L36.8226 945.789 Q38.1912 938.596 41.6605 935.19 Q45.098 931.753 50.8908 931.753 Q57.7976 931.753 61.3624 936.399 Q64.9272 941.015 64.9272 949.958 Q64.9272 953.332 64.1633 957.152 Q63.3994 960.939 61.9035 965.013 L55.2831 965.013 Q57.4793 961.098 58.5933 957.343 Q59.7073 953.587 59.7073 949.958 Q59.7073 944.452 57.543 941.46 Q55.3786 938.468 51.3682 938.468 Q47.8671 938.468 45.8937 940.633 Q43.9204 942.765 42.9337 947.667 L42.1698 951.582 Q40.7375 958.775 37.682 961.99 Q34.6264 965.204 29.1837 965.204 Q22.8817 965.204 19.2532 960.78 Q15.6248 956.324 15.6248 948.526 Q15.6248 945.184 16.2295 941.715 Q16.8343 938.246 18.0438 934.617 Z" fill="#000000" fill-rule="evenodd" fill-opacity="1" /><path clip-path="url(#clip750)" d="M46.0847 905.78 Q46.0847 912.878 47.7079 915.615 Q49.3312 918.353 53.2461 918.353 Q56.3653 918.353 58.2114 916.316 Q60.0256 914.247 60.0256 910.714 Q60.0256 905.844 56.5881 902.916 Q53.1188 899.956 47.3897 899.956 L46.0847 899.956 L46.0847 905.78 M43.6657 894.099 L64.0042 894.099 L64.0042 899.956 L58.5933 899.956 Q61.8398 901.961 63.3994 904.953 Q64.9272 907.945 64.9272 912.273 Q64.9272 917.748 61.8716 920.994 Q58.7843 924.209 53.6281 924.209 Q47.6125 924.209 44.5569 920.199 Q41.5014 916.157 41.5014 908.168 L41.5014 899.956 L40.9285 899.956 Q36.8862 899.956 34.6901 902.629 Q32.4621 905.271 32.4621 910.077 Q32.4621 913.133 33.1941 916.029 Q33.9262 918.926 35.3903 921.599 L29.9795 921.599 Q28.7381 918.385 28.1334 915.361 Q27.4968 912.337 27.4968 909.473 Q27.4968 901.738 31.5072 897.919 Q35.5176 894.099 43.6657 894.099 Z" fill="#000000" fill-rule="evenodd" fill-opacity="1" /><path clip-path="url(#clip750)" d="M35.1993 854.282 Q31.2526 852.086 29.3747 849.03 Q27.4968 845.975 27.4968 841.837 Q27.4968 836.267 31.4117 833.243 Q35.2948 830.219 42.4881 830.219 L64.0042 830.219 L64.0042 836.108 L42.679 836.108 Q37.5546 836.108 35.072 837.922 Q32.5894 839.736 32.5894 843.46 Q32.5894 848.012 35.6131 850.653 Q38.6368 853.295 43.8567 853.295 L64.0042 853.295 L64.0042 859.183 L42.679 859.183 Q37.5228 859.183 35.072 860.998 Q32.5894 862.812 32.5894 866.6 Q32.5894 871.087 35.6449 873.729 Q38.6686 876.371 43.8567 876.371 L64.0042 876.371 L64.0042 882.259 L28.3562 882.259 L28.3562 876.371 L33.8944 876.371 Q30.616 874.366 29.0564 871.565 Q27.4968 868.764 27.4968 864.913 Q27.4968 861.03 29.4702 858.324 Q31.4436 855.587 35.1993 854.282 Z" fill="#000000" fill-rule="evenodd" fill-opacity="1" /><path clip-path="url(#clip750)" d="M58.657 812.873 L77.5631 812.873 L77.5631 818.761 L28.3562 818.761 L28.3562 812.873 L33.7671 812.873 Q30.5842 811.027 29.0564 808.226 Q27.4968 805.393 27.4968 801.478 Q27.4968 794.985 32.6531 790.943 Q37.8093 786.869 46.212 786.869 Q54.6147 786.869 59.771 790.943 Q64.9272 794.985 64.9272 801.478 Q64.9272 805.393 63.3994 808.226 Q61.8398 811.027 58.657 812.873 M46.212 792.948 Q39.7508 792.948 36.0905 795.622 Q32.3984 798.264 32.3984 802.911 Q32.3984 807.558 36.0905 810.231 Q39.7508 812.873 46.212 812.873 Q52.6732 812.873 56.3653 810.231 Q60.0256 807.558 60.0256 802.911 Q60.0256 798.264 56.3653 795.622 Q52.6732 792.948 46.212 792.948 Z" fill="#000000" fill-rule="evenodd" fill-opacity="1" /><path clip-path="url(#clip750)" d="M14.479 777.161 L14.479 771.305 L64.0042 771.305 L64.0042 777.161 L14.479 777.161 Z" fill="#000000" fill-rule="evenodd" fill-opacity="1" /><path clip-path="url(#clip750)" d="M44.7161 728.559 L47.5806 728.559 L47.5806 755.486 Q53.6281 755.104 56.8109 751.858 Q59.9619 748.579 59.9619 742.755 Q59.9619 739.381 59.1344 736.23 Q58.3069 733.047 56.6518 729.928 L62.1899 729.928 Q63.5267 733.079 64.227 736.389 Q64.9272 739.699 64.9272 743.105 Q64.9272 751.635 59.9619 756.632 Q54.9967 761.597 46.5303 761.597 Q37.7774 761.597 32.6531 756.887 Q27.4968 752.144 27.4968 744.123 Q27.4968 736.93 32.1438 732.761 Q36.7589 728.559 44.7161 728.559 M42.9973 734.416 Q38.1912 734.479 35.3266 737.121 Q32.4621 739.731 32.4621 744.06 Q32.4621 748.961 35.2312 751.921 Q38.0002 754.85 43.0292 755.295 L42.9973 734.416 Z" fill="#000000" fill-rule="evenodd" fill-opacity="1" /><path clip-path="url(#clip750)" d="M29.4065 675.501 L34.9447 675.501 Q33.6716 677.984 33.035 680.657 Q32.3984 683.331 32.3984 686.195 Q32.3984 690.556 33.7352 692.752 Q35.072 694.916 37.7456 694.916 Q39.7826 694.916 40.9603 693.357 Q42.1061 691.797 43.1565 687.087 L43.6021 685.081 Q44.9389 678.843 47.3897 676.233 Q49.8086 673.591 54.1691 673.591 Q59.1344 673.591 62.0308 677.538 Q64.9272 681.453 64.9272 688.328 Q64.9272 691.192 64.3543 694.312 Q63.8132 697.399 62.6992 700.836 L56.6518 700.836 Q58.3387 697.59 59.198 694.439 Q60.0256 691.288 60.0256 688.201 Q60.0256 684.063 58.6251 681.835 Q57.1929 679.607 54.6147 679.607 Q52.2276 679.607 50.9545 681.23 Q49.6813 682.822 48.5037 688.264 L48.0262 690.301 Q46.8804 695.744 44.5251 698.163 Q42.138 700.582 38.0002 700.582 Q32.9713 700.582 30.2341 697.017 Q27.4968 693.452 27.4968 686.896 Q27.4968 683.649 27.9743 680.785 Q28.4517 677.92 29.4065 675.501 Z" fill="#000000" fill-rule="evenodd" fill-opacity="1" /><path clip-path="url(#clip750)" d="M28.3562 664.266 L28.3562 658.409 L64.0042 658.409 L64.0042 664.266 L28.3562 664.266 M14.479 664.266 L14.479 658.409 L21.895 658.409 L21.895 664.266 L14.479 664.266 Z" fill="#000000" fill-rule="evenodd" fill-opacity="1" /><path clip-path="url(#clip750)" d="M28.3562 648.701 L28.3562 620.883 L33.7034 620.883 L59.3254 642.909 L59.3254 620.883 L64.0042 620.883 L64.0042 649.497 L58.657 649.497 L33.035 627.472 L33.035 648.701 L28.3562 648.701 Z" fill="#000000" fill-rule="evenodd" fill-opacity="1" /><path clip-path="url(#clip750)" d="M44.7161 581.448 L47.5806 581.448 L47.5806 608.375 Q53.6281 607.993 56.8109 604.746 Q59.9619 601.468 59.9619 595.643 Q59.9619 592.269 59.1344 589.118 Q58.3069 585.935 56.6518 582.816 L62.1899 582.816 Q63.5267 585.967 64.227 589.277 Q64.9272 592.588 64.9272 595.993 Q64.9272 604.523 59.9619 609.52 Q54.9967 614.486 46.5303 614.486 Q37.7774 614.486 32.6531 609.775 Q27.4968 605.033 27.4968 597.012 Q27.4968 589.819 32.1438 585.649 Q36.7589 581.448 44.7161 581.448 M42.9973 587.304 Q38.1912 587.368 35.3266 590.01 Q32.4621 592.619 32.4621 596.948 Q32.4621 601.85 35.2312 604.81 Q38.0002 607.738 43.0292 608.184 L42.9973 587.304 Z" fill="#000000" fill-rule="evenodd" fill-opacity="1" /><path clip-path="url(#clip750)" d="M891.085 12.096 L942.248 12.096 L942.248 18.9825 L920.778 18.9825 L920.778 72.576 L912.554 72.576 L912.554 18.9825 L891.085 18.9825 L891.085 12.096 Z" fill="#000000" fill-rule="evenodd" fill-opacity="1" /><path clip-path="url(#clip750)" d="M931.756 27.2059 L939.209 27.2059 L948.526 62.6108 L957.803 27.2059 L966.593 27.2059 L975.911 62.6108 L985.187 27.2059 L992.641 27.2059 L980.772 72.576 L971.981 72.576 L962.218 35.3887 L952.415 72.576 L943.625 72.576 L931.756 27.2059 Z" fill="#000000" fill-rule="evenodd" fill-opacity="1" /><path clip-path="url(#clip750)" d="M1021.52 32.4315 Q1015.53 32.4315 1012.04 37.1306 Q1008.56 41.7891 1008.56 49.9314 Q1008.56 58.0738 1012 62.7728 Q1015.49 67.4314 1021.52 67.4314 Q1027.48 67.4314 1030.96 62.7323 Q1034.45 58.0333 1034.45 49.9314 Q1034.45 41.8701 1030.96 37.1711 Q1027.48 32.4315 1021.52 32.4315 M1021.52 26.1121 Q1031.25 26.1121 1036.8 32.4315 Q1042.35 38.7509 1042.35 49.9314 Q1042.35 61.0714 1036.8 67.4314 Q1031.25 73.7508 1021.52 73.7508 Q1011.76 73.7508 1006.21 67.4314 Q1000.7 61.0714 1000.7 49.9314 Q1000.7 38.7509 1006.21 32.4315 Q1011.76 26.1121 1021.52 26.1121 Z" fill="#000000" fill-rule="evenodd" fill-opacity="1" /><path clip-path="url(#clip750)" d="M1110 28.5427 L1110 35.5912 Q1106.84 33.9709 1103.43 33.1607 Q1100.03 32.3505 1096.38 32.3505 Q1090.83 32.3505 1088.04 34.0519 Q1085.28 35.7533 1085.28 39.156 Q1085.28 41.7486 1087.27 43.2475 Q1089.25 44.7058 1095.25 46.0426 L1097.8 46.6097 Q1105.74 48.3111 1109.06 51.4303 Q1112.43 54.509 1112.43 60.0587 Q1112.43 66.3781 1107.4 70.0644 Q1102.42 73.7508 1093.67 73.7508 Q1090.02 73.7508 1086.05 73.0216 Q1082.13 72.3329 1077.75 70.9151 L1077.75 63.2184 Q1081.88 65.3654 1085.89 66.4591 Q1089.9 67.5124 1093.83 67.5124 Q1099.1 67.5124 1101.93 65.73 Q1104.77 63.9071 1104.77 60.6258 Q1104.77 57.5877 1102.7 55.9673 Q1100.68 54.3469 1093.75 52.8481 L1091.16 52.2405 Q1084.23 50.7821 1081.15 47.7845 Q1078.07 44.7463 1078.07 39.4801 Q1078.07 33.0797 1082.61 29.5959 Q1087.15 26.1121 1095.49 26.1121 Q1099.63 26.1121 1103.27 26.7198 Q1106.92 27.3274 1110 28.5427 Z" fill="#000000" fill-rule="evenodd" fill-opacity="1" /><path clip-path="url(#clip750)" d="M1163.1 48.0275 L1163.1 51.6733 L1128.83 51.6733 Q1129.32 59.3701 1133.45 63.421 Q1137.62 67.4314 1145.04 67.4314 Q1149.33 67.4314 1153.34 66.3781 Q1157.39 65.3249 1161.36 63.2184 L1161.36 70.267 Q1157.35 71.9684 1153.14 72.8596 Q1148.92 73.7508 1144.59 73.7508 Q1133.73 73.7508 1127.37 67.4314 Q1121.05 61.1119 1121.05 50.3365 Q1121.05 39.1965 1127.05 32.6746 Q1133.09 26.1121 1143.29 26.1121 Q1152.45 26.1121 1157.76 32.0264 Q1163.1 37.9003 1163.1 48.0275 M1155.65 45.84 Q1155.57 39.7232 1152.21 36.0774 Q1148.88 32.4315 1143.37 32.4315 Q1137.14 32.4315 1133.37 35.9558 Q1129.64 39.4801 1129.08 45.8805 L1155.65 45.84 Z" fill="#000000" fill-rule="evenodd" fill-opacity="1" /><path clip-path="url(#clip750)" d="M1201.63 34.1734 Q1200.37 33.4443 1198.87 33.1202 Q1197.41 32.7556 1195.63 32.7556 Q1189.31 32.7556 1185.91 36.8875 Q1182.55 40.9789 1182.55 48.6757 L1182.55 72.576 L1175.05 72.576 L1175.05 27.2059 L1182.55 27.2059 L1182.55 34.2544 Q1184.9 30.1225 1188.66 28.1376 Q1192.43 26.1121 1197.82 26.1121 Q1198.59 26.1121 1199.52 26.2337 Q1200.45 26.3147 1201.59 26.5172 L1201.63 34.1734 Z" fill="#000000" fill-rule="evenodd" fill-opacity="1" /><path clip-path="url(#clip750)" d="M1209.45 27.2059 L1216.9 27.2059 L1216.9 72.576 L1209.45 72.576 L1209.45 27.2059 M1209.45 9.54393 L1216.9 9.54393 L1216.9 18.9825 L1209.45 18.9825 L1209.45 9.54393 Z" fill="#000000" fill-rule="evenodd" fill-opacity="1" /><path clip-path="url(#clip750)" d="M1271.3 48.0275 L1271.3 51.6733 L1237.03 51.6733 Q1237.52 59.3701 1241.65 63.421 Q1245.82 67.4314 1253.24 67.4314 Q1257.53 67.4314 1261.54 66.3781 Q1265.59 65.3249 1269.56 63.2184 L1269.56 70.267 Q1265.55 71.9684 1261.34 72.8596 Q1257.12 73.7508 1252.79 73.7508 Q1241.93 73.7508 1235.57 67.4314 Q1229.25 61.1119 1229.25 50.3365 Q1229.25 39.1965 1235.25 32.6746 Q1241.29 26.1121 1251.49 26.1121 Q1260.65 26.1121 1265.96 32.0264 Q1271.3 37.9003 1271.3 48.0275 M1263.85 45.84 Q1263.77 39.7232 1260.41 36.0774 Q1257.08 32.4315 1251.57 32.4315 Q1245.34 32.4315 1241.57 35.9558 Q1237.84 39.4801 1237.27 45.8805 L1263.85 45.84 Z" fill="#000000" fill-rule="evenodd" fill-opacity="1" /><path clip-path="url(#clip750)" d="M1312.46 28.5427 L1312.46 35.5912 Q1309.3 33.9709 1305.9 33.1607 Q1302.49 32.3505 1298.85 32.3505 Q1293.3 32.3505 1290.5 34.0519 Q1287.75 35.7533 1287.75 39.156 Q1287.75 41.7486 1289.73 43.2475 Q1291.72 44.7058 1297.71 46.0426 L1300.27 46.6097 Q1308.21 48.3111 1311.53 51.4303 Q1314.89 54.509 1314.89 60.0587 Q1314.89 66.3781 1309.87 70.0644 Q1304.88 73.7508 1296.13 73.7508 Q1292.49 73.7508 1288.52 73.0216 Q1284.59 72.3329 1280.21 70.9151 L1280.21 63.2184 Q1284.35 65.3654 1288.36 66.4591 Q1292.37 67.5124 1296.3 67.5124 Q1301.56 67.5124 1304.4 65.73 Q1307.23 63.9071 1307.23 60.6258 Q1307.23 57.5877 1305.17 55.9673 Q1303.14 54.3469 1296.22 52.8481 L1293.62 52.2405 Q1286.7 50.7821 1283.62 47.7845 Q1280.54 44.7463 1280.54 39.4801 Q1280.54 33.0797 1285.08 29.5959 Q1289.61 26.1121 1297.96 26.1121 Q1302.09 26.1121 1305.74 26.7198 Q1309.38 27.3274 1312.46 28.5427 Z" fill="#000000" fill-rule="evenodd" fill-opacity="1" /><path clip-path="url(#clip750)" d="M1353.13 27.2059 L1360.58 27.2059 L1360.58 72.576 L1353.13 72.576 L1353.13 27.2059 M1353.13 9.54393 L1360.58 9.54393 L1360.58 18.9825 L1353.13 18.9825 L1353.13 9.54393 Z" fill="#000000" fill-rule="evenodd" fill-opacity="1" /><path clip-path="url(#clip750)" d="M1413.89 45.1919 L1413.89 72.576 L1406.44 72.576 L1406.44 45.4349 Q1406.44 38.994 1403.93 35.7938 Q1401.42 32.5936 1396.39 32.5936 Q1390.36 32.5936 1386.87 36.4419 Q1383.39 40.2903 1383.39 46.9338 L1383.39 72.576 L1375.9 72.576 L1375.9 27.2059 L1383.39 27.2059 L1383.39 34.2544 Q1386.06 30.163 1389.67 28.1376 Q1393.32 26.1121 1398.06 26.1121 Q1405.87 26.1121 1409.88 30.9732 Q1413.89 35.7938 1413.89 45.1919 Z" fill="#000000" fill-rule="evenodd" fill-opacity="1" /><path clip-path="url(#clip750)" d="M1475.75 49.7694 Q1466.72 49.7694 1463.23 51.8354 Q1459.75 53.9013 1459.75 58.8839 Q1459.75 62.8538 1462.34 65.2034 Q1464.98 67.5124 1469.47 67.5124 Q1475.67 67.5124 1479.4 63.1374 Q1483.16 58.7219 1483.16 51.4303 L1483.16 49.7694 L1475.75 49.7694 M1490.62 46.6907 L1490.62 72.576 L1483.16 72.576 L1483.16 65.6895 Q1480.61 69.8214 1476.8 71.8063 Q1473 73.7508 1467.49 73.7508 Q1460.52 73.7508 1456.39 69.8619 Q1452.3 65.9325 1452.3 59.3701 Q1452.3 51.7138 1457.4 47.825 Q1462.55 43.9361 1472.71 43.9361 L1483.16 43.9361 L1483.16 43.2069 Q1483.16 38.0623 1479.76 35.2672 Q1476.4 32.4315 1470.28 32.4315 Q1466.39 32.4315 1462.71 33.3632 Q1459.02 34.295 1455.62 36.1584 L1455.62 29.2718 Q1459.71 27.692 1463.56 26.9223 Q1467.41 26.1121 1471.05 26.1121 Q1480.9 26.1121 1485.76 31.2163 Q1490.62 36.3204 1490.62 46.6907 Z" fill="#000000" fill-rule="evenodd" fill-opacity="1" /><path clip-path="url(#clip750)" d="M1539.55 65.7705 L1539.55 89.8329 L1532.06 89.8329 L1532.06 27.2059 L1539.55 27.2059 L1539.55 34.0924 Q1541.9 30.0415 1545.47 28.0971 Q1549.07 26.1121 1554.06 26.1121 Q1562.32 26.1121 1567.46 32.6746 Q1572.65 39.2371 1572.65 49.9314 Q1572.65 60.6258 1567.46 67.1883 Q1562.32 73.7508 1554.06 73.7508 Q1549.07 73.7508 1545.47 71.8063 Q1541.9 69.8214 1539.55 65.7705 M1564.91 49.9314 Q1564.91 41.7081 1561.51 37.0496 Q1558.15 32.3505 1552.23 32.3505 Q1546.32 32.3505 1542.92 37.0496 Q1539.55 41.7081 1539.55 49.9314 Q1539.55 58.1548 1542.92 62.8538 Q1546.32 67.5124 1552.23 67.5124 Q1558.15 67.5124 1561.51 62.8538 Q1564.91 58.1548 1564.91 49.9314 Z" fill="#000000" fill-rule="evenodd" fill-opacity="1" /><path clip-path="url(#clip750)" d="M1585 9.54393 L1592.46 9.54393 L1592.46 72.576 L1585 72.576 L1585 9.54393 Z" fill="#000000" fill-rule="evenodd" fill-opacity="1" /><path clip-path="url(#clip750)" d="M1625.64 32.4315 Q1619.64 32.4315 1616.16 37.1306 Q1612.67 41.7891 1612.67 49.9314 Q1612.67 58.0738 1616.12 62.7728 Q1619.6 67.4314 1625.64 67.4314 Q1631.59 67.4314 1635.07 62.7323 Q1638.56 58.0333 1638.56 49.9314 Q1638.56 41.8701 1635.07 37.1711 Q1631.59 32.4315 1625.64 32.4315 M1625.64 26.1121 Q1635.36 26.1121 1640.91 32.4315 Q1646.46 38.7509 1646.46 49.9314 Q1646.46 61.0714 1640.91 67.4314 Q1635.36 73.7508 1625.64 73.7508 Q1615.87 73.7508 1610.32 67.4314 Q1604.81 61.0714 1604.81 49.9314 Q1604.81 38.7509 1610.32 32.4315 Q1615.87 26.1121 1625.64 26.1121 Z" fill="#000000" fill-rule="evenodd" fill-opacity="1" /><path clip-path="url(#clip750)" d="M1666.18 14.324 L1666.18 27.2059 L1681.54 27.2059 L1681.54 32.9987 L1666.18 32.9987 L1666.18 57.6282 Q1666.18 63.1779 1667.68 64.7578 Q1669.22 66.3376 1673.88 66.3376 L1681.54 66.3376 L1681.54 72.576 L1673.88 72.576 Q1665.25 72.576 1661.97 69.3758 Q1658.69 66.1351 1658.69 57.6282 L1658.69 32.9987 L1653.22 32.9987 L1653.22 27.2059 L1658.69 27.2059 L1658.69 14.324 L1666.18 14.324 Z" fill="#000000" fill-rule="evenodd" fill-opacity="1" /><polyline clip-path="url(#clip752)" style="stroke:#009af9; stroke-linecap:round; stroke-linejoin:round; stroke-width:4; stroke-opacity:1; fill:none" stroke-dasharray="16, 8, 2, 8, 2, 8" points="280.231,1142.71 615.591,517.176 950.951,1058.97 1286.31,160.256 1621.67,580.623 1957.03,707.248 2292.39,1386.4 "/>
<polyline clip-path="url(#clip752)" style="stroke:#e26f46; stroke-linecap:round; stroke-linejoin:round; stroke-width:8; stroke-opacity:1; fill:none" points="280.231,779.802 615.591,781.93 950.951,944.326 1286.31,443.884 1621.67,1295.19 1957.03,1338.22 "/>
<path clip-path="url(#clip750)" d="M1757.68 322.316 L2281.66 322.316 L2281.66 166.796 L1757.68 166.796  Z" fill="#ffffff" fill-rule="evenodd" fill-opacity="1"/>
<polyline clip-path="url(#clip750)" style="stroke:#000000; stroke-linecap:round; stroke-linejoin:round; stroke-width:4; stroke-opacity:1; fill:none" points="1757.68,322.316 2281.66,322.316 2281.66,166.796 1757.68,166.796 1757.68,322.316 "/>
<polyline clip-path="url(#clip750)" style="stroke:#009af9; stroke-linecap:round; stroke-linejoin:round; stroke-width:4; stroke-opacity:1; fill:none" stroke-dasharray="16, 8, 2, 8, 2, 8" points="1781.38,218.636 1923.57,218.636 "/>
<path clip-path="url(#clip750)" d="M1947.27 201.356 L1969.12 201.356 L1969.12 205.291 L1951.94 205.291 L1951.94 215.522 L1968.4 215.522 L1968.4 219.457 L1951.94 219.457 L1951.94 231.981 L1969.54 231.981 L1969.54 235.916 L1947.27 235.916 L1947.27 201.356 Z" fill="#000000" fill-rule="evenodd" fill-opacity="1" /><path clip-path="url(#clip750)" d="M1998.59 209.99 L1989.21 222.606 L1999.07 235.916 L1994.05 235.916 L1986.5 225.731 L1978.96 235.916 L1973.93 235.916 L1984 222.351 L1974.79 209.99 L1979.81 209.99 L1986.69 219.226 L1993.56 209.99 L1998.59 209.99 Z" fill="#000000" fill-rule="evenodd" fill-opacity="1" /><path clip-path="url(#clip750)" d="M2009.21 232.027 L2009.21 245.777 L2004.93 245.777 L2004.93 209.99 L2009.21 209.99 L2009.21 213.925 Q2010.55 211.61 2012.59 210.499 Q2014.65 209.365 2017.5 209.365 Q2022.22 209.365 2025.16 213.115 Q2028.12 216.865 2028.12 222.976 Q2028.12 229.087 2025.16 232.837 Q2022.22 236.587 2017.5 236.587 Q2014.65 236.587 2012.59 235.476 Q2010.55 234.342 2009.21 232.027 M2023.7 222.976 Q2023.7 218.277 2021.76 215.615 Q2019.84 212.93 2016.46 212.93 Q2013.08 212.93 2011.13 215.615 Q2009.21 218.277 2009.21 222.976 Q2009.21 227.675 2011.13 230.36 Q2013.08 233.022 2016.46 233.022 Q2019.84 233.022 2021.76 230.36 Q2023.7 227.675 2023.7 222.976 Z" fill="#000000" fill-rule="evenodd" fill-opacity="1" /><path clip-path="url(#clip750)" d="M2057.36 221.888 L2057.36 223.971 L2037.78 223.971 Q2038.05 228.369 2040.42 230.684 Q2042.8 232.976 2047.04 232.976 Q2049.49 232.976 2051.78 232.374 Q2054.1 231.772 2056.36 230.569 L2056.36 234.596 Q2054.07 235.568 2051.67 236.078 Q2049.26 236.587 2046.78 236.587 Q2040.58 236.587 2036.94 232.976 Q2033.33 229.365 2033.33 223.207 Q2033.33 216.842 2036.76 213.115 Q2040.21 209.365 2046.04 209.365 Q2051.27 209.365 2054.3 212.745 Q2057.36 216.101 2057.36 221.888 M2053.1 220.638 Q2053.05 217.143 2051.13 215.059 Q2049.24 212.976 2046.09 212.976 Q2042.52 212.976 2040.37 214.99 Q2038.24 217.004 2037.92 220.661 L2053.1 220.638 Z" fill="#000000" fill-rule="evenodd" fill-opacity="1" /><path clip-path="url(#clip750)" d="M2079.37 213.971 Q2078.66 213.555 2077.8 213.37 Q2076.97 213.161 2075.95 213.161 Q2072.34 213.161 2070.39 215.522 Q2068.47 217.86 2068.47 222.258 L2068.47 235.916 L2064.19 235.916 L2064.19 209.99 L2068.47 209.99 L2068.47 214.018 Q2069.81 211.657 2071.97 210.522 Q2074.12 209.365 2077.2 209.365 Q2077.64 209.365 2078.17 209.434 Q2078.7 209.481 2079.35 209.596 L2079.37 213.971 Z" fill="#000000" fill-rule="evenodd" fill-opacity="1" /><path clip-path="url(#clip750)" d="M2083.84 209.99 L2088.1 209.99 L2088.1 235.916 L2083.84 235.916 L2083.84 209.99 M2083.84 199.897 L2088.1 199.897 L2088.1 205.291 L2083.84 205.291 L2083.84 199.897 Z" fill="#000000" fill-rule="evenodd" fill-opacity="1" /><path clip-path="url(#clip750)" d="M2117.2 214.967 Q2118.79 212.096 2121.02 210.731 Q2123.24 209.365 2126.25 209.365 Q2130.3 209.365 2132.5 212.212 Q2134.7 215.036 2134.7 220.268 L2134.7 235.916 L2130.42 235.916 L2130.42 220.407 Q2130.42 216.68 2129.1 214.874 Q2127.78 213.069 2125.07 213.069 Q2121.76 213.069 2119.84 215.268 Q2117.92 217.467 2117.92 221.263 L2117.92 235.916 L2113.63 235.916 L2113.63 220.407 Q2113.63 216.657 2112.31 214.874 Q2110.99 213.069 2108.24 213.069 Q2104.98 213.069 2103.05 215.291 Q2101.13 217.49 2101.13 221.263 L2101.13 235.916 L2096.85 235.916 L2096.85 209.99 L2101.13 209.99 L2101.13 214.018 Q2102.59 211.633 2104.63 210.499 Q2106.67 209.365 2109.47 209.365 Q2112.29 209.365 2114.26 210.8 Q2116.25 212.235 2117.2 214.967 Z" fill="#000000" fill-rule="evenodd" fill-opacity="1" /><path clip-path="url(#clip750)" d="M2165.37 221.888 L2165.37 223.971 L2145.79 223.971 Q2146.06 228.369 2148.42 230.684 Q2150.81 232.976 2155.04 232.976 Q2157.5 232.976 2159.79 232.374 Q2162.1 231.772 2164.37 230.569 L2164.37 234.596 Q2162.08 235.568 2159.67 236.078 Q2157.27 236.587 2154.79 236.587 Q2148.59 236.587 2144.95 232.976 Q2141.34 229.365 2141.34 223.207 Q2141.34 216.842 2144.77 213.115 Q2148.22 209.365 2154.05 209.365 Q2159.28 209.365 2162.31 212.745 Q2165.37 216.101 2165.37 221.888 M2161.11 220.638 Q2161.06 217.143 2159.14 215.059 Q2157.24 212.976 2154.1 212.976 Q2150.53 212.976 2148.38 214.99 Q2146.25 217.004 2145.92 220.661 L2161.11 220.638 Z" fill="#000000" fill-rule="evenodd" fill-opacity="1" /><path clip-path="url(#clip750)" d="M2193.91 220.268 L2193.91 235.916 L2189.65 235.916 L2189.65 220.407 Q2189.65 216.726 2188.22 214.897 Q2186.78 213.069 2183.91 213.069 Q2180.46 213.069 2178.47 215.268 Q2176.48 217.467 2176.48 221.263 L2176.48 235.916 L2172.2 235.916 L2172.2 209.99 L2176.48 209.99 L2176.48 214.018 Q2178.01 211.68 2180.07 210.522 Q2182.15 209.365 2184.86 209.365 Q2189.33 209.365 2191.62 212.143 Q2193.91 214.897 2193.91 220.268 Z" fill="#000000" fill-rule="evenodd" fill-opacity="1" /><path clip-path="url(#clip750)" d="M2206.62 202.629 L2206.62 209.99 L2215.39 209.99 L2215.39 213.3 L2206.62 213.3 L2206.62 227.374 Q2206.62 230.545 2207.47 231.448 Q2208.35 232.351 2211.02 232.351 L2215.39 232.351 L2215.39 235.916 L2211.02 235.916 Q2206.09 235.916 2204.21 234.087 Q2202.34 232.235 2202.34 227.374 L2202.34 213.3 L2199.21 213.3 L2199.21 209.99 L2202.34 209.99 L2202.34 202.629 L2206.62 202.629 Z" fill="#000000" fill-rule="evenodd" fill-opacity="1" /><path clip-path="url(#clip750)" d="M2240.69 231.981 L2257.01 231.981 L2257.01 235.916 L2235.07 235.916 L2235.07 231.981 Q2237.73 229.226 2242.31 224.596 Q2246.92 219.944 2248.1 218.601 Q2250.35 216.078 2251.22 214.342 Q2252.13 212.583 2252.13 210.893 Q2252.13 208.138 2250.18 206.402 Q2248.26 204.666 2245.16 204.666 Q2242.96 204.666 2240.51 205.43 Q2238.08 206.194 2235.3 207.745 L2235.3 203.022 Q2238.12 201.888 2240.58 201.309 Q2243.03 200.731 2245.07 200.731 Q2250.44 200.731 2253.63 203.416 Q2256.83 206.101 2256.83 210.592 Q2256.83 212.721 2256.02 214.643 Q2255.23 216.541 2253.12 219.133 Q2252.54 219.805 2249.44 223.022 Q2246.34 226.217 2240.69 231.981 Z" fill="#000000" fill-rule="evenodd" fill-opacity="1" /><polyline clip-path="url(#clip750)" style="stroke:#e26f46; stroke-linecap:round; stroke-linejoin:round; stroke-width:8; stroke-opacity:1; fill:none" points="1781.38,270.476 1923.57,270.476 "/>
<path clip-path="url(#clip750)" d="M1947.27 253.196 L1969.12 253.196 L1969.12 257.131 L1951.94 257.131 L1951.94 267.362 L1968.4 267.362 L1968.4 271.297 L1951.94 271.297 L1951.94 283.821 L1969.54 283.821 L1969.54 287.756 L1947.27 287.756 L1947.27 253.196 Z" fill="#000000" fill-rule="evenodd" fill-opacity="1" /><path clip-path="url(#clip750)" d="M1998.59 261.83 L1989.21 274.446 L1999.07 287.756 L1994.05 287.756 L1986.5 277.571 L1978.96 287.756 L1973.93 287.756 L1984 274.191 L1974.79 261.83 L1979.81 261.83 L1986.69 271.066 L1993.56 261.83 L1998.59 261.83 Z" fill="#000000" fill-rule="evenodd" fill-opacity="1" /><path clip-path="url(#clip750)" d="M2009.21 283.867 L2009.21 297.617 L2004.93 297.617 L2004.93 261.83 L2009.21 261.83 L2009.21 265.765 Q2010.55 263.45 2012.59 262.339 Q2014.65 261.205 2017.5 261.205 Q2022.22 261.205 2025.16 264.955 Q2028.12 268.705 2028.12 274.816 Q2028.12 280.927 2025.16 284.677 Q2022.22 288.427 2017.5 288.427 Q2014.65 288.427 2012.59 287.316 Q2010.55 286.182 2009.21 283.867 M2023.7 274.816 Q2023.7 270.117 2021.76 267.455 Q2019.84 264.77 2016.46 264.77 Q2013.08 264.77 2011.13 267.455 Q2009.21 270.117 2009.21 274.816 Q2009.21 279.515 2011.13 282.2 Q2013.08 284.862 2016.46 284.862 Q2019.84 284.862 2021.76 282.2 Q2023.7 279.515 2023.7 274.816 Z" fill="#000000" fill-rule="evenodd" fill-opacity="1" /><path clip-path="url(#clip750)" d="M2057.36 273.728 L2057.36 275.811 L2037.78 275.811 Q2038.05 280.209 2040.42 282.524 Q2042.8 284.816 2047.04 284.816 Q2049.49 284.816 2051.78 284.214 Q2054.1 283.612 2056.36 282.409 L2056.36 286.436 Q2054.07 287.408 2051.67 287.918 Q2049.26 288.427 2046.78 288.427 Q2040.58 288.427 2036.94 284.816 Q2033.33 281.205 2033.33 275.047 Q2033.33 268.682 2036.76 264.955 Q2040.21 261.205 2046.04 261.205 Q2051.27 261.205 2054.3 264.585 Q2057.36 267.941 2057.36 273.728 M2053.1 272.478 Q2053.05 268.983 2051.13 266.899 Q2049.24 264.816 2046.09 264.816 Q2042.52 264.816 2040.37 266.83 Q2038.24 268.844 2037.92 272.501 L2053.1 272.478 Z" fill="#000000" fill-rule="evenodd" fill-opacity="1" /><path clip-path="url(#clip750)" d="M2079.37 265.811 Q2078.66 265.395 2077.8 265.21 Q2076.97 265.001 2075.95 265.001 Q2072.34 265.001 2070.39 267.362 Q2068.47 269.7 2068.47 274.098 L2068.47 287.756 L2064.19 287.756 L2064.19 261.83 L2068.47 261.83 L2068.47 265.858 Q2069.81 263.497 2071.97 262.362 Q2074.12 261.205 2077.2 261.205 Q2077.64 261.205 2078.17 261.274 Q2078.7 261.321 2079.35 261.436 L2079.37 265.811 Z" fill="#000000" fill-rule="evenodd" fill-opacity="1" /><path clip-path="url(#clip750)" d="M2083.84 261.83 L2088.1 261.83 L2088.1 287.756 L2083.84 287.756 L2083.84 261.83 M2083.84 251.737 L2088.1 251.737 L2088.1 257.131 L2083.84 257.131 L2083.84 251.737 Z" fill="#000000" fill-rule="evenodd" fill-opacity="1" /><path clip-path="url(#clip750)" d="M2117.2 266.807 Q2118.79 263.936 2121.02 262.571 Q2123.24 261.205 2126.25 261.205 Q2130.3 261.205 2132.5 264.052 Q2134.7 266.876 2134.7 272.108 L2134.7 287.756 L2130.42 287.756 L2130.42 272.247 Q2130.42 268.52 2129.1 266.714 Q2127.78 264.909 2125.07 264.909 Q2121.76 264.909 2119.84 267.108 Q2117.92 269.307 2117.92 273.103 L2117.92 287.756 L2113.63 287.756 L2113.63 272.247 Q2113.63 268.497 2112.31 266.714 Q2110.99 264.909 2108.24 264.909 Q2104.98 264.909 2103.05 267.131 Q2101.13 269.33 2101.13 273.103 L2101.13 287.756 L2096.85 287.756 L2096.85 261.83 L2101.13 261.83 L2101.13 265.858 Q2102.59 263.473 2104.63 262.339 Q2106.67 261.205 2109.47 261.205 Q2112.29 261.205 2114.26 262.64 Q2116.25 264.075 2117.2 266.807 Z" fill="#000000" fill-rule="evenodd" fill-opacity="1" /><path clip-path="url(#clip750)" d="M2165.37 273.728 L2165.37 275.811 L2145.79 275.811 Q2146.06 280.209 2148.42 282.524 Q2150.81 284.816 2155.04 284.816 Q2157.5 284.816 2159.79 284.214 Q2162.1 283.612 2164.37 282.409 L2164.37 286.436 Q2162.08 287.408 2159.67 287.918 Q2157.27 288.427 2154.79 288.427 Q2148.59 288.427 2144.95 284.816 Q2141.34 281.205 2141.34 275.047 Q2141.34 268.682 2144.77 264.955 Q2148.22 261.205 2154.05 261.205 Q2159.28 261.205 2162.31 264.585 Q2165.37 267.941 2165.37 273.728 M2161.11 272.478 Q2161.06 268.983 2159.14 266.899 Q2157.24 264.816 2154.1 264.816 Q2150.53 264.816 2148.38 266.83 Q2146.25 268.844 2145.92 272.501 L2161.11 272.478 Z" fill="#000000" fill-rule="evenodd" fill-opacity="1" /><path clip-path="url(#clip750)" d="M2193.91 272.108 L2193.91 287.756 L2189.65 287.756 L2189.65 272.247 Q2189.65 268.566 2188.22 266.737 Q2186.78 264.909 2183.91 264.909 Q2180.46 264.909 2178.47 267.108 Q2176.48 269.307 2176.48 273.103 L2176.48 287.756 L2172.2 287.756 L2172.2 261.83 L2176.48 261.83 L2176.48 265.858 Q2178.01 263.52 2180.07 262.362 Q2182.15 261.205 2184.86 261.205 Q2189.33 261.205 2191.62 263.983 Q2193.91 266.737 2193.91 272.108 Z" fill="#000000" fill-rule="evenodd" fill-opacity="1" /><path clip-path="url(#clip750)" d="M2206.62 254.469 L2206.62 261.83 L2215.39 261.83 L2215.39 265.14 L2206.62 265.14 L2206.62 279.214 Q2206.62 282.385 2207.47 283.288 Q2208.35 284.191 2211.02 284.191 L2215.39 284.191 L2215.39 287.756 L2211.02 287.756 Q2206.09 287.756 2204.21 285.927 Q2202.34 284.075 2202.34 279.214 L2202.34 265.14 L2199.21 265.14 L2199.21 261.83 L2202.34 261.83 L2202.34 254.469 L2206.62 254.469 Z" fill="#000000" fill-rule="evenodd" fill-opacity="1" /><path clip-path="url(#clip750)" d="M2250.83 269.122 Q2254.19 269.839 2256.06 272.108 Q2257.96 274.376 2257.96 277.709 Q2257.96 282.825 2254.44 285.626 Q2250.92 288.427 2244.44 288.427 Q2242.27 288.427 2239.95 287.987 Q2237.66 287.571 2235.21 286.714 L2235.21 282.2 Q2237.15 283.334 2239.47 283.913 Q2241.78 284.492 2244.3 284.492 Q2248.7 284.492 2250.99 282.756 Q2253.31 281.02 2253.31 277.709 Q2253.31 274.654 2251.16 272.941 Q2249.03 271.205 2245.21 271.205 L2241.18 271.205 L2241.18 267.362 L2245.39 267.362 Q2248.84 267.362 2250.67 265.997 Q2252.5 264.608 2252.5 262.015 Q2252.5 259.353 2250.6 257.941 Q2248.72 256.506 2245.21 256.506 Q2243.28 256.506 2241.09 256.923 Q2238.89 257.339 2236.25 258.219 L2236.25 254.052 Q2238.91 253.311 2241.22 252.941 Q2243.56 252.571 2245.62 252.571 Q2250.95 252.571 2254.05 255.001 Q2257.15 257.409 2257.15 261.529 Q2257.15 264.399 2255.51 266.39 Q2253.86 268.358 2250.83 269.122 Z" fill="#000000" fill-rule="evenodd" fill-opacity="1" /></svg>
