<?xml version="1.0" encoding="utf-8"?>
<svg xmlns="http://www.w3.org/2000/svg" xmlns:xlink="http://www.w3.org/1999/xlink" width="600" height="400" viewBox="0 0 2400 1600">
<defs>
  <clipPath id="clip950">
    <rect x="0" y="0" width="2400" height="1600"/>
  </clipPath>
</defs>
<path clip-path="url(#clip950)" d="M0 1600 L2400 1600 L2400 0 L0 0  Z" fill="#ffffff" fill-rule="evenodd" fill-opacity="1"/>
<defs>
  <clipPath id="clip951">
    <rect x="480" y="0" width="1681" height="1600"/>
  </clipPath>
</defs>
<path clip-path="url(#clip950)" d="M219.866 1423.18 L1134.09 1423.18 L1134.09 123.472 L219.866 123.472  Z" fill="#ffffff" fill-rule="evenodd" fill-opacity="1"/>
<defs>
  <clipPath id="clip952">
    <rect x="219" y="123" width="915" height="1301"/>
  </clipPath>
</defs>
<polyline clip-path="url(#clip952)" style="stroke:#000000; stroke-linecap:round; stroke-linejoin:round; stroke-width:2; stroke-opacity:0.1; fill:none" points="245.74,1423.18 245.74,123.472 "/>
<polyline clip-path="url(#clip952)" style="stroke:#000000; stroke-linecap:round; stroke-linejoin:round; stroke-width:2; stroke-opacity:0.1; fill:none" points="461.359,1423.18 461.359,123.472 "/>
<polyline clip-path="url(#clip952)" style="stroke:#000000; stroke-linecap:round; stroke-linejoin:round; stroke-width:2; stroke-opacity:0.1; fill:none" points="676.977,1423.18 676.977,123.472 "/>
<polyline clip-path="url(#clip952)" style="stroke:#000000; stroke-linecap:round; stroke-linejoin:round; stroke-width:2; stroke-opacity:0.1; fill:none" points="892.595,1423.18 892.595,123.472 "/>
<polyline clip-path="url(#clip952)" style="stroke:#000000; stroke-linecap:round; stroke-linejoin:round; stroke-width:2; stroke-opacity:0.1; fill:none" points="1108.21,1423.18 1108.21,123.472 "/>
<polyline clip-path="url(#clip950)" style="stroke:#000000; stroke-linecap:round; stroke-linejoin:round; stroke-width:4; stroke-opacity:1; fill:none" points="219.866,1423.18 1134.09,1423.18 "/>
<polyline clip-path="url(#clip950)" style="stroke:#000000; stroke-linecap:round; stroke-linejoin:round; stroke-width:4; stroke-opacity:1; fill:none" points="245.74,1423.18 245.74,1404.28 "/>
<polyline clip-path="url(#clip950)" style="stroke:#000000; stroke-linecap:round; stroke-linejoin:round; stroke-width:4; stroke-opacity:1; fill:none" points="461.359,1423.18 461.359,1404.28 "/>
<polyline clip-path="url(#clip950)" style="stroke:#000000; stroke-linecap:round; stroke-linejoin:round; stroke-width:4; stroke-opacity:1; fill:none" points="676.977,1423.18 676.977,1404.28 "/>
<polyline clip-path="url(#clip950)" style="stroke:#000000; stroke-linecap:round; stroke-linejoin:round; stroke-width:4; stroke-opacity:1; fill:none" points="892.595,1423.18 892.595,1404.28 "/>
<polyline clip-path="url(#clip950)" style="stroke:#000000; stroke-linecap:round; stroke-linejoin:round; stroke-width:4; stroke-opacity:1; fill:none" points="1108.21,1423.18 1108.21,1404.28 "/>
<path clip-path="url(#clip950)" d="M236.122 1481.64 L243.761 1481.64 L243.761 1455.28 L235.451 1456.95 L235.451 1452.69 L243.715 1451.02 L248.391 1451.02 L248.391 1481.64 L256.03 1481.64 L256.03 1485.58 L236.122 1485.58 L236.122 1481.64 Z" fill="#000000" fill-rule="evenodd" fill-opacity="1" /><path clip-path="url(#clip950)" d="M456.011 1481.64 L472.331 1481.64 L472.331 1485.58 L450.386 1485.58 L450.386 1481.64 Q453.048 1478.89 457.632 1474.26 Q462.238 1469.61 463.419 1468.27 Q465.664 1465.74 466.544 1464.01 Q467.446 1462.25 467.446 1460.56 Q467.446 1457.8 465.502 1456.07 Q463.581 1454.33 460.479 1454.33 Q458.28 1454.33 455.826 1455.09 Q453.396 1455.86 450.618 1457.41 L450.618 1452.69 Q453.442 1451.55 455.896 1450.97 Q458.349 1450.39 460.386 1450.39 Q465.757 1450.39 468.951 1453.08 Q472.146 1455.77 472.146 1460.26 Q472.146 1462.39 471.335 1464.31 Q470.548 1466.2 468.442 1468.8 Q467.863 1469.47 464.761 1472.69 Q461.659 1475.88 456.011 1481.64 Z" fill="#000000" fill-rule="evenodd" fill-opacity="1" /><path clip-path="url(#clip950)" d="M681.224 1466.95 Q684.581 1467.66 686.456 1469.93 Q688.354 1472.2 688.354 1475.53 Q688.354 1480.65 684.835 1483.45 Q681.317 1486.25 674.835 1486.25 Q672.66 1486.25 670.345 1485.81 Q668.053 1485.39 665.599 1484.54 L665.599 1480.02 Q667.544 1481.16 669.859 1481.74 Q672.173 1482.32 674.697 1482.32 Q679.095 1482.32 681.386 1480.58 Q683.701 1478.84 683.701 1475.53 Q683.701 1472.48 681.548 1470.77 Q679.419 1469.03 675.599 1469.03 L671.572 1469.03 L671.572 1465.19 L675.785 1465.19 Q679.234 1465.19 681.062 1463.82 Q682.891 1462.43 682.891 1459.84 Q682.891 1457.18 680.993 1455.77 Q679.118 1454.33 675.599 1454.33 Q673.678 1454.33 671.479 1454.75 Q669.28 1455.16 666.641 1456.04 L666.641 1451.88 Q669.303 1451.14 671.618 1450.77 Q673.956 1450.39 676.016 1450.39 Q681.34 1450.39 684.442 1452.83 Q687.544 1455.23 687.544 1459.35 Q687.544 1462.22 685.9 1464.21 Q684.257 1466.18 681.224 1466.95 Z" fill="#000000" fill-rule="evenodd" fill-opacity="1" /><path clip-path="url(#clip950)" d="M895.604 1455.09 L883.798 1473.54 L895.604 1473.54 L895.604 1455.09 M894.377 1451.02 L900.257 1451.02 L900.257 1473.54 L905.187 1473.54 L905.187 1477.43 L900.257 1477.43 L900.257 1485.58 L895.604 1485.58 L895.604 1477.43 L880.002 1477.43 L880.002 1472.92 L894.377 1451.02 Z" fill="#000000" fill-rule="evenodd" fill-opacity="1" /><path clip-path="url(#clip950)" d="M1098.49 1451.02 L1116.85 1451.02 L1116.85 1454.96 L1102.77 1454.96 L1102.77 1463.43 Q1103.79 1463.08 1104.81 1462.92 Q1105.83 1462.73 1106.85 1462.73 Q1112.63 1462.73 1116.01 1465.9 Q1119.39 1469.08 1119.39 1474.49 Q1119.39 1480.07 1115.92 1483.17 Q1112.45 1486.25 1106.13 1486.25 Q1103.95 1486.25 1101.69 1485.88 Q1099.44 1485.51 1097.03 1484.77 L1097.03 1480.07 Q1099.12 1481.2 1101.34 1481.76 Q1103.56 1482.32 1106.04 1482.32 Q1110.04 1482.32 1112.38 1480.21 Q1114.72 1478.1 1114.72 1474.49 Q1114.72 1470.88 1112.38 1468.77 Q1110.04 1466.67 1106.04 1466.67 Q1104.16 1466.67 1102.29 1467.08 Q1100.44 1467.5 1098.49 1468.38 L1098.49 1451.02 Z" fill="#000000" fill-rule="evenodd" fill-opacity="1" /><path clip-path="url(#clip950)" d="M587.316 1533.45 L587.316 1538.98 Q584.833 1537.71 582.159 1537.07 Q579.486 1536.44 576.621 1536.44 Q572.261 1536.44 570.065 1537.77 Q567.9 1539.11 567.9 1541.79 Q567.9 1543.82 569.46 1545 Q571.019 1546.15 575.73 1547.2 L577.735 1547.64 Q583.974 1548.98 586.584 1551.43 Q589.225 1553.85 589.225 1558.21 Q589.225 1563.17 585.279 1566.07 Q581.364 1568.97 574.489 1568.97 Q571.624 1568.97 568.505 1568.39 Q565.418 1567.85 561.98 1566.74 L561.98 1560.69 Q565.227 1562.38 568.378 1563.24 Q571.529 1564.07 574.616 1564.07 Q578.754 1564.07 580.982 1562.66 Q583.21 1561.23 583.21 1558.65 Q583.21 1556.27 581.587 1554.99 Q579.995 1553.72 574.552 1552.54 L572.515 1552.07 Q567.073 1550.92 564.654 1548.56 Q562.235 1546.18 562.235 1542.04 Q562.235 1537.01 565.8 1534.27 Q569.364 1531.54 575.921 1531.54 Q579.168 1531.54 582.032 1532.01 Q584.897 1532.49 587.316 1533.45 Z" fill="#000000" fill-rule="evenodd" fill-opacity="1" /><path clip-path="url(#clip950)" d="M614.752 1550.12 Q607.654 1550.12 604.917 1551.75 Q602.18 1553.37 602.18 1557.29 Q602.18 1560.4 604.217 1562.25 Q606.285 1564.07 609.818 1564.07 Q614.688 1564.07 617.616 1560.63 Q620.576 1557.16 620.576 1551.43 L620.576 1550.12 L614.752 1550.12 M626.433 1547.71 L626.433 1568.04 L620.576 1568.04 L620.576 1562.63 Q618.571 1565.88 615.579 1567.44 Q612.588 1568.97 608.259 1568.97 Q602.784 1568.97 599.538 1565.91 Q596.323 1562.82 596.323 1557.67 Q596.323 1551.65 600.334 1548.6 Q604.376 1545.54 612.365 1545.54 L620.576 1545.54 L620.576 1544.97 Q620.576 1540.93 617.903 1538.73 Q615.261 1536.5 610.455 1536.5 Q607.399 1536.5 604.503 1537.23 Q601.607 1537.97 598.933 1539.43 L598.933 1534.02 Q602.148 1532.78 605.171 1532.17 Q608.195 1531.54 611.06 1531.54 Q618.794 1531.54 622.614 1535.55 Q626.433 1539.56 626.433 1547.71 Z" fill="#000000" fill-rule="evenodd" fill-opacity="1" /><path clip-path="url(#clip950)" d="M666.25 1539.24 Q668.447 1535.29 671.502 1533.41 Q674.558 1531.54 678.695 1531.54 Q684.265 1531.54 687.289 1535.45 Q690.313 1539.33 690.313 1546.53 L690.313 1568.04 L684.425 1568.04 L684.425 1546.72 Q684.425 1541.59 682.61 1539.11 Q680.796 1536.63 677.072 1536.63 Q672.521 1536.63 669.879 1539.65 Q667.237 1542.68 667.237 1547.9 L667.237 1568.04 L661.349 1568.04 L661.349 1546.72 Q661.349 1541.56 659.535 1539.11 Q657.72 1536.63 653.933 1536.63 Q649.445 1536.63 646.803 1539.68 Q644.161 1542.71 644.161 1547.9 L644.161 1568.04 L638.273 1568.04 L638.273 1532.4 L644.161 1532.4 L644.161 1537.93 Q646.167 1534.66 648.968 1533.1 Q651.768 1531.54 655.62 1531.54 Q659.503 1531.54 662.208 1533.51 Q664.945 1535.48 666.25 1539.24 Z" fill="#000000" fill-rule="evenodd" fill-opacity="1" /><path clip-path="url(#clip950)" d="M707.659 1562.7 L707.659 1581.6 L701.771 1581.6 L701.771 1532.4 L707.659 1532.4 L707.659 1537.81 Q709.505 1534.62 712.306 1533.1 Q715.139 1531.54 719.054 1531.54 Q725.547 1531.54 729.589 1536.69 Q733.663 1541.85 733.663 1550.25 Q733.663 1558.65 729.589 1563.81 Q725.547 1568.97 719.054 1568.97 Q715.139 1568.97 712.306 1567.44 Q709.505 1565.88 707.659 1562.7 M727.584 1550.25 Q727.584 1543.79 724.91 1540.13 Q722.269 1536.44 717.622 1536.44 Q712.975 1536.44 710.301 1540.13 Q707.659 1543.79 707.659 1550.25 Q707.659 1556.71 710.301 1560.4 Q712.975 1564.07 717.622 1564.07 Q722.269 1564.07 724.91 1560.4 Q727.584 1556.71 727.584 1550.25 Z" fill="#000000" fill-rule="evenodd" fill-opacity="1" /><path clip-path="url(#clip950)" d="M743.371 1518.52 L749.227 1518.52 L749.227 1568.04 L743.371 1568.04 L743.371 1518.52 Z" fill="#000000" fill-rule="evenodd" fill-opacity="1" /><path clip-path="url(#clip950)" d="M791.973 1548.76 L791.973 1551.62 L765.046 1551.62 Q765.428 1557.67 768.675 1560.85 Q771.953 1564 777.778 1564 Q781.151 1564 784.302 1563.17 Q787.485 1562.35 790.605 1560.69 L790.605 1566.23 Q787.453 1567.57 784.143 1568.27 Q780.833 1568.97 777.427 1568.97 Q768.897 1568.97 763.9 1564 Q758.935 1559.04 758.935 1550.57 Q758.935 1541.82 763.646 1536.69 Q768.388 1531.54 776.409 1531.54 Q783.602 1531.54 787.772 1536.18 Q791.973 1540.8 791.973 1548.76 M786.117 1547.04 Q786.053 1542.23 783.411 1539.37 Q780.801 1536.5 776.473 1536.5 Q771.571 1536.5 768.611 1539.27 Q765.683 1542.04 765.237 1547.07 L786.117 1547.04 Z" fill="#000000" fill-rule="evenodd" fill-opacity="1" /><polyline clip-path="url(#clip952)" style="stroke:#000000; stroke-linecap:round; stroke-linejoin:round; stroke-width:2; stroke-opacity:0.1; fill:none" points="219.866,1165.3 1134.09,1165.3 "/>
<polyline clip-path="url(#clip952)" style="stroke:#000000; stroke-linecap:round; stroke-linejoin:round; stroke-width:2; stroke-opacity:0.1; fill:none" points="219.866,834.885 1134.09,834.885 "/>
<polyline clip-path="url(#clip952)" style="stroke:#000000; stroke-linecap:round; stroke-linejoin:round; stroke-width:2; stroke-opacity:0.1; fill:none" points="219.866,504.469 1134.09,504.469 "/>
<polyline clip-path="url(#clip952)" style="stroke:#000000; stroke-linecap:round; stroke-linejoin:round; stroke-width:2; stroke-opacity:0.1; fill:none" points="219.866,174.054 1134.09,174.054 "/>
<polyline clip-path="url(#clip950)" style="stroke:#000000; stroke-linecap:round; stroke-linejoin:round; stroke-width:4; stroke-opacity:1; fill:none" points="219.866,1423.18 219.866,123.472 "/>
<polyline clip-path="url(#clip950)" style="stroke:#000000; stroke-linecap:round; stroke-linejoin:round; stroke-width:4; stroke-opacity:1; fill:none" points="219.866,1165.3 238.764,1165.3 "/>
<polyline clip-path="url(#clip950)" style="stroke:#000000; stroke-linecap:round; stroke-linejoin:round; stroke-width:4; stroke-opacity:1; fill:none" points="219.866,834.885 238.764,834.885 "/>
<polyline clip-path="url(#clip950)" style="stroke:#000000; stroke-linecap:round; stroke-linejoin:round; stroke-width:4; stroke-opacity:1; fill:none" points="219.866,504.469 238.764,504.469 "/>
<polyline clip-path="url(#clip950)" style="stroke:#000000; stroke-linecap:round; stroke-linejoin:round; stroke-width:4; stroke-opacity:1; fill:none" points="219.866,174.054 238.764,174.054 "/>
<path clip-path="url(#clip950)" d="M128.288 1151.1 Q124.677 1151.1 122.848 1154.66 Q121.043 1158.21 121.043 1165.33 Q121.043 1172.44 122.848 1176.01 Q124.677 1179.55 128.288 1179.55 Q131.922 1179.55 133.728 1176.01 Q135.556 1172.44 135.556 1165.33 Q135.556 1158.21 133.728 1154.66 Q131.922 1151.1 128.288 1151.1 M128.288 1147.4 Q134.098 1147.4 137.154 1152 Q140.232 1156.58 140.232 1165.33 Q140.232 1174.06 137.154 1178.67 Q134.098 1183.25 128.288 1183.25 Q122.478 1183.25 119.399 1178.67 Q116.343 1174.06 116.343 1165.33 Q116.343 1156.58 119.399 1152 Q122.478 1147.4 128.288 1147.4 Z" fill="#000000" fill-rule="evenodd" fill-opacity="1" /><path clip-path="url(#clip950)" d="M148.45 1176.7 L153.334 1176.7 L153.334 1182.58 L148.45 1182.58 L148.45 1176.7 Z" fill="#000000" fill-rule="evenodd" fill-opacity="1" /><path clip-path="url(#clip950)" d="M167.547 1178.65 L183.866 1178.65 L183.866 1182.58 L161.922 1182.58 L161.922 1178.65 Q164.584 1175.89 169.167 1171.26 Q173.774 1166.61 174.954 1165.27 Q177.2 1162.74 178.079 1161.01 Q178.982 1159.25 178.982 1157.56 Q178.982 1154.8 177.038 1153.07 Q175.116 1151.33 172.014 1151.33 Q169.815 1151.33 167.362 1152.09 Q164.931 1152.86 162.153 1154.41 L162.153 1149.69 Q164.977 1148.55 167.431 1147.97 Q169.885 1147.4 171.922 1147.4 Q177.292 1147.4 180.487 1150.08 Q183.681 1152.77 183.681 1157.26 Q183.681 1159.39 182.871 1161.31 Q182.084 1163.21 179.977 1165.8 Q179.399 1166.47 176.297 1169.69 Q173.195 1172.88 167.547 1178.65 Z" fill="#000000" fill-rule="evenodd" fill-opacity="1" /><path clip-path="url(#clip950)" d="M126.205 820.683 Q122.593 820.683 120.765 824.248 Q118.959 827.79 118.959 834.919 Q118.959 842.026 120.765 845.591 Q122.593 849.132 126.205 849.132 Q129.839 849.132 131.644 845.591 Q133.473 842.026 133.473 834.919 Q133.473 827.79 131.644 824.248 Q129.839 820.683 126.205 820.683 M126.205 816.98 Q132.015 816.98 135.07 821.586 Q138.149 826.17 138.149 834.919 Q138.149 843.646 135.07 848.253 Q132.015 852.836 126.205 852.836 Q120.394 852.836 117.316 848.253 Q114.26 843.646 114.26 834.919 Q114.26 826.17 117.316 821.586 Q120.394 816.98 126.205 816.98 Z" fill="#000000" fill-rule="evenodd" fill-opacity="1" /><path clip-path="url(#clip950)" d="M146.366 846.285 L151.251 846.285 L151.251 852.165 L146.366 852.165 L146.366 846.285 Z" fill="#000000" fill-rule="evenodd" fill-opacity="1" /><path clip-path="url(#clip950)" d="M174.283 821.679 L162.477 840.128 L174.283 840.128 L174.283 821.679 M173.056 817.605 L178.936 817.605 L178.936 840.128 L183.866 840.128 L183.866 844.017 L178.936 844.017 L178.936 852.165 L174.283 852.165 L174.283 844.017 L158.681 844.017 L158.681 839.503 L173.056 817.605 Z" fill="#000000" fill-rule="evenodd" fill-opacity="1" /><path clip-path="url(#clip950)" d="M126.529 490.268 Q122.918 490.268 121.089 493.833 Q119.283 497.374 119.283 504.504 Q119.283 511.61 121.089 515.175 Q122.918 518.717 126.529 518.717 Q130.163 518.717 131.968 515.175 Q133.797 511.61 133.797 504.504 Q133.797 497.374 131.968 493.833 Q130.163 490.268 126.529 490.268 M126.529 486.564 Q132.339 486.564 135.394 491.171 Q138.473 495.754 138.473 504.504 Q138.473 513.231 135.394 517.837 Q132.339 522.421 126.529 522.421 Q120.718 522.421 117.64 517.837 Q114.584 513.231 114.584 504.504 Q114.584 495.754 117.64 491.171 Q120.718 486.564 126.529 486.564 Z" fill="#000000" fill-rule="evenodd" fill-opacity="1" /><path clip-path="url(#clip950)" d="M146.691 515.87 L151.575 515.87 L151.575 521.749 L146.691 521.749 L146.691 515.87 Z" fill="#000000" fill-rule="evenodd" fill-opacity="1" /><path clip-path="url(#clip950)" d="M172.339 502.606 Q169.19 502.606 167.339 504.759 Q165.51 506.911 165.51 510.661 Q165.51 514.388 167.339 516.564 Q169.19 518.717 172.339 518.717 Q175.487 518.717 177.315 516.564 Q179.167 514.388 179.167 510.661 Q179.167 506.911 177.315 504.759 Q175.487 502.606 172.339 502.606 M181.621 487.953 L181.621 492.212 Q179.862 491.379 178.056 490.939 Q176.274 490.499 174.514 490.499 Q169.885 490.499 167.431 493.624 Q165.001 496.749 164.653 503.069 Q166.019 501.055 168.079 499.99 Q170.139 498.902 172.616 498.902 Q177.825 498.902 180.834 502.073 Q183.866 505.222 183.866 510.661 Q183.866 515.985 180.718 519.203 Q177.57 522.421 172.339 522.421 Q166.343 522.421 163.172 517.837 Q160.001 513.231 160.001 504.504 Q160.001 496.31 163.89 491.449 Q167.778 486.564 174.329 486.564 Q176.089 486.564 177.871 486.912 Q179.676 487.259 181.621 487.953 Z" fill="#000000" fill-rule="evenodd" fill-opacity="1" /><path clip-path="url(#clip950)" d="M126.783 159.853 Q123.172 159.853 121.343 163.417 Q119.538 166.959 119.538 174.089 Q119.538 181.195 121.343 184.76 Q123.172 188.301 126.783 188.301 Q130.417 188.301 132.223 184.76 Q134.052 181.195 134.052 174.089 Q134.052 166.959 132.223 163.417 Q130.417 159.853 126.783 159.853 M126.783 156.149 Q132.593 156.149 135.649 160.755 Q138.728 165.339 138.728 174.089 Q138.728 182.815 135.649 187.422 Q132.593 192.005 126.783 192.005 Q120.973 192.005 117.894 187.422 Q114.839 182.815 114.839 174.089 Q114.839 165.339 117.894 160.755 Q120.973 156.149 126.783 156.149 Z" fill="#000000" fill-rule="evenodd" fill-opacity="1" /><path clip-path="url(#clip950)" d="M146.945 185.454 L151.829 185.454 L151.829 191.334 L146.945 191.334 L146.945 185.454 Z" fill="#000000" fill-rule="evenodd" fill-opacity="1" /><path clip-path="url(#clip950)" d="M172.014 174.922 Q168.681 174.922 166.76 176.704 Q164.862 178.487 164.862 181.612 Q164.862 184.737 166.76 186.519 Q168.681 188.301 172.014 188.301 Q175.348 188.301 177.269 186.519 Q179.19 184.714 179.19 181.612 Q179.19 178.487 177.269 176.704 Q175.371 174.922 172.014 174.922 M167.339 172.931 Q164.329 172.19 162.64 170.13 Q160.973 168.07 160.973 165.107 Q160.973 160.964 163.913 158.556 Q166.876 156.149 172.014 156.149 Q177.176 156.149 180.116 158.556 Q183.056 160.964 183.056 165.107 Q183.056 168.07 181.366 170.13 Q179.7 172.19 176.714 172.931 Q180.093 173.718 181.968 176.01 Q183.866 178.302 183.866 181.612 Q183.866 186.635 180.788 189.32 Q177.732 192.005 172.014 192.005 Q166.297 192.005 163.218 189.32 Q160.163 186.635 160.163 181.612 Q160.163 178.302 162.061 176.01 Q163.959 173.718 167.339 172.931 M165.626 165.547 Q165.626 168.232 167.292 169.737 Q168.982 171.241 172.014 171.241 Q175.024 171.241 176.714 169.737 Q178.426 168.232 178.426 165.547 Q178.426 162.862 176.714 161.357 Q175.024 159.853 172.014 159.853 Q168.982 159.853 167.292 161.357 Q165.626 162.862 165.626 165.547 Z" fill="#000000" fill-rule="evenodd" fill-opacity="1" /><path clip-path="url(#clip950)" d="M28.3562 859.645 L28.3562 853.438 L58.275 842.298 L28.3562 831.158 L28.3562 824.952 L64.0042 838.32 L64.0042 846.277 L28.3562 859.645 Z" fill="#000000" fill-rule="evenodd" fill-opacity="1" /><path clip-path="url(#clip950)" d="M46.0847 800.667 Q46.0847 807.764 47.7079 810.502 Q49.3312 813.239 53.2461 813.239 Q56.3653 813.239 58.2114 811.202 Q60.0256 809.133 60.0256 805.6 Q60.0256 800.73 56.5881 797.802 Q53.1188 794.842 47.3897 794.842 L46.0847 794.842 L46.0847 800.667 M43.6657 788.986 L64.0042 788.986 L64.0042 794.842 L58.5933 794.842 Q61.8398 796.847 63.3994 799.839 Q64.9272 802.831 64.9272 807.16 Q64.9272 812.634 61.8716 815.881 Q58.7843 819.095 53.6281 819.095 Q47.6125 819.095 44.5569 815.085 Q41.5014 811.043 41.5014 803.054 L41.5014 794.842 L40.9285 794.842 Q36.8862 794.842 34.6901 797.516 Q32.4621 800.157 32.4621 804.964 Q32.4621 808.019 33.1941 810.915 Q33.9262 813.812 35.3903 816.485 L29.9795 816.485 Q28.7381 813.271 28.1334 810.247 Q27.4968 807.223 27.4968 804.359 Q27.4968 796.624 31.5072 792.805 Q35.5176 788.986 43.6657 788.986 Z" fill="#000000" fill-rule="evenodd" fill-opacity="1" /><path clip-path="url(#clip950)" d="M14.479 776.923 L14.479 771.066 L64.0042 771.066 L64.0042 776.923 L14.479 776.923 Z" fill="#000000" fill-rule="evenodd" fill-opacity="1" /><path clip-path="url(#clip950)" d="M49.9359 759.417 L28.3562 759.417 L28.3562 753.56 L49.7131 753.56 Q54.7739 753.56 57.3202 751.587 Q59.8346 749.614 59.8346 745.667 Q59.8346 740.925 56.8109 738.187 Q53.7872 735.418 48.5673 735.418 L28.3562 735.418 L28.3562 729.562 L64.0042 729.562 L64.0042 735.418 L58.5296 735.418 Q61.7762 737.551 63.3676 740.383 Q64.9272 743.184 64.9272 746.908 Q64.9272 753.051 61.1078 756.234 Q57.2883 759.417 49.9359 759.417 M27.4968 744.68 L27.4968 744.68 Z" fill="#000000" fill-rule="evenodd" fill-opacity="1" /><path clip-path="url(#clip950)" d="M44.7161 687.007 L47.5806 687.007 L47.5806 713.934 Q53.6281 713.552 56.8109 710.305 Q59.9619 707.027 59.9619 701.203 Q59.9619 697.829 59.1344 694.678 Q58.3069 691.495 56.6518 688.376 L62.1899 688.376 Q63.5267 691.527 64.227 694.837 Q64.9272 698.147 64.9272 701.553 Q64.9272 710.083 59.9619 715.08 Q54.9967 720.045 46.5303 720.045 Q37.7774 720.045 32.6531 715.334 Q27.4968 710.592 27.4968 702.571 Q27.4968 695.378 32.1438 691.208 Q36.7589 687.007 44.7161 687.007 M42.9973 692.863 Q38.1912 692.927 35.3266 695.569 Q32.4621 698.179 32.4621 702.507 Q32.4621 707.409 35.2312 710.369 Q38.0002 713.297 43.0292 713.743 L42.9973 692.863 Z" fill="#000000" fill-rule="evenodd" fill-opacity="1" /><path clip-path="url(#clip950)" d="M502.909 12.096 L511.092 12.096 L511.092 65.6895 L540.542 65.6895 L540.542 72.576 L502.909 72.576 L502.909 12.096 Z" fill="#000000" fill-rule="evenodd" fill-opacity="1" /><path clip-path="url(#clip950)" d="M548.806 27.2059 L556.26 27.2059 L556.26 72.576 L548.806 72.576 L548.806 27.2059 M548.806 9.54393 L556.26 9.54393 L556.26 18.9825 L548.806 18.9825 L548.806 9.54393 Z" fill="#000000" fill-rule="evenodd" fill-opacity="1" /><path clip-path="url(#clip950)" d="M609.57 45.1919 L609.57 72.576 L602.116 72.576 L602.116 45.4349 Q602.116 38.994 599.604 35.7938 Q597.093 32.5936 592.07 32.5936 Q586.034 32.5936 582.55 36.4419 Q579.066 40.2903 579.066 46.9338 L579.066 72.576 L571.572 72.576 L571.572 27.2059 L579.066 27.2059 L579.066 34.2544 Q581.74 30.163 585.345 28.1376 Q588.991 26.1121 593.731 26.1121 Q601.549 26.1121 605.559 30.9732 Q609.57 35.7938 609.57 45.1919 Z" fill="#000000" fill-rule="evenodd" fill-opacity="1" /><path clip-path="url(#clip950)" d="M663.244 48.0275 L663.244 51.6733 L628.973 51.6733 Q629.46 59.3701 633.591 63.421 Q637.764 67.4314 645.177 67.4314 Q649.471 67.4314 653.481 66.3781 Q657.532 65.3249 661.502 63.2184 L661.502 70.267 Q657.492 71.9684 653.279 72.8596 Q649.066 73.7508 644.731 73.7508 Q633.875 73.7508 627.515 67.4314 Q621.196 61.1119 621.196 50.3365 Q621.196 39.1965 627.191 32.6746 Q633.227 26.1121 643.435 26.1121 Q652.59 26.1121 657.897 32.0264 Q663.244 37.9003 663.244 48.0275 M655.79 45.84 Q655.709 39.7232 652.347 36.0774 Q649.025 32.4315 643.516 32.4315 Q637.278 32.4315 633.51 35.9558 Q629.784 39.4801 629.216 45.8805 L655.79 45.84 Z" fill="#000000" fill-rule="evenodd" fill-opacity="1" /><path clip-path="url(#clip950)" d="M709.06 65.7705 L709.06 89.8329 L701.566 89.8329 L701.566 27.2059 L709.06 27.2059 L709.06 34.0924 Q711.409 30.0415 714.974 28.0971 Q718.579 26.1121 723.562 26.1121 Q731.826 26.1121 736.971 32.6746 Q742.156 39.2371 742.156 49.9314 Q742.156 60.6258 736.971 67.1883 Q731.826 73.7508 723.562 73.7508 Q718.579 73.7508 714.974 71.8063 Q711.409 69.8214 709.06 65.7705 M734.418 49.9314 Q734.418 41.7081 731.016 37.0496 Q727.653 32.3505 721.739 32.3505 Q715.825 32.3505 712.422 37.0496 Q709.06 41.7081 709.06 49.9314 Q709.06 58.1548 712.422 62.8538 Q715.825 67.5124 721.739 67.5124 Q727.653 67.5124 731.016 62.8538 Q734.418 58.1548 734.418 49.9314 Z" fill="#000000" fill-rule="evenodd" fill-opacity="1" /><path clip-path="url(#clip950)" d="M754.511 9.54393 L761.965 9.54393 L761.965 72.576 L754.511 72.576 L754.511 9.54393 Z" fill="#000000" fill-rule="evenodd" fill-opacity="1" /><path clip-path="url(#clip950)" d="M795.142 32.4315 Q789.146 32.4315 785.662 37.1306 Q782.179 41.7891 782.179 49.9314 Q782.179 58.0738 785.622 62.7728 Q789.106 67.4314 795.142 67.4314 Q801.096 67.4314 804.58 62.7323 Q808.064 58.0333 808.064 49.9314 Q808.064 41.8701 804.58 37.1711 Q801.096 32.4315 795.142 32.4315 M795.142 26.1121 Q804.864 26.1121 810.413 32.4315 Q815.963 38.7509 815.963 49.9314 Q815.963 61.0714 810.413 67.4314 Q804.864 73.7508 795.142 73.7508 Q785.379 73.7508 779.829 67.4314 Q774.32 61.0714 774.32 49.9314 Q774.32 38.7509 779.829 32.4315 Q785.379 26.1121 795.142 26.1121 Z" fill="#000000" fill-rule="evenodd" fill-opacity="1" /><path clip-path="url(#clip950)" d="M835.691 14.324 L835.691 27.2059 L851.044 27.2059 L851.044 32.9987 L835.691 32.9987 L835.691 57.6282 Q835.691 63.1779 837.19 64.7578 Q838.729 66.3376 843.388 66.3376 L851.044 66.3376 L851.044 72.576 L843.388 72.576 Q834.759 72.576 831.478 69.3758 Q828.197 66.1351 828.197 57.6282 L828.197 32.9987 L822.728 32.9987 L822.728 27.2059 L828.197 27.2059 L828.197 14.324 L835.691 14.324 Z" fill="#000000" fill-rule="evenodd" fill-opacity="1" /><polyline clip-path="url(#clip952)" style="stroke:#ff0000; stroke-linecap:round; stroke-linejoin:round; stroke-width:12; stroke-opacity:1; fill:none" points="245.74,1237.04 461.359,746.298 676.977,1386.4 892.595,245.354 1108.21,160.256 "/>
<path clip-path="url(#clip950)" d="M250.34 270.476 L585.789 270.476 L585.789 166.796 L250.34 166.796  Z" fill="#ffffff" fill-rule="evenodd" fill-opacity="1"/>
<polyline clip-path="url(#clip950)" style="stroke:#000000; stroke-linecap:round; stroke-linejoin:round; stroke-width:4; stroke-opacity:1; fill:none" points="250.34,270.476 585.789,270.476 585.789,166.796 250.34,166.796 250.34,270.476 "/>
<polyline clip-path="url(#clip950)" style="stroke:#ff0000; stroke-linecap:round; stroke-linejoin:round; stroke-width:12; stroke-opacity:1; fill:none" points="260.498,218.636 321.446,218.636 "/>
<path clip-path="url(#clip950)" d="M350.03 210.754 L350.03 214.782 Q348.225 213.856 346.28 213.393 Q344.336 212.93 342.252 212.93 Q339.081 212.93 337.484 213.902 Q335.91 214.874 335.91 216.819 Q335.91 218.3 337.044 219.157 Q338.178 219.99 341.604 220.754 L343.063 221.078 Q347.6 222.05 349.498 223.832 Q351.419 225.592 351.419 228.763 Q351.419 232.374 348.549 234.481 Q345.702 236.587 340.702 236.587 Q338.618 236.587 336.35 236.17 Q334.104 235.777 331.604 234.967 L331.604 230.569 Q333.965 231.795 336.257 232.42 Q338.549 233.022 340.794 233.022 Q343.803 233.022 345.424 232.004 Q347.044 230.962 347.044 229.087 Q347.044 227.351 345.864 226.425 Q344.706 225.499 340.748 224.643 L339.266 224.295 Q335.308 223.462 333.549 221.749 Q331.79 220.013 331.79 217.004 Q331.79 213.346 334.382 211.356 Q336.975 209.365 341.743 209.365 Q344.104 209.365 346.188 209.712 Q348.271 210.059 350.03 210.754 Z" fill="#000000" fill-rule="evenodd" fill-opacity="1" /><path clip-path="url(#clip950)" d="M368.248 212.976 Q364.822 212.976 362.831 215.661 Q360.84 218.323 360.84 222.976 Q360.84 227.629 362.808 230.314 Q364.799 232.976 368.248 232.976 Q371.65 232.976 373.641 230.291 Q375.632 227.606 375.632 222.976 Q375.632 218.37 373.641 215.684 Q371.65 212.976 368.248 212.976 M368.248 209.365 Q373.803 209.365 376.974 212.976 Q380.146 216.587 380.146 222.976 Q380.146 229.342 376.974 232.976 Q373.803 236.587 368.248 236.587 Q362.669 236.587 359.498 232.976 Q356.35 229.342 356.35 222.976 Q356.35 216.587 359.498 212.976 Q362.669 209.365 368.248 209.365 Z" fill="#000000" fill-rule="evenodd" fill-opacity="1" /><path clip-path="url(#clip950)" d="M407.391 214.967 Q408.988 212.096 411.21 210.731 Q413.433 209.365 416.442 209.365 Q420.493 209.365 422.692 212.212 Q424.891 215.036 424.891 220.268 L424.891 235.916 L420.609 235.916 L420.609 220.407 Q420.609 216.68 419.289 214.874 Q417.97 213.069 415.261 213.069 Q411.951 213.069 410.03 215.268 Q408.109 217.467 408.109 221.263 L408.109 235.916 L403.826 235.916 L403.826 220.407 Q403.826 216.657 402.507 214.874 Q401.187 213.069 398.433 213.069 Q395.169 213.069 393.248 215.291 Q391.326 217.49 391.326 221.263 L391.326 235.916 L387.044 235.916 L387.044 209.99 L391.326 209.99 L391.326 214.018 Q392.785 211.633 394.822 210.499 Q396.859 209.365 399.66 209.365 Q402.484 209.365 404.451 210.8 Q406.442 212.235 407.391 214.967 Z" fill="#000000" fill-rule="evenodd" fill-opacity="1" /><path clip-path="url(#clip950)" d="M455.562 221.888 L455.562 223.971 L435.979 223.971 Q436.257 228.369 438.618 230.684 Q441.002 232.976 445.238 232.976 Q447.692 232.976 449.983 232.374 Q452.298 231.772 454.567 230.569 L454.567 234.596 Q452.275 235.568 449.868 236.078 Q447.46 236.587 444.983 236.587 Q438.78 236.587 435.145 232.976 Q431.534 229.365 431.534 223.207 Q431.534 216.842 434.96 213.115 Q438.409 209.365 444.243 209.365 Q449.474 209.365 452.506 212.745 Q455.562 216.101 455.562 221.888 M451.303 220.638 Q451.256 217.143 449.335 215.059 Q447.437 212.976 444.289 212.976 Q440.724 212.976 438.571 214.99 Q436.442 217.004 436.118 220.661 L451.303 220.638 Z" fill="#000000" fill-rule="evenodd" fill-opacity="1" /><path clip-path="url(#clip950)" d="M494.682 213.925 L494.682 199.897 L498.941 199.897 L498.941 235.916 L494.682 235.916 L494.682 232.027 Q493.34 234.342 491.279 235.476 Q489.242 236.587 486.372 236.587 Q481.673 236.587 478.71 232.837 Q475.77 229.087 475.77 222.976 Q475.77 216.865 478.71 213.115 Q481.673 209.365 486.372 209.365 Q489.242 209.365 491.279 210.499 Q493.34 211.61 494.682 213.925 M480.168 222.976 Q480.168 227.675 482.09 230.36 Q484.034 233.022 487.414 233.022 Q490.793 233.022 492.738 230.36 Q494.682 227.675 494.682 222.976 Q494.682 218.277 492.738 215.615 Q490.793 212.93 487.414 212.93 Q484.034 212.93 482.09 215.615 Q480.168 218.277 480.168 222.976 Z" fill="#000000" fill-rule="evenodd" fill-opacity="1" /><path clip-path="url(#clip950)" d="M519.497 222.883 Q514.335 222.883 512.344 224.064 Q510.353 225.244 510.353 228.092 Q510.353 230.36 511.835 231.703 Q513.339 233.022 515.909 233.022 Q519.451 233.022 521.58 230.522 Q523.733 227.999 523.733 223.832 L523.733 222.883 L519.497 222.883 M527.992 221.124 L527.992 235.916 L523.733 235.916 L523.733 231.981 Q522.275 234.342 520.099 235.476 Q517.923 236.587 514.775 236.587 Q510.793 236.587 508.432 234.365 Q506.094 232.119 506.094 228.369 Q506.094 223.994 509.011 221.772 Q511.951 219.55 517.761 219.55 L523.733 219.55 L523.733 219.133 Q523.733 216.194 521.789 214.596 Q519.867 212.976 516.372 212.976 Q514.15 212.976 512.043 213.508 Q509.937 214.041 507.992 215.106 L507.992 211.17 Q510.33 210.268 512.529 209.828 Q514.728 209.365 516.812 209.365 Q522.437 209.365 525.214 212.282 Q527.992 215.198 527.992 221.124 Z" fill="#000000" fill-rule="evenodd" fill-opacity="1" /><path clip-path="url(#clip950)" d="M540.978 202.629 L540.978 209.99 L549.751 209.99 L549.751 213.3 L540.978 213.3 L540.978 227.374 Q540.978 230.545 541.835 231.448 Q542.714 232.351 545.376 232.351 L549.751 232.351 L549.751 235.916 L545.376 235.916 Q540.446 235.916 538.571 234.087 Q536.696 232.235 536.696 227.374 L536.696 213.3 L533.571 213.3 L533.571 209.99 L536.696 209.99 L536.696 202.629 L540.978 202.629 Z" fill="#000000" fill-rule="evenodd" fill-opacity="1" /><path clip-path="url(#clip950)" d="M567.136 222.883 Q561.973 222.883 559.983 224.064 Q557.992 225.244 557.992 228.092 Q557.992 230.36 559.474 231.703 Q560.978 233.022 563.548 233.022 Q567.089 233.022 569.219 230.522 Q571.372 227.999 571.372 223.832 L571.372 222.883 L567.136 222.883 M575.631 221.124 L575.631 235.916 L571.372 235.916 L571.372 231.981 Q569.913 234.342 567.737 235.476 Q565.561 236.587 562.413 236.587 Q558.432 236.587 556.071 234.365 Q553.733 232.119 553.733 228.369 Q553.733 223.994 556.649 221.772 Q559.589 219.55 565.399 219.55 L571.372 219.55 L571.372 219.133 Q571.372 216.194 569.427 214.596 Q567.506 212.976 564.011 212.976 Q561.788 212.976 559.682 213.508 Q557.575 214.041 555.631 215.106 L555.631 211.17 Q557.969 210.268 560.168 209.828 Q562.367 209.365 564.45 209.365 Q570.075 209.365 572.853 212.282 Q575.631 215.198 575.631 221.124 Z" fill="#000000" fill-rule="evenodd" fill-opacity="1" /><path clip-path="url(#clip950)" d="M1438.54 1423.18 L2352.76 1423.18 L2352.76 123.472 L1438.54 123.472  Z" fill="#ffffff" fill-rule="evenodd" fill-opacity="1"/>
<defs>
  <clipPath id="clip953">
    <rect x="1438" y="123" width="915" height="1301"/>
  </clipPath>
</defs>
<polyline clip-path="url(#clip953)" style="stroke:#000000; stroke-linecap:round; stroke-linejoin:round; stroke-width:2; stroke-opacity:0.1; fill:none" points="1543.08,1423.18 1543.08,123.472 "/>
<polyline clip-path="url(#clip953)" style="stroke:#000000; stroke-linecap:round; stroke-linejoin:round; stroke-width:2; stroke-opacity:0.1; fill:none" points="1741.26,1423.18 1741.26,123.472 "/>
<polyline clip-path="url(#clip953)" style="stroke:#000000; stroke-linecap:round; stroke-linejoin:round; stroke-width:2; stroke-opacity:0.1; fill:none" points="1939.43,1423.18 1939.43,123.472 "/>
<polyline clip-path="url(#clip953)" style="stroke:#000000; stroke-linecap:round; stroke-linejoin:round; stroke-width:2; stroke-opacity:0.1; fill:none" points="2137.6,1423.18 2137.6,123.472 "/>
<polyline clip-path="url(#clip953)" style="stroke:#000000; stroke-linecap:round; stroke-linejoin:round; stroke-width:2; stroke-opacity:0.1; fill:none" points="2335.77,1423.18 2335.77,123.472 "/>
<polyline clip-path="url(#clip950)" style="stroke:#000000; stroke-linecap:round; stroke-linejoin:round; stroke-width:4; stroke-opacity:1; fill:none" points="1438.54,1423.18 2352.76,1423.18 "/>
<polyline clip-path="url(#clip950)" style="stroke:#000000; stroke-linecap:round; stroke-linejoin:round; stroke-width:4; stroke-opacity:1; fill:none" points="1543.08,1423.18 1543.08,1404.28 "/>
<polyline clip-path="url(#clip950)" style="stroke:#000000; stroke-linecap:round; stroke-linejoin:round; stroke-width:4; stroke-opacity:1; fill:none" points="1741.26,1423.18 1741.26,1404.28 "/>
<polyline clip-path="url(#clip950)" style="stroke:#000000; stroke-linecap:round; stroke-linejoin:round; stroke-width:4; stroke-opacity:1; fill:none" points="1939.43,1423.18 1939.43,1404.28 "/>
<polyline clip-path="url(#clip950)" style="stroke:#000000; stroke-linecap:round; stroke-linejoin:round; stroke-width:4; stroke-opacity:1; fill:none" points="2137.6,1423.18 2137.6,1404.28 "/>
<polyline clip-path="url(#clip950)" style="stroke:#000000; stroke-linecap:round; stroke-linejoin:round; stroke-width:4; stroke-opacity:1; fill:none" points="2335.77,1423.18 2335.77,1404.28 "/>
<path clip-path="url(#clip950)" d="M1512.84 1468.75 L1542.52 1468.75 L1542.52 1472.69 L1512.84 1472.69 L1512.84 1468.75 Z" fill="#000000" fill-rule="evenodd" fill-opacity="1" /><path clip-path="url(#clip950)" d="M1553.42 1481.64 L1561.06 1481.64 L1561.06 1455.28 L1552.75 1456.95 L1552.75 1452.69 L1561.01 1451.02 L1565.69 1451.02 L1565.69 1481.64 L1573.33 1481.64 L1573.33 1485.58 L1553.42 1485.58 L1553.42 1481.64 Z" fill="#000000" fill-rule="evenodd" fill-opacity="1" /><path clip-path="url(#clip950)" d="M1741.26 1454.1 Q1737.65 1454.1 1735.82 1457.66 Q1734.01 1461.2 1734.01 1468.33 Q1734.01 1475.44 1735.82 1479.01 Q1737.65 1482.55 1741.26 1482.55 Q1744.89 1482.55 1746.7 1479.01 Q1748.53 1475.44 1748.53 1468.33 Q1748.53 1461.2 1746.7 1457.66 Q1744.89 1454.1 1741.26 1454.1 M1741.26 1450.39 Q1747.07 1450.39 1750.12 1455 Q1753.2 1459.58 1753.2 1468.33 Q1753.2 1477.06 1750.12 1481.67 Q1747.07 1486.25 1741.26 1486.25 Q1735.45 1486.25 1732.37 1481.67 Q1729.31 1477.06 1729.31 1468.33 Q1729.31 1459.58 1732.37 1455 Q1735.45 1450.39 1741.26 1450.39 Z" fill="#000000" fill-rule="evenodd" fill-opacity="1" /><path clip-path="url(#clip950)" d="M1929.81 1481.64 L1937.45 1481.64 L1937.45 1455.28 L1929.14 1456.95 L1929.14 1452.69 L1937.4 1451.02 L1942.08 1451.02 L1942.08 1481.64 L1949.72 1481.64 L1949.72 1485.58 L1929.81 1485.58 L1929.81 1481.64 Z" fill="#000000" fill-rule="evenodd" fill-opacity="1" /><path clip-path="url(#clip950)" d="M2132.25 1481.64 L2148.57 1481.64 L2148.57 1485.58 L2126.63 1485.58 L2126.63 1481.64 Q2129.29 1478.89 2133.87 1474.26 Q2138.48 1469.61 2139.66 1468.27 Q2141.91 1465.74 2142.79 1464.01 Q2143.69 1462.25 2143.69 1460.56 Q2143.69 1457.8 2141.75 1456.07 Q2139.82 1454.33 2136.72 1454.33 Q2134.52 1454.33 2132.07 1455.09 Q2129.64 1455.86 2126.86 1457.41 L2126.86 1452.69 Q2129.68 1451.55 2132.14 1450.97 Q2134.59 1450.39 2136.63 1450.39 Q2142 1450.39 2145.19 1453.08 Q2148.39 1455.77 2148.39 1460.26 Q2148.39 1462.39 2147.58 1464.31 Q2146.79 1466.2 2144.68 1468.8 Q2144.11 1469.47 2141 1472.69 Q2137.9 1475.88 2132.25 1481.64 Z" fill="#000000" fill-rule="evenodd" fill-opacity="1" /><path clip-path="url(#clip950)" d="M2340.02 1466.95 Q2343.38 1467.66 2345.25 1469.93 Q2347.15 1472.2 2347.15 1475.53 Q2347.15 1480.65 2343.63 1483.45 Q2340.11 1486.25 2333.63 1486.25 Q2331.46 1486.25 2329.14 1485.81 Q2326.85 1485.39 2324.4 1484.54 L2324.4 1480.02 Q2326.34 1481.16 2328.66 1481.74 Q2330.97 1482.32 2333.49 1482.32 Q2337.89 1482.32 2340.18 1480.58 Q2342.5 1478.84 2342.5 1475.53 Q2342.5 1472.48 2340.35 1470.77 Q2338.22 1469.03 2334.4 1469.03 L2330.37 1469.03 L2330.37 1465.19 L2334.58 1465.19 Q2338.03 1465.19 2339.86 1463.82 Q2341.69 1462.43 2341.69 1459.84 Q2341.69 1457.18 2339.79 1455.77 Q2337.92 1454.33 2334.4 1454.33 Q2332.48 1454.33 2330.28 1454.75 Q2328.08 1455.16 2325.44 1456.04 L2325.44 1451.88 Q2328.1 1451.14 2330.42 1450.77 Q2332.75 1450.39 2334.81 1450.39 Q2340.14 1450.39 2343.24 1452.83 Q2346.34 1455.23 2346.34 1459.35 Q2346.34 1462.22 2344.7 1464.21 Q2343.05 1466.18 2340.02 1466.95 Z" fill="#000000" fill-rule="evenodd" fill-opacity="1" /><path clip-path="url(#clip950)" d="M1912.26 1532.4 L1899.37 1549.74 L1912.93 1568.04 L1906.02 1568.04 L1895.65 1554.04 L1885.27 1568.04 L1878.36 1568.04 L1892.21 1549.39 L1879.54 1532.4 L1886.45 1532.4 L1895.9 1545.1 L1905.35 1532.4 L1912.26 1532.4 Z" fill="#000000" fill-rule="evenodd" fill-opacity="1" /><polyline clip-path="url(#clip953)" style="stroke:#000000; stroke-linecap:round; stroke-linejoin:round; stroke-width:2; stroke-opacity:0.1; fill:none" points="1438.54,1282.07 2352.76,1282.07 "/>
<polyline clip-path="url(#clip953)" style="stroke:#000000; stroke-linecap:round; stroke-linejoin:round; stroke-width:2; stroke-opacity:0.1; fill:none" points="1438.54,1039.65 2352.76,1039.65 "/>
<polyline clip-path="url(#clip953)" style="stroke:#000000; stroke-linecap:round; stroke-linejoin:round; stroke-width:2; stroke-opacity:0.1; fill:none" points="1438.54,797.226 2352.76,797.226 "/>
<polyline clip-path="url(#clip953)" style="stroke:#000000; stroke-linecap:round; stroke-linejoin:round; stroke-width:2; stroke-opacity:0.1; fill:none" points="1438.54,554.802 2352.76,554.802 "/>
<polyline clip-path="url(#clip953)" style="stroke:#000000; stroke-linecap:round; stroke-linejoin:round; stroke-width:2; stroke-opacity:0.1; fill:none" points="1438.54,312.377 2352.76,312.377 "/>
<polyline clip-path="url(#clip950)" style="stroke:#000000; stroke-linecap:round; stroke-linejoin:round; stroke-width:4; stroke-opacity:1; fill:none" points="1438.54,1423.18 1438.54,123.472 "/>
<polyline clip-path="url(#clip950)" style="stroke:#000000; stroke-linecap:round; stroke-linejoin:round; stroke-width:4; stroke-opacity:1; fill:none" points="1438.54,1282.07 1457.43,1282.07 "/>
<polyline clip-path="url(#clip950)" style="stroke:#000000; stroke-linecap:round; stroke-linejoin:round; stroke-width:4; stroke-opacity:1; fill:none" points="1438.54,1039.65 1457.43,1039.65 "/>
<polyline clip-path="url(#clip950)" style="stroke:#000000; stroke-linecap:round; stroke-linejoin:round; stroke-width:4; stroke-opacity:1; fill:none" points="1438.54,797.226 1457.43,797.226 "/>
<polyline clip-path="url(#clip950)" style="stroke:#000000; stroke-linecap:round; stroke-linejoin:round; stroke-width:4; stroke-opacity:1; fill:none" points="1438.54,554.802 1457.43,554.802 "/>
<polyline clip-path="url(#clip950)" style="stroke:#000000; stroke-linecap:round; stroke-linejoin:round; stroke-width:4; stroke-opacity:1; fill:none" points="1438.54,312.377 1457.43,312.377 "/>
<path clip-path="url(#clip950)" d="M1295.59 1282.53 L1325.27 1282.53 L1325.27 1286.46 L1295.59 1286.46 L1295.59 1282.53 Z" fill="#000000" fill-rule="evenodd" fill-opacity="1" /><path clip-path="url(#clip950)" d="M1336.17 1295.42 L1343.81 1295.42 L1343.81 1269.05 L1335.5 1270.72 L1335.5 1266.46 L1343.76 1264.79 L1348.44 1264.79 L1348.44 1295.42 L1356.08 1295.42 L1356.08 1299.35 L1336.17 1299.35 L1336.17 1295.42 Z" fill="#000000" fill-rule="evenodd" fill-opacity="1" /><path clip-path="url(#clip950)" d="M1365.52 1293.48 L1370.41 1293.48 L1370.41 1299.35 L1365.52 1299.35 L1365.52 1293.48 Z" fill="#000000" fill-rule="evenodd" fill-opacity="1" /><path clip-path="url(#clip950)" d="M1390.59 1267.87 Q1386.98 1267.87 1385.15 1271.44 Q1383.35 1274.98 1383.35 1282.11 Q1383.35 1289.22 1385.15 1292.78 Q1386.98 1296.32 1390.59 1296.32 Q1394.23 1296.32 1396.03 1292.78 Q1397.86 1289.22 1397.86 1282.11 Q1397.86 1274.98 1396.03 1271.44 Q1394.23 1267.87 1390.59 1267.87 M1390.59 1264.17 Q1396.4 1264.17 1399.46 1268.78 Q1402.54 1273.36 1402.54 1282.11 Q1402.54 1290.84 1399.46 1295.44 Q1396.4 1300.03 1390.59 1300.03 Q1384.78 1300.03 1381.7 1295.44 Q1378.65 1290.84 1378.65 1282.11 Q1378.65 1273.36 1381.7 1268.78 Q1384.78 1264.17 1390.59 1264.17 Z" fill="#000000" fill-rule="evenodd" fill-opacity="1" /><path clip-path="url(#clip950)" d="M1296.59 1040.1 L1326.26 1040.1 L1326.26 1044.04 L1296.59 1044.04 L1296.59 1040.1 Z" fill="#000000" fill-rule="evenodd" fill-opacity="1" /><path clip-path="url(#clip950)" d="M1346.35 1025.45 Q1342.74 1025.45 1340.92 1029.01 Q1339.11 1032.56 1339.11 1039.69 Q1339.11 1046.79 1340.92 1050.36 Q1342.74 1053.9 1346.35 1053.9 Q1349.99 1053.9 1351.79 1050.36 Q1353.62 1046.79 1353.62 1039.69 Q1353.62 1032.56 1351.79 1029.01 Q1349.99 1025.45 1346.35 1025.45 M1346.35 1021.75 Q1352.17 1021.75 1355.22 1026.35 Q1358.3 1030.94 1358.3 1039.69 Q1358.3 1048.41 1355.22 1053.02 Q1352.17 1057.6 1346.35 1057.6 Q1340.54 1057.6 1337.47 1053.02 Q1334.41 1048.41 1334.41 1039.69 Q1334.41 1030.94 1337.47 1026.35 Q1340.54 1021.75 1346.35 1021.75 Z" fill="#000000" fill-rule="evenodd" fill-opacity="1" /><path clip-path="url(#clip950)" d="M1366.52 1051.05 L1371.4 1051.05 L1371.4 1056.93 L1366.52 1056.93 L1366.52 1051.05 Z" fill="#000000" fill-rule="evenodd" fill-opacity="1" /><path clip-path="url(#clip950)" d="M1381.63 1022.37 L1399.99 1022.37 L1399.99 1026.31 L1385.91 1026.31 L1385.91 1034.78 Q1386.93 1034.43 1387.95 1034.27 Q1388.97 1034.08 1389.99 1034.08 Q1395.78 1034.08 1399.16 1037.25 Q1402.54 1040.43 1402.54 1045.84 Q1402.54 1051.42 1399.06 1054.52 Q1395.59 1057.6 1389.27 1057.6 Q1387.1 1057.6 1384.83 1057.23 Q1382.58 1056.86 1380.17 1056.12 L1380.17 1051.42 Q1382.26 1052.56 1384.48 1053.11 Q1386.7 1053.67 1389.18 1053.67 Q1393.18 1053.67 1395.52 1051.56 Q1397.86 1049.45 1397.86 1045.84 Q1397.86 1042.23 1395.52 1040.13 Q1393.18 1038.02 1389.18 1038.02 Q1387.3 1038.02 1385.43 1038.44 Q1383.58 1038.85 1381.63 1039.73 L1381.63 1022.37 Z" fill="#000000" fill-rule="evenodd" fill-opacity="1" /><path clip-path="url(#clip950)" d="M1345.36 783.025 Q1341.75 783.025 1339.92 786.59 Q1338.11 790.131 1338.11 797.261 Q1338.11 804.367 1339.92 807.932 Q1341.75 811.474 1345.36 811.474 Q1348.99 811.474 1350.8 807.932 Q1352.63 804.367 1352.63 797.261 Q1352.63 790.131 1350.8 786.59 Q1348.99 783.025 1345.36 783.025 M1345.36 779.321 Q1351.17 779.321 1354.23 783.928 Q1357.3 788.511 1357.3 797.261 Q1357.3 805.988 1354.23 810.594 Q1351.17 815.177 1345.36 815.177 Q1339.55 815.177 1336.47 810.594 Q1333.42 805.988 1333.42 797.261 Q1333.42 788.511 1336.47 783.928 Q1339.55 779.321 1345.36 779.321 Z" fill="#000000" fill-rule="evenodd" fill-opacity="1" /><path clip-path="url(#clip950)" d="M1365.52 808.626 L1370.41 808.626 L1370.41 814.506 L1365.52 814.506 L1365.52 808.626 Z" fill="#000000" fill-rule="evenodd" fill-opacity="1" /><path clip-path="url(#clip950)" d="M1390.59 783.025 Q1386.98 783.025 1385.15 786.59 Q1383.35 790.131 1383.35 797.261 Q1383.35 804.367 1385.15 807.932 Q1386.98 811.474 1390.59 811.474 Q1394.23 811.474 1396.03 807.932 Q1397.86 804.367 1397.86 797.261 Q1397.86 790.131 1396.03 786.59 Q1394.23 783.025 1390.59 783.025 M1390.59 779.321 Q1396.4 779.321 1399.46 783.928 Q1402.54 788.511 1402.54 797.261 Q1402.54 805.988 1399.46 810.594 Q1396.4 815.177 1390.59 815.177 Q1384.78 815.177 1381.7 810.594 Q1378.65 805.988 1378.65 797.261 Q1378.65 788.511 1381.7 783.928 Q1384.78 779.321 1390.59 779.321 Z" fill="#000000" fill-rule="evenodd" fill-opacity="1" /><path clip-path="url(#clip950)" d="M1346.35 540.6 Q1342.74 540.6 1340.92 544.165 Q1339.11 547.707 1339.11 554.836 Q1339.11 561.943 1340.92 565.508 Q1342.74 569.049 1346.35 569.049 Q1349.99 569.049 1351.79 565.508 Q1353.62 561.943 1353.62 554.836 Q1353.62 547.707 1351.79 544.165 Q1349.99 540.6 1346.35 540.6 M1346.35 536.897 Q1352.17 536.897 1355.22 541.503 Q1358.3 546.086 1358.3 554.836 Q1358.3 563.563 1355.22 568.17 Q1352.17 572.753 1346.35 572.753 Q1340.54 572.753 1337.47 568.17 Q1334.41 563.563 1334.41 554.836 Q1334.41 546.086 1337.47 541.503 Q1340.54 536.897 1346.35 536.897 Z" fill="#000000" fill-rule="evenodd" fill-opacity="1" /><path clip-path="url(#clip950)" d="M1366.52 566.202 L1371.4 566.202 L1371.4 572.082 L1366.52 572.082 L1366.52 566.202 Z" fill="#000000" fill-rule="evenodd" fill-opacity="1" /><path clip-path="url(#clip950)" d="M1381.63 537.522 L1399.99 537.522 L1399.99 541.457 L1385.91 541.457 L1385.91 549.929 Q1386.93 549.582 1387.95 549.42 Q1388.97 549.235 1389.99 549.235 Q1395.78 549.235 1399.16 552.406 Q1402.54 555.577 1402.54 560.994 Q1402.54 566.572 1399.06 569.674 Q1395.59 572.753 1389.27 572.753 Q1387.1 572.753 1384.83 572.383 Q1382.58 572.012 1380.17 571.271 L1380.17 566.572 Q1382.26 567.707 1384.48 568.262 Q1386.7 568.818 1389.18 568.818 Q1393.18 568.818 1395.52 566.711 Q1397.86 564.605 1397.86 560.994 Q1397.86 557.383 1395.52 555.276 Q1393.18 553.17 1389.18 553.17 Q1387.3 553.17 1385.43 553.586 Q1383.58 554.003 1381.63 554.883 L1381.63 537.522 Z" fill="#000000" fill-rule="evenodd" fill-opacity="1" /><path clip-path="url(#clip950)" d="M1336.17 325.722 L1343.81 325.722 L1343.81 299.356 L1335.5 301.023 L1335.5 296.764 L1343.76 295.097 L1348.44 295.097 L1348.44 325.722 L1356.08 325.722 L1356.08 329.657 L1336.17 329.657 L1336.17 325.722 Z" fill="#000000" fill-rule="evenodd" fill-opacity="1" /><path clip-path="url(#clip950)" d="M1365.52 323.778 L1370.41 323.778 L1370.41 329.657 L1365.52 329.657 L1365.52 323.778 Z" fill="#000000" fill-rule="evenodd" fill-opacity="1" /><path clip-path="url(#clip950)" d="M1390.59 298.176 Q1386.98 298.176 1385.15 301.741 Q1383.35 305.282 1383.35 312.412 Q1383.35 319.518 1385.15 323.083 Q1386.98 326.625 1390.59 326.625 Q1394.23 326.625 1396.03 323.083 Q1397.86 319.518 1397.86 312.412 Q1397.86 305.282 1396.03 301.741 Q1394.23 298.176 1390.59 298.176 M1390.59 294.472 Q1396.4 294.472 1399.46 299.079 Q1402.54 303.662 1402.54 312.412 Q1402.54 321.139 1399.46 325.745 Q1396.4 330.329 1390.59 330.329 Q1384.78 330.329 1381.7 325.745 Q1378.65 321.139 1378.65 312.412 Q1378.65 303.662 1381.7 299.079 Q1384.78 294.472 1390.59 294.472 Z" fill="#000000" fill-rule="evenodd" fill-opacity="1" /><path clip-path="url(#clip950)" d="M1248.65 771.639 Q1255.01 774.122 1256.95 776.477 Q1258.89 778.832 1258.89 782.779 L1258.89 787.458 L1253.99 787.458 L1253.99 784.02 Q1253.99 781.601 1252.85 780.265 Q1251.7 778.928 1247.44 777.305 L1244.76 776.254 L1209.69 790.673 L1209.69 784.466 L1237.57 773.326 L1209.69 762.186 L1209.69 755.979 L1248.65 771.639 Z" fill="#000000" fill-rule="evenodd" fill-opacity="1" /><path clip-path="url(#clip950)" d="M1695.96 14.0809 L1695.96 22.0612 Q1691.3 19.8332 1687.17 18.7395 Q1683.03 17.6457 1679.19 17.6457 Q1672.5 17.6457 1668.86 20.2383 Q1665.25 22.8309 1665.25 27.611 Q1665.25 31.6214 1667.64 33.6873 Q1670.07 35.7128 1676.8 36.9686 L1681.74 37.9813 Q1690.89 39.7232 1695.23 44.1387 Q1699.6 48.5136 1699.6 55.8863 Q1699.6 64.6767 1693.69 69.2137 Q1687.81 73.7508 1676.43 73.7508 Q1672.14 73.7508 1667.28 72.7785 Q1662.46 71.8063 1657.27 69.9024 L1657.27 61.4765 Q1662.25 64.2716 1667.03 65.6895 Q1671.81 67.1073 1676.43 67.1073 Q1683.44 67.1073 1687.25 64.3527 Q1691.05 61.598 1691.05 56.4939 Q1691.05 52.0379 1688.3 49.5264 Q1685.59 47.0148 1679.35 45.759 L1674.36 44.7868 Q1665.21 42.9639 1661.12 39.075 Q1657.03 35.1862 1657.03 28.2591 Q1657.03 20.2383 1662.66 15.6203 Q1668.33 11.0023 1678.25 11.0023 Q1682.51 11.0023 1686.92 11.7719 Q1691.34 12.5416 1695.96 14.0809 Z" fill="#000000" fill-rule="evenodd" fill-opacity="1" /><path clip-path="url(#clip950)" d="M1744.69 28.9478 L1744.69 35.9153 Q1741.53 34.1734 1738.33 33.3227 Q1735.17 32.4315 1731.93 32.4315 Q1724.68 32.4315 1720.67 37.0496 Q1716.66 41.6271 1716.66 49.9314 Q1716.66 58.2358 1720.67 62.8538 Q1724.68 67.4314 1731.93 67.4314 Q1735.17 67.4314 1738.33 66.5807 Q1741.53 65.6895 1744.69 63.9476 L1744.69 70.8341 Q1741.57 72.2924 1738.21 73.0216 Q1734.89 73.7508 1731.12 73.7508 Q1720.87 73.7508 1714.83 67.3098 Q1708.8 60.8689 1708.8 49.9314 Q1708.8 38.832 1714.87 32.472 Q1720.99 26.1121 1731.6 26.1121 Q1735.05 26.1121 1738.33 26.8413 Q1741.61 27.5299 1744.69 28.9478 Z" fill="#000000" fill-rule="evenodd" fill-opacity="1" /><path clip-path="url(#clip950)" d="M1778.27 49.7694 Q1769.24 49.7694 1765.75 51.8354 Q1762.27 53.9013 1762.27 58.8839 Q1762.27 62.8538 1764.86 65.2034 Q1767.5 67.5124 1771.99 67.5124 Q1778.19 67.5124 1781.92 63.1374 Q1785.68 58.7219 1785.68 51.4303 L1785.68 49.7694 L1778.27 49.7694 M1793.14 46.6907 L1793.14 72.576 L1785.68 72.576 L1785.68 65.6895 Q1783.13 69.8214 1779.32 71.8063 Q1775.52 73.7508 1770.01 73.7508 Q1763.04 73.7508 1758.91 69.8619 Q1754.82 65.9325 1754.82 59.3701 Q1754.82 51.7138 1759.92 47.825 Q1765.06 43.9361 1775.23 43.9361 L1785.68 43.9361 L1785.68 43.2069 Q1785.68 38.0623 1782.28 35.2672 Q1778.92 32.4315 1772.8 32.4315 Q1768.91 32.4315 1765.23 33.3632 Q1761.54 34.295 1758.14 36.1584 L1758.14 29.2718 Q1762.23 27.692 1766.08 26.9223 Q1769.93 26.1121 1773.57 26.1121 Q1783.42 26.1121 1788.28 31.2163 Q1793.14 36.3204 1793.14 46.6907 Z" fill="#000000" fill-rule="evenodd" fill-opacity="1" /><path clip-path="url(#clip950)" d="M1815.86 14.324 L1815.86 27.2059 L1831.22 27.2059 L1831.22 32.9987 L1815.86 32.9987 L1815.86 57.6282 Q1815.86 63.1779 1817.36 64.7578 Q1818.9 66.3376 1823.56 66.3376 L1831.22 66.3376 L1831.22 72.576 L1823.56 72.576 Q1814.93 72.576 1811.65 69.3758 Q1808.37 66.1351 1808.37 57.6282 L1808.37 32.9987 L1802.9 32.9987 L1802.9 27.2059 L1808.37 27.2059 L1808.37 14.324 L1815.86 14.324 Z" fill="#000000" fill-rule="evenodd" fill-opacity="1" /><path clip-path="url(#clip950)" d="M1848.39 14.324 L1848.39 27.2059 L1863.74 27.2059 L1863.74 32.9987 L1848.39 32.9987 L1848.39 57.6282 Q1848.39 63.1779 1849.89 64.7578 Q1851.43 66.3376 1856.09 66.3376 L1863.74 66.3376 L1863.74 72.576 L1856.09 72.576 Q1847.46 72.576 1844.18 69.3758 Q1840.9 66.1351 1840.9 57.6282 L1840.9 32.9987 L1835.43 32.9987 L1835.43 27.2059 L1840.9 27.2059 L1840.9 14.324 L1848.39 14.324 Z" fill="#000000" fill-rule="evenodd" fill-opacity="1" /><path clip-path="url(#clip950)" d="M1912.36 48.0275 L1912.36 51.6733 L1878.08 51.6733 Q1878.57 59.3701 1882.7 63.421 Q1886.88 67.4314 1894.29 67.4314 Q1898.58 67.4314 1902.59 66.3781 Q1906.64 65.3249 1910.61 63.2184 L1910.61 70.267 Q1906.6 71.9684 1902.39 72.8596 Q1898.18 73.7508 1893.84 73.7508 Q1882.99 73.7508 1876.63 67.4314 Q1870.31 61.1119 1870.31 50.3365 Q1870.31 39.1965 1876.3 32.6746 Q1882.34 26.1121 1892.55 26.1121 Q1901.7 26.1121 1907.01 32.0264 Q1912.36 37.9003 1912.36 48.0275 M1904.9 45.84 Q1904.82 39.7232 1901.46 36.0774 Q1898.14 32.4315 1892.63 32.4315 Q1886.39 32.4315 1882.62 35.9558 Q1878.9 39.4801 1878.33 45.8805 L1904.9 45.84 Z" fill="#000000" fill-rule="evenodd" fill-opacity="1" /><path clip-path="url(#clip950)" d="M1950.88 34.1734 Q1949.62 33.4443 1948.12 33.1202 Q1946.67 32.7556 1944.88 32.7556 Q1938.56 32.7556 1935.16 36.8875 Q1931.8 40.9789 1931.8 48.6757 L1931.8 72.576 L1924.31 72.576 L1924.31 27.2059 L1931.8 27.2059 L1931.8 34.2544 Q1934.15 30.1225 1937.92 28.1376 Q1941.68 26.1121 1947.07 26.1121 Q1947.84 26.1121 1948.77 26.2337 Q1949.7 26.3147 1950.84 26.5172 L1950.88 34.1734 Z" fill="#000000" fill-rule="evenodd" fill-opacity="1" /><path clip-path="url(#clip950)" d="M1992.28 65.7705 L1992.28 89.8329 L1984.79 89.8329 L1984.79 27.2059 L1992.28 27.2059 L1992.28 34.0924 Q1994.63 30.0415 1998.19 28.0971 Q2001.8 26.1121 2006.78 26.1121 Q2015.05 26.1121 2020.19 32.6746 Q2025.38 39.2371 2025.38 49.9314 Q2025.38 60.6258 2020.19 67.1883 Q2015.05 73.7508 2006.78 73.7508 Q2001.8 73.7508 1998.19 71.8063 Q1994.63 69.8214 1992.28 65.7705 M2017.64 49.9314 Q2017.64 41.7081 2014.24 37.0496 Q2010.87 32.3505 2004.96 32.3505 Q1999.04 32.3505 1995.64 37.0496 Q1992.28 41.7081 1992.28 49.9314 Q1992.28 58.1548 1995.64 62.8538 Q1999.04 67.5124 2004.96 67.5124 Q2010.87 67.5124 2014.24 62.8538 Q2017.64 58.1548 2017.64 49.9314 Z" fill="#000000" fill-rule="evenodd" fill-opacity="1" /><path clip-path="url(#clip950)" d="M2037.73 9.54393 L2045.18 9.54393 L2045.18 72.576 L2037.73 72.576 L2037.73 9.54393 Z" fill="#000000" fill-rule="evenodd" fill-opacity="1" /><path clip-path="url(#clip950)" d="M2078.36 32.4315 Q2072.37 32.4315 2068.88 37.1306 Q2065.4 41.7891 2065.4 49.9314 Q2065.4 58.0738 2068.84 62.7728 Q2072.33 67.4314 2078.36 67.4314 Q2084.32 67.4314 2087.8 62.7323 Q2091.28 58.0333 2091.28 49.9314 Q2091.28 41.8701 2087.8 37.1711 Q2084.32 32.4315 2078.36 32.4315 M2078.36 26.1121 Q2088.08 26.1121 2093.63 32.4315 Q2099.18 38.7509 2099.18 49.9314 Q2099.18 61.0714 2093.63 67.4314 Q2088.08 73.7508 2078.36 73.7508 Q2068.6 73.7508 2063.05 67.4314 Q2057.54 61.0714 2057.54 49.9314 Q2057.54 38.7509 2063.05 32.4315 Q2068.6 26.1121 2078.36 26.1121 Z" fill="#000000" fill-rule="evenodd" fill-opacity="1" /><path clip-path="url(#clip950)" d="M2118.91 14.324 L2118.91 27.2059 L2134.26 27.2059 L2134.26 32.9987 L2118.91 32.9987 L2118.91 57.6282 Q2118.91 63.1779 2120.41 64.7578 Q2121.95 66.3376 2126.61 66.3376 L2134.26 66.3376 L2134.26 72.576 L2126.61 72.576 Q2117.98 72.576 2114.7 69.3758 Q2111.42 66.1351 2111.42 57.6282 L2111.42 32.9987 L2105.95 32.9987 L2105.95 27.2059 L2111.42 27.2059 L2111.42 14.324 L2118.91 14.324 Z" fill="#000000" fill-rule="evenodd" fill-opacity="1" /><path clip-path="url(#clip953)" d="M1717.54 1370.4 L1701.54 1386.4 L1717.54 1402.4 L1733.54 1386.4 L1717.54 1370.4 Z" fill="#0000ff" fill-rule="evenodd" fill-opacity="1" stroke="#000000" stroke-opacity="1" stroke-width="3.2"/>
<path clip-path="url(#clip953)" d="M1726.84 1279.52 L1710.84 1295.52 L1726.84 1311.52 L1742.84 1295.52 L1726.84 1279.52 Z" fill="#0000ff" fill-rule="evenodd" fill-opacity="1" stroke="#000000" stroke-opacity="1" stroke-width="3.2"/>
<path clip-path="url(#clip953)" d="M1776.65 681.863 L1760.65 697.863 L1776.65 713.863 L1792.65 697.863 L1776.65 681.863 Z" fill="#0000ff" fill-rule="evenodd" fill-opacity="1" stroke="#000000" stroke-opacity="1" stroke-width="3.2"/>
<path clip-path="url(#clip953)" d="M1512.23 1291.24 L1496.23 1307.24 L1512.23 1323.24 L1528.23 1307.24 L1512.23 1291.24 Z" fill="#0000ff" fill-rule="evenodd" fill-opacity="1" stroke="#000000" stroke-opacity="1" stroke-width="3.2"/>
<path clip-path="url(#clip953)" d="M1891.69 944.749 L1875.69 960.749 L1891.69 976.749 L1907.69 960.749 L1891.69 944.749 Z" fill="#0000ff" fill-rule="evenodd" fill-opacity="1" stroke="#000000" stroke-opacity="1" stroke-width="3.2"/>
<path clip-path="url(#clip953)" d="M1808.03 331.393 L1792.03 347.393 L1808.03 363.393 L1824.03 347.393 L1808.03 331.393 Z" fill="#0000ff" fill-rule="evenodd" fill-opacity="1" stroke="#000000" stroke-opacity="1" stroke-width="3.2"/>
<path clip-path="url(#clip953)" d="M2326.88 666.729 L2310.88 682.729 L2326.88 698.729 L2342.88 682.729 L2326.88 666.729 Z" fill="#0000ff" fill-rule="evenodd" fill-opacity="1" stroke="#000000" stroke-opacity="1" stroke-width="3.2"/>
<path clip-path="url(#clip953)" d="M1833.6 769.507 L1817.6 785.507 L1833.6 801.507 L1849.6 785.507 L1833.6 769.507 Z" fill="#0000ff" fill-rule="evenodd" fill-opacity="1" stroke="#000000" stroke-opacity="1" stroke-width="3.2"/>
<path clip-path="url(#clip953)" d="M1684.04 884.232 L1668.04 900.232 L1684.04 916.232 L1700.04 900.232 L1684.04 884.232 Z" fill="#0000ff" fill-rule="evenodd" fill-opacity="1" stroke="#000000" stroke-opacity="1" stroke-width="3.2"/>
<path clip-path="url(#clip953)" d="M1464.41 144.256 L1448.41 160.256 L1464.41 176.256 L1480.41 160.256 L1464.41 144.256 Z" fill="#0000ff" fill-rule="evenodd" fill-opacity="1" stroke="#000000" stroke-opacity="1" stroke-width="3.2"/>
<path clip-path="url(#clip950)" d="M2038.68 270.476 L2322.28 270.476 L2322.28 166.796 L2038.68 166.796  Z" fill="#ffffff" fill-rule="evenodd" fill-opacity="1"/>
<polyline clip-path="url(#clip950)" style="stroke:#000000; stroke-linecap:round; stroke-linejoin:round; stroke-width:4; stroke-opacity:1; fill:none" points="2038.68,270.476 2322.28,270.476 2322.28,166.796 2038.68,166.796 2038.68,270.476 "/>
<path clip-path="url(#clip950)" d="M2079.32 193.036 L2053.72 218.636 L2079.32 244.236 L2104.92 218.636 L2079.32 193.036 Z" fill="#0000ff" fill-rule="evenodd" fill-opacity="1" stroke="#000000" stroke-opacity="1" stroke-width="5.12"/>
<path clip-path="url(#clip950)" d="M2138.37 210.754 L2138.37 214.782 Q2136.57 213.856 2134.62 213.393 Q2132.68 212.93 2130.6 212.93 Q2127.43 212.93 2125.83 213.902 Q2124.25 214.874 2124.25 216.819 Q2124.25 218.3 2125.39 219.157 Q2126.52 219.99 2129.95 220.754 L2131.41 221.078 Q2135.94 222.05 2137.84 223.832 Q2139.76 225.592 2139.76 228.763 Q2139.76 232.374 2136.89 234.481 Q2134.05 236.587 2129.05 236.587 Q2126.96 236.587 2124.69 236.17 Q2122.45 235.777 2119.95 234.967 L2119.95 230.569 Q2122.31 231.795 2124.6 232.42 Q2126.89 233.022 2129.14 233.022 Q2132.15 233.022 2133.77 232.004 Q2135.39 230.962 2135.39 229.087 Q2135.39 227.351 2134.21 226.425 Q2133.05 225.499 2129.09 224.643 L2127.61 224.295 Q2123.65 223.462 2121.89 221.749 Q2120.13 220.013 2120.13 217.004 Q2120.13 213.346 2122.73 211.356 Q2125.32 209.365 2130.09 209.365 Q2132.45 209.365 2134.53 209.712 Q2136.62 210.059 2138.37 210.754 Z" fill="#000000" fill-rule="evenodd" fill-opacity="1" /><path clip-path="url(#clip950)" d="M2158.33 222.883 Q2153.17 222.883 2151.18 224.064 Q2149.18 225.244 2149.18 228.092 Q2149.18 230.36 2150.67 231.703 Q2152.17 233.022 2154.74 233.022 Q2158.28 233.022 2160.41 230.522 Q2162.56 227.999 2162.56 223.832 L2162.56 222.883 L2158.33 222.883 M2166.82 221.124 L2166.82 235.916 L2162.56 235.916 L2162.56 231.981 Q2161.11 234.342 2158.93 235.476 Q2156.75 236.587 2153.61 236.587 Q2149.62 236.587 2147.26 234.365 Q2144.93 232.119 2144.93 228.369 Q2144.93 223.994 2147.84 221.772 Q2150.78 219.55 2156.59 219.55 L2162.56 219.55 L2162.56 219.133 Q2162.56 216.194 2160.62 214.596 Q2158.7 212.976 2155.2 212.976 Q2152.98 212.976 2150.87 213.508 Q2148.77 214.041 2146.82 215.106 L2146.82 211.17 Q2149.16 210.268 2151.36 209.828 Q2153.56 209.365 2155.64 209.365 Q2161.27 209.365 2164.05 212.282 Q2166.82 215.198 2166.82 221.124 Z" fill="#000000" fill-rule="evenodd" fill-opacity="1" /><path clip-path="url(#clip950)" d="M2195.78 214.967 Q2197.38 212.096 2199.6 210.731 Q2201.82 209.365 2204.83 209.365 Q2208.88 209.365 2211.08 212.212 Q2213.28 215.036 2213.28 220.268 L2213.28 235.916 L2209 235.916 L2209 220.407 Q2209 216.68 2207.68 214.874 Q2206.36 213.069 2203.65 213.069 Q2200.34 213.069 2198.42 215.268 Q2196.5 217.467 2196.5 221.263 L2196.5 235.916 L2192.22 235.916 L2192.22 220.407 Q2192.22 216.657 2190.9 214.874 Q2189.58 213.069 2186.82 213.069 Q2183.56 213.069 2181.64 215.291 Q2179.72 217.49 2179.72 221.263 L2179.72 235.916 L2175.43 235.916 L2175.43 209.99 L2179.72 209.99 L2179.72 214.018 Q2181.18 211.633 2183.21 210.499 Q2185.25 209.365 2188.05 209.365 Q2190.87 209.365 2192.84 210.8 Q2194.83 212.235 2195.78 214.967 Z" fill="#000000" fill-rule="evenodd" fill-opacity="1" /><path clip-path="url(#clip950)" d="M2225.9 232.027 L2225.9 245.777 L2221.62 245.777 L2221.62 209.99 L2225.9 209.99 L2225.9 213.925 Q2227.24 211.61 2229.28 210.499 Q2231.34 209.365 2234.18 209.365 Q2238.91 209.365 2241.85 213.115 Q2244.81 216.865 2244.81 222.976 Q2244.81 229.087 2241.85 232.837 Q2238.91 236.587 2234.18 236.587 Q2231.34 236.587 2229.28 235.476 Q2227.24 234.342 2225.9 232.027 M2240.39 222.976 Q2240.39 218.277 2238.44 215.615 Q2236.52 212.93 2233.14 212.93 Q2229.76 212.93 2227.82 215.615 Q2225.9 218.277 2225.9 222.976 Q2225.9 227.675 2227.82 230.36 Q2229.76 233.022 2233.14 233.022 Q2236.52 233.022 2238.44 230.36 Q2240.39 227.675 2240.39 222.976 Z" fill="#000000" fill-rule="evenodd" fill-opacity="1" /><path clip-path="url(#clip950)" d="M2251.87 199.897 L2256.13 199.897 L2256.13 235.916 L2251.87 235.916 L2251.87 199.897 Z" fill="#000000" fill-rule="evenodd" fill-opacity="1" /><path clip-path="url(#clip950)" d="M2287.22 221.888 L2287.22 223.971 L2267.63 223.971 Q2267.91 228.369 2270.27 230.684 Q2272.66 232.976 2276.89 232.976 Q2279.35 232.976 2281.64 232.374 Q2283.95 231.772 2286.22 230.569 L2286.22 234.596 Q2283.93 235.568 2281.52 236.078 Q2279.11 236.587 2276.64 236.587 Q2270.43 236.587 2266.8 232.976 Q2263.19 229.365 2263.19 223.207 Q2263.19 216.842 2266.61 213.115 Q2270.06 209.365 2275.9 209.365 Q2281.13 209.365 2284.16 212.745 Q2287.22 216.101 2287.22 221.888 M2282.96 220.638 Q2282.91 217.143 2280.99 215.059 Q2279.09 212.976 2275.94 212.976 Q2272.38 212.976 2270.23 214.99 Q2268.1 217.004 2267.77 220.661 L2282.96 220.638 Z" fill="#000000" fill-rule="evenodd" fill-opacity="1" /><path clip-path="url(#clip950)" d="M2310.73 210.754 L2310.73 214.782 Q2308.93 213.856 2306.99 213.393 Q2305.04 212.93 2302.96 212.93 Q2299.79 212.93 2298.19 213.902 Q2296.61 214.874 2296.61 216.819 Q2296.61 218.3 2297.75 219.157 Q2298.88 219.99 2302.31 220.754 L2303.77 221.078 Q2308.3 222.05 2310.2 223.832 Q2312.12 225.592 2312.12 228.763 Q2312.12 232.374 2309.25 234.481 Q2306.41 236.587 2301.41 236.587 Q2299.32 236.587 2297.05 236.17 Q2294.81 235.777 2292.31 234.967 L2292.31 230.569 Q2294.67 231.795 2296.96 232.42 Q2299.25 233.022 2301.5 233.022 Q2304.51 233.022 2306.13 232.004 Q2307.75 230.962 2307.75 229.087 Q2307.75 227.351 2306.57 226.425 Q2305.41 225.499 2301.45 224.643 L2299.97 224.295 Q2296.01 223.462 2294.25 221.749 Q2292.49 220.013 2292.49 217.004 Q2292.49 213.346 2295.09 211.356 Q2297.68 209.365 2302.45 209.365 Q2304.81 209.365 2306.89 209.712 Q2308.98 210.059 2310.73 210.754 Z" fill="#000000" fill-rule="evenodd" fill-opacity="1" /></svg>
