<?xml version="1.0" encoding="utf-8"?>
<svg xmlns="http://www.w3.org/2000/svg" xmlns:xlink="http://www.w3.org/1999/xlink" width="600" height="400" viewBox="0 0 2400 1600">
<defs>
  <clipPath id="clip260">
    <rect x="0" y="0" width="2400" height="1600"/>
  </clipPath>
</defs>
<path clip-path="url(#clip260)" d="M0 1600 L2400 1600 L2400 0 L0 0  Z" fill="#ffffff" fill-rule="evenodd" fill-opacity="1"/>
<defs>
  <clipPath id="clip261">
    <rect x="480" y="0" width="1681" height="1600"/>
  </clipPath>
</defs>
<path clip-path="url(#clip260)" d="M141.853 1486.45 L2352.76 1486.45 L2352.76 47.2441 L141.853 47.2441  Z" fill="#ffffff" fill-rule="evenodd" fill-opacity="1"/>
<defs>
  <clipPath id="clip262">
    <rect x="141" y="47" width="2212" height="1440"/>
  </clipPath>
</defs>
<polyline clip-path="url(#clip262)" style="stroke:#000000; stroke-linecap:round; stroke-linejoin:round; stroke-width:2; stroke-opacity:0.1; fill:none" points="204.426,1486.45 204.426,47.2441 "/>
<polyline clip-path="url(#clip262)" style="stroke:#000000; stroke-linecap:round; stroke-linejoin:round; stroke-width:2; stroke-opacity:0.1; fill:none" points="621.577,1486.45 621.577,47.2441 "/>
<polyline clip-path="url(#clip262)" style="stroke:#000000; stroke-linecap:round; stroke-linejoin:round; stroke-width:2; stroke-opacity:0.1; fill:none" points="1038.73,1486.45 1038.73,47.2441 "/>
<polyline clip-path="url(#clip262)" style="stroke:#000000; stroke-linecap:round; stroke-linejoin:round; stroke-width:2; stroke-opacity:0.1; fill:none" points="1455.88,1486.45 1455.88,47.2441 "/>
<polyline clip-path="url(#clip262)" style="stroke:#000000; stroke-linecap:round; stroke-linejoin:round; stroke-width:2; stroke-opacity:0.1; fill:none" points="1873.03,1486.45 1873.03,47.2441 "/>
<polyline clip-path="url(#clip262)" style="stroke:#000000; stroke-linecap:round; stroke-linejoin:round; stroke-width:2; stroke-opacity:0.1; fill:none" points="2290.18,1486.45 2290.18,47.2441 "/>
<polyline clip-path="url(#clip260)" style="stroke:#000000; stroke-linecap:round; stroke-linejoin:round; stroke-width:4; stroke-opacity:1; fill:none" points="141.853,1486.45 2352.76,1486.45 "/>
<polyline clip-path="url(#clip260)" style="stroke:#000000; stroke-linecap:round; stroke-linejoin:round; stroke-width:4; stroke-opacity:1; fill:none" points="204.426,1486.45 204.426,1467.55 "/>
<polyline clip-path="url(#clip260)" style="stroke:#000000; stroke-linecap:round; stroke-linejoin:round; stroke-width:4; stroke-opacity:1; fill:none" points="621.577,1486.45 621.577,1467.55 "/>
<polyline clip-path="url(#clip260)" style="stroke:#000000; stroke-linecap:round; stroke-linejoin:round; stroke-width:4; stroke-opacity:1; fill:none" points="1038.73,1486.45 1038.73,1467.55 "/>
<polyline clip-path="url(#clip260)" style="stroke:#000000; stroke-linecap:round; stroke-linejoin:round; stroke-width:4; stroke-opacity:1; fill:none" points="1455.88,1486.45 1455.88,1467.55 "/>
<polyline clip-path="url(#clip260)" style="stroke:#000000; stroke-linecap:round; stroke-linejoin:round; stroke-width:4; stroke-opacity:1; fill:none" points="1873.03,1486.45 1873.03,1467.55 "/>
<polyline clip-path="url(#clip260)" style="stroke:#000000; stroke-linecap:round; stroke-linejoin:round; stroke-width:4; stroke-opacity:1; fill:none" points="2290.18,1486.45 2290.18,1467.55 "/>
<path clip-path="url(#clip260)" d="M204.426 1517.37 Q200.815 1517.37 198.986 1520.93 Q197.18 1524.47 197.18 1531.6 Q197.18 1538.71 198.986 1542.27 Q200.815 1545.82 204.426 1545.82 Q208.06 1545.82 209.865 1542.27 Q211.694 1538.71 211.694 1531.6 Q211.694 1524.47 209.865 1520.93 Q208.06 1517.37 204.426 1517.37 M204.426 1513.66 Q210.236 1513.66 213.291 1518.27 Q216.37 1522.85 216.37 1531.6 Q216.37 1540.33 213.291 1544.94 Q210.236 1549.52 204.426 1549.52 Q198.616 1549.52 195.537 1544.94 Q192.481 1540.33 192.481 1531.6 Q192.481 1522.85 195.537 1518.27 Q198.616 1513.66 204.426 1513.66 Z" fill="#000000" fill-rule="nonzero" fill-opacity="1" /><path clip-path="url(#clip260)" d="M611.959 1544.91 L619.598 1544.91 L619.598 1518.55 L611.288 1520.21 L611.288 1515.95 L619.552 1514.29 L624.228 1514.29 L624.228 1544.91 L631.866 1544.91 L631.866 1548.85 L611.959 1548.85 L611.959 1544.91 Z" fill="#000000" fill-rule="nonzero" fill-opacity="1" /><path clip-path="url(#clip260)" d="M1033.38 1544.91 L1049.7 1544.91 L1049.7 1548.85 L1027.76 1548.85 L1027.76 1544.91 Q1030.42 1542.16 1035 1537.53 Q1039.61 1532.88 1040.79 1531.53 Q1043.03 1529.01 1043.91 1527.27 Q1044.82 1525.51 1044.82 1523.82 Q1044.82 1521.07 1042.87 1519.33 Q1040.95 1517.6 1037.85 1517.6 Q1035.65 1517.6 1033.2 1518.36 Q1030.77 1519.13 1027.99 1520.68 L1027.99 1515.95 Q1030.81 1514.82 1033.27 1514.24 Q1035.72 1513.66 1037.76 1513.66 Q1043.13 1513.66 1046.32 1516.35 Q1049.52 1519.03 1049.52 1523.52 Q1049.52 1525.65 1048.71 1527.57 Q1047.92 1529.47 1045.81 1532.07 Q1045.23 1532.74 1042.13 1535.95 Q1039.03 1539.15 1033.38 1544.91 Z" fill="#000000" fill-rule="nonzero" fill-opacity="1" /><path clip-path="url(#clip260)" d="M1460.13 1530.21 Q1463.48 1530.93 1465.36 1533.2 Q1467.26 1535.47 1467.26 1538.8 Q1467.26 1543.92 1463.74 1546.72 Q1460.22 1549.52 1453.74 1549.52 Q1451.56 1549.52 1449.25 1549.08 Q1446.96 1548.66 1444.5 1547.81 L1444.5 1543.29 Q1446.45 1544.43 1448.76 1545.01 Q1451.08 1545.58 1453.6 1545.58 Q1458 1545.58 1460.29 1543.85 Q1462.6 1542.11 1462.6 1538.8 Q1462.6 1535.75 1460.45 1534.03 Q1458.32 1532.3 1454.5 1532.3 L1450.48 1532.3 L1450.48 1528.45 L1454.69 1528.45 Q1458.14 1528.45 1459.97 1527.09 Q1461.79 1525.7 1461.79 1523.11 Q1461.79 1520.45 1459.9 1519.03 Q1458.02 1517.6 1454.5 1517.6 Q1452.58 1517.6 1450.38 1518.01 Q1448.18 1518.43 1445.54 1519.31 L1445.54 1515.14 Q1448.21 1514.4 1450.52 1514.03 Q1452.86 1513.66 1454.92 1513.66 Q1460.24 1513.66 1463.35 1516.09 Q1466.45 1518.5 1466.45 1522.62 Q1466.45 1525.49 1464.8 1527.48 Q1463.16 1529.45 1460.13 1530.21 Z" fill="#000000" fill-rule="nonzero" fill-opacity="1" /><path clip-path="url(#clip260)" d="M1876.04 1518.36 L1864.24 1536.81 L1876.04 1536.81 L1876.04 1518.36 M1874.81 1514.29 L1880.69 1514.29 L1880.69 1536.81 L1885.62 1536.81 L1885.62 1540.7 L1880.69 1540.7 L1880.69 1548.85 L1876.04 1548.85 L1876.04 1540.7 L1860.44 1540.7 L1860.44 1536.19 L1874.81 1514.29 Z" fill="#000000" fill-rule="nonzero" fill-opacity="1" /><path clip-path="url(#clip260)" d="M2280.46 1514.29 L2298.82 1514.29 L2298.82 1518.22 L2284.74 1518.22 L2284.74 1526.7 Q2285.76 1526.35 2286.78 1526.19 Q2287.8 1526 2288.82 1526 Q2294.6 1526 2297.98 1529.17 Q2301.36 1532.34 2301.36 1537.76 Q2301.36 1543.34 2297.89 1546.44 Q2294.42 1549.52 2288.1 1549.52 Q2285.92 1549.52 2283.66 1549.15 Q2281.41 1548.78 2279 1548.04 L2279 1543.34 Q2281.09 1544.47 2283.31 1545.03 Q2285.53 1545.58 2288.01 1545.58 Q2292.01 1545.58 2294.35 1543.48 Q2296.69 1541.37 2296.69 1537.76 Q2296.69 1534.15 2294.35 1532.04 Q2292.01 1529.94 2288.01 1529.94 Q2286.13 1529.94 2284.26 1530.35 Q2282.41 1530.77 2280.46 1531.65 L2280.46 1514.29 Z" fill="#000000" fill-rule="nonzero" fill-opacity="1" /><polyline clip-path="url(#clip262)" style="stroke:#000000; stroke-linecap:round; stroke-linejoin:round; stroke-width:2; stroke-opacity:0.1; fill:none" points="141.853,1255.63 2352.76,1255.63 "/>
<polyline clip-path="url(#clip262)" style="stroke:#000000; stroke-linecap:round; stroke-linejoin:round; stroke-width:2; stroke-opacity:0.1; fill:none" points="141.853,984.084 2352.76,984.084 "/>
<polyline clip-path="url(#clip262)" style="stroke:#000000; stroke-linecap:round; stroke-linejoin:round; stroke-width:2; stroke-opacity:0.1; fill:none" points="141.853,712.536 2352.76,712.536 "/>
<polyline clip-path="url(#clip262)" style="stroke:#000000; stroke-linecap:round; stroke-linejoin:round; stroke-width:2; stroke-opacity:0.1; fill:none" points="141.853,440.989 2352.76,440.989 "/>
<polyline clip-path="url(#clip262)" style="stroke:#000000; stroke-linecap:round; stroke-linejoin:round; stroke-width:2; stroke-opacity:0.1; fill:none" points="141.853,169.441 2352.76,169.441 "/>
<polyline clip-path="url(#clip260)" style="stroke:#000000; stroke-linecap:round; stroke-linejoin:round; stroke-width:4; stroke-opacity:1; fill:none" points="141.853,1486.45 141.853,47.2441 "/>
<polyline clip-path="url(#clip260)" style="stroke:#000000; stroke-linecap:round; stroke-linejoin:round; stroke-width:4; stroke-opacity:1; fill:none" points="141.853,1255.63 160.751,1255.63 "/>
<polyline clip-path="url(#clip260)" style="stroke:#000000; stroke-linecap:round; stroke-linejoin:round; stroke-width:4; stroke-opacity:1; fill:none" points="141.853,984.084 160.751,984.084 "/>
<polyline clip-path="url(#clip260)" style="stroke:#000000; stroke-linecap:round; stroke-linejoin:round; stroke-width:4; stroke-opacity:1; fill:none" points="141.853,712.536 160.751,712.536 "/>
<polyline clip-path="url(#clip260)" style="stroke:#000000; stroke-linecap:round; stroke-linejoin:round; stroke-width:4; stroke-opacity:1; fill:none" points="141.853,440.989 160.751,440.989 "/>
<polyline clip-path="url(#clip260)" style="stroke:#000000; stroke-linecap:round; stroke-linejoin:round; stroke-width:4; stroke-opacity:1; fill:none" points="141.853,169.441 160.751,169.441 "/>
<path clip-path="url(#clip260)" d="M93.9086 1241.43 Q90.2975 1241.43 88.4688 1245 Q86.6632 1248.54 86.6632 1255.67 Q86.6632 1262.77 88.4688 1266.34 Q90.2975 1269.88 93.9086 1269.88 Q97.5428 1269.88 99.3483 1266.34 Q101.177 1262.77 101.177 1255.67 Q101.177 1248.54 99.3483 1245 Q97.5428 1241.43 93.9086 1241.43 M93.9086 1237.73 Q99.7187 1237.73 102.774 1242.33 Q105.853 1246.92 105.853 1255.67 Q105.853 1264.39 102.774 1269 Q99.7187 1273.58 93.9086 1273.58 Q88.0984 1273.58 85.0197 1269 Q81.9642 1264.39 81.9642 1255.67 Q81.9642 1246.92 85.0197 1242.33 Q88.0984 1237.73 93.9086 1237.73 Z" fill="#000000" fill-rule="nonzero" fill-opacity="1" /><path clip-path="url(#clip260)" d="M54.5569 997.429 L62.1958 997.429 L62.1958 971.064 L53.8856 972.73 L53.8856 968.471 L62.1495 966.804 L66.8254 966.804 L66.8254 997.429 L74.4642 997.429 L74.4642 1001.36 L54.5569 1001.36 L54.5569 997.429 Z" fill="#000000" fill-rule="nonzero" fill-opacity="1" /><path clip-path="url(#clip260)" d="M93.9086 969.883 Q90.2975 969.883 88.4688 973.448 Q86.6632 976.989 86.6632 984.119 Q86.6632 991.225 88.4688 994.79 Q90.2975 998.332 93.9086 998.332 Q97.5428 998.332 99.3483 994.79 Q101.177 991.225 101.177 984.119 Q101.177 976.989 99.3483 973.448 Q97.5428 969.883 93.9086 969.883 M93.9086 966.179 Q99.7187 966.179 102.774 970.786 Q105.853 975.369 105.853 984.119 Q105.853 992.846 102.774 997.452 Q99.7187 1002.04 93.9086 1002.04 Q88.0984 1002.04 85.0197 997.452 Q81.9642 992.846 81.9642 984.119 Q81.9642 975.369 85.0197 970.786 Q88.0984 966.179 93.9086 966.179 Z" fill="#000000" fill-rule="nonzero" fill-opacity="1" /><path clip-path="url(#clip260)" d="M57.7745 725.881 L74.0939 725.881 L74.0939 729.816 L52.1495 729.816 L52.1495 725.881 Q54.8115 723.127 59.3949 718.497 Q64.0013 713.844 65.1819 712.502 Q67.4272 709.979 68.3068 708.242 Q69.2096 706.483 69.2096 704.793 Q69.2096 702.039 67.2652 700.303 Q65.3439 698.567 62.2421 698.567 Q60.043 698.567 57.5893 699.33 Q55.1588 700.094 52.381 701.645 L52.381 696.923 Q55.2051 695.789 57.6588 695.21 Q60.1124 694.631 62.1495 694.631 Q67.5198 694.631 70.7142 697.317 Q73.9087 700.002 73.9087 704.492 Q73.9087 706.622 73.0985 708.543 Q72.3115 710.442 70.205 713.034 Q69.6263 713.705 66.5245 716.923 Q63.4226 720.117 57.7745 725.881 Z" fill="#000000" fill-rule="nonzero" fill-opacity="1" /><path clip-path="url(#clip260)" d="M93.9086 698.335 Q90.2975 698.335 88.4688 701.9 Q86.6632 705.442 86.6632 712.571 Q86.6632 719.678 88.4688 723.242 Q90.2975 726.784 93.9086 726.784 Q97.5428 726.784 99.3483 723.242 Q101.177 719.678 101.177 712.571 Q101.177 705.442 99.3483 701.9 Q97.5428 698.335 93.9086 698.335 M93.9086 694.631 Q99.7187 694.631 102.774 699.238 Q105.853 703.821 105.853 712.571 Q105.853 721.298 102.774 725.904 Q99.7187 730.488 93.9086 730.488 Q88.0984 730.488 85.0197 725.904 Q81.9642 721.298 81.9642 712.571 Q81.9642 703.821 85.0197 699.238 Q88.0984 694.631 93.9086 694.631 Z" fill="#000000" fill-rule="nonzero" fill-opacity="1" /><path clip-path="url(#clip260)" d="M67.9133 439.634 Q71.2698 440.352 73.1448 442.62 Q75.0429 444.889 75.0429 448.222 Q75.0429 453.338 71.5244 456.139 Q68.0059 458.94 61.5245 458.94 Q59.3486 458.94 57.0338 458.5 Q54.7421 458.083 52.2884 457.227 L52.2884 452.713 Q54.2328 453.847 56.5477 454.426 Q58.8625 455.005 61.3856 455.005 Q65.7837 455.005 68.0754 453.269 Q70.3902 451.532 70.3902 448.222 Q70.3902 445.167 68.2374 443.454 Q66.1078 441.718 62.2884 441.718 L58.2606 441.718 L58.2606 437.875 L62.4735 437.875 Q65.9226 437.875 67.7513 436.509 Q69.58 435.121 69.58 432.528 Q69.58 429.866 67.6819 428.454 Q65.8069 427.019 62.2884 427.019 Q60.3671 427.019 58.168 427.435 Q55.969 427.852 53.3301 428.732 L53.3301 424.565 Q55.9921 423.824 58.3069 423.454 Q60.6449 423.084 62.705 423.084 Q68.0291 423.084 71.1309 425.514 Q74.2327 427.921 74.2327 432.042 Q74.2327 434.912 72.5892 436.903 Q70.9457 438.87 67.9133 439.634 Z" fill="#000000" fill-rule="nonzero" fill-opacity="1" /><path clip-path="url(#clip260)" d="M93.9086 426.787 Q90.2975 426.787 88.4688 430.352 Q86.6632 433.894 86.6632 441.023 Q86.6632 448.13 88.4688 451.694 Q90.2975 455.236 93.9086 455.236 Q97.5428 455.236 99.3483 451.694 Q101.177 448.13 101.177 441.023 Q101.177 433.894 99.3483 430.352 Q97.5428 426.787 93.9086 426.787 M93.9086 423.084 Q99.7187 423.084 102.774 427.69 Q105.853 432.273 105.853 441.023 Q105.853 449.75 102.774 454.357 Q99.7187 458.94 93.9086 458.94 Q88.0984 458.94 85.0197 454.357 Q81.9642 449.75 81.9642 441.023 Q81.9642 432.273 85.0197 427.69 Q88.0984 423.084 93.9086 423.084 Z" fill="#000000" fill-rule="nonzero" fill-opacity="1" /><path clip-path="url(#clip260)" d="M66.5939 156.235 L54.7884 174.684 L66.5939 174.684 L66.5939 156.235 M65.367 152.161 L71.2466 152.161 L71.2466 174.684 L76.1772 174.684 L76.1772 178.573 L71.2466 178.573 L71.2466 186.721 L66.5939 186.721 L66.5939 178.573 L50.9921 178.573 L50.9921 174.059 L65.367 152.161 Z" fill="#000000" fill-rule="nonzero" fill-opacity="1" /><path clip-path="url(#clip260)" d="M93.9086 155.239 Q90.2975 155.239 88.4688 158.804 Q86.6632 162.346 86.6632 169.475 Q86.6632 176.582 88.4688 180.147 Q90.2975 183.688 93.9086 183.688 Q97.5428 183.688 99.3483 180.147 Q101.177 176.582 101.177 169.475 Q101.177 162.346 99.3483 158.804 Q97.5428 155.239 93.9086 155.239 M93.9086 151.536 Q99.7187 151.536 102.774 156.142 Q105.853 160.725 105.853 169.475 Q105.853 178.202 102.774 182.809 Q99.7187 187.392 93.9086 187.392 Q88.0984 187.392 85.0197 182.809 Q81.9642 178.202 81.9642 169.475 Q81.9642 160.725 85.0197 156.142 Q88.0984 151.536 93.9086 151.536 Z" fill="#000000" fill-rule="nonzero" fill-opacity="1" /><polyline clip-path="url(#clip262)" style="stroke:#009af9; stroke-linecap:round; stroke-linejoin:round; stroke-width:4; stroke-opacity:1; fill:none" points="204.426,1445.72 208.597,1445.71 212.769,1445.69 216.94,1445.67 221.112,1445.63 225.283,1445.58 229.455,1445.52 233.626,1445.45 237.798,1445.37 241.969,1445.28 246.141,1445.17 250.312,1445.06 254.484,1444.93 258.655,1444.8 262.827,1444.65 266.998,1444.49 271.17,1444.33 275.341,1444.15 279.513,1443.96 283.684,1443.76 287.856,1443.54 292.027,1443.32 296.199,1443.09 300.371,1442.84 304.542,1442.59 308.714,1442.32 312.885,1442.04 317.057,1441.76 321.228,1441.46 325.4,1441.15 329.571,1440.83 333.743,1440.5 337.914,1440.15 342.086,1439.8 346.257,1439.44 350.429,1439.06 354.6,1438.68 358.772,1438.28 362.943,1437.87 367.115,1437.46 371.286,1437.03 375.458,1436.59 379.629,1436.14 383.801,1435.67 387.972,1435.2 392.144,1434.72 396.315,1434.22 400.487,1433.72 404.658,1433.2 408.83,1432.68 413.001,1432.14 417.173,1431.59 421.344,1431.03 425.516,1430.46 429.687,1429.88 433.859,1429.29 438.031,1428.68 442.202,1428.07 446.374,1427.45 450.545,1426.81 454.717,1426.16 458.888,1425.51 463.06,1424.84 467.231,1424.16 471.403,1423.47 475.574,1422.77 479.746,1422.06 483.917,1421.34 488.089,1420.6 492.26,1419.86 496.432,1419.1 500.603,1418.34 504.775,1417.56 508.946,1416.77 513.118,1415.98 517.289,1415.17 521.461,1414.35 525.632,1413.52 529.804,1412.67 533.975,1411.82 538.147,1410.96 542.318,1410.08 546.49,1409.2 550.661,1408.3 554.833,1407.39 559.004,1406.48 563.176,1405.55 567.347,1404.61 571.519,1403.66 575.691,1402.7 579.862,1401.72 584.034,1400.74 588.205,1399.75 592.377,1398.74 596.548,1397.73 600.72,1396.7 604.891,1395.66 609.063,1394.62 613.234,1393.56 617.406,1392.49 621.577,1391.41 625.749,1390.31 629.92,1389.21 634.092,1388.1 638.263,1386.97 642.435,1385.84 646.606,1384.69 650.778,1383.54 654.949,1382.37 659.121,1381.19 663.292,1380 667.464,1378.8 671.635,1377.59 675.807,1376.37 679.978,1375.13 684.15,1373.89 688.321,1372.64 692.493,1371.37 696.664,1370.1 700.836,1368.81 705.007,1367.51 709.179,1366.2 713.351,1364.88 717.522,1363.55 721.694,1362.21 725.865,1360.86 730.037,1359.49 734.208,1358.12 738.38,1356.73 742.551,1355.34 746.723,1353.93 750.894,1352.52 755.066,1351.09 759.237,1349.65 763.409,1348.2 767.58,1346.74 771.752,1345.26 775.923,1343.78 780.095,1342.29 784.266,1340.78 788.438,1339.27 792.609,1337.74 796.781,1336.21 800.952,1334.66 805.124,1333.1 809.295,1331.53 813.467,1329.95 817.638,1328.36 821.81,1326.76 825.981,1325.14 830.153,1323.52 834.324,1321.88 838.496,1320.24 842.667,1318.58 846.839,1316.92 851.01,1315.24 855.182,1313.55 859.354,1311.85 863.525,1310.14 867.697,1308.42 871.868,1306.68 876.04,1304.94 880.211,1303.19 884.383,1301.42 888.554,1299.64 892.726,1297.86 896.897,1296.06 901.069,1294.25 905.24,1292.43 909.412,1290.6 913.583,1288.76 917.755,1286.91 921.926,1285.05 926.098,1283.17 930.269,1281.29 934.441,1279.39 938.612,1277.49 942.784,1275.57 946.955,1273.64 951.127,1271.7 955.298,1269.75 959.47,1267.79 963.641,1265.82 967.813,1263.84 971.984,1261.85 976.156,1259.84 980.327,1257.83 984.499,1255.8 988.67,1253.76 992.842,1251.72 997.014,1249.66 1001.19,1247.59 1005.36,1245.51 1009.53,1243.42 1013.7,1241.32 1017.87,1239.2 1022.04,1237.08 1026.21,1234.95 1030.39,1232.8 1034.56,1230.64 1038.73,1228.48 1042.9,1226.3 1047.07,1224.11 1051.24,1221.91 1055.41,1219.7 1059.59,1217.48 1063.76,1215.25 1067.93,1213 1072.1,1210.75 1076.27,1208.49 1080.44,1206.21 1084.62,1203.92 1088.79,1201.63 1092.96,1199.32 1097.13,1197 1101.3,1194.67 1105.47,1192.33 1109.64,1189.98 1113.82,1187.61 1117.99,1185.24 1122.16,1182.86 1126.33,1180.46 1130.5,1178.06 1134.67,1175.64 1138.85,1173.21 1143.02,1170.77 1147.19,1168.32 1151.36,1165.86 1155.53,1163.39 1159.7,1160.91 1163.87,1158.42 1168.05,1155.91 1172.22,1153.4 1176.39,1150.87 1180.56,1148.34 1184.73,1145.79 1188.9,1143.23 1193.07,1140.66 1197.25,1138.08 1201.42,1135.49 1205.59,1132.89 1209.76,1130.28 1213.93,1127.66 1218.1,1125.02 1222.28,1122.38 1226.45,1119.72 1230.62,1117.06 1234.79,1114.38 1238.96,1111.69 1243.13,1108.99 1247.3,1106.28 1251.48,1103.56 1255.65,1100.83 1259.82,1098.09 1263.99,1095.33 1268.16,1092.57 1272.33,1089.79 1276.51,1087.01 1280.68,1084.21 1284.85,1081.4 1289.02,1078.58 1293.19,1075.75 1297.36,1072.91 1301.53,1070.06 1305.71,1067.2 1309.88,1064.33 1314.05,1061.44 1318.22,1058.55 1322.39,1055.64 1326.56,1052.73 1330.73,1049.8 1334.91,1046.86 1339.08,1043.91 1343.25,1040.95 1347.42,1037.98 1351.59,1035 1355.76,1032.01 1359.94,1029 1364.11,1025.99 1368.28,1022.96 1372.45,1019.93 1376.62,1016.88 1380.79,1013.82 1384.96,1010.76 1389.14,1007.68 1393.31,1004.59 1397.48,1001.49 1401.65,998.373 1405.82,995.25 1409.99,992.117 1414.17,988.972 1418.34,985.817 1422.51,982.651 1426.68,979.473 1430.85,976.285 1435.02,973.087 1439.19,969.877 1443.37,966.656 1447.54,963.425 1451.71,960.183 1455.88,956.93 1460.05,953.665 1464.22,950.391 1468.39,947.105 1472.57,943.808 1476.74,940.501 1480.91,937.183 1485.08,933.853 1489.25,930.513 1493.42,927.162 1497.6,923.801 1501.77,920.428 1505.94,917.045 1510.11,913.65 1514.28,910.245 1518.45,906.829 1522.62,903.402 1526.8,899.964 1530.97,896.516 1535.14,893.056 1539.31,889.586 1543.48,886.104 1547.65,882.612 1551.83,879.109 1556,875.595 1560.17,872.071 1564.34,868.535 1568.51,864.989 1572.68,861.432 1576.85,857.863 1581.03,854.284 1585.2,850.695 1589.37,847.094 1593.54,843.482 1597.71,839.86 1601.88,836.226 1606.05,832.582 1610.23,828.927 1614.4,825.261 1618.57,821.585 1622.74,817.897 1626.91,814.199 1631.08,810.489 1635.26,806.769 1639.43,803.038 1643.6,799.296 1647.77,795.543 1651.94,791.78 1656.11,788.005 1660.28,784.22 1664.46,780.423 1668.63,776.616 1672.8,772.798 1676.97,768.969 1681.14,765.13 1685.31,761.279 1689.49,757.418 1693.66,753.546 1697.83,749.662 1702,745.768 1706.17,741.864 1710.34,737.948 1714.51,734.021 1718.69,730.084 1722.86,726.136 1727.03,722.176 1731.2,718.206 1735.37,714.225 1739.54,710.234 1743.71,706.231 1747.89,702.218 1752.06,698.193 1756.23,694.158 1760.4,690.112 1764.57,686.055 1768.74,681.987 1772.92,677.909 1777.09,673.819 1781.26,669.719 1785.43,665.608 1789.6,661.485 1793.77,657.352 1797.94,653.209 1802.12,649.054 1806.29,644.888 1810.46,640.712 1814.63,636.525 1818.8,632.327 1822.97,628.118 1827.15,623.898 1831.32,619.667 1835.49,615.425 1839.66,611.173 1843.83,606.91 1848,602.636 1852.17,598.351 1856.35,594.055 1860.52,589.748 1864.69,585.43 1868.86,581.102 1873.03,576.762 1877.2,572.412 1881.37,568.051 1885.55,563.679 1889.72,559.297 1893.89,554.903 1898.06,550.498 1902.23,546.083 1906.4,541.657 1910.58,537.22 1914.75,532.772 1918.92,528.313 1923.09,523.843 1927.26,519.363 1931.43,514.871 1935.6,510.369 1939.78,505.856 1943.95,501.332 1948.12,496.797 1952.29,492.251 1956.46,487.695 1960.63,483.127 1964.81,478.549 1968.98,473.96 1973.15,469.36 1977.32,464.749 1981.49,460.127 1985.66,455.495 1989.83,450.851 1994.01,446.197 1998.18,441.532 2002.35,436.856 2006.52,432.169 2010.69,427.471 2014.86,422.762 2019.03,418.043 2023.21,413.312 2027.38,408.571 2031.55,403.819 2035.72,399.056 2039.89,394.282 2044.06,389.498 2048.24,384.702 2052.41,379.896 2056.58,375.078 2060.75,370.25 2064.92,365.411 2069.09,360.561 2073.26,355.701 2077.44,350.829 2081.61,345.947 2085.78,341.053 2089.95,336.149 2094.12,331.234 2098.29,326.308 2102.47,321.372 2106.64,316.424 2110.81,311.466 2114.98,306.496 2119.15,301.516 2123.32,296.525 2127.49,291.523 2131.67,286.51 2135.84,281.487 2140.01,276.452 2144.18,271.407 2148.35,266.351 2152.52,261.284 2156.69,256.206 2160.87,251.117 2165.04,246.017 2169.21,240.907 2173.38,235.785 2177.55,230.653 2181.72,225.51 2185.9,220.356 2190.07,215.191 2194.24,210.015 2198.41,204.829 2202.58,199.631 2206.75,194.423 2210.92,189.204 2215.1,183.974 2219.27,178.733 2223.44,173.481 2227.61,168.219 2231.78,162.945 2235.95,157.661 2240.12,152.366 2244.3,147.06 2248.47,141.743 2252.64,136.415 2256.81,131.076 2260.98,125.727 2265.15,120.367 2269.33,114.995 2273.5,109.613 2277.67,104.22 2281.84,98.8165 2286.01,93.4018 2290.18,87.9763 "/>
<polyline clip-path="url(#clip262)" style="stroke:#e26f46; stroke-linecap:round; stroke-linejoin:round; stroke-width:4; stroke-opacity:1; fill:none" points="204.426,1255.63 208.597,1228.48 212.769,1217.23 216.94,1208.6 221.112,1201.32 225.283,1194.91 229.455,1189.12 233.626,1183.79 237.798,1178.83 241.969,1174.17 246.141,1169.76 250.312,1165.57 254.484,1161.57 258.655,1157.72 262.827,1154.03 266.998,1150.46 271.17,1147.01 275.341,1143.67 279.513,1140.42 283.684,1137.27 287.856,1134.19 292.027,1131.19 296.199,1128.26 300.371,1125.4 304.542,1122.6 308.714,1119.86 312.885,1117.17 317.057,1114.53 321.228,1111.94 325.4,1109.4 329.571,1106.9 333.743,1104.44 337.914,1102.02 342.086,1099.64 346.257,1097.29 350.429,1094.98 354.6,1092.7 358.772,1090.46 362.943,1088.24 367.115,1086.05 371.286,1083.89 375.458,1081.76 379.629,1079.65 383.801,1077.57 387.972,1075.51 392.144,1073.47 396.315,1071.46 400.487,1069.47 404.658,1067.5 408.83,1065.55 413.001,1063.62 417.173,1061.71 421.344,1059.82 425.516,1057.94 429.687,1056.09 433.859,1054.25 438.031,1052.42 442.202,1050.62 446.374,1048.83 450.545,1047.05 454.717,1045.29 458.888,1043.55 463.06,1041.82 467.231,1040.1 471.403,1038.39 475.574,1036.7 479.746,1035.03 483.917,1033.36 488.089,1031.71 492.26,1030.07 496.432,1028.44 500.603,1026.82 504.775,1025.22 508.946,1023.62 513.118,1022.04 517.289,1020.46 521.461,1018.9 525.632,1017.35 529.804,1015.81 533.975,1014.28 538.147,1012.75 542.318,1011.24 546.49,1009.74 550.661,1008.24 554.833,1006.75 559.004,1005.28 563.176,1003.81 567.347,1002.35 571.519,1000.9 575.691,999.454 579.862,998.019 584.034,996.592 588.205,995.173 592.377,993.761 596.548,992.357 600.72,990.96 604.891,989.571 609.063,988.189 613.234,986.813 617.406,985.445 621.577,984.084 625.749,982.73 629.92,981.382 634.092,980.041 638.263,978.707 642.435,977.378 646.606,976.057 650.778,974.741 654.949,973.431 659.121,972.128 663.292,970.83 667.464,969.539 671.635,968.253 675.807,966.973 679.978,965.698 684.15,964.43 688.321,963.166 692.493,961.908 696.664,960.656 700.836,959.408 705.007,958.166 709.179,956.93 713.351,955.698 717.522,954.471 721.694,953.249 725.865,952.032 730.037,950.82 734.208,949.613 738.38,948.411 742.551,947.213 746.723,946.02 750.894,944.831 755.066,943.647 759.237,942.468 763.409,941.293 767.58,940.122 771.752,938.956 775.923,937.794 780.095,936.636 784.266,935.482 788.438,934.332 792.609,933.187 796.781,932.046 800.952,930.908 805.124,929.775 809.295,928.645 813.467,927.52 817.638,926.398 821.81,925.28 825.981,924.166 830.153,923.055 834.324,921.949 838.496,920.845 842.667,919.746 846.839,918.65 851.01,917.558 855.182,916.469 859.354,915.384 863.525,914.302 867.697,913.223 871.868,912.148 876.04,911.077 880.211,910.008 884.383,908.943 888.554,907.881 892.726,906.823 896.897,905.767 901.069,904.715 905.24,903.666 909.412,902.62 913.583,901.577 917.755,900.537 921.926,899.5 926.098,898.467 930.269,897.436 934.441,896.408 938.612,895.383 942.784,894.361 946.955,893.342 951.127,892.326 955.298,891.312 959.47,890.302 963.641,889.294 967.813,888.289 971.984,887.287 976.156,886.287 980.327,885.29 984.499,884.296 988.67,883.304 992.842,882.316 997.014,881.329 1001.19,880.346 1005.36,879.364 1009.53,878.386 1013.7,877.41 1017.87,876.436 1022.04,875.465 1026.21,874.497 1030.39,873.53 1034.56,872.567 1038.73,871.605 1042.9,870.647 1047.07,869.69 1051.24,868.736 1055.41,867.784 1059.59,866.835 1063.76,865.888 1067.93,864.943 1072.1,864 1076.27,863.06 1080.44,862.122 1084.62,861.186 1088.79,860.252 1092.96,859.321 1097.13,858.392 1101.3,857.465 1105.47,856.54 1109.64,855.617 1113.82,854.697 1117.99,853.778 1122.16,852.862 1126.33,851.947 1130.5,851.035 1134.67,850.125 1138.85,849.217 1143.02,848.31 1147.19,847.406 1151.36,846.504 1155.53,845.604 1159.7,844.706 1163.87,843.809 1168.05,842.915 1172.22,842.023 1176.39,841.132 1180.56,840.244 1184.73,839.357 1188.9,838.472 1193.07,837.59 1197.25,836.709 1201.42,835.829 1205.59,834.952 1209.76,834.076 1213.93,833.203 1218.1,832.331 1222.28,831.461 1226.45,830.593 1230.62,829.726 1234.79,828.861 1238.96,827.998 1243.13,827.137 1247.3,826.277 1251.48,825.419 1255.65,824.563 1259.82,823.709 1263.99,822.856 1268.16,822.005 1272.33,821.156 1276.51,820.308 1280.68,819.462 1284.85,818.617 1289.02,817.774 1293.19,816.933 1297.36,816.094 1301.53,815.256 1305.71,814.419 1309.88,813.584 1314.05,812.751 1318.22,811.919 1322.39,811.089 1326.56,810.261 1330.73,809.433 1334.91,808.608 1339.08,807.784 1343.25,806.961 1347.42,806.14 1351.59,805.321 1355.76,804.503 1359.94,803.686 1364.11,802.871 1368.28,802.058 1372.45,801.246 1376.62,800.435 1380.79,799.626 1384.96,798.818 1389.14,798.012 1393.31,797.207 1397.48,796.403 1401.65,795.601 1405.82,794.8 1409.99,794.001 1414.17,793.203 1418.34,792.406 1422.51,791.611 1426.68,790.817 1430.85,790.025 1435.02,789.233 1439.19,788.444 1443.37,787.655 1447.54,786.868 1451.71,786.082 1455.88,785.297 1460.05,784.514 1464.22,783.732 1468.39,782.952 1472.57,782.172 1476.74,781.394 1480.91,780.617 1485.08,779.842 1489.25,779.068 1493.42,778.295 1497.6,777.523 1501.77,776.752 1505.94,775.983 1510.11,775.215 1514.28,774.448 1518.45,773.682 1522.62,772.918 1526.8,772.155 1530.97,771.393 1535.14,770.632 1539.31,769.873 1543.48,769.114 1547.65,768.357 1551.83,767.601 1556,766.846 1560.17,766.092 1564.34,765.34 1568.51,764.588 1572.68,763.838 1576.85,763.089 1581.03,762.341 1585.2,761.594 1589.37,760.848 1593.54,760.104 1597.71,759.36 1601.88,758.618 1606.05,757.877 1610.23,757.137 1614.4,756.397 1618.57,755.659 1622.74,754.923 1626.91,754.187 1631.08,753.452 1635.26,752.718 1639.43,751.986 1643.6,751.254 1647.77,750.524 1651.94,749.795 1656.11,749.066 1660.28,748.339 1664.46,747.613 1668.63,746.887 1672.8,746.163 1676.97,745.44 1681.14,744.718 1685.31,743.997 1689.49,743.277 1693.66,742.558 1697.83,741.839 1702,741.122 1706.17,740.406 1710.34,739.691 1714.51,738.977 1718.69,738.264 1722.86,737.552 1727.03,736.841 1731.2,736.13 1735.37,735.421 1739.54,734.713 1743.71,734.006 1747.89,733.299 1752.06,732.594 1756.23,731.89 1760.4,731.186 1764.57,730.484 1768.74,729.782 1772.92,729.081 1777.09,728.382 1781.26,727.683 1785.43,726.985 1789.6,726.288 1793.77,725.592 1797.94,724.897 1802.12,724.202 1806.29,723.509 1810.46,722.817 1814.63,722.125 1818.8,721.435 1822.97,720.745 1827.15,720.056 1831.32,719.368 1835.49,718.681 1839.66,717.995 1843.83,717.309 1848,716.625 1852.17,715.941 1856.35,715.259 1860.52,714.577 1864.69,713.896 1868.86,713.216 1873.03,712.536 1877.2,711.858 1881.37,711.18 1885.55,710.504 1889.72,709.828 1893.89,709.153 1898.06,708.478 1902.23,707.805 1906.4,707.132 1910.58,706.461 1914.75,705.79 1918.92,705.119 1923.09,704.45 1927.26,703.782 1931.43,703.114 1935.6,702.447 1939.78,701.781 1943.95,701.116 1948.12,700.451 1952.29,699.788 1956.46,699.125 1960.63,698.463 1964.81,697.801 1968.98,697.141 1973.15,696.481 1977.32,695.822 1981.49,695.164 1985.66,694.506 1989.83,693.85 1994.01,693.194 1998.18,692.538 2002.35,691.884 2006.52,691.23 2010.69,690.578 2014.86,689.926 2019.03,689.274 2023.21,688.624 2027.38,687.974 2031.55,687.325 2035.72,686.676 2039.89,686.029 2044.06,685.382 2048.24,684.735 2052.41,684.09 2056.58,683.445 2060.75,682.801 2064.92,682.158 2069.09,681.515 2073.26,680.874 2077.44,680.233 2081.61,679.592 2085.78,678.952 2089.95,678.313 2094.12,677.675 2098.29,677.038 2102.47,676.401 2106.64,675.765 2110.81,675.129 2114.98,674.494 2119.15,673.86 2123.32,673.227 2127.49,672.594 2131.67,671.962 2135.84,671.331 2140.01,670.7 2144.18,670.07 2148.35,669.441 2152.52,668.812 2156.69,668.184 2160.87,667.557 2165.04,666.93 2169.21,666.304 2173.38,665.679 2177.55,665.055 2181.72,664.431 2185.9,663.807 2190.07,663.185 2194.24,662.563 2198.41,661.941 2202.58,661.321 2206.75,660.701 2210.92,660.081 2215.1,659.462 2219.27,658.844 2223.44,658.227 2227.61,657.61 2231.78,656.994 2235.95,656.378 2240.12,655.763 2244.3,655.149 2248.47,654.535 2252.64,653.922 2256.81,653.31 2260.98,652.698 2265.15,652.087 2269.33,651.476 2273.5,650.866 2277.67,650.257 2281.84,649.648 2286.01,649.04 2290.18,648.433 "/>
<path clip-path="url(#clip260)" d="M215.55 250.738 L684.046 250.738 L684.046 95.2176 L215.55 95.2176  Z" fill="#ffffff" fill-rule="evenodd" fill-opacity="1"/>
<polyline clip-path="url(#clip260)" style="stroke:#000000; stroke-linecap:round; stroke-linejoin:round; stroke-width:4; stroke-opacity:1; fill:none" points="215.55,250.738 684.046,250.738 684.046,95.2176 215.55,95.2176 215.55,250.738 "/>
<polyline clip-path="url(#clip260)" style="stroke:#009af9; stroke-linecap:round; stroke-linejoin:round; stroke-width:4; stroke-opacity:1; fill:none" points="240.115,147.058 387.509,147.058 "/>
<path clip-path="url(#clip260)" d="M436.102 150.31 L436.102 152.393 L416.519 152.393 Q416.797 156.791 419.158 159.106 Q421.542 161.398 425.778 161.398 Q428.232 161.398 430.523 160.796 Q432.838 160.194 435.107 158.99 L435.107 163.018 Q432.815 163.99 430.408 164.5 Q428 165.009 425.523 165.009 Q419.32 165.009 415.686 161.398 Q412.074 157.787 412.074 151.629 Q412.074 145.264 415.5 141.537 Q418.949 137.787 424.783 137.787 Q430.014 137.787 433.047 141.166 Q436.102 144.523 436.102 150.31 M431.843 149.06 Q431.797 145.565 429.875 143.481 Q427.977 141.398 424.829 141.398 Q421.264 141.398 419.111 143.412 Q416.982 145.426 416.658 149.083 L431.843 149.06 Z" fill="#000000" fill-rule="nonzero" fill-opacity="1" /><path clip-path="url(#clip260)" d="M445.639 151.398 Q445.639 156.097 447.56 158.782 Q449.505 161.444 452.884 161.444 Q456.264 161.444 458.208 158.782 Q460.153 156.097 460.153 151.398 Q460.153 146.699 458.208 144.037 Q456.264 141.352 452.884 141.352 Q449.505 141.352 447.56 144.037 Q445.639 146.699 445.639 151.398 M460.153 160.449 Q458.81 162.763 456.75 163.898 Q454.713 165.009 451.843 165.009 Q447.144 165.009 444.181 161.259 Q441.241 157.509 441.241 151.398 Q441.241 145.287 444.181 141.537 Q447.144 137.787 451.843 137.787 Q454.713 137.787 456.75 138.921 Q458.81 140.032 460.153 142.347 L460.153 138.412 L464.412 138.412 L464.412 174.199 L460.153 174.199 L460.153 160.449 Z" fill="#000000" fill-rule="nonzero" fill-opacity="1" /><path clip-path="url(#clip260)" d="M472.745 154.106 L472.745 138.412 L477.005 138.412 L477.005 153.944 Q477.005 157.625 478.44 159.476 Q479.875 161.305 482.745 161.305 Q486.194 161.305 488.185 159.106 Q490.199 156.907 490.199 153.111 L490.199 138.412 L494.458 138.412 L494.458 164.338 L490.199 164.338 L490.199 160.356 Q488.648 162.717 486.588 163.875 Q484.551 165.009 481.843 165.009 Q477.375 165.009 475.06 162.231 Q472.745 159.453 472.745 154.106 M483.463 137.787 L483.463 137.787 Z" fill="#000000" fill-rule="nonzero" fill-opacity="1" /><path clip-path="url(#clip260)" d="M515.014 151.305 Q509.852 151.305 507.861 152.486 Q505.87 153.666 505.87 156.514 Q505.87 158.782 507.352 160.125 Q508.856 161.444 511.426 161.444 Q514.967 161.444 517.097 158.944 Q519.25 156.421 519.25 152.254 L519.25 151.305 L515.014 151.305 M523.509 149.546 L523.509 164.338 L519.25 164.338 L519.25 160.402 Q517.791 162.763 515.616 163.898 Q513.44 165.009 510.291 165.009 Q506.31 165.009 503.949 162.787 Q501.611 160.541 501.611 156.791 Q501.611 152.416 504.528 150.194 Q507.467 147.972 513.278 147.972 L519.25 147.972 L519.25 147.555 Q519.25 144.615 517.305 143.018 Q515.384 141.398 511.889 141.398 Q509.666 141.398 507.56 141.93 Q505.454 142.463 503.509 143.527 L503.509 139.592 Q505.847 138.69 508.046 138.25 Q510.245 137.787 512.329 137.787 Q517.953 137.787 520.731 140.703 Q523.509 143.62 523.509 149.546 Z" fill="#000000" fill-rule="nonzero" fill-opacity="1" /><path clip-path="url(#clip260)" d="M536.495 131.051 L536.495 138.412 L545.268 138.412 L545.268 141.722 L536.495 141.722 L536.495 155.796 Q536.495 158.967 537.352 159.87 Q538.231 160.773 540.893 160.773 L545.268 160.773 L545.268 164.338 L540.893 164.338 Q535.963 164.338 534.088 162.509 Q532.213 160.657 532.213 155.796 L532.213 141.722 L529.088 141.722 L529.088 138.412 L532.213 138.412 L532.213 131.051 L536.495 131.051 Z" fill="#000000" fill-rule="nonzero" fill-opacity="1" /><path clip-path="url(#clip260)" d="M550.87 138.412 L555.129 138.412 L555.129 164.338 L550.87 164.338 L550.87 138.412 M550.87 128.319 L555.129 128.319 L555.129 133.713 L550.87 133.713 L550.87 128.319 Z" fill="#000000" fill-rule="nonzero" fill-opacity="1" /><path clip-path="url(#clip260)" d="M574.087 141.398 Q570.662 141.398 568.671 144.083 Q566.68 146.745 566.68 151.398 Q566.68 156.051 568.648 158.736 Q570.638 161.398 574.087 161.398 Q577.49 161.398 579.481 158.713 Q581.472 156.027 581.472 151.398 Q581.472 146.791 579.481 144.106 Q577.49 141.398 574.087 141.398 M574.087 137.787 Q579.643 137.787 582.814 141.398 Q585.986 145.009 585.986 151.398 Q585.986 157.764 582.814 161.398 Q579.643 165.009 574.087 165.009 Q568.509 165.009 565.337 161.398 Q562.189 157.764 562.189 151.398 Q562.189 145.009 565.337 141.398 Q568.509 137.787 574.087 137.787 Z" fill="#000000" fill-rule="nonzero" fill-opacity="1" /><path clip-path="url(#clip260)" d="M614.596 148.689 L614.596 164.338 L610.337 164.338 L610.337 148.828 Q610.337 145.148 608.902 143.319 Q607.467 141.49 604.597 141.49 Q601.147 141.49 599.157 143.69 Q597.166 145.889 597.166 149.685 L597.166 164.338 L592.884 164.338 L592.884 138.412 L597.166 138.412 L597.166 142.44 Q598.694 140.102 600.754 138.944 Q602.837 137.787 605.546 137.787 Q610.013 137.787 612.305 140.565 Q614.596 143.319 614.596 148.689 Z" fill="#000000" fill-rule="nonzero" fill-opacity="1" /><path clip-path="url(#clip260)" d="M639.573 160.402 L647.212 160.402 L647.212 134.037 L638.902 135.703 L638.902 131.444 L647.166 129.778 L651.842 129.778 L651.842 160.402 L659.48 160.402 L659.48 164.338 L639.573 164.338 L639.573 160.402 Z" fill="#000000" fill-rule="nonzero" fill-opacity="1" /><polyline clip-path="url(#clip260)" style="stroke:#e26f46; stroke-linecap:round; stroke-linejoin:round; stroke-width:4; stroke-opacity:1; fill:none" points="240.115,198.898 387.509,198.898 "/>
<path clip-path="url(#clip260)" d="M436.102 202.15 L436.102 204.233 L416.519 204.233 Q416.797 208.631 419.158 210.946 Q421.542 213.238 425.778 213.238 Q428.232 213.238 430.523 212.636 Q432.838 212.034 435.107 210.83 L435.107 214.858 Q432.815 215.83 430.408 216.34 Q428 216.849 425.523 216.849 Q419.32 216.849 415.686 213.238 Q412.074 209.627 412.074 203.469 Q412.074 197.104 415.5 193.377 Q418.949 189.627 424.783 189.627 Q430.014 189.627 433.047 193.006 Q436.102 196.363 436.102 202.15 M431.843 200.9 Q431.797 197.405 429.875 195.321 Q427.977 193.238 424.829 193.238 Q421.264 193.238 419.111 195.252 Q416.982 197.266 416.658 200.923 L431.843 200.9 Z" fill="#000000" fill-rule="nonzero" fill-opacity="1" /><path clip-path="url(#clip260)" d="M445.639 203.238 Q445.639 207.937 447.56 210.622 Q449.505 213.284 452.884 213.284 Q456.264 213.284 458.208 210.622 Q460.153 207.937 460.153 203.238 Q460.153 198.539 458.208 195.877 Q456.264 193.192 452.884 193.192 Q449.505 193.192 447.56 195.877 Q445.639 198.539 445.639 203.238 M460.153 212.289 Q458.81 214.603 456.75 215.738 Q454.713 216.849 451.843 216.849 Q447.144 216.849 444.181 213.099 Q441.241 209.349 441.241 203.238 Q441.241 197.127 444.181 193.377 Q447.144 189.627 451.843 189.627 Q454.713 189.627 456.75 190.761 Q458.81 191.872 460.153 194.187 L460.153 190.252 L464.412 190.252 L464.412 226.039 L460.153 226.039 L460.153 212.289 Z" fill="#000000" fill-rule="nonzero" fill-opacity="1" /><path clip-path="url(#clip260)" d="M472.745 205.946 L472.745 190.252 L477.005 190.252 L477.005 205.784 Q477.005 209.465 478.44 211.316 Q479.875 213.145 482.745 213.145 Q486.194 213.145 488.185 210.946 Q490.199 208.747 490.199 204.951 L490.199 190.252 L494.458 190.252 L494.458 216.178 L490.199 216.178 L490.199 212.196 Q488.648 214.557 486.588 215.715 Q484.551 216.849 481.843 216.849 Q477.375 216.849 475.06 214.071 Q472.745 211.293 472.745 205.946 M483.463 189.627 L483.463 189.627 Z" fill="#000000" fill-rule="nonzero" fill-opacity="1" /><path clip-path="url(#clip260)" d="M515.014 203.145 Q509.852 203.145 507.861 204.326 Q505.87 205.506 505.87 208.354 Q505.87 210.622 507.352 211.965 Q508.856 213.284 511.426 213.284 Q514.967 213.284 517.097 210.784 Q519.25 208.261 519.25 204.094 L519.25 203.145 L515.014 203.145 M523.509 201.386 L523.509 216.178 L519.25 216.178 L519.25 212.242 Q517.791 214.603 515.616 215.738 Q513.44 216.849 510.291 216.849 Q506.31 216.849 503.949 214.627 Q501.611 212.381 501.611 208.631 Q501.611 204.256 504.528 202.034 Q507.467 199.812 513.278 199.812 L519.25 199.812 L519.25 199.395 Q519.25 196.455 517.305 194.858 Q515.384 193.238 511.889 193.238 Q509.666 193.238 507.56 193.77 Q505.454 194.303 503.509 195.367 L503.509 191.432 Q505.847 190.53 508.046 190.09 Q510.245 189.627 512.329 189.627 Q517.953 189.627 520.731 192.543 Q523.509 195.46 523.509 201.386 Z" fill="#000000" fill-rule="nonzero" fill-opacity="1" /><path clip-path="url(#clip260)" d="M536.495 182.891 L536.495 190.252 L545.268 190.252 L545.268 193.562 L536.495 193.562 L536.495 207.636 Q536.495 210.807 537.352 211.71 Q538.231 212.613 540.893 212.613 L545.268 212.613 L545.268 216.178 L540.893 216.178 Q535.963 216.178 534.088 214.349 Q532.213 212.497 532.213 207.636 L532.213 193.562 L529.088 193.562 L529.088 190.252 L532.213 190.252 L532.213 182.891 L536.495 182.891 Z" fill="#000000" fill-rule="nonzero" fill-opacity="1" /><path clip-path="url(#clip260)" d="M550.87 190.252 L555.129 190.252 L555.129 216.178 L550.87 216.178 L550.87 190.252 M550.87 180.159 L555.129 180.159 L555.129 185.553 L550.87 185.553 L550.87 180.159 Z" fill="#000000" fill-rule="nonzero" fill-opacity="1" /><path clip-path="url(#clip260)" d="M574.087 193.238 Q570.662 193.238 568.671 195.923 Q566.68 198.585 566.68 203.238 Q566.68 207.891 568.648 210.576 Q570.638 213.238 574.087 213.238 Q577.49 213.238 579.481 210.553 Q581.472 207.867 581.472 203.238 Q581.472 198.631 579.481 195.946 Q577.49 193.238 574.087 193.238 M574.087 189.627 Q579.643 189.627 582.814 193.238 Q585.986 196.849 585.986 203.238 Q585.986 209.604 582.814 213.238 Q579.643 216.849 574.087 216.849 Q568.509 216.849 565.337 213.238 Q562.189 209.604 562.189 203.238 Q562.189 196.849 565.337 193.238 Q568.509 189.627 574.087 189.627 Z" fill="#000000" fill-rule="nonzero" fill-opacity="1" /><path clip-path="url(#clip260)" d="M614.596 200.529 L614.596 216.178 L610.337 216.178 L610.337 200.668 Q610.337 196.988 608.902 195.159 Q607.467 193.33 604.597 193.33 Q601.147 193.33 599.157 195.53 Q597.166 197.729 597.166 201.525 L597.166 216.178 L592.884 216.178 L592.884 190.252 L597.166 190.252 L597.166 194.28 Q598.694 191.942 600.754 190.784 Q602.837 189.627 605.546 189.627 Q610.013 189.627 612.305 192.405 Q614.596 195.159 614.596 200.529 Z" fill="#000000" fill-rule="nonzero" fill-opacity="1" /><path clip-path="url(#clip260)" d="M642.791 212.242 L659.11 212.242 L659.11 216.178 L637.166 216.178 L637.166 212.242 Q639.828 209.488 644.411 204.858 Q649.018 200.205 650.198 198.863 Q652.443 196.34 653.323 194.604 Q654.226 192.844 654.226 191.155 Q654.226 188.4 652.281 186.664 Q650.36 184.928 647.258 184.928 Q645.059 184.928 642.606 185.692 Q640.175 186.455 637.397 188.006 L637.397 183.284 Q640.221 182.15 642.675 181.571 Q645.129 180.993 647.166 180.993 Q652.536 180.993 655.731 183.678 Q658.925 186.363 658.925 190.854 Q658.925 192.983 658.115 194.905 Q657.328 196.803 655.221 199.395 Q654.643 200.067 651.541 203.284 Q648.439 206.479 642.791 212.242 Z" fill="#000000" fill-rule="nonzero" fill-opacity="1" /></svg>
