<?xml version="1.0" encoding="utf-8"?>
<svg xmlns="http://www.w3.org/2000/svg" xmlns:xlink="http://www.w3.org/1999/xlink" width="600" height="400" viewBox="0 0 2400 1600">
<defs>
  <clipPath id="clip140">
    <rect x="0" y="0" width="2400" height="1600"/>
  </clipPath>
</defs>
<path clip-path="url(#clip140)" d="M0 1600 L2400 1600 L2400 0 L0 0  Z" fill="#ffffff" fill-rule="evenodd" fill-opacity="1"/>
<defs>
  <clipPath id="clip141">
    <rect x="480" y="0" width="1681" height="1600"/>
  </clipPath>
</defs>
<path clip-path="url(#clip140)" d="M156.598 1486.45 L2352.76 1486.45 L2352.76 47.2441 L156.598 47.2441  Z" fill="#ffffff" fill-rule="evenodd" fill-opacity="1"/>
<defs>
  <clipPath id="clip142">
    <rect x="156" y="47" width="2197" height="1440"/>
  </clipPath>
</defs>
<polyline clip-path="url(#clip142)" style="stroke:#000000; stroke-linecap:round; stroke-linejoin:round; stroke-width:2; stroke-opacity:0.1; fill:none" points="218.754,1486.45 218.754,47.2441 "/>
<polyline clip-path="url(#clip142)" style="stroke:#000000; stroke-linecap:round; stroke-linejoin:round; stroke-width:2; stroke-opacity:0.1; fill:none" points="736.715,1486.45 736.715,47.2441 "/>
<polyline clip-path="url(#clip142)" style="stroke:#000000; stroke-linecap:round; stroke-linejoin:round; stroke-width:2; stroke-opacity:0.1; fill:none" points="1254.68,1486.45 1254.68,47.2441 "/>
<polyline clip-path="url(#clip142)" style="stroke:#000000; stroke-linecap:round; stroke-linejoin:round; stroke-width:2; stroke-opacity:0.1; fill:none" points="1772.64,1486.45 1772.64,47.2441 "/>
<polyline clip-path="url(#clip142)" style="stroke:#000000; stroke-linecap:round; stroke-linejoin:round; stroke-width:2; stroke-opacity:0.1; fill:none" points="2290.6,1486.45 2290.6,47.2441 "/>
<polyline clip-path="url(#clip140)" style="stroke:#000000; stroke-linecap:round; stroke-linejoin:round; stroke-width:4; stroke-opacity:1; fill:none" points="156.598,1486.45 2352.76,1486.45 "/>
<polyline clip-path="url(#clip140)" style="stroke:#000000; stroke-linecap:round; stroke-linejoin:round; stroke-width:4; stroke-opacity:1; fill:none" points="218.754,1486.45 218.754,1467.55 "/>
<polyline clip-path="url(#clip140)" style="stroke:#000000; stroke-linecap:round; stroke-linejoin:round; stroke-width:4; stroke-opacity:1; fill:none" points="736.715,1486.45 736.715,1467.55 "/>
<polyline clip-path="url(#clip140)" style="stroke:#000000; stroke-linecap:round; stroke-linejoin:round; stroke-width:4; stroke-opacity:1; fill:none" points="1254.68,1486.45 1254.68,1467.55 "/>
<polyline clip-path="url(#clip140)" style="stroke:#000000; stroke-linecap:round; stroke-linejoin:round; stroke-width:4; stroke-opacity:1; fill:none" points="1772.64,1486.45 1772.64,1467.55 "/>
<polyline clip-path="url(#clip140)" style="stroke:#000000; stroke-linecap:round; stroke-linejoin:round; stroke-width:4; stroke-opacity:1; fill:none" points="2290.6,1486.45 2290.6,1467.55 "/>
<path clip-path="url(#clip140)" d="M218.754 1517.37 Q215.143 1517.37 213.314 1520.93 Q211.508 1524.47 211.508 1531.6 Q211.508 1538.71 213.314 1542.27 Q215.143 1545.82 218.754 1545.82 Q222.388 1545.82 224.193 1542.27 Q226.022 1538.71 226.022 1531.6 Q226.022 1524.47 224.193 1520.93 Q222.388 1517.37 218.754 1517.37 M218.754 1513.66 Q224.564 1513.66 227.619 1518.27 Q230.698 1522.85 230.698 1531.6 Q230.698 1540.33 227.619 1544.94 Q224.564 1549.52 218.754 1549.52 Q212.943 1549.52 209.865 1544.94 Q206.809 1540.33 206.809 1531.6 Q206.809 1522.85 209.865 1518.27 Q212.943 1513.66 218.754 1513.66 Z" fill="#000000" fill-rule="nonzero" fill-opacity="1" /><path clip-path="url(#clip140)" d="M726.993 1514.29 L745.35 1514.29 L745.35 1518.22 L731.276 1518.22 L731.276 1526.7 Q732.294 1526.35 733.313 1526.19 Q734.331 1526 735.35 1526 Q741.137 1526 744.516 1529.17 Q747.896 1532.34 747.896 1537.76 Q747.896 1543.34 744.424 1546.44 Q740.951 1549.52 734.632 1549.52 Q732.456 1549.52 730.188 1549.15 Q727.942 1548.78 725.535 1548.04 L725.535 1543.34 Q727.618 1544.47 729.84 1545.03 Q732.063 1545.58 734.539 1545.58 Q738.544 1545.58 740.882 1543.48 Q743.22 1541.37 743.22 1537.76 Q743.22 1534.15 740.882 1532.04 Q738.544 1529.94 734.539 1529.94 Q732.664 1529.94 730.789 1530.35 Q728.938 1530.77 726.993 1531.65 L726.993 1514.29 Z" fill="#000000" fill-rule="nonzero" fill-opacity="1" /><path clip-path="url(#clip140)" d="M1229.36 1544.91 L1237 1544.91 L1237 1518.55 L1228.69 1520.21 L1228.69 1515.95 L1236.96 1514.29 L1241.63 1514.29 L1241.63 1544.91 L1249.27 1544.91 L1249.27 1548.85 L1229.36 1548.85 L1229.36 1544.91 Z" fill="#000000" fill-rule="nonzero" fill-opacity="1" /><path clip-path="url(#clip140)" d="M1268.72 1517.37 Q1265.11 1517.37 1263.28 1520.93 Q1261.47 1524.47 1261.47 1531.6 Q1261.47 1538.71 1263.28 1542.27 Q1265.11 1545.82 1268.72 1545.82 Q1272.35 1545.82 1274.16 1542.27 Q1275.98 1538.71 1275.98 1531.6 Q1275.98 1524.47 1274.16 1520.93 Q1272.35 1517.37 1268.72 1517.37 M1268.72 1513.66 Q1274.53 1513.66 1277.58 1518.27 Q1280.66 1522.85 1280.66 1531.6 Q1280.66 1540.33 1277.58 1544.94 Q1274.53 1549.52 1268.72 1549.52 Q1262.91 1549.52 1259.83 1544.94 Q1256.77 1540.33 1256.77 1531.6 Q1256.77 1522.85 1259.83 1518.27 Q1262.91 1513.66 1268.72 1513.66 Z" fill="#000000" fill-rule="nonzero" fill-opacity="1" /><path clip-path="url(#clip140)" d="M1747.82 1544.91 L1755.46 1544.91 L1755.46 1518.55 L1747.15 1520.21 L1747.15 1515.95 L1755.42 1514.29 L1760.09 1514.29 L1760.09 1544.91 L1767.73 1544.91 L1767.73 1548.85 L1747.82 1548.85 L1747.82 1544.91 Z" fill="#000000" fill-rule="nonzero" fill-opacity="1" /><path clip-path="url(#clip140)" d="M1777.22 1514.29 L1795.58 1514.29 L1795.58 1518.22 L1781.5 1518.22 L1781.5 1526.7 Q1782.52 1526.35 1783.54 1526.19 Q1784.56 1526 1785.58 1526 Q1791.37 1526 1794.75 1529.17 Q1798.12 1532.34 1798.12 1537.76 Q1798.12 1543.34 1794.65 1546.44 Q1791.18 1549.52 1784.86 1549.52 Q1782.69 1549.52 1780.42 1549.15 Q1778.17 1548.78 1775.76 1548.04 L1775.76 1543.34 Q1777.85 1544.47 1780.07 1545.03 Q1782.29 1545.58 1784.77 1545.58 Q1788.77 1545.58 1791.11 1543.48 Q1793.45 1541.37 1793.45 1537.76 Q1793.45 1534.15 1791.11 1532.04 Q1788.77 1529.94 1784.77 1529.94 Q1782.89 1529.94 1781.02 1530.35 Q1779.17 1530.77 1777.22 1531.65 L1777.22 1514.29 Z" fill="#000000" fill-rule="nonzero" fill-opacity="1" /><path clip-path="url(#clip140)" d="M2269.37 1544.91 L2285.69 1544.91 L2285.69 1548.85 L2263.75 1548.85 L2263.75 1544.91 Q2266.41 1542.16 2270.99 1537.53 Q2275.6 1532.88 2276.78 1531.53 Q2279.03 1529.01 2279.91 1527.27 Q2280.81 1525.51 2280.81 1523.82 Q2280.81 1521.07 2278.86 1519.33 Q2276.94 1517.6 2273.84 1517.6 Q2271.64 1517.6 2269.19 1518.36 Q2266.76 1519.13 2263.98 1520.68 L2263.98 1515.95 Q2266.8 1514.82 2269.26 1514.24 Q2271.71 1513.66 2273.75 1513.66 Q2279.12 1513.66 2282.31 1516.35 Q2285.51 1519.03 2285.51 1523.52 Q2285.51 1525.65 2284.7 1527.57 Q2283.91 1529.47 2281.8 1532.07 Q2281.23 1532.74 2278.12 1535.95 Q2275.02 1539.15 2269.37 1544.91 Z" fill="#000000" fill-rule="nonzero" fill-opacity="1" /><path clip-path="url(#clip140)" d="M2305.51 1517.37 Q2301.9 1517.37 2300.07 1520.93 Q2298.26 1524.47 2298.26 1531.6 Q2298.26 1538.71 2300.07 1542.27 Q2301.9 1545.82 2305.51 1545.82 Q2309.14 1545.82 2310.95 1542.27 Q2312.78 1538.71 2312.78 1531.6 Q2312.78 1524.47 2310.95 1520.93 Q2309.14 1517.37 2305.51 1517.37 M2305.51 1513.66 Q2311.32 1513.66 2314.37 1518.27 Q2317.45 1522.85 2317.45 1531.6 Q2317.45 1540.33 2314.37 1544.94 Q2311.32 1549.52 2305.51 1549.52 Q2299.7 1549.52 2296.62 1544.94 Q2293.56 1540.33 2293.56 1531.6 Q2293.56 1522.85 2296.62 1518.27 Q2299.7 1513.66 2305.51 1513.66 Z" fill="#000000" fill-rule="nonzero" fill-opacity="1" /><polyline clip-path="url(#clip142)" style="stroke:#000000; stroke-linecap:round; stroke-linejoin:round; stroke-width:2; stroke-opacity:0.1; fill:none" points="156.598,1445.72 2352.76,1445.72 "/>
<polyline clip-path="url(#clip142)" style="stroke:#000000; stroke-linecap:round; stroke-linejoin:round; stroke-width:2; stroke-opacity:0.1; fill:none" points="156.598,1240.32 2352.76,1240.32 "/>
<polyline clip-path="url(#clip142)" style="stroke:#000000; stroke-linecap:round; stroke-linejoin:round; stroke-width:2; stroke-opacity:0.1; fill:none" points="156.598,1034.93 2352.76,1034.93 "/>
<polyline clip-path="url(#clip142)" style="stroke:#000000; stroke-linecap:round; stroke-linejoin:round; stroke-width:2; stroke-opacity:0.1; fill:none" points="156.598,829.539 2352.76,829.539 "/>
<polyline clip-path="url(#clip142)" style="stroke:#000000; stroke-linecap:round; stroke-linejoin:round; stroke-width:2; stroke-opacity:0.1; fill:none" points="156.598,624.147 2352.76,624.147 "/>
<polyline clip-path="url(#clip142)" style="stroke:#000000; stroke-linecap:round; stroke-linejoin:round; stroke-width:2; stroke-opacity:0.1; fill:none" points="156.598,418.754 2352.76,418.754 "/>
<polyline clip-path="url(#clip142)" style="stroke:#000000; stroke-linecap:round; stroke-linejoin:round; stroke-width:2; stroke-opacity:0.1; fill:none" points="156.598,213.362 2352.76,213.362 "/>
<polyline clip-path="url(#clip140)" style="stroke:#000000; stroke-linecap:round; stroke-linejoin:round; stroke-width:4; stroke-opacity:1; fill:none" points="156.598,1486.45 156.598,47.2441 "/>
<polyline clip-path="url(#clip140)" style="stroke:#000000; stroke-linecap:round; stroke-linejoin:round; stroke-width:4; stroke-opacity:1; fill:none" points="156.598,1445.72 175.496,1445.72 "/>
<polyline clip-path="url(#clip140)" style="stroke:#000000; stroke-linecap:round; stroke-linejoin:round; stroke-width:4; stroke-opacity:1; fill:none" points="156.598,1240.32 175.496,1240.32 "/>
<polyline clip-path="url(#clip140)" style="stroke:#000000; stroke-linecap:round; stroke-linejoin:round; stroke-width:4; stroke-opacity:1; fill:none" points="156.598,1034.93 175.496,1034.93 "/>
<polyline clip-path="url(#clip140)" style="stroke:#000000; stroke-linecap:round; stroke-linejoin:round; stroke-width:4; stroke-opacity:1; fill:none" points="156.598,829.539 175.496,829.539 "/>
<polyline clip-path="url(#clip140)" style="stroke:#000000; stroke-linecap:round; stroke-linejoin:round; stroke-width:4; stroke-opacity:1; fill:none" points="156.598,624.147 175.496,624.147 "/>
<polyline clip-path="url(#clip140)" style="stroke:#000000; stroke-linecap:round; stroke-linejoin:round; stroke-width:4; stroke-opacity:1; fill:none" points="156.598,418.754 175.496,418.754 "/>
<polyline clip-path="url(#clip140)" style="stroke:#000000; stroke-linecap:round; stroke-linejoin:round; stroke-width:4; stroke-opacity:1; fill:none" points="156.598,213.362 175.496,213.362 "/>
<path clip-path="url(#clip140)" d="M63.4226 1431.51 Q59.8115 1431.51 57.9828 1435.08 Q56.1773 1438.62 56.1773 1445.75 Q56.1773 1452.86 57.9828 1456.42 Q59.8115 1459.96 63.4226 1459.96 Q67.0569 1459.96 68.8624 1456.42 Q70.6911 1452.86 70.6911 1445.75 Q70.6911 1438.62 68.8624 1435.08 Q67.0569 1431.51 63.4226 1431.51 M63.4226 1427.81 Q69.2328 1427.81 72.2883 1432.42 Q75.367 1437 75.367 1445.75 Q75.367 1454.48 72.2883 1459.08 Q69.2328 1463.67 63.4226 1463.67 Q57.6125 1463.67 54.5338 1459.08 Q51.4782 1454.48 51.4782 1445.75 Q51.4782 1437 54.5338 1432.42 Q57.6125 1427.81 63.4226 1427.81 Z" fill="#000000" fill-rule="nonzero" fill-opacity="1" /><path clip-path="url(#clip140)" d="M83.5845 1457.12 L88.4688 1457.12 L88.4688 1463 L83.5845 1463 L83.5845 1457.12 Z" fill="#000000" fill-rule="nonzero" fill-opacity="1" /><path clip-path="url(#clip140)" d="M108.654 1431.51 Q105.043 1431.51 103.214 1435.08 Q101.409 1438.62 101.409 1445.75 Q101.409 1452.86 103.214 1456.42 Q105.043 1459.96 108.654 1459.96 Q112.288 1459.96 114.094 1456.42 Q115.922 1452.86 115.922 1445.75 Q115.922 1438.62 114.094 1435.08 Q112.288 1431.51 108.654 1431.51 M108.654 1427.81 Q114.464 1427.81 117.52 1432.42 Q120.598 1437 120.598 1445.75 Q120.598 1454.48 117.52 1459.08 Q114.464 1463.67 108.654 1463.67 Q102.844 1463.67 99.765 1459.08 Q96.7095 1454.48 96.7095 1445.75 Q96.7095 1437 99.765 1432.42 Q102.844 1427.81 108.654 1427.81 Z" fill="#000000" fill-rule="nonzero" fill-opacity="1" /><path clip-path="url(#clip140)" d="M64.6495 1226.12 Q61.0384 1226.12 59.2097 1229.69 Q57.4041 1233.23 57.4041 1240.36 Q57.4041 1247.46 59.2097 1251.03 Q61.0384 1254.57 64.6495 1254.57 Q68.2837 1254.57 70.0892 1251.03 Q71.9179 1247.46 71.9179 1240.36 Q71.9179 1233.23 70.0892 1229.69 Q68.2837 1226.12 64.6495 1226.12 M64.6495 1222.42 Q70.4596 1222.42 73.5152 1227.02 Q76.5938 1231.61 76.5938 1240.36 Q76.5938 1249.08 73.5152 1253.69 Q70.4596 1258.27 64.6495 1258.27 Q58.8393 1258.27 55.7606 1253.69 Q52.7051 1249.08 52.7051 1240.36 Q52.7051 1231.61 55.7606 1227.02 Q58.8393 1222.42 64.6495 1222.42 Z" fill="#000000" fill-rule="nonzero" fill-opacity="1" /><path clip-path="url(#clip140)" d="M84.8114 1251.72 L89.6956 1251.72 L89.6956 1257.6 L84.8114 1257.6 L84.8114 1251.72 Z" fill="#000000" fill-rule="nonzero" fill-opacity="1" /><path clip-path="url(#clip140)" d="M100.691 1253.67 L108.33 1253.67 L108.33 1227.3 L100.02 1228.97 L100.02 1224.71 L108.283 1223.04 L112.959 1223.04 L112.959 1253.67 L120.598 1253.67 L120.598 1257.6 L100.691 1257.6 L100.691 1253.67 Z" fill="#000000" fill-rule="nonzero" fill-opacity="1" /><path clip-path="url(#clip140)" d="M65.0198 1020.73 Q61.4087 1020.73 59.58 1024.29 Q57.7745 1027.84 57.7745 1034.97 Q57.7745 1042.07 59.58 1045.64 Q61.4087 1049.18 65.0198 1049.18 Q68.6541 1049.18 70.4596 1045.64 Q72.2883 1042.07 72.2883 1034.97 Q72.2883 1027.84 70.4596 1024.29 Q68.6541 1020.73 65.0198 1020.73 M65.0198 1017.03 Q70.83 1017.03 73.8855 1021.63 Q76.9642 1026.22 76.9642 1034.97 Q76.9642 1043.69 73.8855 1048.3 Q70.83 1052.88 65.0198 1052.88 Q59.2097 1052.88 56.131 1048.3 Q53.0754 1043.69 53.0754 1034.97 Q53.0754 1026.22 56.131 1021.63 Q59.2097 1017.03 65.0198 1017.03 Z" fill="#000000" fill-rule="nonzero" fill-opacity="1" /><path clip-path="url(#clip140)" d="M85.1818 1046.33 L90.066 1046.33 L90.066 1052.21 L85.1818 1052.21 L85.1818 1046.33 Z" fill="#000000" fill-rule="nonzero" fill-opacity="1" /><path clip-path="url(#clip140)" d="M104.279 1048.28 L120.598 1048.28 L120.598 1052.21 L98.6539 1052.21 L98.6539 1048.28 Q101.316 1045.52 105.899 1040.89 Q110.506 1036.24 111.686 1034.9 Q113.932 1032.37 114.811 1030.64 Q115.714 1028.88 115.714 1027.19 Q115.714 1024.43 113.77 1022.7 Q111.848 1020.96 108.746 1020.96 Q106.547 1020.96 104.094 1021.73 Q101.663 1022.49 98.8854 1024.04 L98.8854 1019.32 Q101.709 1018.18 104.163 1017.6 Q106.617 1017.03 108.654 1017.03 Q114.024 1017.03 117.219 1019.71 Q120.413 1022.4 120.413 1026.89 Q120.413 1029.02 119.603 1030.94 Q118.816 1032.84 116.709 1035.43 Q116.131 1036.1 113.029 1039.32 Q109.927 1042.51 104.279 1048.28 Z" fill="#000000" fill-rule="nonzero" fill-opacity="1" /><path clip-path="url(#clip140)" d="M64.0708 815.338 Q60.4597 815.338 58.631 818.902 Q56.8254 822.444 56.8254 829.574 Q56.8254 836.68 58.631 840.245 Q60.4597 843.787 64.0708 843.787 Q67.705 843.787 69.5105 840.245 Q71.3392 836.68 71.3392 829.574 Q71.3392 822.444 69.5105 818.902 Q67.705 815.338 64.0708 815.338 M64.0708 811.634 Q69.8809 811.634 72.9365 816.24 Q76.0151 820.824 76.0151 829.574 Q76.0151 838.3 72.9365 842.907 Q69.8809 847.49 64.0708 847.49 Q58.2606 847.49 55.1819 842.907 Q52.1264 838.3 52.1264 829.574 Q52.1264 820.824 55.1819 816.24 Q58.2606 811.634 64.0708 811.634 Z" fill="#000000" fill-rule="nonzero" fill-opacity="1" /><path clip-path="url(#clip140)" d="M84.2327 840.939 L89.1169 840.939 L89.1169 846.819 L84.2327 846.819 L84.2327 840.939 Z" fill="#000000" fill-rule="nonzero" fill-opacity="1" /><path clip-path="url(#clip140)" d="M113.469 828.185 Q116.825 828.902 118.7 831.171 Q120.598 833.439 120.598 836.773 Q120.598 841.888 117.08 844.689 Q113.561 847.49 107.08 847.49 Q104.904 847.49 102.589 847.05 Q100.297 846.634 97.8437 845.777 L97.8437 841.263 Q99.7882 842.398 102.103 842.976 Q104.418 843.555 106.941 843.555 Q111.339 843.555 113.631 841.819 Q115.945 840.083 115.945 836.773 Q115.945 833.717 113.793 832.004 Q111.663 830.268 107.844 830.268 L103.816 830.268 L103.816 826.426 L108.029 826.426 Q111.478 826.426 113.307 825.06 Q115.135 823.671 115.135 821.078 Q115.135 818.416 113.237 817.004 Q111.362 815.569 107.844 815.569 Q105.922 815.569 103.723 815.986 Q101.524 816.402 98.8854 817.282 L98.8854 813.115 Q101.547 812.375 103.862 812.004 Q106.2 811.634 108.26 811.634 Q113.584 811.634 116.686 814.065 Q119.788 816.472 119.788 820.592 Q119.788 823.463 118.145 825.453 Q116.501 827.421 113.469 828.185 Z" fill="#000000" fill-rule="nonzero" fill-opacity="1" /><path clip-path="url(#clip140)" d="M62.9365 609.945 Q59.3254 609.945 57.4967 613.51 Q55.6912 617.052 55.6912 624.181 Q55.6912 631.288 57.4967 634.853 Q59.3254 638.394 62.9365 638.394 Q66.5707 638.394 68.3763 634.853 Q70.205 631.288 70.205 624.181 Q70.205 617.052 68.3763 613.51 Q66.5707 609.945 62.9365 609.945 M62.9365 606.242 Q68.7467 606.242 71.8022 610.848 Q74.8809 615.431 74.8809 624.181 Q74.8809 632.908 71.8022 637.515 Q68.7467 642.098 62.9365 642.098 Q57.1264 642.098 54.0477 637.515 Q50.9921 632.908 50.9921 624.181 Q50.9921 615.431 54.0477 610.848 Q57.1264 606.242 62.9365 606.242 Z" fill="#000000" fill-rule="nonzero" fill-opacity="1" /><path clip-path="url(#clip140)" d="M83.0984 635.547 L87.9827 635.547 L87.9827 641.427 L83.0984 641.427 L83.0984 635.547 Z" fill="#000000" fill-rule="nonzero" fill-opacity="1" /><path clip-path="url(#clip140)" d="M111.015 610.941 L99.2095 629.39 L111.015 629.39 L111.015 610.941 M109.788 606.867 L115.668 606.867 L115.668 629.39 L120.598 629.39 L120.598 633.279 L115.668 633.279 L115.668 641.427 L111.015 641.427 L111.015 633.279 L95.4132 633.279 L95.4132 628.765 L109.788 606.867 Z" fill="#000000" fill-rule="nonzero" fill-opacity="1" /><path clip-path="url(#clip140)" d="M64.418 404.553 Q60.8069 404.553 58.9782 408.118 Q57.1726 411.66 57.1726 418.789 Q57.1726 425.896 58.9782 429.46 Q60.8069 433.002 64.418 433.002 Q68.0522 433.002 69.8578 429.46 Q71.6865 425.896 71.6865 418.789 Q71.6865 411.66 69.8578 408.118 Q68.0522 404.553 64.418 404.553 M64.418 400.849 Q70.2281 400.849 73.2837 405.456 Q76.3624 410.039 76.3624 418.789 Q76.3624 427.516 73.2837 432.122 Q70.2281 436.706 64.418 436.706 Q58.6078 436.706 55.5291 432.122 Q52.4736 427.516 52.4736 418.789 Q52.4736 410.039 55.5291 405.456 Q58.6078 400.849 64.418 400.849 Z" fill="#000000" fill-rule="nonzero" fill-opacity="1" /><path clip-path="url(#clip140)" d="M84.5799 430.155 L89.4641 430.155 L89.4641 436.034 L84.5799 436.034 L84.5799 430.155 Z" fill="#000000" fill-rule="nonzero" fill-opacity="1" /><path clip-path="url(#clip140)" d="M99.6956 401.474 L118.052 401.474 L118.052 405.41 L103.978 405.41 L103.978 413.882 Q104.996 413.535 106.015 413.373 Q107.033 413.187 108.052 413.187 Q113.839 413.187 117.219 416.359 Q120.598 419.53 120.598 424.947 Q120.598 430.525 117.126 433.627 Q113.654 436.706 107.334 436.706 Q105.159 436.706 102.89 436.335 Q100.645 435.965 98.2372 435.224 L98.2372 430.525 Q100.321 431.659 102.543 432.215 Q104.765 432.771 107.242 432.771 Q111.246 432.771 113.584 430.664 Q115.922 428.558 115.922 424.947 Q115.922 421.335 113.584 419.229 Q111.246 417.123 107.242 417.123 Q105.367 417.123 103.492 417.539 Q101.64 417.956 99.6956 418.835 L99.6956 401.474 Z" fill="#000000" fill-rule="nonzero" fill-opacity="1" /><path clip-path="url(#clip140)" d="M63.2606 199.161 Q59.6495 199.161 57.8208 202.726 Q56.0152 206.267 56.0152 213.397 Q56.0152 220.503 57.8208 224.068 Q59.6495 227.61 63.2606 227.61 Q66.8948 227.61 68.7004 224.068 Q70.5291 220.503 70.5291 213.397 Q70.5291 206.267 68.7004 202.726 Q66.8948 199.161 63.2606 199.161 M63.2606 195.457 Q69.0707 195.457 72.1263 200.064 Q75.205 204.647 75.205 213.397 Q75.205 222.124 72.1263 226.73 Q69.0707 231.314 63.2606 231.314 Q57.4504 231.314 54.3717 226.73 Q51.3162 222.124 51.3162 213.397 Q51.3162 204.647 54.3717 200.064 Q57.4504 195.457 63.2606 195.457 Z" fill="#000000" fill-rule="nonzero" fill-opacity="1" /><path clip-path="url(#clip140)" d="M83.4225 224.763 L88.3067 224.763 L88.3067 230.642 L83.4225 230.642 L83.4225 224.763 Z" fill="#000000" fill-rule="nonzero" fill-opacity="1" /><path clip-path="url(#clip140)" d="M109.071 211.499 Q105.922 211.499 104.071 213.652 Q102.242 215.804 102.242 219.554 Q102.242 223.281 104.071 225.457 Q105.922 227.61 109.071 227.61 Q112.219 227.61 114.047 225.457 Q115.899 223.281 115.899 219.554 Q115.899 215.804 114.047 213.652 Q112.219 211.499 109.071 211.499 M118.353 196.846 L118.353 201.105 Q116.594 200.272 114.788 199.832 Q113.006 199.392 111.246 199.392 Q106.617 199.392 104.163 202.517 Q101.733 205.642 101.385 211.962 Q102.751 209.948 104.811 208.883 Q106.871 207.795 109.348 207.795 Q114.557 207.795 117.566 210.966 Q120.598 214.115 120.598 219.554 Q120.598 224.878 117.45 228.096 Q114.302 231.314 109.071 231.314 Q103.075 231.314 99.9039 226.73 Q96.7326 222.124 96.7326 213.397 Q96.7326 205.203 100.621 200.341 Q104.51 195.457 111.061 195.457 Q112.82 195.457 114.603 195.804 Q116.408 196.152 118.353 196.846 Z" fill="#000000" fill-rule="nonzero" fill-opacity="1" /><polyline clip-path="url(#clip142)" style="stroke:#009af9; stroke-linecap:round; stroke-linejoin:round; stroke-width:4; stroke-opacity:1; fill:none" points="218.754,213.362 218.766,213.374 218.888,213.49 220.108,214.652 232.311,226.243 275.408,266.688 350.924,334.678 448.604,414.624 571.869,499.53 719.493,577.366 893.36,641.033 1093.32,687.542 1319.22,718.515 1569.73,737.574 1843.66,748.593 2139.68,754.649 2290.6,756.458 "/>
<polyline clip-path="url(#clip142)" style="stroke:#e26f46; stroke-linecap:round; stroke-linejoin:round; stroke-width:4; stroke-opacity:1; fill:none" points="218.754,624.147 218.766,624.164 218.888,624.338 220.108,626.081 232.311,643.467 275.408,704.136 350.924,806.121 448.604,926.039 571.869,1053.4 719.493,1170.15 893.36,1265.65 1093.32,1335.42 1319.22,1381.88 1569.73,1410.46 1843.66,1426.99 2139.68,1436.08 2290.6,1438.79 "/>
<polyline clip-path="url(#clip142)" style="stroke:#3da44d; stroke-linecap:round; stroke-linejoin:round; stroke-width:4; stroke-opacity:1; fill:none" points="218.754,1445.72 218.766,1445.69 218.888,1445.4 220.108,1442.49 232.311,1413.51 275.408,1312.4 350.924,1142.43 448.604,942.562 571.869,730.297 719.493,535.706 893.36,376.539 1093.32,260.267 1319.22,182.833 1569.73,135.186 1843.66,107.638 2139.68,92.4986 2290.6,87.9763 "/>
<path clip-path="url(#clip140)" d="M2028.27 1438.47 L2279.55 1438.47 L2279.55 1231.11 L2028.27 1231.11  Z" fill="#ffffff" fill-rule="evenodd" fill-opacity="1"/>
<polyline clip-path="url(#clip140)" style="stroke:#000000; stroke-linecap:round; stroke-linejoin:round; stroke-width:4; stroke-opacity:1; fill:none" points="2028.27,1438.47 2279.55,1438.47 2279.55,1231.11 2028.27,1231.11 2028.27,1438.47 "/>
<polyline clip-path="url(#clip140)" style="stroke:#009af9; stroke-linecap:round; stroke-linejoin:round; stroke-width:4; stroke-opacity:1; fill:none" points="2052.67,1282.95 2199.08,1282.95 "/>
<path clip-path="url(#clip140)" d="M2239.32 1270.28 L2232.97 1287.48 L2245.68 1287.48 L2239.32 1270.28 M2236.68 1265.67 L2241.98 1265.67 L2255.15 1300.23 L2250.29 1300.23 L2247.14 1291.37 L2231.56 1291.37 L2228.41 1300.23 L2223.48 1300.23 L2236.68 1265.67 Z" fill="#000000" fill-rule="nonzero" fill-opacity="1" /><polyline clip-path="url(#clip140)" style="stroke:#e26f46; stroke-linecap:round; stroke-linejoin:round; stroke-width:4; stroke-opacity:1; fill:none" points="2052.67,1334.79 2199.08,1334.79 "/>
<path clip-path="url(#clip140)" d="M2228.16 1335.57 L2228.16 1348.23 L2235.66 1348.23 Q2239.43 1348.23 2241.24 1346.68 Q2243.07 1345.11 2243.07 1341.89 Q2243.07 1338.65 2241.24 1337.12 Q2239.43 1335.57 2235.66 1335.57 L2228.16 1335.57 M2228.16 1321.36 L2228.16 1331.77 L2235.08 1331.77 Q2238.51 1331.77 2240.17 1330.5 Q2241.86 1329.2 2241.86 1326.57 Q2241.86 1323.95 2240.17 1322.65 Q2238.51 1321.36 2235.08 1321.36 L2228.16 1321.36 M2223.48 1317.51 L2235.43 1317.51 Q2240.77 1317.51 2243.67 1319.74 Q2246.56 1321.96 2246.56 1326.06 Q2246.56 1329.23 2245.08 1331.1 Q2243.6 1332.98 2240.73 1333.44 Q2244.18 1334.18 2246.07 1336.54 Q2248 1338.88 2248 1342.4 Q2248 1347.03 2244.85 1349.55 Q2241.7 1352.07 2235.89 1352.07 L2223.48 1352.07 L2223.48 1317.51 Z" fill="#000000" fill-rule="nonzero" fill-opacity="1" /><polyline clip-path="url(#clip140)" style="stroke:#3da44d; stroke-linecap:round; stroke-linejoin:round; stroke-width:4; stroke-opacity:1; fill:none" points="2052.67,1386.63 2199.08,1386.63 "/>
<path clip-path="url(#clip140)" d="M2251.35 1372.02 L2251.35 1376.95 Q2248.99 1374.75 2246.31 1373.66 Q2243.64 1372.57 2240.64 1372.57 Q2234.71 1372.57 2231.56 1376.21 Q2228.41 1379.82 2228.41 1386.67 Q2228.41 1393.5 2231.56 1397.13 Q2234.71 1400.74 2240.64 1400.74 Q2243.64 1400.74 2246.31 1399.66 Q2248.99 1398.57 2251.35 1396.37 L2251.35 1401.25 Q2248.9 1402.92 2246.14 1403.75 Q2243.41 1404.59 2240.36 1404.59 Q2232.51 1404.59 2228 1399.79 Q2223.48 1394.98 2223.48 1386.67 Q2223.48 1378.34 2228 1373.54 Q2232.51 1368.73 2240.36 1368.73 Q2243.46 1368.73 2246.19 1369.56 Q2248.95 1370.37 2251.35 1372.02 Z" fill="#000000" fill-rule="nonzero" fill-opacity="1" /></svg>
