<?xml version="1.0" encoding="utf-8"?>
<svg xmlns="http://www.w3.org/2000/svg" xmlns:xlink="http://www.w3.org/1999/xlink" width="600" height="400" viewBox="0 0 2400 1600">
<defs>
  <clipPath id="clip110">
    <rect x="0" y="0" width="2400" height="1600"/>
  </clipPath>
</defs>
<path clip-path="url(#clip110)" d="M0 1600 L2400 1600 L2400 0 L0 0  Z" fill="#ffffff" fill-rule="evenodd" fill-opacity="1"/>
<defs>
  <clipPath id="clip111">
    <rect x="480" y="0" width="1681" height="1600"/>
  </clipPath>
</defs>
<path clip-path="url(#clip110)" d="M156.598 1486.45 L2352.76 1486.45 L2352.76 47.2441 L156.598 47.2441  Z" fill="#ffffff" fill-rule="evenodd" fill-opacity="1"/>
<defs>
  <clipPath id="clip112">
    <rect x="156" y="47" width="2197" height="1440"/>
  </clipPath>
</defs>
<polyline clip-path="url(#clip112)" style="stroke:#000000; stroke-linecap:round; stroke-linejoin:round; stroke-width:2; stroke-opacity:0.1; fill:none" points="218.754,1486.45 218.754,47.2441 "/>
<polyline clip-path="url(#clip112)" style="stroke:#000000; stroke-linecap:round; stroke-linejoin:round; stroke-width:2; stroke-opacity:0.1; fill:none" points="736.715,1486.45 736.715,47.2441 "/>
<polyline clip-path="url(#clip112)" style="stroke:#000000; stroke-linecap:round; stroke-linejoin:round; stroke-width:2; stroke-opacity:0.1; fill:none" points="1254.68,1486.45 1254.68,47.2441 "/>
<polyline clip-path="url(#clip112)" style="stroke:#000000; stroke-linecap:round; stroke-linejoin:round; stroke-width:2; stroke-opacity:0.1; fill:none" points="1772.64,1486.45 1772.64,47.2441 "/>
<polyline clip-path="url(#clip112)" style="stroke:#000000; stroke-linecap:round; stroke-linejoin:round; stroke-width:2; stroke-opacity:0.1; fill:none" points="2290.6,1486.45 2290.6,47.2441 "/>
<polyline clip-path="url(#clip110)" style="stroke:#000000; stroke-linecap:round; stroke-linejoin:round; stroke-width:4; stroke-opacity:1; fill:none" points="156.598,1486.45 2352.76,1486.45 "/>
<polyline clip-path="url(#clip110)" style="stroke:#000000; stroke-linecap:round; stroke-linejoin:round; stroke-width:4; stroke-opacity:1; fill:none" points="218.754,1486.45 218.754,1467.55 "/>
<polyline clip-path="url(#clip110)" style="stroke:#000000; stroke-linecap:round; stroke-linejoin:round; stroke-width:4; stroke-opacity:1; fill:none" points="736.715,1486.45 736.715,1467.55 "/>
<polyline clip-path="url(#clip110)" style="stroke:#000000; stroke-linecap:round; stroke-linejoin:round; stroke-width:4; stroke-opacity:1; fill:none" points="1254.68,1486.45 1254.68,1467.55 "/>
<polyline clip-path="url(#clip110)" style="stroke:#000000; stroke-linecap:round; stroke-linejoin:round; stroke-width:4; stroke-opacity:1; fill:none" points="1772.64,1486.45 1772.64,1467.55 "/>
<polyline clip-path="url(#clip110)" style="stroke:#000000; stroke-linecap:round; stroke-linejoin:round; stroke-width:4; stroke-opacity:1; fill:none" points="2290.6,1486.45 2290.6,1467.55 "/>
<path clip-path="url(#clip110)" d="M218.754 1517.37 Q215.143 1517.37 213.314 1520.93 Q211.508 1524.47 211.508 1531.6 Q211.508 1538.71 213.314 1542.27 Q215.143 1545.82 218.754 1545.82 Q222.388 1545.82 224.193 1542.27 Q226.022 1538.71 226.022 1531.6 Q226.022 1524.47 224.193 1520.93 Q222.388 1517.37 218.754 1517.37 M218.754 1513.66 Q224.564 1513.66 227.619 1518.27 Q230.698 1522.85 230.698 1531.6 Q230.698 1540.33 227.619 1544.94 Q224.564 1549.52 218.754 1549.52 Q212.943 1549.52 209.865 1544.94 Q206.809 1540.33 206.809 1531.6 Q206.809 1522.85 209.865 1518.27 Q212.943 1513.66 218.754 1513.66 Z" fill="#000000" fill-rule="nonzero" fill-opacity="1" /><path clip-path="url(#clip110)" d="M726.993 1514.29 L745.35 1514.29 L745.35 1518.22 L731.276 1518.22 L731.276 1526.7 Q732.294 1526.35 733.313 1526.19 Q734.331 1526 735.35 1526 Q741.137 1526 744.516 1529.17 Q747.896 1532.34 747.896 1537.76 Q747.896 1543.34 744.424 1546.44 Q740.951 1549.52 734.632 1549.52 Q732.456 1549.52 730.188 1549.15 Q727.942 1548.78 725.535 1548.04 L725.535 1543.34 Q727.618 1544.47 729.84 1545.03 Q732.063 1545.58 734.539 1545.58 Q738.544 1545.58 740.882 1543.48 Q743.22 1541.37 743.22 1537.76 Q743.22 1534.15 740.882 1532.04 Q738.544 1529.94 734.539 1529.94 Q732.664 1529.94 730.789 1530.35 Q728.938 1530.77 726.993 1531.65 L726.993 1514.29 Z" fill="#000000" fill-rule="nonzero" fill-opacity="1" /><path clip-path="url(#clip110)" d="M1229.36 1544.91 L1237 1544.91 L1237 1518.55 L1228.69 1520.21 L1228.69 1515.95 L1236.96 1514.29 L1241.63 1514.29 L1241.63 1544.91 L1249.27 1544.91 L1249.27 1548.85 L1229.36 1548.85 L1229.36 1544.91 Z" fill="#000000" fill-rule="nonzero" fill-opacity="1" /><path clip-path="url(#clip110)" d="M1268.72 1517.37 Q1265.11 1517.37 1263.28 1520.93 Q1261.47 1524.47 1261.47 1531.6 Q1261.47 1538.71 1263.28 1542.27 Q1265.11 1545.82 1268.72 1545.82 Q1272.35 1545.82 1274.16 1542.27 Q1275.98 1538.71 1275.98 1531.6 Q1275.98 1524.47 1274.16 1520.93 Q1272.35 1517.37 1268.72 1517.37 M1268.72 1513.66 Q1274.53 1513.66 1277.58 1518.27 Q1280.66 1522.85 1280.66 1531.6 Q1280.66 1540.33 1277.58 1544.94 Q1274.53 1549.52 1268.72 1549.52 Q1262.91 1549.52 1259.83 1544.94 Q1256.77 1540.33 1256.77 1531.6 Q1256.77 1522.85 1259.83 1518.27 Q1262.91 1513.66 1268.72 1513.66 Z" fill="#000000" fill-rule="nonzero" fill-opacity="1" /><path clip-path="url(#clip110)" d="M1747.82 1544.91 L1755.46 1544.91 L1755.46 1518.55 L1747.15 1520.21 L1747.15 1515.95 L1755.42 1514.29 L1760.09 1514.29 L1760.09 1544.91 L1767.73 1544.91 L1767.73 1548.85 L1747.82 1548.85 L1747.82 1544.91 Z" fill="#000000" fill-rule="nonzero" fill-opacity="1" /><path clip-path="url(#clip110)" d="M1777.22 1514.29 L1795.58 1514.29 L1795.58 1518.22 L1781.5 1518.22 L1781.5 1526.7 Q1782.52 1526.35 1783.54 1526.19 Q1784.56 1526 1785.58 1526 Q1791.37 1526 1794.75 1529.17 Q1798.12 1532.34 1798.12 1537.76 Q1798.12 1543.34 1794.65 1546.44 Q1791.18 1549.52 1784.86 1549.52 Q1782.69 1549.52 1780.42 1549.15 Q1778.17 1548.78 1775.76 1548.04 L1775.76 1543.34 Q1777.85 1544.47 1780.07 1545.03 Q1782.29 1545.58 1784.77 1545.58 Q1788.77 1545.58 1791.11 1543.48 Q1793.45 1541.37 1793.45 1537.76 Q1793.45 1534.15 1791.11 1532.04 Q1788.77 1529.94 1784.77 1529.94 Q1782.89 1529.94 1781.02 1530.35 Q1779.17 1530.77 1777.22 1531.65 L1777.22 1514.29 Z" fill="#000000" fill-rule="nonzero" fill-opacity="1" /><path clip-path="url(#clip110)" d="M2269.37 1544.91 L2285.69 1544.91 L2285.69 1548.85 L2263.75 1548.85 L2263.75 1544.91 Q2266.41 1542.16 2270.99 1537.53 Q2275.6 1532.88 2276.78 1531.53 Q2279.03 1529.01 2279.91 1527.27 Q2280.81 1525.51 2280.81 1523.82 Q2280.81 1521.07 2278.86 1519.33 Q2276.94 1517.6 2273.84 1517.6 Q2271.64 1517.6 2269.19 1518.36 Q2266.76 1519.13 2263.98 1520.68 L2263.98 1515.95 Q2266.8 1514.82 2269.26 1514.24 Q2271.71 1513.66 2273.75 1513.66 Q2279.12 1513.66 2282.31 1516.35 Q2285.51 1519.03 2285.51 1523.52 Q2285.51 1525.65 2284.7 1527.57 Q2283.91 1529.47 2281.8 1532.07 Q2281.23 1532.74 2278.12 1535.95 Q2275.02 1539.15 2269.37 1544.91 Z" fill="#000000" fill-rule="nonzero" fill-opacity="1" /><path clip-path="url(#clip110)" d="M2305.51 1517.37 Q2301.9 1517.37 2300.07 1520.93 Q2298.26 1524.47 2298.26 1531.6 Q2298.26 1538.71 2300.07 1542.27 Q2301.9 1545.82 2305.51 1545.82 Q2309.14 1545.82 2310.95 1542.27 Q2312.78 1538.71 2312.78 1531.6 Q2312.78 1524.47 2310.95 1520.93 Q2309.14 1517.37 2305.51 1517.37 M2305.51 1513.66 Q2311.32 1513.66 2314.37 1518.27 Q2317.45 1522.85 2317.45 1531.6 Q2317.45 1540.33 2314.37 1544.94 Q2311.32 1549.52 2305.51 1549.52 Q2299.7 1549.52 2296.62 1544.94 Q2293.56 1540.33 2293.56 1531.6 Q2293.56 1522.85 2296.62 1518.27 Q2299.7 1513.66 2305.51 1513.66 Z" fill="#000000" fill-rule="nonzero" fill-opacity="1" /><polyline clip-path="url(#clip112)" style="stroke:#000000; stroke-linecap:round; stroke-linejoin:round; stroke-width:2; stroke-opacity:0.1; fill:none" points="156.598,1445.72 2352.76,1445.72 "/>
<polyline clip-path="url(#clip112)" style="stroke:#000000; stroke-linecap:round; stroke-linejoin:round; stroke-width:2; stroke-opacity:0.1; fill:none" points="156.598,1241.05 2352.76,1241.05 "/>
<polyline clip-path="url(#clip112)" style="stroke:#000000; stroke-linecap:round; stroke-linejoin:round; stroke-width:2; stroke-opacity:0.1; fill:none" points="156.598,1036.38 2352.76,1036.38 "/>
<polyline clip-path="url(#clip112)" style="stroke:#000000; stroke-linecap:round; stroke-linejoin:round; stroke-width:2; stroke-opacity:0.1; fill:none" points="156.598,831.708 2352.76,831.708 "/>
<polyline clip-path="url(#clip112)" style="stroke:#000000; stroke-linecap:round; stroke-linejoin:round; stroke-width:2; stroke-opacity:0.1; fill:none" points="156.598,627.039 2352.76,627.039 "/>
<polyline clip-path="url(#clip112)" style="stroke:#000000; stroke-linecap:round; stroke-linejoin:round; stroke-width:2; stroke-opacity:0.1; fill:none" points="156.598,422.37 2352.76,422.37 "/>
<polyline clip-path="url(#clip112)" style="stroke:#000000; stroke-linecap:round; stroke-linejoin:round; stroke-width:2; stroke-opacity:0.1; fill:none" points="156.598,217.701 2352.76,217.701 "/>
<polyline clip-path="url(#clip110)" style="stroke:#000000; stroke-linecap:round; stroke-linejoin:round; stroke-width:4; stroke-opacity:1; fill:none" points="156.598,1486.45 156.598,47.2441 "/>
<polyline clip-path="url(#clip110)" style="stroke:#000000; stroke-linecap:round; stroke-linejoin:round; stroke-width:4; stroke-opacity:1; fill:none" points="156.598,1445.72 175.496,1445.72 "/>
<polyline clip-path="url(#clip110)" style="stroke:#000000; stroke-linecap:round; stroke-linejoin:round; stroke-width:4; stroke-opacity:1; fill:none" points="156.598,1241.05 175.496,1241.05 "/>
<polyline clip-path="url(#clip110)" style="stroke:#000000; stroke-linecap:round; stroke-linejoin:round; stroke-width:4; stroke-opacity:1; fill:none" points="156.598,1036.38 175.496,1036.38 "/>
<polyline clip-path="url(#clip110)" style="stroke:#000000; stroke-linecap:round; stroke-linejoin:round; stroke-width:4; stroke-opacity:1; fill:none" points="156.598,831.708 175.496,831.708 "/>
<polyline clip-path="url(#clip110)" style="stroke:#000000; stroke-linecap:round; stroke-linejoin:round; stroke-width:4; stroke-opacity:1; fill:none" points="156.598,627.039 175.496,627.039 "/>
<polyline clip-path="url(#clip110)" style="stroke:#000000; stroke-linecap:round; stroke-linejoin:round; stroke-width:4; stroke-opacity:1; fill:none" points="156.598,422.37 175.496,422.37 "/>
<polyline clip-path="url(#clip110)" style="stroke:#000000; stroke-linecap:round; stroke-linejoin:round; stroke-width:4; stroke-opacity:1; fill:none" points="156.598,217.701 175.496,217.701 "/>
<path clip-path="url(#clip110)" d="M63.4226 1431.51 Q59.8115 1431.51 57.9828 1435.08 Q56.1773 1438.62 56.1773 1445.75 Q56.1773 1452.86 57.9828 1456.42 Q59.8115 1459.96 63.4226 1459.96 Q67.0569 1459.96 68.8624 1456.42 Q70.6911 1452.86 70.6911 1445.75 Q70.6911 1438.62 68.8624 1435.08 Q67.0569 1431.51 63.4226 1431.51 M63.4226 1427.81 Q69.2328 1427.81 72.2883 1432.42 Q75.367 1437 75.367 1445.75 Q75.367 1454.48 72.2883 1459.08 Q69.2328 1463.67 63.4226 1463.67 Q57.6125 1463.67 54.5338 1459.08 Q51.4782 1454.48 51.4782 1445.75 Q51.4782 1437 54.5338 1432.42 Q57.6125 1427.81 63.4226 1427.81 Z" fill="#000000" fill-rule="nonzero" fill-opacity="1" /><path clip-path="url(#clip110)" d="M83.5845 1457.12 L88.4688 1457.12 L88.4688 1463 L83.5845 1463 L83.5845 1457.12 Z" fill="#000000" fill-rule="nonzero" fill-opacity="1" /><path clip-path="url(#clip110)" d="M108.654 1431.51 Q105.043 1431.51 103.214 1435.08 Q101.409 1438.62 101.409 1445.75 Q101.409 1452.86 103.214 1456.42 Q105.043 1459.96 108.654 1459.96 Q112.288 1459.96 114.094 1456.42 Q115.922 1452.86 115.922 1445.75 Q115.922 1438.62 114.094 1435.08 Q112.288 1431.51 108.654 1431.51 M108.654 1427.81 Q114.464 1427.81 117.52 1432.42 Q120.598 1437 120.598 1445.75 Q120.598 1454.48 117.52 1459.08 Q114.464 1463.67 108.654 1463.67 Q102.844 1463.67 99.765 1459.08 Q96.7095 1454.48 96.7095 1445.75 Q96.7095 1437 99.765 1432.42 Q102.844 1427.81 108.654 1427.81 Z" fill="#000000" fill-rule="nonzero" fill-opacity="1" /><path clip-path="url(#clip110)" d="M64.6495 1226.85 Q61.0384 1226.85 59.2097 1230.41 Q57.4041 1233.95 57.4041 1241.08 Q57.4041 1248.19 59.2097 1251.75 Q61.0384 1255.29 64.6495 1255.29 Q68.2837 1255.29 70.0892 1251.75 Q71.9179 1248.19 71.9179 1241.08 Q71.9179 1233.95 70.0892 1230.41 Q68.2837 1226.85 64.6495 1226.85 M64.6495 1223.14 Q70.4596 1223.14 73.5152 1227.75 Q76.5938 1232.33 76.5938 1241.08 Q76.5938 1249.81 73.5152 1254.41 Q70.4596 1259 64.6495 1259 Q58.8393 1259 55.7606 1254.41 Q52.7051 1249.81 52.7051 1241.08 Q52.7051 1232.33 55.7606 1227.75 Q58.8393 1223.14 64.6495 1223.14 Z" fill="#000000" fill-rule="nonzero" fill-opacity="1" /><path clip-path="url(#clip110)" d="M84.8114 1252.45 L89.6956 1252.45 L89.6956 1258.33 L84.8114 1258.33 L84.8114 1252.45 Z" fill="#000000" fill-rule="nonzero" fill-opacity="1" /><path clip-path="url(#clip110)" d="M100.691 1254.39 L108.33 1254.39 L108.33 1228.03 L100.02 1229.69 L100.02 1225.43 L108.283 1223.77 L112.959 1223.77 L112.959 1254.39 L120.598 1254.39 L120.598 1258.33 L100.691 1258.33 L100.691 1254.39 Z" fill="#000000" fill-rule="nonzero" fill-opacity="1" /><path clip-path="url(#clip110)" d="M65.0198 1022.18 Q61.4087 1022.18 59.58 1025.74 Q57.7745 1029.28 57.7745 1036.41 Q57.7745 1043.52 59.58 1047.08 Q61.4087 1050.63 65.0198 1050.63 Q68.6541 1050.63 70.4596 1047.08 Q72.2883 1043.52 72.2883 1036.41 Q72.2883 1029.28 70.4596 1025.74 Q68.6541 1022.18 65.0198 1022.18 M65.0198 1018.47 Q70.83 1018.47 73.8855 1023.08 Q76.9642 1027.66 76.9642 1036.41 Q76.9642 1045.14 73.8855 1049.75 Q70.83 1054.33 65.0198 1054.33 Q59.2097 1054.33 56.131 1049.75 Q53.0754 1045.14 53.0754 1036.41 Q53.0754 1027.66 56.131 1023.08 Q59.2097 1018.47 65.0198 1018.47 Z" fill="#000000" fill-rule="nonzero" fill-opacity="1" /><path clip-path="url(#clip110)" d="M85.1818 1047.78 L90.066 1047.78 L90.066 1053.66 L85.1818 1053.66 L85.1818 1047.78 Z" fill="#000000" fill-rule="nonzero" fill-opacity="1" /><path clip-path="url(#clip110)" d="M104.279 1049.72 L120.598 1049.72 L120.598 1053.66 L98.6539 1053.66 L98.6539 1049.72 Q101.316 1046.97 105.899 1042.34 Q110.506 1037.69 111.686 1036.34 Q113.932 1033.82 114.811 1032.08 Q115.714 1030.32 115.714 1028.63 Q115.714 1025.88 113.77 1024.14 Q111.848 1022.41 108.746 1022.41 Q106.547 1022.41 104.094 1023.17 Q101.663 1023.94 98.8854 1025.49 L98.8854 1020.76 Q101.709 1019.63 104.163 1019.05 Q106.617 1018.47 108.654 1018.47 Q114.024 1018.47 117.219 1021.16 Q120.413 1023.84 120.413 1028.33 Q120.413 1030.46 119.603 1032.38 Q118.816 1034.28 116.709 1036.88 Q116.131 1037.55 113.029 1040.76 Q109.927 1043.96 104.279 1049.72 Z" fill="#000000" fill-rule="nonzero" fill-opacity="1" /><path clip-path="url(#clip110)" d="M64.0708 817.507 Q60.4597 817.507 58.631 821.072 Q56.8254 824.613 56.8254 831.743 Q56.8254 838.85 58.631 842.414 Q60.4597 845.956 64.0708 845.956 Q67.705 845.956 69.5105 842.414 Q71.3392 838.85 71.3392 831.743 Q71.3392 824.613 69.5105 821.072 Q67.705 817.507 64.0708 817.507 M64.0708 813.803 Q69.8809 813.803 72.9365 818.41 Q76.0151 822.993 76.0151 831.743 Q76.0151 840.47 72.9365 845.076 Q69.8809 849.66 64.0708 849.66 Q58.2606 849.66 55.1819 845.076 Q52.1264 840.47 52.1264 831.743 Q52.1264 822.993 55.1819 818.41 Q58.2606 813.803 64.0708 813.803 Z" fill="#000000" fill-rule="nonzero" fill-opacity="1" /><path clip-path="url(#clip110)" d="M84.2327 843.109 L89.1169 843.109 L89.1169 848.988 L84.2327 848.988 L84.2327 843.109 Z" fill="#000000" fill-rule="nonzero" fill-opacity="1" /><path clip-path="url(#clip110)" d="M113.469 830.354 Q116.825 831.072 118.7 833.34 Q120.598 835.609 120.598 838.942 Q120.598 844.058 117.08 846.859 Q113.561 849.66 107.08 849.66 Q104.904 849.66 102.589 849.22 Q100.297 848.803 97.8437 847.947 L97.8437 843.433 Q99.7882 844.567 102.103 845.146 Q104.418 845.724 106.941 845.724 Q111.339 845.724 113.631 843.988 Q115.945 842.252 115.945 838.942 Q115.945 835.887 113.793 834.174 Q111.663 832.438 107.844 832.438 L103.816 832.438 L103.816 828.595 L108.029 828.595 Q111.478 828.595 113.307 827.229 Q115.135 825.84 115.135 823.248 Q115.135 820.586 113.237 819.174 Q111.362 817.739 107.844 817.739 Q105.922 817.739 103.723 818.155 Q101.524 818.572 98.8854 819.451 L98.8854 815.285 Q101.547 814.544 103.862 814.174 Q106.2 813.803 108.26 813.803 Q113.584 813.803 116.686 816.234 Q119.788 818.641 119.788 822.762 Q119.788 825.632 118.145 827.623 Q116.501 829.59 113.469 830.354 Z" fill="#000000" fill-rule="nonzero" fill-opacity="1" /><path clip-path="url(#clip110)" d="M62.9365 612.838 Q59.3254 612.838 57.4967 616.403 Q55.6912 619.944 55.6912 627.074 Q55.6912 634.18 57.4967 637.745 Q59.3254 641.287 62.9365 641.287 Q66.5707 641.287 68.3763 637.745 Q70.205 634.18 70.205 627.074 Q70.205 619.944 68.3763 616.403 Q66.5707 612.838 62.9365 612.838 M62.9365 609.134 Q68.7467 609.134 71.8022 613.741 Q74.8809 618.324 74.8809 627.074 Q74.8809 635.801 71.8022 640.407 Q68.7467 644.991 62.9365 644.991 Q57.1264 644.991 54.0477 640.407 Q50.9921 635.801 50.9921 627.074 Q50.9921 618.324 54.0477 613.741 Q57.1264 609.134 62.9365 609.134 Z" fill="#000000" fill-rule="nonzero" fill-opacity="1" /><path clip-path="url(#clip110)" d="M83.0984 638.44 L87.9827 638.44 L87.9827 644.319 L83.0984 644.319 L83.0984 638.44 Z" fill="#000000" fill-rule="nonzero" fill-opacity="1" /><path clip-path="url(#clip110)" d="M111.015 613.833 L99.2095 632.282 L111.015 632.282 L111.015 613.833 M109.788 609.759 L115.668 609.759 L115.668 632.282 L120.598 632.282 L120.598 636.171 L115.668 636.171 L115.668 644.319 L111.015 644.319 L111.015 636.171 L95.4132 636.171 L95.4132 631.657 L109.788 609.759 Z" fill="#000000" fill-rule="nonzero" fill-opacity="1" /><path clip-path="url(#clip110)" d="M64.418 408.169 Q60.8069 408.169 58.9782 411.734 Q57.1726 415.275 57.1726 422.405 Q57.1726 429.511 58.9782 433.076 Q60.8069 436.618 64.418 436.618 Q68.0522 436.618 69.8578 433.076 Q71.6865 429.511 71.6865 422.405 Q71.6865 415.275 69.8578 411.734 Q68.0522 408.169 64.418 408.169 M64.418 404.465 Q70.2281 404.465 73.2837 409.072 Q76.3624 413.655 76.3624 422.405 Q76.3624 431.132 73.2837 435.738 Q70.2281 440.321 64.418 440.321 Q58.6078 440.321 55.5291 435.738 Q52.4736 431.132 52.4736 422.405 Q52.4736 413.655 55.5291 409.072 Q58.6078 404.465 64.418 404.465 Z" fill="#000000" fill-rule="nonzero" fill-opacity="1" /><path clip-path="url(#clip110)" d="M84.5799 433.771 L89.4641 433.771 L89.4641 439.65 L84.5799 439.65 L84.5799 433.771 Z" fill="#000000" fill-rule="nonzero" fill-opacity="1" /><path clip-path="url(#clip110)" d="M99.6956 405.09 L118.052 405.09 L118.052 409.025 L103.978 409.025 L103.978 417.497 Q104.996 417.15 106.015 416.988 Q107.033 416.803 108.052 416.803 Q113.839 416.803 117.219 419.974 Q120.598 423.146 120.598 428.562 Q120.598 434.141 117.126 437.243 Q113.654 440.321 107.334 440.321 Q105.159 440.321 102.89 439.951 Q100.645 439.581 98.2372 438.84 L98.2372 434.141 Q100.321 435.275 102.543 435.831 Q104.765 436.386 107.242 436.386 Q111.246 436.386 113.584 434.28 Q115.922 432.173 115.922 428.562 Q115.922 424.951 113.584 422.845 Q111.246 420.738 107.242 420.738 Q105.367 420.738 103.492 421.155 Q101.64 421.572 99.6956 422.451 L99.6956 405.09 Z" fill="#000000" fill-rule="nonzero" fill-opacity="1" /><path clip-path="url(#clip110)" d="M63.2606 203.5 Q59.6495 203.5 57.8208 207.065 Q56.0152 210.606 56.0152 217.736 Q56.0152 224.842 57.8208 228.407 Q59.6495 231.949 63.2606 231.949 Q66.8948 231.949 68.7004 228.407 Q70.5291 224.842 70.5291 217.736 Q70.5291 210.606 68.7004 207.065 Q66.8948 203.5 63.2606 203.5 M63.2606 199.796 Q69.0707 199.796 72.1263 204.402 Q75.205 208.986 75.205 217.736 Q75.205 226.463 72.1263 231.069 Q69.0707 235.652 63.2606 235.652 Q57.4504 235.652 54.3717 231.069 Q51.3162 226.463 51.3162 217.736 Q51.3162 208.986 54.3717 204.402 Q57.4504 199.796 63.2606 199.796 Z" fill="#000000" fill-rule="nonzero" fill-opacity="1" /><path clip-path="url(#clip110)" d="M83.4225 229.101 L88.3067 229.101 L88.3067 234.981 L83.4225 234.981 L83.4225 229.101 Z" fill="#000000" fill-rule="nonzero" fill-opacity="1" /><path clip-path="url(#clip110)" d="M109.071 215.838 Q105.922 215.838 104.071 217.99 Q102.242 220.143 102.242 223.893 Q102.242 227.62 104.071 229.796 Q105.922 231.949 109.071 231.949 Q112.219 231.949 114.047 229.796 Q115.899 227.62 115.899 223.893 Q115.899 220.143 114.047 217.99 Q112.219 215.838 109.071 215.838 M118.353 201.185 L118.353 205.444 Q116.594 204.611 114.788 204.171 Q113.006 203.731 111.246 203.731 Q106.617 203.731 104.163 206.856 Q101.733 209.981 101.385 216.301 Q102.751 214.287 104.811 213.222 Q106.871 212.134 109.348 212.134 Q114.557 212.134 117.566 215.305 Q120.598 218.453 120.598 223.893 Q120.598 229.217 117.45 232.435 Q114.302 235.652 109.071 235.652 Q103.075 235.652 99.9039 231.069 Q96.7326 226.463 96.7326 217.736 Q96.7326 209.541 100.621 204.68 Q104.51 199.796 111.061 199.796 Q112.82 199.796 114.603 200.143 Q116.408 200.49 118.353 201.185 Z" fill="#000000" fill-rule="nonzero" fill-opacity="1" /><polyline clip-path="url(#clip112)" style="stroke:#009af9; stroke-linecap:round; stroke-linejoin:round; stroke-width:4; stroke-opacity:1; fill:none" points="218.754,217.701 218.766,217.713 218.888,217.828 220.108,218.986 232.311,230.544 275.738,271.289 351.887,340.171 449.878,421.214 572.699,507.142 718.442,585.474 888.219,648.966 1080.92,694.745 1295.36,724.717 1529.07,742.757 1779.65,752.899 2044.46,758.282 2290.6,760.797 "/>
<polyline clip-path="url(#clip112)" style="stroke:#e26f46; stroke-linecap:round; stroke-linejoin:round; stroke-width:4; stroke-opacity:1; fill:none" points="218.754,627.039 218.766,627.057 218.888,627.23 220.108,628.967 232.311,646.304 275.738,707.422 351.887,810.745 449.878,932.309 572.699,1061.2 718.442,1178.7 888.219,1273.94 1080.92,1342.61 1295.36,1387.56 1529.07,1414.62 1779.65,1429.84 2044.46,1437.91 2290.6,1441.68 "/>
<polyline clip-path="url(#clip112)" style="stroke:#3da44d; stroke-linecap:round; stroke-linejoin:round; stroke-width:4; stroke-opacity:1; fill:none" points="218.754,1445.72 218.766,1445.69 218.888,1445.4 220.108,1442.5 232.311,1413.61 275.738,1311.75 351.887,1139.54 449.878,936.933 572.699,722.114 718.442,526.283 888.219,367.553 1080.92,253.105 1295.36,178.177 1529.07,133.076 1779.65,107.721 2044.46,94.2631 2290.6,87.9763 "/>
<path clip-path="url(#clip110)" d="M2028.27 1438.47 L2279.55 1438.47 L2279.55 1231.11 L2028.27 1231.11  Z" fill="#ffffff" fill-rule="evenodd" fill-opacity="1"/>
<polyline clip-path="url(#clip110)" style="stroke:#000000; stroke-linecap:round; stroke-linejoin:round; stroke-width:4; stroke-opacity:1; fill:none" points="2028.27,1438.47 2279.55,1438.47 2279.55,1231.11 2028.27,1231.11 2028.27,1438.47 "/>
<polyline clip-path="url(#clip110)" style="stroke:#009af9; stroke-linecap:round; stroke-linejoin:round; stroke-width:4; stroke-opacity:1; fill:none" points="2052.67,1282.95 2199.08,1282.95 "/>
<path clip-path="url(#clip110)" d="M2239.32 1270.28 L2232.97 1287.48 L2245.68 1287.48 L2239.32 1270.28 M2236.68 1265.67 L2241.98 1265.67 L2255.15 1300.23 L2250.29 1300.23 L2247.14 1291.37 L2231.56 1291.37 L2228.41 1300.23 L2223.48 1300.23 L2236.68 1265.67 Z" fill="#000000" fill-rule="nonzero" fill-opacity="1" /><polyline clip-path="url(#clip110)" style="stroke:#e26f46; stroke-linecap:round; stroke-linejoin:round; stroke-width:4; stroke-opacity:1; fill:none" points="2052.67,1334.79 2199.08,1334.79 "/>
<path clip-path="url(#clip110)" d="M2228.16 1335.57 L2228.16 1348.23 L2235.66 1348.23 Q2239.43 1348.23 2241.24 1346.68 Q2243.07 1345.11 2243.07 1341.89 Q2243.07 1338.65 2241.24 1337.12 Q2239.43 1335.57 2235.66 1335.57 L2228.16 1335.57 M2228.16 1321.36 L2228.16 1331.77 L2235.08 1331.77 Q2238.51 1331.77 2240.17 1330.5 Q2241.86 1329.2 2241.86 1326.57 Q2241.86 1323.95 2240.17 1322.65 Q2238.51 1321.36 2235.08 1321.36 L2228.16 1321.36 M2223.48 1317.51 L2235.43 1317.51 Q2240.77 1317.51 2243.67 1319.74 Q2246.56 1321.96 2246.56 1326.06 Q2246.56 1329.23 2245.08 1331.1 Q2243.6 1332.98 2240.73 1333.44 Q2244.18 1334.18 2246.07 1336.54 Q2248 1338.88 2248 1342.4 Q2248 1347.03 2244.85 1349.55 Q2241.7 1352.07 2235.89 1352.07 L2223.48 1352.07 L2223.48 1317.51 Z" fill="#000000" fill-rule="nonzero" fill-opacity="1" /><polyline clip-path="url(#clip110)" style="stroke:#3da44d; stroke-linecap:round; stroke-linejoin:round; stroke-width:4; stroke-opacity:1; fill:none" points="2052.67,1386.63 2199.08,1386.63 "/>
<path clip-path="url(#clip110)" d="M2251.35 1372.02 L2251.35 1376.95 Q2248.99 1374.75 2246.31 1373.66 Q2243.64 1372.57 2240.64 1372.57 Q2234.71 1372.57 2231.56 1376.21 Q2228.41 1379.82 2228.41 1386.67 Q2228.41 1393.5 2231.56 1397.13 Q2234.71 1400.74 2240.64 1400.74 Q2243.64 1400.74 2246.31 1399.66 Q2248.99 1398.57 2251.35 1396.37 L2251.35 1401.25 Q2248.9 1402.92 2246.14 1403.75 Q2243.41 1404.59 2240.36 1404.59 Q2232.51 1404.59 2228 1399.79 Q2223.48 1394.98 2223.48 1386.67 Q2223.48 1378.34 2228 1373.54 Q2232.51 1368.73 2240.36 1368.73 Q2243.46 1368.73 2246.19 1369.56 Q2248.95 1370.37 2251.35 1372.02 Z" fill="#000000" fill-rule="nonzero" fill-opacity="1" /></svg>
