<?xml version="1.0" encoding="utf-8"?>
<svg xmlns="http://www.w3.org/2000/svg" xmlns:xlink="http://www.w3.org/1999/xlink" width="600" height="400" viewBox="0 0 2400 1600">
<defs>
  <clipPath id="clip940">
    <rect x="0" y="0" width="2400" height="1600"/>
  </clipPath>
</defs>
<path clip-path="url(#clip940)" d="M0 1600 L2400 1600 L2400 0 L0 0  Z" fill="#ffffff" fill-rule="evenodd" fill-opacity="1"/>
<defs>
  <clipPath id="clip941">
    <rect x="480" y="0" width="1681" height="1600"/>
  </clipPath>
</defs>
<path clip-path="url(#clip940)" d="M141.853 1423.18 L2352.76 1423.18 L2352.76 47.2441 L141.853 47.2441  Z" fill="#ffffff" fill-rule="evenodd" fill-opacity="1"/>
<defs>
  <clipPath id="clip942">
    <rect x="141" y="47" width="2212" height="1377"/>
  </clipPath>
</defs>
<polyline clip-path="url(#clip942)" style="stroke:#000000; stroke-linecap:round; stroke-linejoin:round; stroke-width:2; stroke-opacity:0.1; fill:none" points="141.853,1423.18 141.853,47.2441 "/>
<polyline clip-path="url(#clip942)" style="stroke:#000000; stroke-linecap:round; stroke-linejoin:round; stroke-width:2; stroke-opacity:0.1; fill:none" points="694.579,1423.18 694.579,47.2441 "/>
<polyline clip-path="url(#clip942)" style="stroke:#000000; stroke-linecap:round; stroke-linejoin:round; stroke-width:2; stroke-opacity:0.1; fill:none" points="1247.3,1423.18 1247.3,47.2441 "/>
<polyline clip-path="url(#clip942)" style="stroke:#000000; stroke-linecap:round; stroke-linejoin:round; stroke-width:2; stroke-opacity:0.1; fill:none" points="1800.03,1423.18 1800.03,47.2441 "/>
<polyline clip-path="url(#clip942)" style="stroke:#000000; stroke-linecap:round; stroke-linejoin:round; stroke-width:2; stroke-opacity:0.1; fill:none" points="2352.76,1423.18 2352.76,47.2441 "/>
<polyline clip-path="url(#clip940)" style="stroke:#000000; stroke-linecap:round; stroke-linejoin:round; stroke-width:4; stroke-opacity:1; fill:none" points="141.853,1423.18 2352.76,1423.18 "/>
<polyline clip-path="url(#clip940)" style="stroke:#000000; stroke-linecap:round; stroke-linejoin:round; stroke-width:4; stroke-opacity:1; fill:none" points="141.853,1423.18 141.853,1404.28 "/>
<polyline clip-path="url(#clip940)" style="stroke:#000000; stroke-linecap:round; stroke-linejoin:round; stroke-width:4; stroke-opacity:1; fill:none" points="694.579,1423.18 694.579,1404.28 "/>
<polyline clip-path="url(#clip940)" style="stroke:#000000; stroke-linecap:round; stroke-linejoin:round; stroke-width:4; stroke-opacity:1; fill:none" points="1247.3,1423.18 1247.3,1404.28 "/>
<polyline clip-path="url(#clip940)" style="stroke:#000000; stroke-linecap:round; stroke-linejoin:round; stroke-width:4; stroke-opacity:1; fill:none" points="1800.03,1423.18 1800.03,1404.28 "/>
<polyline clip-path="url(#clip940)" style="stroke:#000000; stroke-linecap:round; stroke-linejoin:round; stroke-width:4; stroke-opacity:1; fill:none" points="2352.76,1423.18 2352.76,1404.28 "/>
<path clip-path="url(#clip940)" d="M141.853 1454.1 Q138.242 1454.1 136.413 1457.66 Q134.608 1461.2 134.608 1468.33 Q134.608 1475.44 136.413 1479.01 Q138.242 1482.55 141.853 1482.55 Q145.487 1482.55 147.293 1479.01 Q149.121 1475.44 149.121 1468.33 Q149.121 1461.2 147.293 1457.66 Q145.487 1454.1 141.853 1454.1 M141.853 1450.39 Q147.663 1450.39 150.719 1455 Q153.797 1459.58 153.797 1468.33 Q153.797 1477.06 150.719 1481.67 Q147.663 1486.25 141.853 1486.25 Q136.043 1486.25 132.964 1481.67 Q129.909 1477.06 129.909 1468.33 Q129.909 1459.58 132.964 1455 Q136.043 1450.39 141.853 1450.39 Z" fill="#000000" fill-rule="nonzero" fill-opacity="1" /><path clip-path="url(#clip940)" d="M684.857 1451.02 L703.213 1451.02 L703.213 1454.96 L689.139 1454.96 L689.139 1463.43 Q690.157 1463.08 691.176 1462.92 Q692.194 1462.73 693.213 1462.73 Q699 1462.73 702.38 1465.9 Q705.759 1469.08 705.759 1474.49 Q705.759 1480.07 702.287 1483.17 Q698.815 1486.25 692.495 1486.25 Q690.319 1486.25 688.051 1485.88 Q685.806 1485.51 683.398 1484.77 L683.398 1480.07 Q685.482 1481.2 687.704 1481.76 Q689.926 1482.32 692.403 1482.32 Q696.407 1482.32 698.745 1480.21 Q701.083 1478.1 701.083 1474.49 Q701.083 1470.88 698.745 1468.77 Q696.407 1466.67 692.403 1466.67 Q690.528 1466.67 688.653 1467.08 Q686.801 1467.5 684.857 1468.38 L684.857 1451.02 Z" fill="#000000" fill-rule="nonzero" fill-opacity="1" /><path clip-path="url(#clip940)" d="M1221.99 1481.64 L1229.63 1481.64 L1229.63 1455.28 L1221.32 1456.95 L1221.32 1452.69 L1229.58 1451.02 L1234.26 1451.02 L1234.26 1481.64 L1241.9 1481.64 L1241.9 1485.58 L1221.99 1485.58 L1221.99 1481.64 Z" fill="#000000" fill-rule="nonzero" fill-opacity="1" /><path clip-path="url(#clip940)" d="M1261.34 1454.1 Q1257.73 1454.1 1255.9 1457.66 Q1254.1 1461.2 1254.1 1468.33 Q1254.1 1475.44 1255.9 1479.01 Q1257.73 1482.55 1261.34 1482.55 Q1264.98 1482.55 1266.78 1479.01 Q1268.61 1475.44 1268.61 1468.33 Q1268.61 1461.2 1266.78 1457.66 Q1264.98 1454.1 1261.34 1454.1 M1261.34 1450.39 Q1267.15 1450.39 1270.21 1455 Q1273.29 1459.58 1273.29 1468.33 Q1273.29 1477.06 1270.21 1481.67 Q1267.15 1486.25 1261.34 1486.25 Q1255.53 1486.25 1252.45 1481.67 Q1249.4 1477.06 1249.4 1468.33 Q1249.4 1459.58 1252.45 1455 Q1255.53 1450.39 1261.34 1450.39 Z" fill="#000000" fill-rule="nonzero" fill-opacity="1" /><path clip-path="url(#clip940)" d="M1775.22 1481.64 L1782.85 1481.64 L1782.85 1455.28 L1774.54 1456.95 L1774.54 1452.69 L1782.81 1451.02 L1787.48 1451.02 L1787.48 1481.64 L1795.12 1481.64 L1795.12 1485.58 L1775.22 1485.58 L1775.22 1481.64 Z" fill="#000000" fill-rule="nonzero" fill-opacity="1" /><path clip-path="url(#clip940)" d="M1804.61 1451.02 L1822.97 1451.02 L1822.97 1454.96 L1808.9 1454.96 L1808.9 1463.43 Q1809.91 1463.08 1810.93 1462.92 Q1811.95 1462.73 1812.97 1462.73 Q1818.76 1462.73 1822.14 1465.9 Q1825.52 1469.08 1825.52 1474.49 Q1825.52 1480.07 1822.04 1483.17 Q1818.57 1486.25 1812.25 1486.25 Q1810.08 1486.25 1807.81 1485.88 Q1805.56 1485.51 1803.16 1484.77 L1803.16 1480.07 Q1805.24 1481.2 1807.46 1481.76 Q1809.68 1482.32 1812.16 1482.32 Q1816.16 1482.32 1818.5 1480.21 Q1820.84 1478.1 1820.84 1474.49 Q1820.84 1470.88 1818.5 1468.77 Q1816.16 1466.67 1812.16 1466.67 Q1810.28 1466.67 1808.41 1467.08 Q1806.56 1467.5 1804.61 1468.38 L1804.61 1451.02 Z" fill="#000000" fill-rule="nonzero" fill-opacity="1" /><path clip-path="url(#clip940)" d="M2331.53 1481.64 L2347.85 1481.64 L2347.85 1485.58 L2325.9 1485.58 L2325.9 1481.64 Q2328.57 1478.89 2333.15 1474.26 Q2337.76 1469.61 2338.94 1468.27 Q2341.18 1465.74 2342.06 1464.01 Q2342.96 1462.25 2342.96 1460.56 Q2342.96 1457.8 2341.02 1456.07 Q2339.1 1454.33 2336 1454.33 Q2333.8 1454.33 2331.34 1455.09 Q2328.91 1455.86 2326.14 1457.41 L2326.14 1452.69 Q2328.96 1451.55 2331.41 1450.97 Q2333.87 1450.39 2335.9 1450.39 Q2341.27 1450.39 2344.47 1453.08 Q2347.66 1455.77 2347.66 1460.26 Q2347.66 1462.39 2346.85 1464.31 Q2346.07 1466.2 2343.96 1468.8 Q2343.38 1469.47 2340.28 1472.69 Q2337.18 1475.88 2331.53 1481.64 Z" fill="#000000" fill-rule="nonzero" fill-opacity="1" /><path clip-path="url(#clip940)" d="M2367.66 1454.1 Q2364.05 1454.1 2362.22 1457.66 Q2360.42 1461.2 2360.42 1468.33 Q2360.42 1475.44 2362.22 1479.01 Q2364.05 1482.55 2367.66 1482.55 Q2371.3 1482.55 2373.1 1479.01 Q2374.93 1475.44 2374.93 1468.33 Q2374.93 1461.2 2373.1 1457.66 Q2371.3 1454.1 2367.66 1454.1 M2367.66 1450.39 Q2373.47 1450.39 2376.53 1455 Q2379.61 1459.58 2379.61 1468.33 Q2379.61 1477.06 2376.53 1481.67 Q2373.47 1486.25 2367.66 1486.25 Q2361.85 1486.25 2358.77 1481.67 Q2355.72 1477.06 2355.72 1468.33 Q2355.72 1459.58 2358.77 1455 Q2361.85 1450.39 2367.66 1450.39 Z" fill="#000000" fill-rule="nonzero" fill-opacity="1" /><path clip-path="url(#clip940)" d="M1246.37 1522.27 L1246.37 1532.4 L1258.43 1532.4 L1258.43 1536.95 L1246.37 1536.95 L1246.37 1556.3 Q1246.37 1560.66 1247.54 1561.9 Q1248.75 1563.14 1252.41 1563.14 L1258.43 1563.14 L1258.43 1568.04 L1252.41 1568.04 Q1245.63 1568.04 1243.06 1565.53 Q1240.48 1562.98 1240.48 1556.3 L1240.48 1536.95 L1236.18 1536.95 L1236.18 1532.4 L1240.48 1532.4 L1240.48 1522.27 L1246.37 1522.27 Z" fill="#000000" fill-rule="nonzero" fill-opacity="1" /><polyline clip-path="url(#clip942)" style="stroke:#000000; stroke-linecap:round; stroke-linejoin:round; stroke-width:2; stroke-opacity:0.1; fill:none" points="141.853,1384.24 2352.76,1384.24 "/>
<polyline clip-path="url(#clip942)" style="stroke:#000000; stroke-linecap:round; stroke-linejoin:round; stroke-width:2; stroke-opacity:0.1; fill:none" points="141.853,1167.9 2352.76,1167.9 "/>
<polyline clip-path="url(#clip942)" style="stroke:#000000; stroke-linecap:round; stroke-linejoin:round; stroke-width:2; stroke-opacity:0.1; fill:none" points="141.853,951.554 2352.76,951.554 "/>
<polyline clip-path="url(#clip942)" style="stroke:#000000; stroke-linecap:round; stroke-linejoin:round; stroke-width:2; stroke-opacity:0.1; fill:none" points="141.853,735.212 2352.76,735.212 "/>
<polyline clip-path="url(#clip942)" style="stroke:#000000; stroke-linecap:round; stroke-linejoin:round; stroke-width:2; stroke-opacity:0.1; fill:none" points="141.853,518.87 2352.76,518.87 "/>
<polyline clip-path="url(#clip942)" style="stroke:#000000; stroke-linecap:round; stroke-linejoin:round; stroke-width:2; stroke-opacity:0.1; fill:none" points="141.853,302.528 2352.76,302.528 "/>
<polyline clip-path="url(#clip942)" style="stroke:#000000; stroke-linecap:round; stroke-linejoin:round; stroke-width:2; stroke-opacity:0.1; fill:none" points="141.853,86.1857 2352.76,86.1857 "/>
<polyline clip-path="url(#clip940)" style="stroke:#000000; stroke-linecap:round; stroke-linejoin:round; stroke-width:4; stroke-opacity:1; fill:none" points="141.853,1423.18 141.853,47.2441 "/>
<polyline clip-path="url(#clip940)" style="stroke:#000000; stroke-linecap:round; stroke-linejoin:round; stroke-width:4; stroke-opacity:1; fill:none" points="141.853,1384.24 160.751,1384.24 "/>
<polyline clip-path="url(#clip940)" style="stroke:#000000; stroke-linecap:round; stroke-linejoin:round; stroke-width:4; stroke-opacity:1; fill:none" points="141.853,1167.9 160.751,1167.9 "/>
<polyline clip-path="url(#clip940)" style="stroke:#000000; stroke-linecap:round; stroke-linejoin:round; stroke-width:4; stroke-opacity:1; fill:none" points="141.853,951.554 160.751,951.554 "/>
<polyline clip-path="url(#clip940)" style="stroke:#000000; stroke-linecap:round; stroke-linejoin:round; stroke-width:4; stroke-opacity:1; fill:none" points="141.853,735.212 160.751,735.212 "/>
<polyline clip-path="url(#clip940)" style="stroke:#000000; stroke-linecap:round; stroke-linejoin:round; stroke-width:4; stroke-opacity:1; fill:none" points="141.853,518.87 160.751,518.87 "/>
<polyline clip-path="url(#clip940)" style="stroke:#000000; stroke-linecap:round; stroke-linejoin:round; stroke-width:4; stroke-opacity:1; fill:none" points="141.853,302.528 160.751,302.528 "/>
<polyline clip-path="url(#clip940)" style="stroke:#000000; stroke-linecap:round; stroke-linejoin:round; stroke-width:4; stroke-opacity:1; fill:none" points="141.853,86.1857 160.751,86.1857 "/>
<path clip-path="url(#clip940)" d="M93.9086 1370.04 Q90.2975 1370.04 88.4688 1373.6 Q86.6632 1377.14 86.6632 1384.27 Q86.6632 1391.38 88.4688 1394.94 Q90.2975 1398.49 93.9086 1398.49 Q97.5428 1398.49 99.3483 1394.94 Q101.177 1391.38 101.177 1384.27 Q101.177 1377.14 99.3483 1373.6 Q97.5428 1370.04 93.9086 1370.04 M93.9086 1366.33 Q99.7187 1366.33 102.774 1370.94 Q105.853 1375.52 105.853 1384.27 Q105.853 1393 102.774 1397.61 Q99.7187 1402.19 93.9086 1402.19 Q88.0984 1402.19 85.0197 1397.61 Q81.9642 1393 81.9642 1384.27 Q81.9642 1375.52 85.0197 1370.94 Q88.0984 1366.33 93.9086 1366.33 Z" fill="#000000" fill-rule="nonzero" fill-opacity="1" /><path clip-path="url(#clip940)" d="M54.5569 1181.24 L62.1958 1181.24 L62.1958 1154.88 L53.8856 1156.54 L53.8856 1152.28 L62.1495 1150.62 L66.8254 1150.62 L66.8254 1181.24 L74.4642 1181.24 L74.4642 1185.18 L54.5569 1185.18 L54.5569 1181.24 Z" fill="#000000" fill-rule="nonzero" fill-opacity="1" /><path clip-path="url(#clip940)" d="M93.9086 1153.69 Q90.2975 1153.69 88.4688 1157.26 Q86.6632 1160.8 86.6632 1167.93 Q86.6632 1175.04 88.4688 1178.6 Q90.2975 1182.14 93.9086 1182.14 Q97.5428 1182.14 99.3483 1178.6 Q101.177 1175.04 101.177 1167.93 Q101.177 1160.8 99.3483 1157.26 Q97.5428 1153.69 93.9086 1153.69 M93.9086 1149.99 Q99.7187 1149.99 102.774 1154.6 Q105.853 1159.18 105.853 1167.93 Q105.853 1176.66 102.774 1181.26 Q99.7187 1185.85 93.9086 1185.85 Q88.0984 1185.85 85.0197 1181.26 Q81.9642 1176.66 81.9642 1167.93 Q81.9642 1159.18 85.0197 1154.6 Q88.0984 1149.99 93.9086 1149.99 Z" fill="#000000" fill-rule="nonzero" fill-opacity="1" /><path clip-path="url(#clip940)" d="M57.7745 964.899 L74.0939 964.899 L74.0939 968.834 L52.1495 968.834 L52.1495 964.899 Q54.8115 962.144 59.3949 957.515 Q64.0013 952.862 65.1819 951.519 Q67.4272 948.996 68.3068 947.26 Q69.2096 945.501 69.2096 943.811 Q69.2096 941.056 67.2652 939.32 Q65.3439 937.584 62.2421 937.584 Q60.043 937.584 57.5893 938.348 Q55.1588 939.112 52.381 940.663 L52.381 935.941 Q55.2051 934.806 57.6588 934.228 Q60.1124 933.649 62.1495 933.649 Q67.5198 933.649 70.7142 936.334 Q73.9087 939.019 73.9087 943.51 Q73.9087 945.64 73.0985 947.561 Q72.3115 949.459 70.205 952.052 Q69.6263 952.723 66.5245 955.941 Q63.4226 959.135 57.7745 964.899 Z" fill="#000000" fill-rule="nonzero" fill-opacity="1" /><path clip-path="url(#clip940)" d="M93.9086 937.353 Q90.2975 937.353 88.4688 940.918 Q86.6632 944.459 86.6632 951.589 Q86.6632 958.695 88.4688 962.26 Q90.2975 965.802 93.9086 965.802 Q97.5428 965.802 99.3483 962.26 Q101.177 958.695 101.177 951.589 Q101.177 944.459 99.3483 940.918 Q97.5428 937.353 93.9086 937.353 M93.9086 933.649 Q99.7187 933.649 102.774 938.256 Q105.853 942.839 105.853 951.589 Q105.853 960.316 102.774 964.922 Q99.7187 969.505 93.9086 969.505 Q88.0984 969.505 85.0197 964.922 Q81.9642 960.316 81.9642 951.589 Q81.9642 942.839 85.0197 938.256 Q88.0984 933.649 93.9086 933.649 Z" fill="#000000" fill-rule="nonzero" fill-opacity="1" /><path clip-path="url(#clip940)" d="M67.9133 733.858 Q71.2698 734.575 73.1448 736.844 Q75.0429 739.112 75.0429 742.446 Q75.0429 747.561 71.5244 750.362 Q68.0059 753.163 61.5245 753.163 Q59.3486 753.163 57.0338 752.723 Q54.7421 752.307 52.2884 751.45 L52.2884 746.936 Q54.2328 748.071 56.5477 748.649 Q58.8625 749.228 61.3856 749.228 Q65.7837 749.228 68.0754 747.492 Q70.3902 745.756 70.3902 742.446 Q70.3902 739.39 68.2374 737.677 Q66.1078 735.941 62.2884 735.941 L58.2606 735.941 L58.2606 732.099 L62.4735 732.099 Q65.9226 732.099 67.7513 730.733 Q69.58 729.344 69.58 726.751 Q69.58 724.089 67.6819 722.677 Q65.8069 721.242 62.2884 721.242 Q60.3671 721.242 58.168 721.659 Q55.969 722.075 53.3301 722.955 L53.3301 718.788 Q55.9921 718.048 58.3069 717.677 Q60.6449 717.307 62.705 717.307 Q68.0291 717.307 71.1309 719.738 Q74.2327 722.145 74.2327 726.265 Q74.2327 729.136 72.5892 731.126 Q70.9457 733.094 67.9133 733.858 Z" fill="#000000" fill-rule="nonzero" fill-opacity="1" /><path clip-path="url(#clip940)" d="M93.9086 721.011 Q90.2975 721.011 88.4688 724.575 Q86.6632 728.117 86.6632 735.247 Q86.6632 742.353 88.4688 745.918 Q90.2975 749.46 93.9086 749.46 Q97.5428 749.46 99.3483 745.918 Q101.177 742.353 101.177 735.247 Q101.177 728.117 99.3483 724.575 Q97.5428 721.011 93.9086 721.011 M93.9086 717.307 Q99.7187 717.307 102.774 721.913 Q105.853 726.497 105.853 735.247 Q105.853 743.973 102.774 748.58 Q99.7187 753.163 93.9086 753.163 Q88.0984 753.163 85.0197 748.58 Q81.9642 743.973 81.9642 735.247 Q81.9642 726.497 85.0197 721.913 Q88.0984 717.307 93.9086 717.307 Z" fill="#000000" fill-rule="nonzero" fill-opacity="1" /><path clip-path="url(#clip940)" d="M66.5939 505.664 L54.7884 524.113 L66.5939 524.113 L66.5939 505.664 M65.367 501.59 L71.2466 501.59 L71.2466 524.113 L76.1772 524.113 L76.1772 528.002 L71.2466 528.002 L71.2466 536.15 L66.5939 536.15 L66.5939 528.002 L50.9921 528.002 L50.9921 523.488 L65.367 501.59 Z" fill="#000000" fill-rule="nonzero" fill-opacity="1" /><path clip-path="url(#clip940)" d="M93.9086 504.669 Q90.2975 504.669 88.4688 508.233 Q86.6632 511.775 86.6632 518.905 Q86.6632 526.011 88.4688 529.576 Q90.2975 533.117 93.9086 533.117 Q97.5428 533.117 99.3483 529.576 Q101.177 526.011 101.177 518.905 Q101.177 511.775 99.3483 508.233 Q97.5428 504.669 93.9086 504.669 M93.9086 500.965 Q99.7187 500.965 102.774 505.571 Q105.853 510.155 105.853 518.905 Q105.853 527.631 102.774 532.238 Q99.7187 536.821 93.9086 536.821 Q88.0984 536.821 85.0197 532.238 Q81.9642 527.631 81.9642 518.905 Q81.9642 510.155 85.0197 505.571 Q88.0984 500.965 93.9086 500.965 Z" fill="#000000" fill-rule="nonzero" fill-opacity="1" /><path clip-path="url(#clip940)" d="M53.793 285.248 L72.1494 285.248 L72.1494 289.183 L58.0754 289.183 L58.0754 297.655 Q59.0939 297.308 60.1124 297.146 Q61.131 296.961 62.1495 296.961 Q67.9365 296.961 71.3161 300.132 Q74.6957 303.303 74.6957 308.72 Q74.6957 314.299 71.2235 317.4 Q67.7513 320.479 61.4319 320.479 Q59.256 320.479 56.9875 320.109 Q54.7421 319.738 52.3347 318.998 L52.3347 314.299 Q54.418 315.433 56.6402 315.988 Q58.8625 316.544 61.3393 316.544 Q65.3439 316.544 67.6819 314.437 Q70.0198 312.331 70.0198 308.72 Q70.0198 305.109 67.6819 303.002 Q65.3439 300.896 61.3393 300.896 Q59.4643 300.896 57.5893 301.312 Q55.7375 301.729 53.793 302.609 L53.793 285.248 Z" fill="#000000" fill-rule="nonzero" fill-opacity="1" /><path clip-path="url(#clip940)" d="M93.9086 288.326 Q90.2975 288.326 88.4688 291.891 Q86.6632 295.433 86.6632 302.562 Q86.6632 309.669 88.4688 313.234 Q90.2975 316.775 93.9086 316.775 Q97.5428 316.775 99.3483 313.234 Q101.177 309.669 101.177 302.562 Q101.177 295.433 99.3483 291.891 Q97.5428 288.326 93.9086 288.326 M93.9086 284.623 Q99.7187 284.623 102.774 289.229 Q105.853 293.813 105.853 302.562 Q105.853 311.289 102.774 315.896 Q99.7187 320.479 93.9086 320.479 Q88.0984 320.479 85.0197 315.896 Q81.9642 311.289 81.9642 302.562 Q81.9642 293.813 85.0197 289.229 Q88.0984 284.623 93.9086 284.623 Z" fill="#000000" fill-rule="nonzero" fill-opacity="1" /><path clip-path="url(#clip940)" d="M64.3254 84.3223 Q61.1773 84.3223 59.3254 86.475 Q57.4967 88.6278 57.4967 92.3778 Q57.4967 96.1046 59.3254 98.2805 Q61.1773 100.433 64.3254 100.433 Q67.4735 100.433 69.3022 98.2805 Q71.1541 96.1046 71.1541 92.3778 Q71.1541 88.6278 69.3022 86.475 Q67.4735 84.3223 64.3254 84.3223 M73.6077 69.6696 L73.6077 73.9288 Q71.8485 73.0955 70.0429 72.6557 Q68.2606 72.2158 66.5013 72.2158 Q61.8717 72.2158 59.418 75.3408 Q56.9875 78.4658 56.6402 84.7852 Q58.006 82.7713 60.0662 81.7065 Q62.1263 80.6186 64.6032 80.6186 Q69.8115 80.6186 72.8207 83.7899 Q75.8531 86.938 75.8531 92.3778 Q75.8531 97.7018 72.705 100.919 Q69.5568 104.137 64.3254 104.137 Q58.33 104.137 55.1588 99.5537 Q51.9875 94.9472 51.9875 86.2204 Q51.9875 78.026 55.8764 73.1649 Q59.7652 68.2807 66.3161 68.2807 Q68.0754 68.2807 69.8578 68.6279 Q71.6633 68.9751 73.6077 69.6696 Z" fill="#000000" fill-rule="nonzero" fill-opacity="1" /><path clip-path="url(#clip940)" d="M93.9086 71.9844 Q90.2975 71.9844 88.4688 75.5492 Q86.6632 79.0908 86.6632 86.2204 Q86.6632 93.3268 88.4688 96.8916 Q90.2975 100.433 93.9086 100.433 Q97.5428 100.433 99.3483 96.8916 Q101.177 93.3268 101.177 86.2204 Q101.177 79.0908 99.3483 75.5492 Q97.5428 71.9844 93.9086 71.9844 M93.9086 68.2807 Q99.7187 68.2807 102.774 72.8871 Q105.853 77.4704 105.853 86.2204 Q105.853 94.9472 102.774 99.5537 Q99.7187 104.137 93.9086 104.137 Q88.0984 104.137 85.0197 99.5537 Q81.9642 94.9472 81.9642 86.2204 Q81.9642 77.4704 85.0197 72.8871 Q88.0984 68.2807 93.9086 68.2807 Z" fill="#000000" fill-rule="nonzero" fill-opacity="1" /><polyline clip-path="url(#clip942)" style="stroke:#009af9; stroke-linecap:round; stroke-linejoin:round; stroke-width:4; stroke-opacity:1; fill:none" points="141.853,86.1857 144.066,91.372 146.279,96.5313 148.492,101.664 150.705,106.769 152.919,111.848 155.132,116.9 157.345,121.925 159.558,126.924 161.771,131.896 163.984,136.842 166.197,141.762 168.41,146.655 170.623,151.522 172.837,156.363 175.05,161.178 177.263,165.967 179.476,170.731 181.689,175.468 183.902,180.18 186.115,184.866 188.328,189.526 190.541,194.161 192.755,198.771 194.968,203.355 197.181,207.915 199.394,212.449 201.607,216.958 203.82,221.442 206.033,225.901 208.246,230.336 210.46,234.745 212.673,239.13 214.886,243.491 217.099,247.827 219.312,252.139 221.525,256.427 223.738,260.69 225.951,264.93 228.164,269.145 230.378,273.336 232.591,277.504 234.804,281.648 237.017,285.769 239.23,289.865 241.443,293.939 243.656,297.989 245.869,302.016 248.083,306.019 250.296,310 252.509,313.957 254.722,317.892 256.935,321.804 259.148,325.693 261.361,329.56 263.574,333.404 265.787,337.226 268.001,341.025 270.214,344.802 272.427,348.557 274.64,352.29 276.853,356.001 279.066,359.69 281.279,363.358 283.492,367.004 285.705,370.628 287.919,374.231 290.132,377.812 292.345,381.372 294.558,384.911 296.771,388.429 298.984,391.926 301.197,395.402 303.41,398.857 305.624,402.292 307.837,405.706 310.05,409.099 312.263,412.472 314.476,415.825 316.689,419.158 318.902,422.47 321.115,425.763 323.328,429.035 325.542,432.288 327.755,435.521 329.968,438.734 332.181,441.928 334.394,445.103 336.607,448.258 338.82,451.393 341.033,454.51 343.247,457.608 345.46,460.686 347.673,463.746 349.886,466.787 352.099,469.81 354.312,472.813 356.525,475.799 358.738,478.766 360.951,481.714 363.165,484.645 365.378,487.557 367.591,490.451 369.804,493.328 372.017,496.186 374.23,499.027 376.443,501.85 378.656,504.656 380.869,507.445 383.083,510.216 385.296,512.969 387.509,515.706 389.722,518.425 391.935,521.128 394.148,523.814 396.361,526.483 398.574,529.135 400.788,531.77 403.001,534.39 405.214,536.992 407.427,539.579 409.64,542.149 411.853,544.703 414.066,547.241 416.279,549.763 418.492,552.269 420.706,554.76 422.919,557.234 425.132,559.693 427.345,562.137 429.558,564.565 431.771,566.978 433.984,569.376 436.197,571.758 438.41,574.125 440.624,576.478 442.837,578.815 445.05,581.138 447.263,583.446 449.476,585.739 451.689,588.018 453.902,590.282 456.115,592.532 458.329,594.768 460.542,596.989 462.755,599.197 464.968,601.39 467.181,603.569 469.394,605.735 471.607,607.886 473.82,610.024 476.033,612.148 478.247,614.259 480.46,616.356 482.673,618.44 484.886,620.511 487.099,622.568 489.312,624.613 491.525,626.644 493.738,628.662 495.952,630.667 498.165,632.66 500.378,634.639 502.591,636.607 504.804,638.561 507.017,640.503 509.23,642.433 511.443,644.35 513.656,646.255 515.87,648.148 518.083,650.028 520.296,651.897 522.509,653.753 524.722,655.598 526.935,657.431 529.148,659.252 531.361,661.062 533.574,662.86 535.788,664.646 538.001,666.421 540.214,668.185 542.427,669.937 544.64,671.678 546.853,673.408 549.066,675.127 551.279,676.834 553.493,678.531 555.706,680.217 557.919,681.892 560.132,683.556 562.345,685.21 564.558,686.853 566.771,688.485 568.984,690.107 571.197,691.719 573.411,693.32 575.624,694.911 577.837,696.492 580.05,698.062 582.263,699.623 584.476,701.173 586.689,702.714 588.902,704.244 591.116,705.765 593.329,707.276 595.542,708.778 597.755,710.269 599.968,711.751 602.181,713.224 604.394,714.687 606.607,716.141 608.82,717.585 611.034,719.021 613.247,720.447 615.46,721.863 617.673,723.271 619.886,724.67 622.099,726.06 624.312,727.44 626.525,728.812 628.738,730.176 630.952,731.53 633.165,732.876 635.378,734.213 637.591,735.541 639.804,736.862 642.017,738.173 644.23,739.476 646.443,740.771 648.657,742.058 650.87,743.336 653.083,744.607 655.296,745.869 657.509,747.123 659.722,748.369 661.935,749.607 664.148,750.837 666.361,752.059 668.575,753.274 670.788,754.48 673.001,755.679 675.214,756.871 677.427,758.055 679.64,759.231 681.853,760.4 684.066,761.561 686.279,762.715 688.493,763.862 690.706,765.001 692.919,766.133 695.132,767.258 697.345,768.375 699.558,769.486 701.771,770.589 703.984,771.686 706.198,772.775 708.411,773.858 710.624,774.934 712.837,776.002 715.05,777.064 717.263,778.12 719.476,779.168 721.689,780.21 723.902,781.246 726.116,782.274 728.329,783.297 730.542,784.312 732.755,785.322 734.968,786.324 737.181,787.321 739.394,788.311 741.607,789.295 743.821,790.273 746.034,791.244 748.247,792.21 750.46,793.169 752.673,794.122 754.886,795.069 757.099,796.01 759.312,796.946 761.525,797.875 763.739,798.798 765.952,799.716 768.165,800.628 770.378,801.534 772.591,802.434 774.804,803.329 777.017,804.218 779.23,805.101 781.443,805.979 783.657,806.851 785.87,807.718 788.083,808.58 790.296,809.436 792.509,810.286 794.722,811.131 796.935,811.971 799.148,812.806 801.362,813.635 803.575,814.46 805.788,815.279 808.001,816.093 810.214,816.901 812.427,817.705 814.64,818.504 816.853,819.298 819.066,820.086 821.28,820.87 823.493,821.649 825.706,822.423 827.919,823.192 830.132,823.957 832.345,824.717 834.558,825.471 836.771,826.222 838.985,826.967 841.198,827.708 843.411,828.444 845.624,829.176 847.837,829.903 850.05,830.626 852.263,831.344 854.476,832.058 856.689,832.767 858.903,833.472 861.116,834.172 863.329,834.868 865.542,835.56 867.755,836.248 869.968,836.931 872.181,837.61 874.394,838.285 876.607,838.955 878.821,839.622 881.034,840.284 883.247,840.943 885.46,841.597 887.673,842.247 889.886,842.893 892.099,843.535 894.312,844.173 896.526,844.808 898.739,845.438 900.952,846.064 903.165,846.687 905.378,847.306 907.591,847.921 909.804,848.532 912.017,849.139 914.23,849.743 916.444,850.342 918.657,850.939 920.87,851.531 923.083,852.12 925.296,852.705 927.509,853.287 929.722,853.865 931.935,854.439 934.148,855.01 936.362,855.578 938.575,856.142 940.788,856.702 943.001,857.259 945.214,857.813 947.427,858.363 949.64,858.91 951.853,859.453 954.067,859.994 956.28,860.53 958.493,861.064 960.706,861.594 962.919,862.121 965.132,862.645 967.345,863.166 969.558,863.683 971.771,864.198 973.985,864.709 976.198,865.217 978.411,865.722 980.624,866.224 982.837,866.723 985.05,867.218 987.263,867.711 989.476,868.201 991.69,868.688 993.903,869.172 996.116,869.653 998.329,870.131 1000.54,870.606 1002.76,871.078 1004.97,871.547 1007.18,872.014 1009.39,872.477 1011.61,872.938 1013.82,873.396 1016.03,873.852 1018.25,874.304 1020.46,874.754 1022.67,875.201 1024.89,875.645 1027.1,876.087 1029.31,876.526 1031.53,876.963 1033.74,877.396 1035.95,877.827 1038.16,878.256 1040.38,878.682 1042.59,879.105 1044.8,879.526 1047.02,879.944 1049.23,880.36 1051.44,880.774 1053.66,881.184 1055.87,881.593 1058.08,881.999 1060.3,882.402 1062.51,882.803 1064.72,883.202 1066.94,883.598 1069.15,883.992 1071.36,884.383 1073.57,884.772 1075.79,885.159 1078,885.544 1080.21,885.926 1082.43,886.306 1084.64,886.684 1086.85,887.059 1089.07,887.432 1091.28,887.803 1093.49,888.172 1095.71,888.538 1097.92,888.903 1100.13,889.265 1102.35,889.625 1104.56,889.983 1106.77,890.338 1108.98,890.692 1111.2,891.043 1113.41,891.393 1115.62,891.74 1117.84,892.085 1120.05,892.428 1122.26,892.769 1124.48,893.108 1126.69,893.445 1128.9,893.78 1131.12,894.113 1133.33,894.444 1135.54,894.774 1137.76,895.101 1139.97,895.426 1142.18,895.749 1144.39,896.07 1146.61,896.39 1148.82,896.707 1151.03,897.023 1153.25,897.336 1155.46,897.648 1157.67,897.958 1159.89,898.267 1162.1,898.573 1164.31,898.877 1166.53,899.18 1168.74,899.481 1170.95,899.78 1173.17,900.077 1175.38,900.373 1177.59,900.667 1179.8,900.959 1182.02,901.249 1184.23,901.538 1186.44,901.825 1188.66,902.11 1190.87,902.394 1193.08,902.676 1195.3,902.956 1197.51,903.234 1199.72,903.511 1201.94,903.787 1204.15,904.06 1206.36,904.332 1208.57,904.603 1210.79,904.872 1213,905.139 1215.21,905.405 1217.43,905.669 1219.64,905.931 1221.85,906.192 1224.07,906.452 1226.28,906.71 1228.49,906.966 1230.71,907.221 1232.92,907.475 1235.13,907.727 1237.35,907.977 1239.56,908.226 1241.77,908.474 1243.98,908.72 1246.2,908.964 1248.41,909.208 1250.62,909.45 1252.84,909.69 1255.05,909.929 1257.26,910.167 1259.48,910.403 1261.69,910.638 1263.9,910.871 1266.12,911.103 1268.33,911.334 1270.54,911.563 1272.76,911.791 1274.97,912.018 1277.18,912.243 1279.39,912.468 1281.61,912.69 1283.82,912.912 1286.03,913.132 1288.25,913.351 1290.46,913.569 1292.67,913.785 1294.89,914 1297.1,914.214 1299.31,914.427 1301.53,914.638 1303.74,914.848 1305.95,915.057 1308.17,915.265 1310.38,915.471 1312.59,915.677 1314.8,915.881 1317.02,916.084 1319.23,916.286 1321.44,916.486 1323.66,916.686 1325.87,916.884 1328.08,917.081 1330.3,917.277 1332.51,917.472 1334.72,917.666 1336.94,917.858 1339.15,918.05 1341.36,918.24 1343.57,918.429 1345.79,918.618 1348,918.805 1350.21,918.991 1352.43,919.175 1354.64,919.359 1356.85,919.542 1359.07,919.724 1361.28,919.904 1363.49,920.084 1365.71,920.263 1367.92,920.44 1370.13,920.617 1372.35,920.792 1374.56,920.967 1376.77,921.14 1378.98,921.312 1381.2,921.484 1383.41,921.654 1385.62,921.824 1387.84,921.992 1390.05,922.16 1392.26,922.326 1394.48,922.492 1396.69,922.656 1398.9,922.82 1401.12,922.983 1403.33,923.145 1405.54,923.305 1407.76,923.465 1409.97,923.624 1412.18,923.782 1414.39,923.939 1416.61,924.096 1418.82,924.251 1421.03,924.405 1423.25,924.559 1425.46,924.712 1427.67,924.863 1429.89,925.014 1432.1,925.164 1434.31,925.314 1436.53,925.462 1438.74,925.609 1440.95,925.756 1443.17,925.902 1445.38,926.047 1447.59,926.191 1449.8,926.334 1452.02,926.476 1454.23,926.618 1456.44,926.759 1458.66,926.899 1460.87,927.038 1463.08,927.176 1465.3,927.314 1467.51,927.451 1469.72,927.587 1471.94,927.722 1474.15,927.857 1476.36,927.99 1478.58,928.123 1480.79,928.255 1483,928.387 1485.21,928.517 1487.43,928.647 1489.64,928.776 1491.85,928.905 1494.07,929.033 1496.28,929.16 1498.49,929.286 1500.71,929.411 1502.92,929.536 1505.13,929.66 1507.35,929.784 1509.56,929.906 1511.77,930.028 1513.98,930.15 1516.2,930.27 1518.41,930.39 1520.62,930.509 1522.84,930.628 1525.05,930.746 1527.26,930.863 1529.48,930.979 1531.69,931.095 1533.9,931.21 1536.12,931.325 1538.33,931.439 1540.54,931.552 1542.76,931.665 1544.97,931.777 1547.18,931.888 1549.39,931.999 1551.61,932.109 1553.82,932.218 1556.03,932.327 1558.25,932.435 1560.46,932.543 1562.67,932.65 1564.89,932.756 1567.1,932.862 1569.31,932.967 1571.53,933.072 1573.74,933.176 1575.95,933.279 1578.17,933.382 1580.38,933.484 1582.59,933.586 1584.8,933.687 1587.02,933.787 1589.23,933.887 1591.44,933.986 1593.66,934.085 1595.87,934.183 1598.08,934.281 1600.3,934.378 1602.51,934.475 1604.72,934.571 1606.94,934.666 1609.15,934.761 1611.36,934.855 1613.58,934.949 1615.79,935.042 1618,935.135 1620.21,935.227 1622.43,935.319 1624.64,935.41 1626.85,935.501 1629.07,935.591 1631.28,935.681 1633.49,935.77 1635.71,935.858 1637.92,935.947 1640.13,936.034 1642.35,936.121 1644.56,936.208 1646.77,936.294 1648.98,936.38 1651.2,936.465 1653.41,936.549 1655.62,936.634 1657.84,936.717 1660.05,936.801 1662.26,936.883 1664.48,936.966 1666.69,937.047 1668.9,937.129 1671.12,937.21 1673.33,937.29 1675.54,937.37 1677.76,937.45 1679.97,937.529 1682.18,937.607 1684.39,937.685 1686.61,937.763 1688.82,937.84 1691.03,937.917 1693.25,937.994 1695.46,938.07 1697.67,938.145 1699.89,938.22 1702.1,938.295 1704.31,938.369 1706.53,938.443 1708.74,938.516 1710.95,938.59 1713.17,938.662 1715.38,938.734 1717.59,938.806 1719.8,938.877 1722.02,938.948 1724.23,939.019 1726.44,939.089 1728.66,939.159 1730.87,939.228 1733.08,939.297 1735.3,939.366 1737.51,939.434 1739.72,939.502 1741.94,939.569 1744.15,939.636 1746.36,939.703 1748.58,939.769 1750.79,939.835 1753,939.901 1755.21,939.966 1757.43,940.031 1759.64,940.095 1761.85,940.159 1764.07,940.223 1766.28,940.287 1768.49,940.35 1770.71,940.412 1772.92,940.474 1775.13,940.536 1777.35,940.598 1779.56,940.659 1781.77,940.72 1783.99,940.781 1786.2,940.841 1788.41,940.901 1790.62,940.961 1792.84,941.02 1795.05,941.079 1797.26,941.137 1799.48,941.195 1801.69,941.253 1803.9,941.311 1806.12,941.368 1808.33,941.425 1810.54,941.482 1812.76,941.538 1814.97,941.594 1817.18,941.65 1819.39,941.705 1821.61,941.76 1823.82,941.815 1826.03,941.869 1828.25,941.924 1830.46,941.977 1832.67,942.031 1834.89,942.084 1837.1,942.137 1839.31,942.19 1841.53,942.242 1843.74,942.294 1845.95,942.346 1848.17,942.397 1850.38,942.449 1852.59,942.499 1854.8,942.55 1857.02,942.6 1859.23,942.65 1861.44,942.7 1863.66,942.75 1865.87,942.799 1868.08,942.848 1870.3,942.896 1872.51,942.945 1874.72,942.993 1876.94,943.041 1879.15,943.088 1881.36,943.136 1883.58,943.183 1885.79,943.229 1888,943.276 1890.21,943.322 1892.43,943.368 1894.64,943.414 1896.85,943.459 1899.07,943.504 1901.28,943.549 1903.49,943.594 1905.71,943.638 1907.92,943.683 1910.13,943.727 1912.35,943.77 1914.56,943.814 1916.77,943.857 1918.99,943.9 1921.2,943.943 1923.41,943.985 1925.62,944.027 1927.84,944.069 1930.05,944.111 1932.26,944.153 1934.48,944.194 1936.69,944.235 1938.9,944.276 1941.12,944.316 1943.33,944.357 1945.54,944.397 1947.76,944.437 1949.97,944.477 1952.18,944.516 1954.4,944.555 1956.61,944.594 1958.82,944.633 1961.03,944.672 1963.25,944.71 1965.46,944.748 1967.67,944.786 1969.89,944.824 1972.1,944.861 1974.31,944.899 1976.53,944.936 1978.74,944.973 1980.95,945.009 1983.17,945.046 1985.38,945.082 1987.59,945.118 1989.8,945.154 1992.02,945.19 1994.23,945.225 1996.44,945.26 1998.66,945.296 2000.87,945.33 2003.08,945.365 2005.3,945.4 2007.51,945.434 2009.72,945.468 2011.94,945.502 2014.15,945.536 2016.36,945.569 2018.58,945.602 2020.79,945.636 2023,945.669 2025.21,945.701 2027.43,945.734 2029.64,945.766 2031.85,945.799 2034.07,945.831 2036.28,945.862 2038.49,945.894 2040.71,945.926 2042.92,945.957 2045.13,945.988 2047.35,946.019 2049.56,946.05 2051.77,946.081 2053.99,946.111 2056.2,946.141 2058.41,946.172 2060.62,946.202 2062.84,946.231 2065.05,946.261 2067.26,946.29 2069.48,946.32 2071.69,946.349 2073.9,946.378 2076.12,946.407 2078.33,946.435 2080.54,946.464 2082.76,946.492 2084.97,946.52 2087.18,946.548 2089.4,946.576 2091.61,946.604 2093.82,946.632 2096.03,946.659 2098.25,946.686 2100.46,946.713 2102.67,946.74 2104.89,946.767 2107.1,946.794 2109.31,946.82 2111.53,946.847 2113.74,946.873 2115.95,946.899 2118.17,946.925 2120.38,946.951 2122.59,946.976 2124.8,947.002 2127.02,947.027 2129.23,947.052 2131.44,947.077 2133.66,947.102 2135.87,947.127 2138.08,947.152 2140.3,947.176 2142.51,947.201 2144.72,947.225 2146.94,947.249 2149.15,947.273 2151.36,947.297 2153.58,947.321 2155.79,947.344 2158,947.368 2160.21,947.391 2162.43,947.414 2164.64,947.437 2166.85,947.46 2169.07,947.483 2171.28,947.506 2173.49,947.528 2175.71,947.55 2177.92,947.573 2180.13,947.595 2182.35,947.617 2184.56,947.639 2186.77,947.661 2188.99,947.682 2191.2,947.704 2193.41,947.725 2195.62,947.747 2197.84,947.768 2200.05,947.789 2202.26,947.81 2204.48,947.831 2206.69,947.851 2208.9,947.872 2211.12,947.892 2213.33,947.913 2215.54,947.933 2217.76,947.953 2219.97,947.973 2222.18,947.993 2224.4,948.013 2226.61,948.033 2228.82,948.052 2231.03,948.072 2233.25,948.091 2235.46,948.11 2237.67,948.13 2239.89,948.149 2242.1,948.168 2244.31,948.186 2246.53,948.205 2248.74,948.224 2250.95,948.242 2253.17,948.261 2255.38,948.279 2257.59,948.297 2259.81,948.315 2262.02,948.333 2264.23,948.351 2266.44,948.369 2268.66,948.387 2270.87,948.404 2273.08,948.422 2275.3,948.439 2277.51,948.457 2279.72,948.474 2281.94,948.491 2284.15,948.508 2286.36,948.525 2288.58,948.542 2290.79,948.558 2293,948.575 2295.21,948.592 2297.43,948.608 2299.64,948.625 2301.85,948.641 2304.07,948.657 2306.28,948.673 2308.49,948.689 2310.71,948.705 2312.92,948.721 2315.13,948.737 2317.35,948.752 2319.56,948.768 2321.77,948.783 2323.99,948.799 2326.2,948.814 2328.41,948.829 2330.62,948.844 2332.84,948.859 2335.05,948.874 2337.26,948.889 2339.48,948.904 2341.69,948.919 2343.9,948.934 2346.12,948.948 2348.33,948.963 2350.54,948.977 2352.76,948.991 "/>
<polyline clip-path="url(#clip942)" style="stroke:#e26f46; stroke-linecap:round; stroke-linejoin:round; stroke-width:4; stroke-opacity:1; fill:none" points="141.853,518.87 144.066,524.056 146.279,529.216 148.492,534.348 150.705,539.453 152.919,544.532 155.132,549.584 157.345,554.61 159.558,559.608 161.771,564.581 163.984,569.527 166.197,574.446 168.41,579.339 170.623,584.207 172.837,589.048 175.05,593.863 177.263,598.652 179.476,603.415 181.689,608.152 183.902,612.864 186.115,617.55 188.328,622.211 190.541,626.846 192.755,631.455 194.968,636.04 197.181,640.599 199.394,645.133 201.607,649.642 203.82,654.126 206.033,658.585 208.246,663.02 210.46,667.43 212.673,671.815 214.886,676.175 217.099,680.511 219.312,684.823 221.525,689.111 223.738,693.374 225.951,697.614 228.164,701.829 230.378,706.021 232.591,710.188 234.804,714.332 237.017,718.453 239.23,722.55 241.443,726.623 243.656,730.673 245.869,734.7 248.083,738.703 250.296,742.684 252.509,746.642 254.722,750.576 256.935,754.488 259.148,758.377 261.361,762.244 263.574,766.088 265.787,769.91 268.001,773.709 270.214,777.486 272.427,781.241 274.64,784.974 276.853,788.685 279.066,792.375 281.279,796.042 283.492,799.688 285.705,803.312 287.919,806.915 290.132,810.496 292.345,814.056 294.558,817.595 296.771,821.113 298.984,824.61 301.197,828.086 303.41,831.542 305.624,834.976 307.837,838.39 310.05,841.784 312.263,845.157 314.476,848.509 316.689,851.842 318.902,855.155 321.115,858.447 323.328,861.72 325.542,864.972 327.755,868.205 329.968,871.419 332.181,874.612 334.394,877.787 336.607,880.942 338.82,884.078 341.033,887.194 343.247,890.292 345.46,893.371 347.673,896.43 349.886,899.471 352.099,902.494 354.312,905.498 356.525,908.483 358.738,911.45 360.951,914.398 363.165,917.329 365.378,920.241 367.591,923.135 369.804,926.012 372.017,928.87 374.23,931.711 376.443,934.535 378.656,937.34 380.869,940.129 383.083,942.9 385.296,945.653 387.509,948.39 389.722,951.11 391.935,953.812 394.148,956.498 396.361,959.167 398.574,961.819 400.788,964.455 403.001,967.074 405.214,969.677 407.427,972.263 409.64,974.833 411.853,977.387 414.066,979.925 416.279,982.447 418.492,984.953 420.706,987.444 422.919,989.918 425.132,992.378 427.345,994.821 429.558,997.249 431.771,999.662 433.984,1002.06 436.197,1004.44 438.41,1006.81 440.624,1009.16 442.837,1011.5 445.05,1013.82 447.263,1016.13 449.476,1018.42 451.689,1020.7 453.902,1022.97 456.115,1025.22 458.329,1027.45 460.542,1029.67 462.755,1031.88 464.968,1034.07 467.181,1036.25 469.394,1038.42 471.607,1040.57 473.82,1042.71 476.033,1044.83 478.247,1046.94 480.46,1049.04 482.673,1051.12 484.886,1053.2 487.099,1055.25 489.312,1057.3 491.525,1059.33 493.738,1061.35 495.952,1063.35 498.165,1065.34 500.378,1067.32 502.591,1069.29 504.804,1071.25 507.017,1073.19 509.23,1075.12 511.443,1077.03 513.656,1078.94 515.87,1080.83 518.083,1082.71 520.296,1084.58 522.509,1086.44 524.722,1088.28 526.935,1090.12 529.148,1091.94 531.361,1093.75 533.574,1095.54 535.788,1097.33 538.001,1099.11 540.214,1100.87 542.427,1102.62 544.64,1104.36 546.853,1106.09 549.066,1107.81 551.279,1109.52 553.493,1111.22 555.706,1112.9 557.919,1114.58 560.132,1116.24 562.345,1117.89 564.558,1119.54 566.771,1121.17 568.984,1122.79 571.197,1124.4 573.411,1126 575.624,1127.6 577.837,1129.18 580.05,1130.75 582.263,1132.31 584.476,1133.86 586.689,1135.4 588.902,1136.93 591.116,1138.45 593.329,1139.96 595.542,1141.46 597.755,1142.95 599.968,1144.44 602.181,1145.91 604.394,1147.37 606.607,1148.83 608.82,1150.27 611.034,1151.7 613.247,1153.13 615.46,1154.55 617.673,1155.96 619.886,1157.35 622.099,1158.74 624.312,1160.12 626.525,1161.5 628.738,1162.86 630.952,1164.21 633.165,1165.56 635.378,1166.9 637.591,1168.23 639.804,1169.55 642.017,1170.86 644.23,1172.16 646.443,1173.46 648.657,1174.74 650.87,1176.02 653.083,1177.29 655.296,1178.55 657.509,1179.81 659.722,1181.05 661.935,1182.29 664.148,1183.52 666.361,1184.74 668.575,1185.96 670.788,1187.16 673.001,1188.36 675.214,1189.56 677.427,1190.74 679.64,1191.92 681.853,1193.08 684.066,1194.25 686.279,1195.4 688.493,1196.55 690.706,1197.69 692.919,1198.82 695.132,1199.94 697.345,1201.06 699.558,1202.17 701.771,1203.27 703.984,1204.37 706.198,1205.46 708.411,1206.54 710.624,1207.62 712.837,1208.69 715.05,1209.75 717.263,1210.8 719.476,1211.85 721.689,1212.89 723.902,1213.93 726.116,1214.96 728.329,1215.98 730.542,1217 732.755,1218.01 734.968,1219.01 737.181,1220.01 739.394,1221 741.607,1221.98 743.821,1222.96 746.034,1223.93 748.247,1224.89 750.46,1225.85 752.673,1226.81 754.886,1227.75 757.099,1228.69 759.312,1229.63 761.525,1230.56 763.739,1231.48 765.952,1232.4 768.165,1233.31 770.378,1234.22 772.591,1235.12 774.804,1236.01 777.017,1236.9 779.23,1237.79 781.443,1238.66 783.657,1239.54 785.87,1240.4 788.083,1241.26 790.296,1242.12 792.509,1242.97 794.722,1243.82 796.935,1244.66 799.148,1245.49 801.362,1246.32 803.575,1247.14 805.788,1247.96 808.001,1248.78 810.214,1249.59 812.427,1250.39 814.64,1251.19 816.853,1251.98 819.066,1252.77 821.28,1253.55 823.493,1254.33 825.706,1255.11 827.919,1255.88 830.132,1256.64 832.345,1257.4 834.558,1258.16 836.771,1258.91 838.985,1259.65 841.198,1260.39 843.411,1261.13 845.624,1261.86 847.837,1262.59 850.05,1263.31 852.263,1264.03 854.476,1264.74 856.689,1265.45 858.903,1266.16 861.116,1266.86 863.329,1267.55 865.542,1268.24 867.755,1268.93 869.968,1269.62 872.181,1270.29 874.394,1270.97 876.607,1271.64 878.821,1272.31 881.034,1272.97 883.247,1273.63 885.46,1274.28 887.673,1274.93 889.886,1275.58 892.099,1276.22 894.312,1276.86 896.526,1277.49 898.739,1278.12 900.952,1278.75 903.165,1279.37 905.378,1279.99 907.591,1280.6 909.804,1281.22 912.017,1281.82 914.23,1282.43 916.444,1283.03 918.657,1283.62 920.87,1284.22 923.083,1284.8 925.296,1285.39 927.509,1285.97 929.722,1286.55 931.935,1287.12 934.148,1287.69 936.362,1288.26 938.575,1288.83 940.788,1289.39 943.001,1289.94 945.214,1290.5 947.427,1291.05 949.64,1291.59 951.853,1292.14 954.067,1292.68 956.28,1293.21 958.493,1293.75 960.706,1294.28 962.919,1294.81 965.132,1295.33 967.345,1295.85 969.558,1296.37 971.771,1296.88 973.985,1297.39 976.198,1297.9 978.411,1298.41 980.624,1298.91 982.837,1299.41 985.05,1299.9 987.263,1300.4 989.476,1300.89 991.69,1301.37 993.903,1301.86 996.116,1302.34 998.329,1302.81 1000.54,1303.29 1002.76,1303.76 1004.97,1304.23 1007.18,1304.7 1009.39,1305.16 1011.61,1305.62 1013.82,1306.08 1016.03,1306.54 1018.25,1306.99 1020.46,1307.44 1022.67,1307.89 1024.89,1308.33 1027.1,1308.77 1029.31,1309.21 1031.53,1309.65 1033.74,1310.08 1035.95,1310.51 1038.16,1310.94 1040.38,1311.37 1042.59,1311.79 1044.8,1312.21 1047.02,1312.63 1049.23,1313.04 1051.44,1313.46 1053.66,1313.87 1055.87,1314.28 1058.08,1314.68 1060.3,1315.09 1062.51,1315.49 1064.72,1315.89 1066.94,1316.28 1069.15,1316.68 1071.36,1317.07 1073.57,1317.46 1075.79,1317.84 1078,1318.23 1080.21,1318.61 1082.43,1318.99 1084.64,1319.37 1086.85,1319.74 1089.07,1320.12 1091.28,1320.49 1093.49,1320.86 1095.71,1321.22 1097.92,1321.59 1100.13,1321.95 1102.35,1322.31 1104.56,1322.67 1106.77,1323.02 1108.98,1323.38 1111.2,1323.73 1113.41,1324.08 1115.62,1324.42 1117.84,1324.77 1120.05,1325.11 1122.26,1325.45 1124.48,1325.79 1126.69,1326.13 1128.9,1326.46 1131.12,1326.8 1133.33,1327.13 1135.54,1327.46 1137.76,1327.78 1139.97,1328.11 1142.18,1328.43 1144.39,1328.75 1146.61,1329.07 1148.82,1329.39 1151.03,1329.71 1153.25,1330.02 1155.46,1330.33 1157.67,1330.64 1159.89,1330.95 1162.1,1331.26 1164.31,1331.56 1166.53,1331.86 1168.74,1332.17 1170.95,1332.46 1173.17,1332.76 1175.38,1333.06 1177.59,1333.35 1179.8,1333.64 1182.02,1333.93 1184.23,1334.22 1186.44,1334.51 1188.66,1334.79 1190.87,1335.08 1193.08,1335.36 1195.3,1335.64 1197.51,1335.92 1199.72,1336.2 1201.94,1336.47 1204.15,1336.74 1206.36,1337.02 1208.57,1337.29 1210.79,1337.56 1213,1337.82 1215.21,1338.09 1217.43,1338.35 1219.64,1338.62 1221.85,1338.88 1224.07,1339.14 1226.28,1339.39 1228.49,1339.65 1230.71,1339.91 1232.92,1340.16 1235.13,1340.41 1237.35,1340.66 1239.56,1340.91 1241.77,1341.16 1243.98,1341.4 1246.2,1341.65 1248.41,1341.89 1250.62,1342.13 1252.84,1342.37 1255.05,1342.61 1257.26,1342.85 1259.48,1343.09 1261.69,1343.32 1263.9,1343.56 1266.12,1343.79 1268.33,1344.02 1270.54,1344.25 1272.76,1344.48 1274.97,1344.7 1277.18,1344.93 1279.39,1345.15 1281.61,1345.37 1283.82,1345.6 1286.03,1345.82 1288.25,1346.04 1290.46,1346.25 1292.67,1346.47 1294.89,1346.68 1297.1,1346.9 1299.31,1347.11 1301.53,1347.32 1303.74,1347.53 1305.95,1347.74 1308.17,1347.95 1310.38,1348.16 1312.59,1348.36 1314.8,1348.57 1317.02,1348.77 1319.23,1348.97 1321.44,1349.17 1323.66,1349.37 1325.87,1349.57 1328.08,1349.77 1330.3,1349.96 1332.51,1350.16 1334.72,1350.35 1336.94,1350.54 1339.15,1350.73 1341.36,1350.92 1343.57,1351.11 1345.79,1351.3 1348,1351.49 1350.21,1351.67 1352.43,1351.86 1354.64,1352.04 1356.85,1352.23 1359.07,1352.41 1361.28,1352.59 1363.49,1352.77 1365.71,1352.95 1367.92,1353.12 1370.13,1353.3 1372.35,1353.48 1374.56,1353.65 1376.77,1353.82 1378.98,1354 1381.2,1354.17 1383.41,1354.34 1385.62,1354.51 1387.84,1354.68 1390.05,1354.84 1392.26,1355.01 1394.48,1355.18 1396.69,1355.34 1398.9,1355.5 1401.12,1355.67 1403.33,1355.83 1405.54,1355.99 1407.76,1356.15 1409.97,1356.31 1412.18,1356.47 1414.39,1356.62 1416.61,1356.78 1418.82,1356.94 1421.03,1357.09 1423.25,1357.24 1425.46,1357.4 1427.67,1357.55 1429.89,1357.7 1432.1,1357.85 1434.31,1358 1436.53,1358.15 1438.74,1358.29 1440.95,1358.44 1443.17,1358.59 1445.38,1358.73 1447.59,1358.87 1449.8,1359.02 1452.02,1359.16 1454.23,1359.3 1456.44,1359.44 1458.66,1359.58 1460.87,1359.72 1463.08,1359.86 1465.3,1360 1467.51,1360.13 1469.72,1360.27 1471.94,1360.41 1474.15,1360.54 1476.36,1360.67 1478.58,1360.81 1480.79,1360.94 1483,1361.07 1485.21,1361.2 1487.43,1361.33 1489.64,1361.46 1491.85,1361.59 1494.07,1361.72 1496.28,1361.84 1498.49,1361.97 1500.71,1362.1 1502.92,1362.22 1505.13,1362.34 1507.35,1362.47 1509.56,1362.59 1511.77,1362.71 1513.98,1362.83 1516.2,1362.95 1518.41,1363.07 1520.62,1363.19 1522.84,1363.31 1525.05,1363.43 1527.26,1363.55 1529.48,1363.66 1531.69,1363.78 1533.9,1363.89 1536.12,1364.01 1538.33,1364.12 1540.54,1364.24 1542.76,1364.35 1544.97,1364.46 1547.18,1364.57 1549.39,1364.68 1551.61,1364.79 1553.82,1364.9 1556.03,1365.01 1558.25,1365.12 1560.46,1365.23 1562.67,1365.33 1564.89,1365.44 1567.1,1365.55 1569.31,1365.65 1571.53,1365.76 1573.74,1365.86 1575.95,1365.96 1578.17,1366.07 1580.38,1366.17 1582.59,1366.27 1584.8,1366.37 1587.02,1366.47 1589.23,1366.57 1591.44,1366.67 1593.66,1366.77 1595.87,1366.87 1598.08,1366.97 1600.3,1367.06 1602.51,1367.16 1604.72,1367.25 1606.94,1367.35 1609.15,1367.45 1611.36,1367.54 1613.58,1367.63 1615.79,1367.73 1618,1367.82 1620.21,1367.91 1622.43,1368 1624.64,1368.09 1626.85,1368.19 1629.07,1368.28 1631.28,1368.36 1633.49,1368.45 1635.71,1368.54 1637.92,1368.63 1640.13,1368.72 1642.35,1368.81 1644.56,1368.89 1646.77,1368.98 1648.98,1369.06 1651.2,1369.15 1653.41,1369.23 1655.62,1369.32 1657.84,1369.4 1660.05,1369.48 1662.26,1369.57 1664.48,1369.65 1666.69,1369.73 1668.9,1369.81 1671.12,1369.89 1673.33,1369.97 1675.54,1370.05 1677.76,1370.13 1679.97,1370.21 1682.18,1370.29 1684.39,1370.37 1686.61,1370.45 1688.82,1370.52 1691.03,1370.6 1693.25,1370.68 1695.46,1370.75 1697.67,1370.83 1699.89,1370.9 1702.1,1370.98 1704.31,1371.05 1706.53,1371.13 1708.74,1371.2 1710.95,1371.27 1713.17,1371.35 1715.38,1371.42 1717.59,1371.49 1719.8,1371.56 1722.02,1371.63 1724.23,1371.7 1726.44,1371.77 1728.66,1371.84 1730.87,1371.91 1733.08,1371.98 1735.3,1372.05 1737.51,1372.12 1739.72,1372.19 1741.94,1372.25 1744.15,1372.32 1746.36,1372.39 1748.58,1372.45 1750.79,1372.52 1753,1372.59 1755.21,1372.65 1757.43,1372.72 1759.64,1372.78 1761.85,1372.84 1764.07,1372.91 1766.28,1372.97 1768.49,1373.03 1770.71,1373.1 1772.92,1373.16 1775.13,1373.22 1777.35,1373.28 1779.56,1373.34 1781.77,1373.4 1783.99,1373.47 1786.2,1373.53 1788.41,1373.59 1790.62,1373.64 1792.84,1373.7 1795.05,1373.76 1797.26,1373.82 1799.48,1373.88 1801.69,1373.94 1803.9,1374 1806.12,1374.05 1808.33,1374.11 1810.54,1374.17 1812.76,1374.22 1814.97,1374.28 1817.18,1374.33 1819.39,1374.39 1821.61,1374.44 1823.82,1374.5 1826.03,1374.55 1828.25,1374.61 1830.46,1374.66 1832.67,1374.72 1834.89,1374.77 1837.1,1374.82 1839.31,1374.87 1841.53,1374.93 1843.74,1374.98 1845.95,1375.03 1848.17,1375.08 1850.38,1375.13 1852.59,1375.18 1854.8,1375.23 1857.02,1375.28 1859.23,1375.33 1861.44,1375.38 1863.66,1375.43 1865.87,1375.48 1868.08,1375.53 1870.3,1375.58 1872.51,1375.63 1874.72,1375.68 1876.94,1375.72 1879.15,1375.77 1881.36,1375.82 1883.58,1375.87 1885.79,1375.91 1888,1375.96 1890.21,1376.01 1892.43,1376.05 1894.64,1376.1 1896.85,1376.14 1899.07,1376.19 1901.28,1376.23 1903.49,1376.28 1905.71,1376.32 1907.92,1376.37 1910.13,1376.41 1912.35,1376.45 1914.56,1376.5 1916.77,1376.54 1918.99,1376.58 1921.2,1376.63 1923.41,1376.67 1925.62,1376.71 1927.84,1376.75 1930.05,1376.8 1932.26,1376.84 1934.48,1376.88 1936.69,1376.92 1938.9,1376.96 1941.12,1377 1943.33,1377.04 1945.54,1377.08 1947.76,1377.12 1949.97,1377.16 1952.18,1377.2 1954.4,1377.24 1956.61,1377.28 1958.82,1377.32 1961.03,1377.36 1963.25,1377.39 1965.46,1377.43 1967.67,1377.47 1969.89,1377.51 1972.1,1377.55 1974.31,1377.58 1976.53,1377.62 1978.74,1377.66 1980.95,1377.69 1983.17,1377.73 1985.38,1377.77 1987.59,1377.8 1989.8,1377.84 1992.02,1377.87 1994.23,1377.91 1996.44,1377.94 1998.66,1377.98 2000.87,1378.01 2003.08,1378.05 2005.3,1378.08 2007.51,1378.12 2009.72,1378.15 2011.94,1378.19 2014.15,1378.22 2016.36,1378.25 2018.58,1378.29 2020.79,1378.32 2023,1378.35 2025.21,1378.39 2027.43,1378.42 2029.64,1378.45 2031.85,1378.48 2034.07,1378.51 2036.28,1378.55 2038.49,1378.58 2040.71,1378.61 2042.92,1378.64 2045.13,1378.67 2047.35,1378.7 2049.56,1378.73 2051.77,1378.76 2053.99,1378.8 2056.2,1378.83 2058.41,1378.86 2060.62,1378.89 2062.84,1378.92 2065.05,1378.95 2067.26,1378.97 2069.48,1379 2071.69,1379.03 2073.9,1379.06 2076.12,1379.09 2078.33,1379.12 2080.54,1379.15 2082.76,1379.18 2084.97,1379.2 2087.18,1379.23 2089.4,1379.26 2091.61,1379.29 2093.82,1379.32 2096.03,1379.34 2098.25,1379.37 2100.46,1379.4 2102.67,1379.42 2104.89,1379.45 2107.1,1379.48 2109.31,1379.5 2111.53,1379.53 2113.74,1379.56 2115.95,1379.58 2118.17,1379.61 2120.38,1379.63 2122.59,1379.66 2124.8,1379.69 2127.02,1379.71 2129.23,1379.74 2131.44,1379.76 2133.66,1379.79 2135.87,1379.81 2138.08,1379.84 2140.3,1379.86 2142.51,1379.88 2144.72,1379.91 2146.94,1379.93 2149.15,1379.96 2151.36,1379.98 2153.58,1380 2155.79,1380.03 2158,1380.05 2160.21,1380.08 2162.43,1380.1 2164.64,1380.12 2166.85,1380.14 2169.07,1380.17 2171.28,1380.19 2173.49,1380.21 2175.71,1380.23 2177.92,1380.26 2180.13,1380.28 2182.35,1380.3 2184.56,1380.32 2186.77,1380.34 2188.99,1380.37 2191.2,1380.39 2193.41,1380.41 2195.62,1380.43 2197.84,1380.45 2200.05,1380.47 2202.26,1380.49 2204.48,1380.51 2206.69,1380.54 2208.9,1380.56 2211.12,1380.58 2213.33,1380.6 2215.54,1380.62 2217.76,1380.64 2219.97,1380.66 2222.18,1380.68 2224.4,1380.7 2226.61,1380.72 2228.82,1380.74 2231.03,1380.76 2233.25,1380.78 2235.46,1380.79 2237.67,1380.81 2239.89,1380.83 2242.1,1380.85 2244.31,1380.87 2246.53,1380.89 2248.74,1380.91 2250.95,1380.93 2253.17,1380.94 2255.38,1380.96 2257.59,1380.98 2259.81,1381 2262.02,1381.02 2264.23,1381.04 2266.44,1381.05 2268.66,1381.07 2270.87,1381.09 2273.08,1381.11 2275.3,1381.12 2277.51,1381.14 2279.72,1381.16 2281.94,1381.18 2284.15,1381.19 2286.36,1381.21 2288.58,1381.23 2290.79,1381.24 2293,1381.26 2295.21,1381.28 2297.43,1381.29 2299.64,1381.31 2301.85,1381.32 2304.07,1381.34 2306.28,1381.36 2308.49,1381.37 2310.71,1381.39 2312.92,1381.41 2315.13,1381.42 2317.35,1381.44 2319.56,1381.45 2321.77,1381.47 2323.99,1381.48 2326.2,1381.5 2328.41,1381.51 2330.62,1381.53 2332.84,1381.54 2335.05,1381.56 2337.26,1381.57 2339.48,1381.59 2341.69,1381.6 2343.9,1381.62 2346.12,1381.63 2348.33,1381.65 2350.54,1381.66 2352.76,1381.68 "/>
<polyline clip-path="url(#clip942)" style="stroke:#3da44d; stroke-linecap:round; stroke-linejoin:round; stroke-width:4; stroke-opacity:1; fill:none" points="141.853,1384.24 144.066,1379.05 146.279,1373.89 148.492,1368.76 150.705,1363.65 152.919,1358.58 155.132,1353.52 157.345,1348.5 159.558,1343.5 161.771,1338.53 163.984,1333.58 166.197,1328.66 168.41,1323.77 170.623,1318.9 172.837,1314.06 175.05,1309.25 177.263,1304.46 179.476,1299.69 181.689,1294.96 183.902,1290.24 186.115,1285.56 188.328,1280.9 190.541,1276.26 192.755,1271.65 194.968,1267.07 197.181,1262.51 199.394,1257.98 201.607,1253.47 203.82,1248.98 206.033,1244.52 208.246,1240.09 210.46,1235.68 212.673,1231.29 214.886,1226.93 217.099,1222.6 219.312,1218.28 221.525,1214 223.738,1209.73 225.951,1205.49 228.164,1201.28 230.378,1197.09 232.591,1192.92 234.804,1188.78 237.017,1184.66 239.23,1180.56 241.443,1176.49 243.656,1172.44 245.869,1168.41 248.083,1164.4 250.296,1160.42 252.509,1156.47 254.722,1152.53 256.935,1148.62 259.148,1144.73 261.361,1140.86 263.574,1137.02 265.787,1133.2 268.001,1129.4 270.214,1125.62 272.427,1121.87 274.64,1118.13 276.853,1114.42 279.066,1110.73 281.279,1107.07 283.492,1103.42 285.705,1099.8 287.919,1096.19 290.132,1092.61 292.345,1089.05 294.558,1085.51 296.771,1081.99 298.984,1078.5 301.197,1075.02 303.41,1071.57 305.624,1068.13 307.837,1064.72 310.05,1061.32 312.263,1057.95 314.476,1054.6 316.689,1051.27 318.902,1047.95 321.115,1044.66 323.328,1041.39 325.542,1038.14 327.755,1034.9 329.968,1031.69 332.181,1028.5 334.394,1025.32 336.607,1022.17 338.82,1019.03 341.033,1015.91 343.247,1012.82 345.46,1009.74 347.673,1006.68 349.886,1003.64 352.099,1000.61 354.312,997.611 356.525,994.625 358.738,991.658 360.951,988.71 363.165,985.779 365.378,982.867 367.591,979.973 369.804,977.096 372.017,974.238 374.23,971.397 376.443,968.573 378.656,965.768 380.869,962.979 383.083,960.208 385.296,957.455 387.509,954.718 389.722,951.999 391.935,949.296 394.148,946.61 396.361,943.941 398.574,941.289 400.788,938.653 403.001,936.034 405.214,933.432 407.427,930.845 409.64,928.275 411.853,925.721 414.066,923.183 416.279,920.661 418.492,918.155 420.706,915.664 422.919,913.19 425.132,910.731 427.345,908.287 429.558,905.859 431.771,903.446 433.984,901.048 436.197,898.666 438.41,896.299 440.624,893.946 442.837,891.609 445.05,889.286 447.263,886.978 449.476,884.685 451.689,882.406 453.902,880.142 456.115,877.892 458.329,875.656 460.542,873.435 462.755,871.227 464.968,869.034 467.181,866.855 469.394,864.689 471.607,862.538 473.82,860.4 476.033,858.276 478.247,856.165 480.46,854.068 482.673,851.984 484.886,849.913 487.099,847.856 489.312,845.811 491.525,843.78 493.738,841.762 495.952,839.757 498.165,837.764 500.378,835.785 502.591,833.817 504.804,831.863 507.017,829.921 509.23,827.991 511.443,826.074 513.656,824.169 515.87,822.276 518.083,820.396 520.296,818.527 522.509,816.67 524.722,814.826 526.935,812.993 529.148,811.172 531.361,809.362 533.574,807.564 535.788,805.778 538.001,804.003 540.214,802.239 542.427,800.487 544.64,798.746 546.853,797.016 549.066,795.297 551.279,793.59 553.493,791.893 555.706,790.207 557.919,788.532 560.132,786.868 562.345,785.214 564.558,783.571 566.771,781.939 568.984,780.317 571.197,778.705 573.411,777.104 575.624,775.513 577.837,773.932 580.05,772.362 582.263,770.801 584.476,769.251 586.689,767.71 588.902,766.179 591.116,764.659 593.329,763.148 595.542,761.646 597.755,760.155 599.968,758.672 602.181,757.2 604.394,755.737 606.607,754.283 608.82,752.839 611.034,751.403 613.247,749.977 615.46,748.561 617.673,747.153 619.886,745.754 622.099,744.364 624.312,742.984 626.525,741.612 628.738,740.248 630.952,738.894 633.165,737.548 635.378,736.211 637.591,734.882 639.804,733.562 642.017,732.251 644.23,730.947 646.443,729.653 648.657,728.366 650.87,727.088 653.083,725.817 655.296,724.555 657.509,723.301 659.722,722.055 661.935,720.817 664.148,719.587 666.361,718.365 668.575,717.15 670.788,715.943 673.001,714.744 675.214,713.553 677.427,712.369 679.64,711.193 681.853,710.024 684.066,708.863 686.279,707.709 688.493,706.562 690.706,705.423 692.919,704.291 695.132,703.166 697.345,702.049 699.558,700.938 701.771,699.835 703.984,698.738 706.198,697.649 708.411,696.566 710.624,695.49 712.837,694.421 715.05,693.359 717.263,692.304 719.476,691.256 721.689,690.214 723.902,689.178 726.116,688.15 728.329,687.127 730.542,686.112 732.755,685.102 734.968,684.099 737.181,683.103 739.394,682.113 741.607,681.129 743.821,680.151 746.034,679.18 748.247,678.214 750.46,677.255 752.673,676.302 754.886,675.355 757.099,674.414 759.312,673.478 761.525,672.549 763.739,671.626 765.952,670.708 768.165,669.796 770.378,668.89 772.591,667.99 774.804,667.095 777.017,666.206 779.23,665.323 781.443,664.445 783.657,663.573 785.87,662.706 788.083,661.844 790.296,660.988 792.509,660.138 794.722,659.293 796.935,658.453 799.148,657.618 801.362,656.789 803.575,655.964 805.788,655.145 808.001,654.331 810.214,653.523 812.427,652.719 814.64,651.92 816.853,651.126 819.066,650.338 821.28,649.554 823.493,648.775 825.706,648.001 827.919,647.231 830.132,646.467 832.345,645.707 834.558,644.952 836.771,644.202 838.985,643.457 841.198,642.716 843.411,641.98 845.624,641.248 847.837,640.521 850.05,639.798 852.263,639.08 854.476,638.366 856.689,637.657 858.903,636.952 861.116,636.252 863.329,635.556 865.542,634.864 867.755,634.176 869.968,633.493 872.181,632.814 874.394,632.139 876.607,631.469 878.821,630.802 881.034,630.14 883.247,629.481 885.46,628.827 887.673,628.177 889.886,627.531 892.099,626.889 894.312,626.251 896.526,625.616 898.739,624.986 900.952,624.36 903.165,623.737 905.378,623.118 907.591,622.503 909.804,621.892 912.017,621.285 914.23,620.681 916.444,620.082 918.657,619.485 920.87,618.893 923.083,618.304 925.296,617.719 927.509,617.137 929.722,616.559 931.935,615.985 934.148,615.414 936.362,614.846 938.575,614.282 940.788,613.722 943.001,613.165 945.214,612.611 947.427,612.061 949.64,611.514 951.853,610.971 954.067,610.43 956.28,609.893 958.493,609.36 960.706,608.83 962.919,608.302 965.132,607.779 967.345,607.258 969.558,606.74 971.771,606.226 973.985,605.715 976.198,605.207 978.411,604.702 980.624,604.2 982.837,603.701 985.05,603.205 987.263,602.713 989.476,602.223 991.69,601.736 993.903,601.252 996.116,600.771 998.329,600.293 1000.54,599.818 1002.76,599.346 1004.97,598.877 1007.18,598.41 1009.39,597.947 1011.61,597.486 1013.82,597.028 1016.03,596.572 1018.25,596.12 1020.46,595.67 1022.67,595.223 1024.89,594.779 1027.1,594.337 1029.31,593.898 1031.53,593.461 1033.74,593.028 1035.95,592.597 1038.16,592.168 1040.38,591.742 1042.59,591.319 1044.8,590.898 1047.02,590.479 1049.23,590.064 1051.44,589.65 1053.66,589.24 1055.87,588.831 1058.08,588.425 1060.3,588.022 1062.51,587.621 1064.72,587.222 1066.94,586.826 1069.15,586.432 1071.36,586.041 1073.57,585.651 1075.79,585.265 1078,584.88 1080.21,584.498 1082.43,584.118 1084.64,583.74 1086.85,583.365 1089.07,582.992 1091.28,582.621 1093.49,582.252 1095.71,581.886 1097.92,581.521 1100.13,581.159 1102.35,580.799 1104.56,580.441 1106.77,580.086 1108.98,579.732 1111.2,579.381 1113.41,579.031 1115.62,578.684 1117.84,578.339 1120.05,577.996 1122.26,577.655 1124.48,577.316 1126.69,576.979 1128.9,576.643 1131.12,576.31 1133.33,575.979 1135.54,575.65 1137.76,575.323 1139.97,574.998 1142.18,574.675 1144.39,574.354 1146.61,574.034 1148.82,573.717 1151.03,573.401 1153.25,573.087 1155.46,572.776 1157.67,572.466 1159.89,572.157 1162.1,571.851 1164.31,571.547 1166.53,571.244 1168.74,570.943 1170.95,570.644 1173.17,570.347 1175.38,570.051 1177.59,569.757 1179.8,569.465 1182.02,569.175 1184.23,568.886 1186.44,568.599 1188.66,568.314 1190.87,568.03 1193.08,567.748 1195.3,567.468 1197.51,567.19 1199.72,566.913 1201.94,566.637 1204.15,566.364 1206.36,566.092 1208.57,565.821 1210.79,565.552 1213,565.285 1215.21,565.019 1217.43,564.755 1219.64,564.493 1221.85,564.232 1224.07,563.972 1226.28,563.714 1228.49,563.458 1230.71,563.203 1232.92,562.949 1235.13,562.697 1237.35,562.447 1239.56,562.198 1241.77,561.95 1243.98,561.704 1246.2,561.459 1248.41,561.216 1250.62,560.974 1252.84,560.734 1255.05,560.495 1257.26,560.257 1259.48,560.021 1261.69,559.786 1263.9,559.553 1266.12,559.321 1268.33,559.09 1270.54,558.861 1272.76,558.633 1274.97,558.406 1277.18,558.18 1279.39,557.956 1281.61,557.734 1283.82,557.512 1286.03,557.292 1288.25,557.073 1290.46,556.855 1292.67,556.639 1294.89,556.424 1297.1,556.21 1299.31,555.997 1301.53,555.786 1303.74,555.576 1305.95,555.367 1308.17,555.159 1310.38,554.953 1312.59,554.747 1314.8,554.543 1317.02,554.34 1319.23,554.138 1321.44,553.938 1323.66,553.738 1325.87,553.54 1328.08,553.343 1330.3,553.147 1332.51,552.952 1334.72,552.758 1336.94,552.566 1339.15,552.374 1341.36,552.184 1343.57,551.995 1345.79,551.806 1348,551.619 1350.21,551.433 1352.43,551.248 1354.64,551.065 1356.85,550.882 1359.07,550.7 1361.28,550.52 1363.49,550.34 1365.71,550.161 1367.92,549.984 1370.13,549.807 1372.35,549.632 1374.56,549.457 1376.77,549.284 1378.98,549.112 1381.2,548.94 1383.41,548.77 1385.62,548.6 1387.84,548.432 1390.05,548.264 1392.26,548.098 1394.48,547.932 1396.69,547.768 1398.9,547.604 1401.12,547.441 1403.33,547.279 1405.54,547.119 1407.76,546.959 1409.97,546.8 1412.18,546.642 1414.39,546.484 1416.61,546.328 1418.82,546.173 1421.03,546.018 1423.25,545.865 1425.46,545.712 1427.67,545.56 1429.89,545.41 1432.1,545.26 1434.31,545.11 1436.53,544.962 1438.74,544.815 1440.95,544.668 1443.17,544.522 1445.38,544.377 1447.59,544.233 1449.8,544.09 1452.02,543.948 1454.23,543.806 1456.44,543.665 1458.66,543.525 1460.87,543.386 1463.08,543.248 1465.3,543.11 1467.51,542.973 1469.72,542.837 1471.94,542.702 1474.15,542.567 1476.36,542.434 1478.58,542.301 1480.79,542.169 1483,542.037 1485.21,541.907 1487.43,541.777 1489.64,541.647 1491.85,541.519 1494.07,541.391 1496.28,541.264 1498.49,541.138 1500.71,541.013 1502.92,540.888 1505.13,540.764 1507.35,540.64 1509.56,540.518 1511.77,540.396 1513.98,540.274 1516.2,540.154 1518.41,540.034 1520.62,539.915 1522.84,539.796 1525.05,539.678 1527.26,539.561 1529.48,539.445 1531.69,539.329 1533.9,539.214 1536.12,539.099 1538.33,538.985 1540.54,538.872 1542.76,538.759 1544.97,538.647 1547.18,538.536 1549.39,538.425 1551.61,538.315 1553.82,538.206 1556.03,538.097 1558.25,537.989 1560.46,537.881 1562.67,537.774 1564.89,537.668 1567.1,537.562 1569.31,537.457 1571.53,537.352 1573.74,537.248 1575.95,537.145 1578.17,537.042 1580.38,536.94 1582.59,536.838 1584.8,536.737 1587.02,536.637 1589.23,536.537 1591.44,536.438 1593.66,536.339 1595.87,536.241 1598.08,536.143 1600.3,536.046 1602.51,535.949 1604.72,535.853 1606.94,535.758 1609.15,535.663 1611.36,535.569 1613.58,535.475 1615.79,535.381 1618,535.289 1620.21,535.196 1622.43,535.105 1624.64,535.014 1626.85,534.923 1629.07,534.833 1631.28,534.743 1633.49,534.654 1635.71,534.565 1637.92,534.477 1640.13,534.39 1642.35,534.303 1644.56,534.216 1646.77,534.13 1648.98,534.044 1651.2,533.959 1653.41,533.874 1655.62,533.79 1657.84,533.707 1660.05,533.623 1662.26,533.541 1664.48,533.458 1666.69,533.377 1668.9,533.295 1671.12,533.214 1673.33,533.134 1675.54,533.054 1677.76,532.974 1679.97,532.895 1682.18,532.817 1684.39,532.739 1686.61,532.661 1688.82,532.584 1691.03,532.507 1693.25,532.43 1695.46,532.354 1697.67,532.279 1699.89,532.204 1702.1,532.129 1704.31,532.055 1706.53,531.981 1708.74,531.907 1710.95,531.834 1713.17,531.762 1715.38,531.69 1717.59,531.618 1719.8,531.547 1722.02,531.476 1724.23,531.405 1726.44,531.335 1728.66,531.265 1730.87,531.196 1733.08,531.127 1735.3,531.058 1737.51,530.99 1739.72,530.922 1741.94,530.855 1744.15,530.788 1746.36,530.721 1748.58,530.655 1750.79,530.589 1753,530.523 1755.21,530.458 1757.43,530.393 1759.64,530.329 1761.85,530.265 1764.07,530.201 1766.28,530.137 1768.49,530.074 1770.71,530.012 1772.92,529.949 1775.13,529.887 1777.35,529.826 1779.56,529.765 1781.77,529.704 1783.99,529.643 1786.2,529.583 1788.41,529.523 1790.62,529.463 1792.84,529.404 1795.05,529.345 1797.26,529.287 1799.48,529.228 1801.69,529.171 1803.9,529.113 1806.12,529.056 1808.33,528.999 1810.54,528.942 1812.76,528.886 1814.97,528.83 1817.18,528.774 1819.39,528.719 1821.61,528.664 1823.82,528.609 1826.03,528.555 1828.25,528.5 1830.46,528.447 1832.67,528.393 1834.89,528.34 1837.1,528.287 1839.31,528.234 1841.53,528.182 1843.74,528.13 1845.95,528.078 1848.17,528.027 1850.38,527.975 1852.59,527.925 1854.8,527.874 1857.02,527.824 1859.23,527.774 1861.44,527.724 1863.66,527.674 1865.87,527.625 1868.08,527.576 1870.3,527.528 1872.51,527.479 1874.72,527.431 1876.94,527.383 1879.15,527.336 1881.36,527.288 1883.58,527.241 1885.79,527.195 1888,527.148 1890.21,527.102 1892.43,527.056 1894.64,527.01 1896.85,526.965 1899.07,526.92 1901.28,526.875 1903.49,526.83 1905.71,526.785 1907.92,526.741 1910.13,526.697 1912.35,526.654 1914.56,526.61 1916.77,526.567 1918.99,526.524 1921.2,526.481 1923.41,526.439 1925.62,526.397 1927.84,526.355 1930.05,526.313 1932.26,526.271 1934.48,526.23 1936.69,526.189 1938.9,526.148 1941.12,526.108 1943.33,526.067 1945.54,526.027 1947.76,525.987 1949.97,525.947 1952.18,525.908 1954.4,525.869 1956.61,525.83 1958.82,525.791 1961.03,525.752 1963.25,525.714 1965.46,525.676 1967.67,525.638 1969.89,525.6 1972.1,525.563 1974.31,525.525 1976.53,525.488 1978.74,525.451 1980.95,525.415 1983.17,525.378 1985.38,525.342 1987.59,525.306 1989.8,525.27 1992.02,525.234 1994.23,525.199 1996.44,525.163 1998.66,525.128 2000.87,525.094 2003.08,525.059 2005.3,525.024 2007.51,524.99 2009.72,524.956 2011.94,524.922 2014.15,524.888 2016.36,524.855 2018.58,524.822 2020.79,524.788 2023,524.755 2025.21,524.723 2027.43,524.69 2029.64,524.658 2031.85,524.625 2034.07,524.593 2036.28,524.561 2038.49,524.53 2040.71,524.498 2042.92,524.467 2045.13,524.436 2047.35,524.405 2049.56,524.374 2051.77,524.343 2053.99,524.313 2056.2,524.282 2058.41,524.252 2060.62,524.222 2062.84,524.193 2065.05,524.163 2067.26,524.133 2069.48,524.104 2071.69,524.075 2073.9,524.046 2076.12,524.017 2078.33,523.989 2080.54,523.96 2082.76,523.932 2084.97,523.903 2087.18,523.875 2089.4,523.848 2091.61,523.82 2093.82,523.792 2096.03,523.765 2098.25,523.738 2100.46,523.71 2102.67,523.684 2104.89,523.657 2107.1,523.63 2109.31,523.604 2111.53,523.577 2113.74,523.551 2115.95,523.525 2118.17,523.499 2120.38,523.473 2122.59,523.448 2124.8,523.422 2127.02,523.397 2129.23,523.372 2131.44,523.346 2133.66,523.322 2135.87,523.297 2138.08,523.272 2140.3,523.248 2142.51,523.223 2144.72,523.199 2146.94,523.175 2149.15,523.151 2151.36,523.127 2153.58,523.103 2155.79,523.08 2158,523.056 2160.21,523.033 2162.43,523.01 2164.64,522.987 2166.85,522.964 2169.07,522.941 2171.28,522.918 2173.49,522.896 2175.71,522.873 2177.92,522.851 2180.13,522.829 2182.35,522.807 2184.56,522.785 2186.77,522.763 2188.99,522.742 2191.2,522.72 2193.41,522.699 2195.62,522.677 2197.84,522.656 2200.05,522.635 2202.26,522.614 2204.48,522.593 2206.69,522.573 2208.9,522.552 2211.12,522.531 2213.33,522.511 2215.54,522.491 2217.76,522.471 2219.97,522.451 2222.18,522.431 2224.4,522.411 2226.61,522.391 2228.82,522.372 2231.03,522.352 2233.25,522.333 2235.46,522.314 2237.67,522.294 2239.89,522.275 2242.1,522.256 2244.31,522.238 2246.53,522.219 2248.74,522.2 2250.95,522.182 2253.17,522.163 2255.38,522.145 2257.59,522.127 2259.81,522.109 2262.02,522.091 2264.23,522.073 2266.44,522.055 2268.66,522.037 2270.87,522.02 2273.08,522.002 2275.3,521.985 2277.51,521.967 2279.72,521.95 2281.94,521.933 2284.15,521.916 2286.36,521.899 2288.58,521.882 2290.79,521.865 2293,521.849 2295.21,521.832 2297.43,521.816 2299.64,521.799 2301.85,521.783 2304.07,521.767 2306.28,521.751 2308.49,521.735 2310.71,521.719 2312.92,521.703 2315.13,521.687 2317.35,521.672 2319.56,521.656 2321.77,521.641 2323.99,521.625 2326.2,521.61 2328.41,521.595 2330.62,521.58 2332.84,521.564 2335.05,521.549 2337.26,521.535 2339.48,521.52 2341.69,521.505 2343.9,521.49 2346.12,521.476 2348.33,521.461 2350.54,521.447 2352.76,521.433 "/>
<path clip-path="url(#clip940)" d="M1950.28 858.836 L2279.06 858.836 L2279.06 651.476 L1950.28 651.476  Z" fill="#ffffff" fill-rule="evenodd" fill-opacity="1"/>
<polyline clip-path="url(#clip940)" style="stroke:#000000; stroke-linecap:round; stroke-linejoin:round; stroke-width:4; stroke-opacity:1; fill:none" points="1950.28,858.836 2279.06,858.836 2279.06,651.476 1950.28,651.476 1950.28,858.836 "/>
<polyline clip-path="url(#clip940)" style="stroke:#009af9; stroke-linecap:round; stroke-linejoin:round; stroke-width:4; stroke-opacity:1; fill:none" points="1974.85,703.316 2122.24,703.316 "/>
<path clip-path="url(#clip940)" d="M2146.81 710.365 L2146.81 694.671 L2151.07 694.671 L2151.07 710.203 Q2151.07 713.884 2152.5 715.735 Q2153.94 717.564 2156.81 717.564 Q2160.26 717.564 2162.25 715.365 Q2164.26 713.166 2164.26 709.37 L2164.26 694.671 L2168.52 694.671 L2168.52 720.596 L2164.26 720.596 L2164.26 716.615 Q2162.71 718.976 2160.65 720.134 Q2158.61 721.268 2155.91 721.268 Q2151.44 721.268 2149.12 718.49 Q2146.81 715.712 2146.81 710.365 M2157.53 694.046 L2157.53 694.046 Z" fill="#000000" fill-rule="nonzero" fill-opacity="1" /><path clip-path="url(#clip940)" d="M2178.71 716.661 L2186.35 716.661 L2186.35 690.296 L2178.04 691.962 L2178.04 687.703 L2186.3 686.036 L2190.98 686.036 L2190.98 716.661 L2198.61 716.661 L2198.61 720.596 L2178.71 720.596 L2178.71 716.661 Z" fill="#000000" fill-rule="nonzero" fill-opacity="1" /><path clip-path="url(#clip940)" d="M2217.69 684.624 Q2214.59 689.949 2213.08 695.157 Q2211.58 700.365 2211.58 705.712 Q2211.58 711.06 2213.08 716.314 Q2214.61 721.546 2217.69 726.846 L2213.98 726.846 Q2210.51 721.407 2208.78 716.152 Q2207.06 710.897 2207.06 705.712 Q2207.06 700.55 2208.78 695.319 Q2210.49 690.087 2213.98 684.624 L2217.69 684.624 Z" fill="#000000" fill-rule="nonzero" fill-opacity="1" /><path clip-path="url(#clip940)" d="M2230.16 687.31 L2230.16 694.671 L2238.94 694.671 L2238.94 697.981 L2230.16 697.981 L2230.16 712.055 Q2230.16 715.226 2231.02 716.129 Q2231.9 717.032 2234.56 717.032 L2238.94 717.032 L2238.94 720.596 L2234.56 720.596 Q2229.63 720.596 2227.76 718.768 Q2225.88 716.916 2225.88 712.055 L2225.88 697.981 L2222.76 697.981 L2222.76 694.671 L2225.88 694.671 L2225.88 687.31 L2230.16 687.31 Z" fill="#000000" fill-rule="nonzero" fill-opacity="1" /><path clip-path="url(#clip940)" d="M2243.87 684.624 L2247.57 684.624 Q2251.04 690.087 2252.76 695.319 Q2254.49 700.55 2254.49 705.712 Q2254.49 710.897 2252.76 716.152 Q2251.04 721.407 2247.57 726.846 L2243.87 726.846 Q2246.95 721.546 2248.45 716.314 Q2249.98 711.06 2249.98 705.712 Q2249.98 700.365 2248.45 695.157 Q2246.95 689.949 2243.87 684.624 Z" fill="#000000" fill-rule="nonzero" fill-opacity="1" /><polyline clip-path="url(#clip940)" style="stroke:#e26f46; stroke-linecap:round; stroke-linejoin:round; stroke-width:4; stroke-opacity:1; fill:none" points="1974.85,755.156 2122.24,755.156 "/>
<path clip-path="url(#clip940)" d="M2146.81 762.205 L2146.81 746.511 L2151.07 746.511 L2151.07 762.043 Q2151.07 765.724 2152.5 767.575 Q2153.94 769.404 2156.81 769.404 Q2160.26 769.404 2162.25 767.205 Q2164.26 765.006 2164.26 761.21 L2164.26 746.511 L2168.52 746.511 L2168.52 772.436 L2164.26 772.436 L2164.26 768.455 Q2162.71 770.816 2160.65 771.974 Q2158.61 773.108 2155.91 773.108 Q2151.44 773.108 2149.12 770.33 Q2146.81 767.552 2146.81 762.205 M2157.53 745.886 L2157.53 745.886 Z" fill="#000000" fill-rule="nonzero" fill-opacity="1" /><path clip-path="url(#clip940)" d="M2181.92 768.501 L2198.24 768.501 L2198.24 772.436 L2176.3 772.436 L2176.3 768.501 Q2178.96 765.747 2183.54 761.117 Q2188.15 756.464 2189.33 755.122 Q2191.58 752.599 2192.46 750.863 Q2193.36 749.103 2193.36 747.413 Q2193.36 744.659 2191.42 742.923 Q2189.49 741.187 2186.39 741.187 Q2184.19 741.187 2181.74 741.951 Q2179.31 742.714 2176.53 744.265 L2176.53 739.543 Q2179.36 738.409 2181.81 737.83 Q2184.26 737.251 2186.3 737.251 Q2191.67 737.251 2194.86 739.937 Q2198.06 742.622 2198.06 747.113 Q2198.06 749.242 2197.25 751.163 Q2196.46 753.062 2194.35 755.654 Q2193.78 756.325 2190.67 759.543 Q2187.57 762.737 2181.92 768.501 Z" fill="#000000" fill-rule="nonzero" fill-opacity="1" /><path clip-path="url(#clip940)" d="M2217.69 736.464 Q2214.59 741.789 2213.08 746.997 Q2211.58 752.205 2211.58 757.552 Q2211.58 762.9 2213.08 768.154 Q2214.61 773.386 2217.69 778.686 L2213.98 778.686 Q2210.51 773.247 2208.78 767.992 Q2207.06 762.737 2207.06 757.552 Q2207.06 752.39 2208.78 747.159 Q2210.49 741.927 2213.98 736.464 L2217.69 736.464 Z" fill="#000000" fill-rule="nonzero" fill-opacity="1" /><path clip-path="url(#clip940)" d="M2230.16 739.15 L2230.16 746.511 L2238.94 746.511 L2238.94 749.821 L2230.16 749.821 L2230.16 763.895 Q2230.16 767.066 2231.02 767.969 Q2231.9 768.872 2234.56 768.872 L2238.94 768.872 L2238.94 772.436 L2234.56 772.436 Q2229.63 772.436 2227.76 770.608 Q2225.88 768.756 2225.88 763.895 L2225.88 749.821 L2222.76 749.821 L2222.76 746.511 L2225.88 746.511 L2225.88 739.15 L2230.16 739.15 Z" fill="#000000" fill-rule="nonzero" fill-opacity="1" /><path clip-path="url(#clip940)" d="M2243.87 736.464 L2247.57 736.464 Q2251.04 741.927 2252.76 747.159 Q2254.49 752.39 2254.49 757.552 Q2254.49 762.737 2252.76 767.992 Q2251.04 773.247 2247.57 778.686 L2243.87 778.686 Q2246.95 773.386 2248.45 768.154 Q2249.98 762.9 2249.98 757.552 Q2249.98 752.205 2248.45 746.997 Q2246.95 741.789 2243.87 736.464 Z" fill="#000000" fill-rule="nonzero" fill-opacity="1" /><polyline clip-path="url(#clip940)" style="stroke:#3da44d; stroke-linecap:round; stroke-linejoin:round; stroke-width:4; stroke-opacity:1; fill:none" points="1974.85,806.996 2122.24,806.996 "/>
<path clip-path="url(#clip940)" d="M2146.81 814.045 L2146.81 798.351 L2151.07 798.351 L2151.07 813.883 Q2151.07 817.564 2152.5 819.415 Q2153.94 821.244 2156.81 821.244 Q2160.26 821.244 2162.25 819.045 Q2164.26 816.846 2164.26 813.05 L2164.26 798.351 L2168.52 798.351 L2168.52 824.276 L2164.26 824.276 L2164.26 820.295 Q2162.71 822.656 2160.65 823.814 Q2158.61 824.948 2155.91 824.948 Q2151.44 824.948 2149.12 822.17 Q2146.81 819.392 2146.81 814.045 M2157.53 797.726 L2157.53 797.726 Z" fill="#000000" fill-rule="nonzero" fill-opacity="1" /><path clip-path="url(#clip940)" d="M2192.06 805.642 Q2195.42 806.36 2197.29 808.628 Q2199.19 810.897 2199.19 814.23 Q2199.19 819.346 2195.67 822.147 Q2192.16 824.948 2185.67 824.948 Q2183.5 824.948 2181.18 824.508 Q2178.89 824.091 2176.44 823.235 L2176.44 818.721 Q2178.38 819.855 2180.7 820.434 Q2183.01 821.013 2185.54 821.013 Q2189.93 821.013 2192.23 819.277 Q2194.54 817.54 2194.54 814.23 Q2194.54 811.175 2192.39 809.462 Q2190.26 807.726 2186.44 807.726 L2182.41 807.726 L2182.41 803.883 L2186.62 803.883 Q2190.07 803.883 2191.9 802.517 Q2193.73 801.128 2193.73 798.536 Q2193.73 795.874 2191.83 794.462 Q2189.96 793.027 2186.44 793.027 Q2184.52 793.027 2182.32 793.443 Q2180.12 793.86 2177.48 794.74 L2177.48 790.573 Q2180.14 789.832 2182.46 789.462 Q2184.79 789.091 2186.86 789.091 Q2192.18 789.091 2195.28 791.522 Q2198.38 793.929 2198.38 798.05 Q2198.38 800.92 2196.74 802.911 Q2195.1 804.878 2192.06 805.642 Z" fill="#000000" fill-rule="nonzero" fill-opacity="1" /><path clip-path="url(#clip940)" d="M2217.69 788.304 Q2214.59 793.629 2213.08 798.837 Q2211.58 804.045 2211.58 809.392 Q2211.58 814.74 2213.08 819.994 Q2214.61 825.226 2217.69 830.526 L2213.98 830.526 Q2210.51 825.087 2208.78 819.832 Q2207.06 814.577 2207.06 809.392 Q2207.06 804.23 2208.78 798.999 Q2210.49 793.767 2213.98 788.304 L2217.69 788.304 Z" fill="#000000" fill-rule="nonzero" fill-opacity="1" /><path clip-path="url(#clip940)" d="M2230.16 790.99 L2230.16 798.351 L2238.94 798.351 L2238.94 801.661 L2230.16 801.661 L2230.16 815.735 Q2230.16 818.906 2231.02 819.809 Q2231.9 820.712 2234.56 820.712 L2238.94 820.712 L2238.94 824.276 L2234.56 824.276 Q2229.63 824.276 2227.76 822.448 Q2225.88 820.596 2225.88 815.735 L2225.88 801.661 L2222.76 801.661 L2222.76 798.351 L2225.88 798.351 L2225.88 790.99 L2230.16 790.99 Z" fill="#000000" fill-rule="nonzero" fill-opacity="1" /><path clip-path="url(#clip940)" d="M2243.87 788.304 L2247.57 788.304 Q2251.04 793.767 2252.76 798.999 Q2254.49 804.23 2254.49 809.392 Q2254.49 814.577 2252.76 819.832 Q2251.04 825.087 2247.57 830.526 L2243.87 830.526 Q2246.95 825.226 2248.45 819.994 Q2249.98 814.74 2249.98 809.392 Q2249.98 804.045 2248.45 798.837 Q2246.95 793.629 2243.87 788.304 Z" fill="#000000" fill-rule="nonzero" fill-opacity="1" /></svg>
